G75*
%MOIN*%
%OFA0B0*%
%FSLAX25Y25*%
%IPPOS*%
%LPD*%
%AMOC8*
5,1,8,0,0,1.08239X$1,22.5*
%
%ADD10R,0.05906X0.05906*%
%ADD11C,0.05906*%
%ADD12R,0.03150X0.03937*%
%ADD13R,0.03937X0.03150*%
%ADD14R,0.02756X0.02756*%
%ADD15R,0.03150X0.01181*%
%ADD16OC8,0.05906*%
%ADD17C,0.02362*%
%ADD18C,0.01181*%
%ADD19C,0.00787*%
%ADD20C,0.03937*%
D10*
X0086521Y0048244D03*
X0137702Y0048244D03*
X0172151Y0078756D03*
X0141639Y0138795D03*
X0081599Y0108283D03*
D11*
X0081599Y0098441D03*
X0081599Y0088598D03*
X0081599Y0078756D03*
X0096363Y0048244D03*
X0106206Y0048244D03*
X0116048Y0048244D03*
X0147544Y0048244D03*
X0157387Y0048244D03*
X0167229Y0048244D03*
X0172151Y0088598D03*
X0172151Y0098441D03*
X0172151Y0108283D03*
X0131796Y0138795D03*
X0121954Y0138795D03*
X0112111Y0138795D03*
D12*
X0073332Y0097457D03*
X0066245Y0097457D03*
X0066245Y0089583D03*
X0073332Y0089583D03*
X0180418Y0089583D03*
X0187505Y0089583D03*
X0187505Y0097457D03*
X0180418Y0097457D03*
D13*
X0156403Y0039976D03*
X0156403Y0032890D03*
X0148529Y0032890D03*
X0148529Y0039976D03*
X0105221Y0039976D03*
X0105221Y0032890D03*
X0097347Y0032890D03*
X0097347Y0039976D03*
D14*
X0100891Y0105331D03*
X0105615Y0105331D03*
X0105615Y0111236D03*
X0100891Y0111236D03*
X0100891Y0117142D03*
X0105615Y0117142D03*
D15*
X0103253Y0117142D03*
X0103253Y0111236D03*
X0103253Y0105331D03*
D16*
X0069883Y0125921D03*
X0069883Y0135921D03*
X0069883Y0059150D03*
X0069883Y0049150D03*
X0183867Y0051118D03*
X0183867Y0061118D03*
X0183867Y0125921D03*
X0183867Y0135921D03*
D17*
X0142623Y0097457D03*
X0142623Y0093520D03*
X0138686Y0085646D03*
X0136718Y0081709D03*
X0126875Y0089583D03*
X0122938Y0093520D03*
X0126875Y0097457D03*
X0130812Y0093520D03*
X0130812Y0109268D03*
X0134749Y0109268D03*
X0124907Y0125016D03*
X0111127Y0117142D03*
X0111127Y0111236D03*
X0111127Y0105331D03*
X0111127Y0093520D03*
X0111127Y0089583D03*
X0105221Y0081709D03*
X0109158Y0077772D03*
D18*
X0105221Y0077772D01*
X0103253Y0075803D01*
X0103253Y0051197D01*
X0106206Y0048244D01*
X0105221Y0047181D01*
X0105221Y0039976D01*
X0097347Y0039976D02*
X0097347Y0047181D01*
X0096363Y0048244D01*
X0099316Y0051197D01*
X0099316Y0075803D01*
X0105221Y0081709D01*
X0111127Y0089583D02*
X0109158Y0091551D01*
X0084552Y0091551D01*
X0081599Y0088598D01*
X0080536Y0089583D01*
X0073332Y0089583D01*
X0073332Y0097457D02*
X0080536Y0097457D01*
X0081599Y0098441D01*
X0084552Y0095488D01*
X0109158Y0095488D01*
X0111127Y0093520D01*
X0111127Y0105331D02*
X0105615Y0105331D01*
X0105615Y0111236D02*
X0111127Y0111236D01*
X0111127Y0117142D02*
X0105615Y0117142D01*
X0121954Y0138795D02*
X0127859Y0144701D01*
X0134749Y0144701D01*
X0136718Y0142732D01*
X0136718Y0126984D01*
X0134749Y0125016D01*
X0134749Y0109268D01*
X0130812Y0109268D02*
X0130812Y0128953D01*
X0131796Y0129937D01*
X0131796Y0138795D01*
X0142623Y0097457D02*
X0144592Y0095488D01*
X0169198Y0095488D01*
X0172151Y0098441D01*
X0173214Y0097457D01*
X0180418Y0097457D01*
X0180418Y0089583D02*
X0173214Y0089583D01*
X0172151Y0088598D01*
X0169198Y0091551D01*
X0144592Y0091551D01*
X0142623Y0093520D01*
X0142623Y0085646D02*
X0138686Y0085646D01*
X0142623Y0085646D02*
X0154434Y0073835D01*
X0154434Y0051197D01*
X0157387Y0048244D01*
X0156403Y0047181D01*
X0156403Y0039976D01*
X0148529Y0039976D02*
X0148529Y0047181D01*
X0147544Y0048244D01*
X0150497Y0051197D01*
X0150497Y0071866D01*
X0140655Y0081709D01*
X0136718Y0081709D01*
D19*
X0044198Y0036827D02*
X0044198Y0150213D01*
X0059910Y0150213D01*
X0063587Y0151407D01*
X0063587Y0151407D01*
X0066715Y0153680D01*
X0068987Y0156807D01*
X0070182Y0160484D01*
X0070182Y0176197D01*
X0183568Y0176197D01*
X0183568Y0160484D01*
X0184763Y0156807D01*
X0187035Y0153680D01*
X0187035Y0153680D01*
X0190163Y0151407D01*
X0193840Y0150213D01*
X0209552Y0150213D01*
X0209552Y0036827D01*
X0195936Y0036827D01*
X0193840Y0036827D01*
X0190163Y0035632D01*
X0190163Y0035632D01*
X0187035Y0033360D01*
X0187035Y0033360D01*
X0187035Y0033360D01*
X0184763Y0030232D01*
X0183568Y0026555D01*
X0183568Y0010843D01*
X0070182Y0010843D01*
X0070182Y0026555D01*
X0068987Y0030232D01*
X0066715Y0033360D01*
X0063587Y0035632D01*
X0059910Y0036827D01*
X0044198Y0036827D01*
X0044198Y0037167D02*
X0083371Y0037167D01*
X0083371Y0037953D02*
X0044198Y0037953D01*
X0044198Y0038739D02*
X0083371Y0038739D01*
X0083371Y0039525D02*
X0044198Y0039525D01*
X0044198Y0040311D02*
X0083371Y0040311D01*
X0083371Y0041096D02*
X0044198Y0041096D01*
X0044198Y0041882D02*
X0083371Y0041882D01*
X0083371Y0042668D02*
X0044198Y0042668D01*
X0044198Y0043454D02*
X0083371Y0043454D01*
X0083371Y0044110D02*
X0083371Y0034822D01*
X0083851Y0033665D01*
X0087296Y0030220D01*
X0088453Y0029740D01*
X0105848Y0029740D01*
X0106798Y0030134D01*
X0107679Y0030134D01*
X0108371Y0030826D01*
X0108371Y0034954D01*
X0107679Y0035646D01*
X0106798Y0035646D01*
X0105848Y0036039D01*
X0090384Y0036039D01*
X0089670Y0036753D01*
X0089670Y0044110D01*
X0089963Y0044110D01*
X0090655Y0044802D01*
X0090655Y0051686D01*
X0089963Y0052378D01*
X0083079Y0052378D01*
X0082387Y0051686D01*
X0082387Y0044802D01*
X0083079Y0044110D01*
X0083371Y0044110D01*
X0082949Y0044240D02*
X0044198Y0044240D01*
X0044198Y0045026D02*
X0068160Y0045026D01*
X0068171Y0045016D02*
X0071595Y0045016D01*
X0074017Y0047437D01*
X0074017Y0050862D01*
X0071595Y0053283D01*
X0068171Y0053283D01*
X0065749Y0050862D01*
X0065749Y0047437D01*
X0068171Y0045016D01*
X0067374Y0045812D02*
X0044198Y0045812D01*
X0044198Y0046598D02*
X0066589Y0046598D01*
X0065803Y0047384D02*
X0044198Y0047384D01*
X0044198Y0048170D02*
X0065749Y0048170D01*
X0065749Y0048956D02*
X0044198Y0048956D01*
X0044198Y0049741D02*
X0065749Y0049741D01*
X0065749Y0050527D02*
X0044198Y0050527D01*
X0044198Y0051313D02*
X0066200Y0051313D01*
X0066986Y0052099D02*
X0044198Y0052099D01*
X0044198Y0052885D02*
X0067772Y0052885D01*
X0068171Y0055016D02*
X0071595Y0055016D01*
X0074017Y0057437D01*
X0074017Y0060862D01*
X0071595Y0063283D01*
X0068171Y0063283D01*
X0065749Y0060862D01*
X0065749Y0057437D01*
X0068171Y0055016D01*
X0067943Y0055243D02*
X0044198Y0055243D01*
X0044198Y0056029D02*
X0067158Y0056029D01*
X0066372Y0056815D02*
X0044198Y0056815D01*
X0044198Y0057601D02*
X0065749Y0057601D01*
X0065749Y0058387D02*
X0044198Y0058387D01*
X0044198Y0059172D02*
X0065749Y0059172D01*
X0065749Y0059958D02*
X0044198Y0059958D01*
X0044198Y0060744D02*
X0065749Y0060744D01*
X0066417Y0061530D02*
X0044198Y0061530D01*
X0044198Y0062316D02*
X0067203Y0062316D01*
X0067989Y0063102D02*
X0044198Y0063102D01*
X0044198Y0063888D02*
X0097544Y0063888D01*
X0097544Y0064674D02*
X0044198Y0064674D01*
X0044198Y0065460D02*
X0097544Y0065460D01*
X0097544Y0066246D02*
X0044198Y0066246D01*
X0044198Y0067032D02*
X0097544Y0067032D01*
X0097544Y0067817D02*
X0044198Y0067817D01*
X0044198Y0068603D02*
X0097544Y0068603D01*
X0097544Y0069389D02*
X0044198Y0069389D01*
X0044198Y0070175D02*
X0097544Y0070175D01*
X0097544Y0070961D02*
X0044198Y0070961D01*
X0044198Y0071747D02*
X0097544Y0071747D01*
X0097544Y0072533D02*
X0044198Y0072533D01*
X0044198Y0073319D02*
X0097544Y0073319D01*
X0097544Y0074105D02*
X0044198Y0074105D01*
X0044198Y0074891D02*
X0079611Y0074891D01*
X0079321Y0075038D02*
X0079931Y0074728D01*
X0080582Y0074516D01*
X0081206Y0074418D01*
X0081206Y0078362D01*
X0081993Y0078362D01*
X0081993Y0074418D01*
X0082617Y0074516D01*
X0083268Y0074728D01*
X0083877Y0075038D01*
X0084431Y0075441D01*
X0084915Y0075924D01*
X0085317Y0076478D01*
X0085627Y0077087D01*
X0085839Y0077738D01*
X0085938Y0078362D01*
X0081993Y0078362D01*
X0081993Y0079150D01*
X0081206Y0079150D01*
X0081206Y0083094D01*
X0080582Y0082995D01*
X0079931Y0082784D01*
X0079321Y0082473D01*
X0078768Y0082071D01*
X0078284Y0081587D01*
X0077882Y0081034D01*
X0077571Y0080424D01*
X0077360Y0079774D01*
X0077261Y0079150D01*
X0081206Y0079150D01*
X0081206Y0078362D01*
X0077261Y0078362D01*
X0077360Y0077738D01*
X0077571Y0077087D01*
X0077882Y0076478D01*
X0078284Y0075924D01*
X0078768Y0075441D01*
X0079321Y0075038D01*
X0078532Y0075677D02*
X0044198Y0075677D01*
X0044198Y0076463D02*
X0077893Y0076463D01*
X0077519Y0077248D02*
X0044198Y0077248D01*
X0044198Y0078034D02*
X0077313Y0078034D01*
X0077333Y0079606D02*
X0044198Y0079606D01*
X0044198Y0078820D02*
X0081206Y0078820D01*
X0081206Y0078034D02*
X0081993Y0078034D01*
X0081993Y0077248D02*
X0081206Y0077248D01*
X0081206Y0076463D02*
X0081993Y0076463D01*
X0081993Y0075677D02*
X0081206Y0075677D01*
X0081206Y0074891D02*
X0081993Y0074891D01*
X0083587Y0074891D02*
X0097544Y0074891D01*
X0097544Y0075677D02*
X0084667Y0075677D01*
X0085306Y0076463D02*
X0097544Y0076463D01*
X0097544Y0076537D02*
X0097544Y0052229D01*
X0097185Y0052378D01*
X0095541Y0052378D01*
X0094022Y0051749D01*
X0092859Y0050586D01*
X0092229Y0049066D01*
X0092229Y0047422D01*
X0092859Y0045902D01*
X0094022Y0044740D01*
X0095541Y0044110D01*
X0095576Y0044110D01*
X0095576Y0042732D01*
X0094890Y0042732D01*
X0094198Y0042040D01*
X0094198Y0037912D01*
X0094890Y0037220D01*
X0099805Y0037220D01*
X0100497Y0037912D01*
X0100497Y0042040D01*
X0099805Y0042732D01*
X0099119Y0042732D01*
X0099119Y0045154D01*
X0099868Y0045902D01*
X0100497Y0047422D01*
X0100497Y0049066D01*
X0100261Y0049636D01*
X0101088Y0050463D01*
X0101088Y0075069D01*
X0101481Y0075463D01*
X0101481Y0050463D01*
X0102308Y0049636D01*
X0102072Y0049066D01*
X0102072Y0047422D01*
X0102701Y0045902D01*
X0103450Y0045154D01*
X0103450Y0042732D01*
X0102764Y0042732D01*
X0102072Y0042040D01*
X0102072Y0037912D01*
X0102764Y0037220D01*
X0107679Y0037220D01*
X0108371Y0037912D01*
X0108371Y0042040D01*
X0107679Y0042732D01*
X0106993Y0042732D01*
X0106993Y0044110D01*
X0107028Y0044110D01*
X0108547Y0044740D01*
X0109710Y0045902D01*
X0110340Y0047422D01*
X0110340Y0049066D01*
X0109710Y0050586D01*
X0108547Y0051749D01*
X0107028Y0052378D01*
X0105383Y0052378D01*
X0105025Y0052229D01*
X0105025Y0075069D01*
X0105955Y0076000D01*
X0107589Y0076000D01*
X0108180Y0075409D01*
X0110137Y0075409D01*
X0111521Y0076793D01*
X0111521Y0078750D01*
X0110137Y0080134D01*
X0108180Y0080134D01*
X0107589Y0079543D01*
X0106397Y0079543D01*
X0107584Y0080730D01*
X0107584Y0082687D01*
X0106200Y0084071D01*
X0104243Y0084071D01*
X0102859Y0082687D01*
X0102859Y0081852D01*
X0097544Y0076537D01*
X0098256Y0077248D02*
X0085680Y0077248D01*
X0085886Y0078034D02*
X0099042Y0078034D01*
X0099828Y0078820D02*
X0081993Y0078820D01*
X0081993Y0079150D02*
X0085938Y0079150D01*
X0085839Y0079774D01*
X0085627Y0080424D01*
X0085317Y0081034D01*
X0084915Y0081587D01*
X0084431Y0082071D01*
X0083877Y0082473D01*
X0083268Y0082784D01*
X0082617Y0082995D01*
X0081993Y0083094D01*
X0081993Y0079150D01*
X0081993Y0079606D02*
X0081206Y0079606D01*
X0081206Y0080392D02*
X0081993Y0080392D01*
X0081993Y0081178D02*
X0081206Y0081178D01*
X0081206Y0081964D02*
X0081993Y0081964D01*
X0081993Y0082750D02*
X0081206Y0082750D01*
X0079864Y0082750D02*
X0044198Y0082750D01*
X0044198Y0083536D02*
X0103708Y0083536D01*
X0102922Y0082750D02*
X0083335Y0082750D01*
X0084538Y0081964D02*
X0102859Y0081964D01*
X0102185Y0081178D02*
X0085212Y0081178D01*
X0085638Y0080392D02*
X0101399Y0080392D01*
X0100614Y0079606D02*
X0085865Y0079606D01*
X0083941Y0085094D02*
X0085104Y0086257D01*
X0085733Y0087776D01*
X0085733Y0089421D01*
X0085585Y0089780D01*
X0108425Y0089780D01*
X0108765Y0089439D01*
X0108765Y0088604D01*
X0110149Y0087220D01*
X0112105Y0087220D01*
X0113489Y0088604D01*
X0113489Y0090561D01*
X0112499Y0091551D01*
X0113489Y0092541D01*
X0113489Y0094498D01*
X0112105Y0095882D01*
X0111270Y0095882D01*
X0110930Y0096222D01*
X0109892Y0097260D01*
X0085585Y0097260D01*
X0085733Y0097619D01*
X0085733Y0099263D01*
X0085104Y0100783D01*
X0083941Y0101945D01*
X0082422Y0102575D01*
X0080777Y0102575D01*
X0079258Y0101945D01*
X0078095Y0100783D01*
X0077466Y0099263D01*
X0077466Y0099228D01*
X0076088Y0099228D01*
X0076088Y0099914D01*
X0075396Y0100606D01*
X0071268Y0100606D01*
X0070576Y0099914D01*
X0070576Y0094999D01*
X0071268Y0094307D01*
X0075396Y0094307D01*
X0076088Y0094999D01*
X0076088Y0095685D01*
X0078509Y0095685D01*
X0079258Y0094936D01*
X0080777Y0094307D01*
X0082422Y0094307D01*
X0082992Y0094543D01*
X0083818Y0093717D01*
X0108425Y0093717D01*
X0108765Y0093376D01*
X0108765Y0093323D01*
X0083818Y0093323D01*
X0082992Y0092496D01*
X0082422Y0092732D01*
X0080777Y0092732D01*
X0079258Y0092103D01*
X0078509Y0091354D01*
X0076088Y0091354D01*
X0076088Y0092040D01*
X0075396Y0092732D01*
X0071268Y0092732D01*
X0070576Y0092040D01*
X0070576Y0087125D01*
X0071268Y0086433D01*
X0075396Y0086433D01*
X0076088Y0087125D01*
X0076088Y0087811D01*
X0077466Y0087811D01*
X0077466Y0087776D01*
X0078095Y0086257D01*
X0079258Y0085094D01*
X0080777Y0084465D01*
X0082422Y0084465D01*
X0083941Y0085094D01*
X0083955Y0085108D02*
X0136324Y0085108D01*
X0136324Y0084667D02*
X0136920Y0084071D01*
X0135739Y0084071D01*
X0134355Y0082687D01*
X0134355Y0080730D01*
X0135739Y0079346D01*
X0137696Y0079346D01*
X0138287Y0079937D01*
X0139921Y0079937D01*
X0148725Y0071132D01*
X0148725Y0052229D01*
X0148367Y0052378D01*
X0146722Y0052378D01*
X0145203Y0051749D01*
X0144040Y0050586D01*
X0143410Y0049066D01*
X0143410Y0047422D01*
X0144040Y0045902D01*
X0145203Y0044740D01*
X0146722Y0044110D01*
X0146757Y0044110D01*
X0146757Y0042732D01*
X0146071Y0042732D01*
X0145379Y0042040D01*
X0145379Y0037912D01*
X0146071Y0037220D01*
X0150986Y0037220D01*
X0151678Y0037912D01*
X0151678Y0042040D01*
X0150986Y0042732D01*
X0150300Y0042732D01*
X0150300Y0045154D01*
X0151049Y0045902D01*
X0151678Y0047422D01*
X0151678Y0049066D01*
X0151442Y0049636D01*
X0152269Y0050463D01*
X0152269Y0072600D01*
X0141388Y0083480D01*
X0139861Y0083480D01*
X0140255Y0083874D01*
X0141889Y0083874D01*
X0152662Y0073101D01*
X0152662Y0050463D01*
X0153489Y0049636D01*
X0153253Y0049066D01*
X0153253Y0047422D01*
X0153882Y0045902D01*
X0154631Y0045154D01*
X0154631Y0042732D01*
X0153945Y0042732D01*
X0153253Y0042040D01*
X0153253Y0037912D01*
X0153945Y0037220D01*
X0158860Y0037220D01*
X0159552Y0037912D01*
X0159552Y0042040D01*
X0158860Y0042732D01*
X0158174Y0042732D01*
X0158174Y0044110D01*
X0158209Y0044110D01*
X0159728Y0044740D01*
X0160891Y0045902D01*
X0161521Y0047422D01*
X0161521Y0049066D01*
X0160891Y0050586D01*
X0159728Y0051749D01*
X0158209Y0052378D01*
X0156565Y0052378D01*
X0156206Y0052229D01*
X0156206Y0074568D01*
X0143357Y0087417D01*
X0140255Y0087417D01*
X0139665Y0088008D01*
X0137708Y0088008D01*
X0136324Y0086624D01*
X0136324Y0084667D01*
X0136669Y0084322D02*
X0044198Y0084322D01*
X0044198Y0085108D02*
X0079244Y0085108D01*
X0078458Y0085893D02*
X0044198Y0085893D01*
X0044198Y0086679D02*
X0063935Y0086679D01*
X0064181Y0086433D02*
X0068309Y0086433D01*
X0069001Y0087125D01*
X0069001Y0088006D01*
X0069395Y0088956D01*
X0069395Y0104420D01*
X0070109Y0105134D01*
X0077466Y0105134D01*
X0077466Y0104841D01*
X0078157Y0104150D01*
X0085041Y0104150D01*
X0085733Y0104841D01*
X0085733Y0111725D01*
X0085041Y0112417D01*
X0078157Y0112417D01*
X0077466Y0111725D01*
X0077466Y0111433D01*
X0068178Y0111433D01*
X0067020Y0110954D01*
X0066134Y0110068D01*
X0063575Y0107509D01*
X0063095Y0106351D01*
X0063095Y0096830D01*
X0063095Y0088956D01*
X0063489Y0088006D01*
X0063489Y0087125D01*
X0064181Y0086433D01*
X0063489Y0087465D02*
X0044198Y0087465D01*
X0044198Y0088251D02*
X0063387Y0088251D01*
X0063095Y0089037D02*
X0044198Y0089037D01*
X0044198Y0089823D02*
X0063095Y0089823D01*
X0063095Y0090609D02*
X0044198Y0090609D01*
X0044198Y0091395D02*
X0063095Y0091395D01*
X0063095Y0092181D02*
X0044198Y0092181D01*
X0044198Y0092967D02*
X0063095Y0092967D01*
X0063095Y0093753D02*
X0044198Y0093753D01*
X0044198Y0094539D02*
X0063095Y0094539D01*
X0063095Y0095324D02*
X0044198Y0095324D01*
X0044198Y0096110D02*
X0063095Y0096110D01*
X0063095Y0096896D02*
X0044198Y0096896D01*
X0044198Y0097682D02*
X0063095Y0097682D01*
X0063095Y0098468D02*
X0044198Y0098468D01*
X0044198Y0099254D02*
X0063095Y0099254D01*
X0063095Y0100040D02*
X0044198Y0100040D01*
X0044198Y0100826D02*
X0063095Y0100826D01*
X0063095Y0101612D02*
X0044198Y0101612D01*
X0044198Y0102398D02*
X0063095Y0102398D01*
X0063095Y0103184D02*
X0044198Y0103184D01*
X0044198Y0103969D02*
X0063095Y0103969D01*
X0063095Y0104755D02*
X0044198Y0104755D01*
X0044198Y0105541D02*
X0063095Y0105541D01*
X0063095Y0106327D02*
X0044198Y0106327D01*
X0044198Y0107113D02*
X0063411Y0107113D01*
X0063966Y0107899D02*
X0044198Y0107899D01*
X0044198Y0108685D02*
X0064751Y0108685D01*
X0065537Y0109471D02*
X0044198Y0109471D01*
X0044198Y0110257D02*
X0066323Y0110257D01*
X0067235Y0111043D02*
X0044198Y0111043D01*
X0044198Y0111829D02*
X0077569Y0111829D01*
X0077552Y0104755D02*
X0069730Y0104755D01*
X0069395Y0103969D02*
X0098119Y0103969D01*
X0098119Y0103769D02*
X0098214Y0103415D01*
X0098398Y0103097D01*
X0098657Y0102838D01*
X0098975Y0102654D01*
X0099329Y0102559D01*
X0100595Y0102559D01*
X0100595Y0103852D01*
X0100822Y0103625D01*
X0101140Y0103441D01*
X0101186Y0103429D01*
X0101186Y0102559D01*
X0102452Y0102559D01*
X0102807Y0102654D01*
X0103124Y0102838D01*
X0103384Y0103097D01*
X0103398Y0103122D01*
X0103748Y0102772D01*
X0107482Y0102772D01*
X0108174Y0103464D01*
X0108174Y0103559D01*
X0109558Y0103559D01*
X0110149Y0102969D01*
X0112105Y0102969D01*
X0113489Y0104352D01*
X0113489Y0106309D01*
X0112105Y0107693D01*
X0110149Y0107693D01*
X0109558Y0107102D01*
X0108174Y0107102D01*
X0108174Y0107198D01*
X0107482Y0107890D01*
X0103748Y0107890D01*
X0103398Y0107540D01*
X0103384Y0107564D01*
X0103124Y0107824D01*
X0102807Y0108007D01*
X0102452Y0108102D01*
X0101186Y0108102D01*
X0101186Y0107232D01*
X0101140Y0107220D01*
X0100822Y0107036D01*
X0100595Y0106810D01*
X0100595Y0108102D01*
X0099329Y0108102D01*
X0098975Y0108007D01*
X0098657Y0107824D01*
X0098398Y0107564D01*
X0098214Y0107247D01*
X0098119Y0106892D01*
X0098119Y0105626D01*
X0100284Y0105626D01*
X0100284Y0105331D01*
X0100595Y0105331D01*
X0100595Y0105331D01*
X0100284Y0105331D01*
X0100284Y0105035D01*
X0098119Y0105035D01*
X0098119Y0103769D01*
X0098348Y0103184D02*
X0069395Y0103184D01*
X0069395Y0102398D02*
X0080350Y0102398D01*
X0078924Y0101612D02*
X0069395Y0101612D01*
X0069395Y0100826D02*
X0078138Y0100826D01*
X0077787Y0100040D02*
X0075962Y0100040D01*
X0076088Y0099254D02*
X0077466Y0099254D01*
X0076088Y0095324D02*
X0078870Y0095324D01*
X0080218Y0094539D02*
X0075627Y0094539D01*
X0075947Y0092181D02*
X0079446Y0092181D01*
X0078550Y0091395D02*
X0076088Y0091395D01*
X0076088Y0087465D02*
X0077594Y0087465D01*
X0077920Y0086679D02*
X0075642Y0086679D01*
X0071021Y0086679D02*
X0068555Y0086679D01*
X0069001Y0087465D02*
X0070576Y0087465D01*
X0070576Y0088251D02*
X0069103Y0088251D01*
X0069395Y0089037D02*
X0070576Y0089037D01*
X0070576Y0089823D02*
X0069395Y0089823D01*
X0069395Y0090609D02*
X0070576Y0090609D01*
X0070576Y0091395D02*
X0069395Y0091395D01*
X0069395Y0092181D02*
X0070716Y0092181D01*
X0069395Y0092967D02*
X0083462Y0092967D01*
X0083782Y0093753D02*
X0069395Y0093753D01*
X0069395Y0094539D02*
X0071036Y0094539D01*
X0070576Y0095324D02*
X0069395Y0095324D01*
X0069395Y0096110D02*
X0070576Y0096110D01*
X0070576Y0096896D02*
X0069395Y0096896D01*
X0069395Y0097682D02*
X0070576Y0097682D01*
X0070576Y0098468D02*
X0069395Y0098468D01*
X0069395Y0099254D02*
X0070576Y0099254D01*
X0070701Y0100040D02*
X0069395Y0100040D01*
X0082849Y0102398D02*
X0170901Y0102398D01*
X0171328Y0102575D02*
X0169809Y0101945D01*
X0168646Y0100783D01*
X0168017Y0099263D01*
X0168017Y0097619D01*
X0168165Y0097260D01*
X0145325Y0097260D01*
X0144985Y0097600D01*
X0144985Y0098435D01*
X0143602Y0099819D01*
X0141645Y0099819D01*
X0140261Y0098435D01*
X0140261Y0096478D01*
X0141251Y0095488D01*
X0140261Y0094498D01*
X0140261Y0092541D01*
X0141645Y0091157D01*
X0142480Y0091157D01*
X0143858Y0089780D01*
X0168165Y0089780D01*
X0168017Y0089421D01*
X0168017Y0087776D01*
X0168646Y0086257D01*
X0169809Y0085094D01*
X0171328Y0084465D01*
X0172973Y0084465D01*
X0174492Y0085094D01*
X0175655Y0086257D01*
X0176284Y0087776D01*
X0176284Y0087811D01*
X0177662Y0087811D01*
X0177662Y0087125D01*
X0178354Y0086433D01*
X0182482Y0086433D01*
X0183174Y0087125D01*
X0183174Y0092040D01*
X0182482Y0092732D01*
X0178354Y0092732D01*
X0177662Y0092040D01*
X0177662Y0091354D01*
X0175241Y0091354D01*
X0174492Y0092103D01*
X0172973Y0092732D01*
X0171328Y0092732D01*
X0170758Y0092496D01*
X0169932Y0093323D01*
X0145325Y0093323D01*
X0144985Y0093663D01*
X0144985Y0093717D01*
X0169932Y0093717D01*
X0170758Y0094543D01*
X0171328Y0094307D01*
X0172973Y0094307D01*
X0174492Y0094936D01*
X0175241Y0095685D01*
X0177662Y0095685D01*
X0177662Y0094999D01*
X0178354Y0094307D01*
X0182482Y0094307D01*
X0183174Y0094999D01*
X0183174Y0099914D01*
X0182482Y0100606D01*
X0178354Y0100606D01*
X0177662Y0099914D01*
X0177662Y0099228D01*
X0176284Y0099228D01*
X0176284Y0099263D01*
X0175655Y0100783D01*
X0174492Y0101945D01*
X0172973Y0102575D01*
X0171328Y0102575D01*
X0171604Y0103969D02*
X0113106Y0103969D01*
X0113489Y0104755D02*
X0169612Y0104755D01*
X0169873Y0104566D02*
X0170482Y0104255D01*
X0171133Y0104044D01*
X0171757Y0103945D01*
X0171757Y0107890D01*
X0167812Y0107890D01*
X0167911Y0107266D01*
X0168123Y0106615D01*
X0168433Y0106005D01*
X0168835Y0105452D01*
X0169319Y0104968D01*
X0169873Y0104566D01*
X0168770Y0105541D02*
X0113489Y0105541D01*
X0113471Y0106327D02*
X0168269Y0106327D01*
X0167961Y0107113D02*
X0135935Y0107113D01*
X0135727Y0106906D02*
X0137111Y0108289D01*
X0137111Y0110246D01*
X0136521Y0110837D01*
X0136521Y0124282D01*
X0137451Y0125213D01*
X0138489Y0126250D01*
X0138489Y0134661D01*
X0145081Y0134661D01*
X0145773Y0135353D01*
X0145773Y0142237D01*
X0145081Y0142929D01*
X0138489Y0142929D01*
X0138489Y0143466D01*
X0136521Y0145435D01*
X0135483Y0146472D01*
X0127125Y0146472D01*
X0123346Y0142693D01*
X0122776Y0142929D01*
X0121131Y0142929D01*
X0119612Y0142300D01*
X0118449Y0141137D01*
X0117820Y0139618D01*
X0117820Y0137973D01*
X0118449Y0136454D01*
X0119612Y0135291D01*
X0121131Y0134661D01*
X0122776Y0134661D01*
X0124295Y0135291D01*
X0125458Y0136454D01*
X0126088Y0137973D01*
X0126088Y0139618D01*
X0125852Y0140188D01*
X0128593Y0142929D01*
X0134015Y0142929D01*
X0134946Y0141998D01*
X0134946Y0141492D01*
X0134138Y0142300D01*
X0132619Y0142929D01*
X0130974Y0142929D01*
X0129455Y0142300D01*
X0128292Y0141137D01*
X0127662Y0139618D01*
X0127662Y0137973D01*
X0128292Y0136454D01*
X0129455Y0135291D01*
X0130025Y0135055D01*
X0130025Y0130671D01*
X0129040Y0129687D01*
X0129040Y0110837D01*
X0128450Y0110246D01*
X0128450Y0108289D01*
X0129834Y0106906D01*
X0131790Y0106906D01*
X0132781Y0107896D01*
X0133771Y0106906D01*
X0135727Y0106906D01*
X0136721Y0107899D02*
X0171757Y0107899D01*
X0171757Y0107890D02*
X0171757Y0108677D01*
X0167812Y0108677D01*
X0167911Y0109301D01*
X0168123Y0109952D01*
X0168433Y0110562D01*
X0168835Y0111115D01*
X0169319Y0111599D01*
X0169873Y0112001D01*
X0170482Y0112311D01*
X0171133Y0112523D01*
X0171757Y0112622D01*
X0171757Y0108677D01*
X0172544Y0108677D01*
X0172544Y0112622D01*
X0173168Y0112523D01*
X0173819Y0112311D01*
X0174429Y0112001D01*
X0174982Y0111599D01*
X0175466Y0111115D01*
X0175868Y0110562D01*
X0176179Y0109952D01*
X0176390Y0109301D01*
X0176489Y0108677D01*
X0172544Y0108677D01*
X0172544Y0107890D01*
X0172544Y0103945D01*
X0173168Y0104044D01*
X0173819Y0104255D01*
X0174429Y0104566D01*
X0174982Y0104968D01*
X0175466Y0105452D01*
X0175868Y0106005D01*
X0176179Y0106615D01*
X0176390Y0107266D01*
X0176489Y0107890D01*
X0172544Y0107890D01*
X0171757Y0107890D01*
X0171757Y0107113D02*
X0172544Y0107113D01*
X0172544Y0106327D02*
X0171757Y0106327D01*
X0171757Y0105541D02*
X0172544Y0105541D01*
X0172544Y0104755D02*
X0171757Y0104755D01*
X0171757Y0103969D02*
X0172544Y0103969D01*
X0172698Y0103969D02*
X0209552Y0103969D01*
X0209552Y0103184D02*
X0112321Y0103184D01*
X0109933Y0103184D02*
X0107894Y0103184D01*
X0108174Y0107113D02*
X0109569Y0107113D01*
X0110149Y0108874D02*
X0112105Y0108874D01*
X0113489Y0110258D01*
X0113489Y0112215D01*
X0112105Y0113598D01*
X0110149Y0113598D01*
X0109558Y0113008D01*
X0108174Y0113008D01*
X0108174Y0113103D01*
X0107482Y0113795D01*
X0103748Y0113795D01*
X0103398Y0113445D01*
X0103384Y0113470D01*
X0103124Y0113729D01*
X0102807Y0113913D01*
X0102452Y0114008D01*
X0101186Y0114008D01*
X0101186Y0113138D01*
X0101140Y0113125D01*
X0100822Y0112942D01*
X0100595Y0112715D01*
X0100595Y0114008D01*
X0099329Y0114008D01*
X0098975Y0113913D01*
X0098657Y0113729D01*
X0098398Y0113470D01*
X0098214Y0113152D01*
X0098119Y0112798D01*
X0098119Y0111531D01*
X0100284Y0111531D01*
X0100284Y0111236D01*
X0100284Y0110941D01*
X0098119Y0110941D01*
X0098119Y0109675D01*
X0098214Y0109320D01*
X0098398Y0109003D01*
X0098657Y0108743D01*
X0098975Y0108560D01*
X0099329Y0108465D01*
X0100595Y0108465D01*
X0100595Y0109757D01*
X0100822Y0109530D01*
X0101140Y0109347D01*
X0101186Y0109335D01*
X0101186Y0108465D01*
X0102452Y0108465D01*
X0102807Y0108560D01*
X0103124Y0108743D01*
X0103384Y0109003D01*
X0103398Y0109027D01*
X0103748Y0108677D01*
X0107482Y0108677D01*
X0108174Y0109369D01*
X0108174Y0109465D01*
X0109558Y0109465D01*
X0110149Y0108874D01*
X0112702Y0109471D02*
X0128450Y0109471D01*
X0128460Y0110257D02*
X0113488Y0110257D01*
X0113489Y0111043D02*
X0129040Y0111043D01*
X0129040Y0111829D02*
X0113489Y0111829D01*
X0113089Y0112615D02*
X0129040Y0112615D01*
X0129040Y0113400D02*
X0112303Y0113400D01*
X0112105Y0114780D02*
X0110149Y0114780D01*
X0109558Y0115370D01*
X0108174Y0115370D01*
X0108174Y0115275D01*
X0107482Y0114583D01*
X0103748Y0114583D01*
X0103398Y0114933D01*
X0103384Y0114908D01*
X0103124Y0114649D01*
X0102807Y0114465D01*
X0102452Y0114370D01*
X0101186Y0114370D01*
X0101186Y0115240D01*
X0101140Y0115252D01*
X0100822Y0115436D01*
X0100595Y0115663D01*
X0100595Y0114370D01*
X0099329Y0114370D01*
X0098975Y0114465D01*
X0098657Y0114649D01*
X0098398Y0114908D01*
X0098214Y0115226D01*
X0098119Y0115580D01*
X0098119Y0116846D01*
X0100284Y0116846D01*
X0100284Y0117142D01*
X0100595Y0117142D01*
X0100595Y0117142D01*
X0100284Y0117142D01*
X0100284Y0117437D01*
X0098119Y0117437D01*
X0098119Y0118703D01*
X0098214Y0119058D01*
X0098398Y0119375D01*
X0098657Y0119635D01*
X0098975Y0119818D01*
X0099329Y0119913D01*
X0100595Y0119913D01*
X0100595Y0118621D01*
X0100822Y0118848D01*
X0101140Y0119031D01*
X0101186Y0119043D01*
X0101186Y0119913D01*
X0102452Y0119913D01*
X0102807Y0119818D01*
X0103124Y0119635D01*
X0103384Y0119375D01*
X0103398Y0119351D01*
X0103748Y0119701D01*
X0107482Y0119701D01*
X0108174Y0119009D01*
X0108174Y0118913D01*
X0109558Y0118913D01*
X0110149Y0119504D01*
X0112105Y0119504D01*
X0113489Y0118120D01*
X0113489Y0116163D01*
X0112105Y0114780D01*
X0112298Y0114972D02*
X0129040Y0114972D01*
X0129040Y0114186D02*
X0044198Y0114186D01*
X0044198Y0113400D02*
X0098357Y0113400D01*
X0098119Y0112615D02*
X0044198Y0112615D01*
X0044198Y0114972D02*
X0098360Y0114972D01*
X0098119Y0115758D02*
X0044198Y0115758D01*
X0044198Y0116544D02*
X0098119Y0116544D01*
X0098119Y0118116D02*
X0044198Y0118116D01*
X0044198Y0118902D02*
X0098172Y0118902D01*
X0098749Y0119688D02*
X0044198Y0119688D01*
X0044198Y0120474D02*
X0129040Y0120474D01*
X0129040Y0121260D02*
X0044198Y0121260D01*
X0044198Y0122045D02*
X0067913Y0122045D01*
X0068171Y0121787D02*
X0071595Y0121787D01*
X0074017Y0124209D01*
X0074017Y0127634D01*
X0071595Y0130055D01*
X0068171Y0130055D01*
X0065749Y0127634D01*
X0065749Y0124209D01*
X0068171Y0121787D01*
X0067127Y0122831D02*
X0044198Y0122831D01*
X0044198Y0123617D02*
X0066341Y0123617D01*
X0065749Y0124403D02*
X0044198Y0124403D01*
X0044198Y0125189D02*
X0065749Y0125189D01*
X0065749Y0125975D02*
X0044198Y0125975D01*
X0044198Y0126761D02*
X0065749Y0126761D01*
X0065749Y0127547D02*
X0044198Y0127547D01*
X0044198Y0128333D02*
X0066448Y0128333D01*
X0067234Y0129119D02*
X0044198Y0129119D01*
X0044198Y0129905D02*
X0068020Y0129905D01*
X0068171Y0131787D02*
X0071595Y0131787D01*
X0074017Y0134209D01*
X0074017Y0137634D01*
X0071595Y0140055D01*
X0068171Y0140055D01*
X0065749Y0137634D01*
X0065749Y0134209D01*
X0068171Y0131787D01*
X0067696Y0132262D02*
X0044198Y0132262D01*
X0044198Y0131476D02*
X0130025Y0131476D01*
X0130025Y0130691D02*
X0044198Y0130691D01*
X0044198Y0133048D02*
X0066910Y0133048D01*
X0066124Y0133834D02*
X0044198Y0133834D01*
X0044198Y0134620D02*
X0065749Y0134620D01*
X0065749Y0135406D02*
X0044198Y0135406D01*
X0044198Y0136192D02*
X0065749Y0136192D01*
X0065749Y0136978D02*
X0044198Y0136978D01*
X0044198Y0137764D02*
X0065879Y0137764D01*
X0066665Y0138550D02*
X0044198Y0138550D01*
X0044198Y0139336D02*
X0067451Y0139336D01*
X0072315Y0139336D02*
X0107796Y0139336D01*
X0107773Y0139189D02*
X0111717Y0139189D01*
X0111717Y0138402D01*
X0107773Y0138402D01*
X0107872Y0137777D01*
X0108083Y0137127D01*
X0108394Y0136517D01*
X0108796Y0135964D01*
X0109280Y0135480D01*
X0109833Y0135078D01*
X0110443Y0134767D01*
X0111093Y0134556D01*
X0111718Y0134457D01*
X0111718Y0138402D01*
X0112505Y0138402D01*
X0112505Y0139189D01*
X0116450Y0139189D01*
X0116351Y0139813D01*
X0116139Y0140464D01*
X0115829Y0141073D01*
X0115427Y0141627D01*
X0114943Y0142111D01*
X0114389Y0142513D01*
X0113780Y0142823D01*
X0113129Y0143035D01*
X0112505Y0143134D01*
X0112505Y0139189D01*
X0111718Y0139189D01*
X0111718Y0143134D01*
X0111093Y0143035D01*
X0110443Y0142823D01*
X0109833Y0142513D01*
X0109280Y0142111D01*
X0108796Y0141627D01*
X0108394Y0141073D01*
X0108083Y0140464D01*
X0107872Y0139813D01*
X0107773Y0139189D01*
X0107972Y0140121D02*
X0044198Y0140121D01*
X0044198Y0140907D02*
X0108309Y0140907D01*
X0108862Y0141693D02*
X0044198Y0141693D01*
X0044198Y0142479D02*
X0109787Y0142479D01*
X0111718Y0142479D02*
X0112505Y0142479D01*
X0112505Y0141693D02*
X0111718Y0141693D01*
X0111718Y0140907D02*
X0112505Y0140907D01*
X0112505Y0140121D02*
X0111718Y0140121D01*
X0111718Y0139336D02*
X0112505Y0139336D01*
X0112505Y0138550D02*
X0117820Y0138550D01*
X0117820Y0139336D02*
X0116426Y0139336D01*
X0116250Y0140121D02*
X0118029Y0140121D01*
X0118354Y0140907D02*
X0115913Y0140907D01*
X0115360Y0141693D02*
X0119006Y0141693D01*
X0120045Y0142479D02*
X0114435Y0142479D01*
X0112505Y0138402D02*
X0116450Y0138402D01*
X0116351Y0137777D01*
X0116139Y0137127D01*
X0115829Y0136517D01*
X0115427Y0135964D01*
X0114943Y0135480D01*
X0114389Y0135078D01*
X0113780Y0134767D01*
X0113129Y0134556D01*
X0112505Y0134457D01*
X0112505Y0138402D01*
X0112505Y0137764D02*
X0111718Y0137764D01*
X0111717Y0138550D02*
X0073101Y0138550D01*
X0073887Y0137764D02*
X0107876Y0137764D01*
X0108159Y0136978D02*
X0074017Y0136978D01*
X0074017Y0136192D02*
X0108630Y0136192D01*
X0109382Y0135406D02*
X0074017Y0135406D01*
X0074017Y0134620D02*
X0110896Y0134620D01*
X0111718Y0134620D02*
X0112505Y0134620D01*
X0112505Y0135406D02*
X0111718Y0135406D01*
X0111718Y0136192D02*
X0112505Y0136192D01*
X0112505Y0136978D02*
X0111718Y0136978D01*
X0113327Y0134620D02*
X0130025Y0134620D01*
X0130025Y0133834D02*
X0073642Y0133834D01*
X0072856Y0133048D02*
X0130025Y0133048D01*
X0130025Y0132262D02*
X0072070Y0132262D01*
X0071746Y0129905D02*
X0129258Y0129905D01*
X0129040Y0129119D02*
X0072532Y0129119D01*
X0073318Y0128333D02*
X0129040Y0128333D01*
X0129040Y0127547D02*
X0074017Y0127547D01*
X0074017Y0126761D02*
X0129040Y0126761D01*
X0129040Y0125975D02*
X0074017Y0125975D01*
X0074017Y0125189D02*
X0129040Y0125189D01*
X0129040Y0124403D02*
X0074017Y0124403D01*
X0073425Y0123617D02*
X0129040Y0123617D01*
X0129040Y0122831D02*
X0072639Y0122831D01*
X0071853Y0122045D02*
X0129040Y0122045D01*
X0129040Y0119688D02*
X0107495Y0119688D01*
X0103735Y0119688D02*
X0103033Y0119688D01*
X0101186Y0119688D02*
X0100595Y0119688D01*
X0100595Y0118902D02*
X0100916Y0118902D01*
X0100284Y0117330D02*
X0044198Y0117330D01*
X0044198Y0143265D02*
X0123918Y0143265D01*
X0124704Y0144051D02*
X0044198Y0144051D01*
X0044198Y0144837D02*
X0125490Y0144837D01*
X0126276Y0145623D02*
X0044198Y0145623D01*
X0044198Y0146409D02*
X0127062Y0146409D01*
X0128143Y0142479D02*
X0129888Y0142479D01*
X0128848Y0141693D02*
X0127357Y0141693D01*
X0126571Y0140907D02*
X0128197Y0140907D01*
X0127871Y0140121D02*
X0125879Y0140121D01*
X0126088Y0139336D02*
X0127662Y0139336D01*
X0127662Y0138550D02*
X0126088Y0138550D01*
X0126001Y0137764D02*
X0127749Y0137764D01*
X0128075Y0136978D02*
X0125675Y0136978D01*
X0125197Y0136192D02*
X0128553Y0136192D01*
X0129339Y0135406D02*
X0124411Y0135406D01*
X0119497Y0135406D02*
X0114841Y0135406D01*
X0115592Y0136192D02*
X0118711Y0136192D01*
X0118232Y0136978D02*
X0116063Y0136978D01*
X0116346Y0137764D02*
X0117907Y0137764D01*
X0133705Y0142479D02*
X0134465Y0142479D01*
X0134744Y0141693D02*
X0134946Y0141693D01*
X0137904Y0144051D02*
X0209552Y0144051D01*
X0209552Y0143265D02*
X0138489Y0143265D01*
X0137118Y0144837D02*
X0209552Y0144837D01*
X0209552Y0145623D02*
X0136332Y0145623D01*
X0135547Y0146409D02*
X0209552Y0146409D01*
X0209552Y0147195D02*
X0044198Y0147195D01*
X0044198Y0147981D02*
X0209552Y0147981D01*
X0209552Y0148767D02*
X0044198Y0148767D01*
X0044198Y0149552D02*
X0209552Y0149552D01*
X0209552Y0142479D02*
X0145531Y0142479D01*
X0145773Y0141693D02*
X0209552Y0141693D01*
X0209552Y0140907D02*
X0145773Y0140907D01*
X0145773Y0140121D02*
X0209552Y0140121D01*
X0209552Y0139336D02*
X0186299Y0139336D01*
X0185579Y0140055D02*
X0182155Y0140055D01*
X0179733Y0137634D01*
X0179733Y0134209D01*
X0182155Y0131787D01*
X0185579Y0131787D01*
X0188001Y0134209D01*
X0188001Y0137634D01*
X0185579Y0140055D01*
X0187085Y0138550D02*
X0209552Y0138550D01*
X0209552Y0137764D02*
X0187871Y0137764D01*
X0188001Y0136978D02*
X0209552Y0136978D01*
X0209552Y0136192D02*
X0188001Y0136192D01*
X0188001Y0135406D02*
X0209552Y0135406D01*
X0209552Y0134620D02*
X0188001Y0134620D01*
X0187626Y0133834D02*
X0209552Y0133834D01*
X0209552Y0133048D02*
X0186840Y0133048D01*
X0186054Y0132262D02*
X0209552Y0132262D01*
X0209552Y0131476D02*
X0138489Y0131476D01*
X0138489Y0130691D02*
X0209552Y0130691D01*
X0209552Y0129905D02*
X0185730Y0129905D01*
X0185579Y0130055D02*
X0182155Y0130055D01*
X0179733Y0127634D01*
X0179733Y0124209D01*
X0182155Y0121787D01*
X0185579Y0121787D01*
X0188001Y0124209D01*
X0188001Y0127634D01*
X0185579Y0130055D01*
X0186516Y0129119D02*
X0209552Y0129119D01*
X0209552Y0128333D02*
X0187302Y0128333D01*
X0188001Y0127547D02*
X0209552Y0127547D01*
X0209552Y0126761D02*
X0188001Y0126761D01*
X0188001Y0125975D02*
X0209552Y0125975D01*
X0209552Y0125189D02*
X0188001Y0125189D01*
X0188001Y0124403D02*
X0209552Y0124403D01*
X0209552Y0123617D02*
X0187409Y0123617D01*
X0186623Y0122831D02*
X0209552Y0122831D01*
X0209552Y0122045D02*
X0185838Y0122045D01*
X0181897Y0122045D02*
X0136521Y0122045D01*
X0136521Y0121260D02*
X0209552Y0121260D01*
X0209552Y0120474D02*
X0136521Y0120474D01*
X0136521Y0119688D02*
X0209552Y0119688D01*
X0209552Y0118902D02*
X0136521Y0118902D01*
X0136521Y0118116D02*
X0209552Y0118116D01*
X0209552Y0117330D02*
X0136521Y0117330D01*
X0136521Y0116544D02*
X0209552Y0116544D01*
X0209552Y0115758D02*
X0136521Y0115758D01*
X0136521Y0114972D02*
X0209552Y0114972D01*
X0209552Y0114186D02*
X0136521Y0114186D01*
X0136521Y0113400D02*
X0209552Y0113400D01*
X0209552Y0112615D02*
X0172590Y0112615D01*
X0172544Y0112615D02*
X0171757Y0112615D01*
X0171711Y0112615D02*
X0136521Y0112615D01*
X0136521Y0111829D02*
X0169635Y0111829D01*
X0168783Y0111043D02*
X0136521Y0111043D01*
X0137101Y0110257D02*
X0168278Y0110257D01*
X0167966Y0109471D02*
X0137111Y0109471D01*
X0137111Y0108685D02*
X0167814Y0108685D01*
X0171757Y0108685D02*
X0172544Y0108685D01*
X0172544Y0109471D02*
X0171757Y0109471D01*
X0171757Y0110257D02*
X0172544Y0110257D01*
X0172544Y0111043D02*
X0171757Y0111043D01*
X0171757Y0111829D02*
X0172544Y0111829D01*
X0174666Y0111829D02*
X0209552Y0111829D01*
X0209552Y0111043D02*
X0175518Y0111043D01*
X0176023Y0110257D02*
X0209552Y0110257D01*
X0209552Y0109471D02*
X0176335Y0109471D01*
X0176488Y0108685D02*
X0209552Y0108685D01*
X0209552Y0107899D02*
X0172544Y0107899D01*
X0175531Y0105541D02*
X0209552Y0105541D01*
X0209552Y0104755D02*
X0174689Y0104755D01*
X0176032Y0106327D02*
X0209552Y0106327D01*
X0209552Y0107113D02*
X0176340Y0107113D01*
X0173401Y0102398D02*
X0209552Y0102398D01*
X0209552Y0101612D02*
X0174826Y0101612D01*
X0175612Y0100826D02*
X0209552Y0100826D01*
X0209552Y0100040D02*
X0190135Y0100040D01*
X0190261Y0099914D02*
X0189569Y0100606D01*
X0185441Y0100606D01*
X0184749Y0099914D01*
X0184749Y0099034D01*
X0184355Y0098083D01*
X0184355Y0082620D01*
X0183641Y0081905D01*
X0176284Y0081905D01*
X0176284Y0082198D01*
X0175593Y0082890D01*
X0168709Y0082890D01*
X0168017Y0082198D01*
X0168017Y0075314D01*
X0168709Y0074622D01*
X0175593Y0074622D01*
X0176284Y0075314D01*
X0176284Y0075606D01*
X0185572Y0075606D01*
X0186730Y0076086D01*
X0187616Y0076972D01*
X0190175Y0079531D01*
X0190655Y0080688D01*
X0190655Y0090209D01*
X0190655Y0098083D01*
X0190261Y0099034D01*
X0190261Y0099914D01*
X0190261Y0099254D02*
X0209552Y0099254D01*
X0209552Y0098468D02*
X0190495Y0098468D01*
X0190655Y0097682D02*
X0209552Y0097682D01*
X0209552Y0096896D02*
X0190655Y0096896D01*
X0190655Y0096110D02*
X0209552Y0096110D01*
X0209552Y0095324D02*
X0190655Y0095324D01*
X0190655Y0094539D02*
X0209552Y0094539D01*
X0209552Y0093753D02*
X0190655Y0093753D01*
X0190655Y0092967D02*
X0209552Y0092967D01*
X0209552Y0092181D02*
X0190655Y0092181D01*
X0190655Y0091395D02*
X0209552Y0091395D01*
X0209552Y0090609D02*
X0190655Y0090609D01*
X0190655Y0089823D02*
X0209552Y0089823D01*
X0209552Y0089037D02*
X0190655Y0089037D01*
X0190655Y0088251D02*
X0209552Y0088251D01*
X0209552Y0087465D02*
X0190655Y0087465D01*
X0190655Y0086679D02*
X0209552Y0086679D01*
X0209552Y0085893D02*
X0190655Y0085893D01*
X0190655Y0085108D02*
X0209552Y0085108D01*
X0209552Y0084322D02*
X0190655Y0084322D01*
X0190655Y0083536D02*
X0209552Y0083536D01*
X0209552Y0082750D02*
X0190655Y0082750D01*
X0190655Y0081964D02*
X0209552Y0081964D01*
X0209552Y0081178D02*
X0190655Y0081178D01*
X0190532Y0080392D02*
X0209552Y0080392D01*
X0209552Y0079606D02*
X0190206Y0079606D01*
X0189464Y0078820D02*
X0209552Y0078820D01*
X0209552Y0078034D02*
X0188679Y0078034D01*
X0187893Y0077248D02*
X0209552Y0077248D01*
X0209552Y0076463D02*
X0187107Y0076463D01*
X0185742Y0075677D02*
X0209552Y0075677D01*
X0209552Y0074891D02*
X0175861Y0074891D01*
X0176284Y0081964D02*
X0183700Y0081964D01*
X0184355Y0082750D02*
X0175733Y0082750D01*
X0174506Y0085108D02*
X0184355Y0085108D01*
X0184355Y0085893D02*
X0175292Y0085893D01*
X0175830Y0086679D02*
X0178108Y0086679D01*
X0177662Y0087465D02*
X0176156Y0087465D01*
X0175200Y0091395D02*
X0177662Y0091395D01*
X0177803Y0092181D02*
X0174304Y0092181D01*
X0173532Y0094539D02*
X0178123Y0094539D01*
X0177662Y0095324D02*
X0174880Y0095324D01*
X0176284Y0099254D02*
X0177662Y0099254D01*
X0177788Y0100040D02*
X0175963Y0100040D01*
X0169475Y0101612D02*
X0084275Y0101612D01*
X0085061Y0100826D02*
X0168689Y0100826D01*
X0168338Y0100040D02*
X0085412Y0100040D01*
X0085733Y0099254D02*
X0141080Y0099254D01*
X0140294Y0098468D02*
X0085733Y0098468D01*
X0085733Y0097682D02*
X0140261Y0097682D01*
X0140261Y0096896D02*
X0110256Y0096896D01*
X0110930Y0096222D02*
X0110930Y0096222D01*
X0111042Y0096110D02*
X0140629Y0096110D01*
X0141087Y0095324D02*
X0112663Y0095324D01*
X0113449Y0094539D02*
X0140301Y0094539D01*
X0140261Y0093753D02*
X0113489Y0093753D01*
X0113489Y0092967D02*
X0140261Y0092967D01*
X0140621Y0092181D02*
X0113129Y0092181D01*
X0112655Y0091395D02*
X0141407Y0091395D01*
X0143028Y0090609D02*
X0113441Y0090609D01*
X0113489Y0089823D02*
X0143814Y0089823D01*
X0144095Y0086679D02*
X0168471Y0086679D01*
X0168146Y0087465D02*
X0140207Y0087465D01*
X0137165Y0087465D02*
X0112350Y0087465D01*
X0113136Y0088251D02*
X0168017Y0088251D01*
X0168017Y0089037D02*
X0113489Y0089037D01*
X0109904Y0087465D02*
X0085605Y0087465D01*
X0085733Y0088251D02*
X0109118Y0088251D01*
X0108765Y0089037D02*
X0085733Y0089037D01*
X0085279Y0086679D02*
X0136379Y0086679D01*
X0136324Y0085893D02*
X0084741Y0085893D01*
X0078661Y0081964D02*
X0044198Y0081964D01*
X0044198Y0081178D02*
X0077987Y0081178D01*
X0077561Y0080392D02*
X0044198Y0080392D01*
X0044198Y0054457D02*
X0097544Y0054457D01*
X0097544Y0055243D02*
X0071822Y0055243D01*
X0072608Y0056029D02*
X0097544Y0056029D01*
X0097544Y0056815D02*
X0073394Y0056815D01*
X0074017Y0057601D02*
X0097544Y0057601D01*
X0097544Y0058387D02*
X0074017Y0058387D01*
X0074017Y0059172D02*
X0097544Y0059172D01*
X0097544Y0059958D02*
X0074017Y0059958D01*
X0074017Y0060744D02*
X0097544Y0060744D01*
X0097544Y0061530D02*
X0073348Y0061530D01*
X0072563Y0062316D02*
X0097544Y0062316D01*
X0097544Y0063102D02*
X0071777Y0063102D01*
X0071994Y0052885D02*
X0097544Y0052885D01*
X0097544Y0053671D02*
X0044198Y0053671D01*
X0061282Y0036381D02*
X0083371Y0036381D01*
X0083371Y0035595D02*
X0063638Y0035595D01*
X0063587Y0035632D02*
X0063587Y0035632D01*
X0064720Y0034809D02*
X0083377Y0034809D01*
X0083702Y0034023D02*
X0065802Y0034023D01*
X0066715Y0033360D02*
X0066715Y0033360D01*
X0066715Y0033360D01*
X0066804Y0033237D02*
X0084278Y0033237D01*
X0085064Y0032451D02*
X0067375Y0032451D01*
X0067946Y0031665D02*
X0085850Y0031665D01*
X0086636Y0030880D02*
X0068517Y0030880D01*
X0068987Y0030232D02*
X0068987Y0030232D01*
X0069032Y0030094D02*
X0087600Y0030094D01*
X0090043Y0036381D02*
X0134552Y0036381D01*
X0134552Y0037167D02*
X0089670Y0037167D01*
X0089670Y0037953D02*
X0094198Y0037953D01*
X0094198Y0038739D02*
X0089670Y0038739D01*
X0089670Y0039525D02*
X0094198Y0039525D01*
X0094198Y0040311D02*
X0089670Y0040311D01*
X0089670Y0041096D02*
X0094198Y0041096D01*
X0094198Y0041882D02*
X0089670Y0041882D01*
X0089670Y0042668D02*
X0094826Y0042668D01*
X0095576Y0043454D02*
X0089670Y0043454D01*
X0090093Y0044240D02*
X0095227Y0044240D01*
X0093735Y0045026D02*
X0090655Y0045026D01*
X0090655Y0045812D02*
X0092949Y0045812D01*
X0092571Y0046598D02*
X0090655Y0046598D01*
X0090655Y0047384D02*
X0092245Y0047384D01*
X0092229Y0048170D02*
X0090655Y0048170D01*
X0090655Y0048956D02*
X0092229Y0048956D01*
X0092509Y0049741D02*
X0090655Y0049741D01*
X0090655Y0050527D02*
X0092835Y0050527D01*
X0093586Y0051313D02*
X0090655Y0051313D01*
X0090241Y0052099D02*
X0094868Y0052099D01*
X0100366Y0049741D02*
X0102203Y0049741D01*
X0102072Y0048956D02*
X0100497Y0048956D01*
X0100497Y0048170D02*
X0102072Y0048170D01*
X0102088Y0047384D02*
X0100481Y0047384D01*
X0100156Y0046598D02*
X0102413Y0046598D01*
X0102792Y0045812D02*
X0099777Y0045812D01*
X0099119Y0045026D02*
X0103450Y0045026D01*
X0103450Y0044240D02*
X0099119Y0044240D01*
X0099119Y0043454D02*
X0103450Y0043454D01*
X0102700Y0042668D02*
X0099869Y0042668D01*
X0100497Y0041882D02*
X0102072Y0041882D01*
X0102072Y0041096D02*
X0100497Y0041096D01*
X0100497Y0040311D02*
X0102072Y0040311D01*
X0102072Y0039525D02*
X0100497Y0039525D01*
X0100497Y0038739D02*
X0102072Y0038739D01*
X0102072Y0037953D02*
X0100497Y0037953D01*
X0107730Y0035595D02*
X0134552Y0035595D01*
X0134552Y0034822D02*
X0135032Y0033665D01*
X0135918Y0032779D01*
X0138477Y0030220D01*
X0139634Y0029740D01*
X0149155Y0029740D01*
X0157029Y0029740D01*
X0157980Y0030134D01*
X0158860Y0030134D01*
X0159552Y0030826D01*
X0159552Y0034954D01*
X0158860Y0035646D01*
X0157980Y0035646D01*
X0157029Y0036039D01*
X0141565Y0036039D01*
X0140851Y0036753D01*
X0140851Y0044110D01*
X0141144Y0044110D01*
X0141836Y0044802D01*
X0141836Y0051686D01*
X0141144Y0052378D01*
X0134260Y0052378D01*
X0133568Y0051686D01*
X0133568Y0044802D01*
X0134260Y0044110D01*
X0134552Y0044110D01*
X0134552Y0034822D01*
X0134558Y0034809D02*
X0108371Y0034809D01*
X0108371Y0034023D02*
X0134883Y0034023D01*
X0135459Y0033237D02*
X0108371Y0033237D01*
X0108371Y0032451D02*
X0136245Y0032451D01*
X0137031Y0031665D02*
X0108371Y0031665D01*
X0108371Y0030880D02*
X0137817Y0030880D01*
X0138781Y0030094D02*
X0106701Y0030094D01*
X0108371Y0037953D02*
X0134552Y0037953D01*
X0134552Y0038739D02*
X0108371Y0038739D01*
X0108371Y0039525D02*
X0134552Y0039525D01*
X0134552Y0040311D02*
X0108371Y0040311D01*
X0108371Y0041096D02*
X0134552Y0041096D01*
X0134552Y0041882D02*
X0108371Y0041882D01*
X0107743Y0042668D02*
X0134552Y0042668D01*
X0134552Y0043454D02*
X0106993Y0043454D01*
X0107341Y0044240D02*
X0114333Y0044240D01*
X0114380Y0044216D02*
X0115030Y0044005D01*
X0115655Y0043906D01*
X0115655Y0047850D01*
X0116442Y0047850D01*
X0116442Y0043906D01*
X0117066Y0044005D01*
X0117717Y0044216D01*
X0118326Y0044527D01*
X0118880Y0044929D01*
X0119364Y0045413D01*
X0119766Y0045966D01*
X0120076Y0046576D01*
X0120288Y0047226D01*
X0120387Y0047850D01*
X0116442Y0047850D01*
X0116442Y0048638D01*
X0115655Y0048638D01*
X0115655Y0052582D01*
X0115030Y0052484D01*
X0114380Y0052272D01*
X0113770Y0051962D01*
X0113217Y0051559D01*
X0112733Y0051076D01*
X0112331Y0050522D01*
X0112020Y0049913D01*
X0111809Y0049262D01*
X0111710Y0048638D01*
X0115654Y0048638D01*
X0115654Y0047850D01*
X0111710Y0047850D01*
X0111809Y0047226D01*
X0112020Y0046576D01*
X0112331Y0045966D01*
X0112733Y0045413D01*
X0113217Y0044929D01*
X0113770Y0044527D01*
X0114380Y0044216D01*
X0115655Y0044240D02*
X0116442Y0044240D01*
X0116442Y0045026D02*
X0115655Y0045026D01*
X0115655Y0045812D02*
X0116442Y0045812D01*
X0116442Y0046598D02*
X0115655Y0046598D01*
X0115655Y0047384D02*
X0116442Y0047384D01*
X0116442Y0048170D02*
X0133568Y0048170D01*
X0133568Y0048956D02*
X0120336Y0048956D01*
X0120288Y0049262D02*
X0120076Y0049913D01*
X0119766Y0050522D01*
X0119364Y0051076D01*
X0118880Y0051559D01*
X0118326Y0051962D01*
X0117717Y0052272D01*
X0117066Y0052484D01*
X0116442Y0052582D01*
X0116442Y0048638D01*
X0120387Y0048638D01*
X0120288Y0049262D01*
X0120132Y0049741D02*
X0133568Y0049741D01*
X0133568Y0050527D02*
X0119762Y0050527D01*
X0119126Y0051313D02*
X0133568Y0051313D01*
X0133981Y0052099D02*
X0118056Y0052099D01*
X0116442Y0052099D02*
X0115655Y0052099D01*
X0115655Y0051313D02*
X0116442Y0051313D01*
X0116442Y0050527D02*
X0115655Y0050527D01*
X0115655Y0049741D02*
X0116442Y0049741D01*
X0116442Y0048956D02*
X0115655Y0048956D01*
X0115654Y0048170D02*
X0110340Y0048170D01*
X0110340Y0048956D02*
X0111760Y0048956D01*
X0111965Y0049741D02*
X0110060Y0049741D01*
X0109734Y0050527D02*
X0112335Y0050527D01*
X0112971Y0051313D02*
X0108983Y0051313D01*
X0107701Y0052099D02*
X0114041Y0052099D01*
X0111784Y0047384D02*
X0110324Y0047384D01*
X0109998Y0046598D02*
X0112013Y0046598D01*
X0112443Y0045812D02*
X0109620Y0045812D01*
X0108834Y0045026D02*
X0113120Y0045026D01*
X0117764Y0044240D02*
X0134130Y0044240D01*
X0133568Y0045026D02*
X0118977Y0045026D01*
X0119654Y0045812D02*
X0133568Y0045812D01*
X0133568Y0046598D02*
X0120083Y0046598D01*
X0120313Y0047384D02*
X0133568Y0047384D01*
X0141836Y0047384D02*
X0143426Y0047384D01*
X0143410Y0048170D02*
X0141836Y0048170D01*
X0141836Y0048956D02*
X0143410Y0048956D01*
X0143690Y0049741D02*
X0141836Y0049741D01*
X0141836Y0050527D02*
X0144016Y0050527D01*
X0144767Y0051313D02*
X0141836Y0051313D01*
X0141422Y0052099D02*
X0146049Y0052099D01*
X0148725Y0052885D02*
X0105025Y0052885D01*
X0105025Y0053671D02*
X0148725Y0053671D01*
X0148725Y0054457D02*
X0105025Y0054457D01*
X0105025Y0055243D02*
X0148725Y0055243D01*
X0148725Y0056029D02*
X0105025Y0056029D01*
X0105025Y0056815D02*
X0148725Y0056815D01*
X0148725Y0057601D02*
X0105025Y0057601D01*
X0105025Y0058387D02*
X0148725Y0058387D01*
X0148725Y0059172D02*
X0105025Y0059172D01*
X0105025Y0059958D02*
X0148725Y0059958D01*
X0148725Y0060744D02*
X0105025Y0060744D01*
X0105025Y0061530D02*
X0148725Y0061530D01*
X0148725Y0062316D02*
X0105025Y0062316D01*
X0105025Y0063102D02*
X0148725Y0063102D01*
X0148725Y0063888D02*
X0105025Y0063888D01*
X0105025Y0064674D02*
X0148725Y0064674D01*
X0148725Y0065460D02*
X0105025Y0065460D01*
X0105025Y0066246D02*
X0148725Y0066246D01*
X0148725Y0067032D02*
X0105025Y0067032D01*
X0105025Y0067817D02*
X0148725Y0067817D01*
X0148725Y0068603D02*
X0105025Y0068603D01*
X0105025Y0069389D02*
X0148725Y0069389D01*
X0148725Y0070175D02*
X0105025Y0070175D01*
X0105025Y0070961D02*
X0148725Y0070961D01*
X0148111Y0071747D02*
X0105025Y0071747D01*
X0105025Y0072533D02*
X0147325Y0072533D01*
X0146539Y0073319D02*
X0105025Y0073319D01*
X0105025Y0074105D02*
X0145753Y0074105D01*
X0144967Y0074891D02*
X0105025Y0074891D01*
X0105632Y0075677D02*
X0107913Y0075677D01*
X0110404Y0075677D02*
X0144181Y0075677D01*
X0143395Y0076463D02*
X0111190Y0076463D01*
X0111521Y0077248D02*
X0142609Y0077248D01*
X0141823Y0078034D02*
X0111521Y0078034D01*
X0111451Y0078820D02*
X0141037Y0078820D01*
X0140252Y0079606D02*
X0137956Y0079606D01*
X0142119Y0082750D02*
X0143013Y0082750D01*
X0142905Y0081964D02*
X0143799Y0081964D01*
X0143691Y0081178D02*
X0144585Y0081178D01*
X0144477Y0080392D02*
X0145371Y0080392D01*
X0145263Y0079606D02*
X0146157Y0079606D01*
X0146048Y0078820D02*
X0146943Y0078820D01*
X0146834Y0078034D02*
X0147729Y0078034D01*
X0147620Y0077248D02*
X0148515Y0077248D01*
X0148406Y0076463D02*
X0149301Y0076463D01*
X0149192Y0075677D02*
X0150087Y0075677D01*
X0149978Y0074891D02*
X0150873Y0074891D01*
X0150764Y0074105D02*
X0151658Y0074105D01*
X0151550Y0073319D02*
X0152444Y0073319D01*
X0152269Y0072533D02*
X0152662Y0072533D01*
X0152662Y0071747D02*
X0152269Y0071747D01*
X0152269Y0070961D02*
X0152662Y0070961D01*
X0152662Y0070175D02*
X0152269Y0070175D01*
X0152269Y0069389D02*
X0152662Y0069389D01*
X0152662Y0068603D02*
X0152269Y0068603D01*
X0152269Y0067817D02*
X0152662Y0067817D01*
X0152662Y0067032D02*
X0152269Y0067032D01*
X0152269Y0066246D02*
X0152662Y0066246D01*
X0152662Y0065460D02*
X0152269Y0065460D01*
X0152269Y0064674D02*
X0152662Y0064674D01*
X0152662Y0063888D02*
X0152269Y0063888D01*
X0152269Y0063102D02*
X0152662Y0063102D01*
X0152662Y0062316D02*
X0152269Y0062316D01*
X0152269Y0061530D02*
X0152662Y0061530D01*
X0152662Y0060744D02*
X0152269Y0060744D01*
X0152269Y0059958D02*
X0152662Y0059958D01*
X0152662Y0059172D02*
X0152269Y0059172D01*
X0152269Y0058387D02*
X0152662Y0058387D01*
X0152662Y0057601D02*
X0152269Y0057601D01*
X0152269Y0056815D02*
X0152662Y0056815D01*
X0152662Y0056029D02*
X0152269Y0056029D01*
X0152269Y0055243D02*
X0152662Y0055243D01*
X0152662Y0054457D02*
X0152269Y0054457D01*
X0152269Y0053671D02*
X0152662Y0053671D01*
X0152662Y0052885D02*
X0152269Y0052885D01*
X0152269Y0052099D02*
X0152662Y0052099D01*
X0152662Y0051313D02*
X0152269Y0051313D01*
X0152269Y0050527D02*
X0152662Y0050527D01*
X0153384Y0049741D02*
X0151547Y0049741D01*
X0151678Y0048956D02*
X0153253Y0048956D01*
X0153253Y0048170D02*
X0151678Y0048170D01*
X0151662Y0047384D02*
X0153269Y0047384D01*
X0153594Y0046598D02*
X0151337Y0046598D01*
X0150958Y0045812D02*
X0153973Y0045812D01*
X0154631Y0045026D02*
X0150300Y0045026D01*
X0150300Y0044240D02*
X0154631Y0044240D01*
X0154631Y0043454D02*
X0150300Y0043454D01*
X0151050Y0042668D02*
X0153881Y0042668D01*
X0153253Y0041882D02*
X0151678Y0041882D01*
X0151678Y0041096D02*
X0153253Y0041096D01*
X0153253Y0040311D02*
X0151678Y0040311D01*
X0151678Y0039525D02*
X0153253Y0039525D01*
X0153253Y0038739D02*
X0151678Y0038739D01*
X0151678Y0037953D02*
X0153253Y0037953D01*
X0158911Y0035595D02*
X0190112Y0035595D01*
X0189030Y0034809D02*
X0159552Y0034809D01*
X0159552Y0034023D02*
X0187948Y0034023D01*
X0186946Y0033237D02*
X0159552Y0033237D01*
X0159552Y0032451D02*
X0186375Y0032451D01*
X0185804Y0031665D02*
X0159552Y0031665D01*
X0159552Y0030880D02*
X0185233Y0030880D01*
X0184763Y0030232D02*
X0184763Y0030232D01*
X0184718Y0030094D02*
X0157882Y0030094D01*
X0159552Y0037953D02*
X0209552Y0037953D01*
X0209552Y0038739D02*
X0159552Y0038739D01*
X0159552Y0039525D02*
X0209552Y0039525D01*
X0209552Y0040311D02*
X0159552Y0040311D01*
X0159552Y0041096D02*
X0209552Y0041096D01*
X0209552Y0041882D02*
X0159552Y0041882D01*
X0158924Y0042668D02*
X0209552Y0042668D01*
X0209552Y0043454D02*
X0158174Y0043454D01*
X0158523Y0044240D02*
X0165514Y0044240D01*
X0165561Y0044216D02*
X0166212Y0044005D01*
X0166836Y0043906D01*
X0166836Y0047850D01*
X0167623Y0047850D01*
X0167623Y0043906D01*
X0168247Y0044005D01*
X0168898Y0044216D01*
X0169507Y0044527D01*
X0170061Y0044929D01*
X0170545Y0045413D01*
X0170947Y0045966D01*
X0171257Y0046576D01*
X0171469Y0047226D01*
X0171568Y0047850D01*
X0167623Y0047850D01*
X0167623Y0048638D01*
X0166836Y0048638D01*
X0166836Y0052582D01*
X0166212Y0052484D01*
X0165561Y0052272D01*
X0164951Y0051962D01*
X0164398Y0051559D01*
X0163914Y0051076D01*
X0163512Y0050522D01*
X0163201Y0049913D01*
X0162990Y0049262D01*
X0162891Y0048638D01*
X0166836Y0048638D01*
X0166836Y0047850D01*
X0162891Y0047850D01*
X0162990Y0047226D01*
X0163201Y0046576D01*
X0163512Y0045966D01*
X0163914Y0045413D01*
X0164398Y0044929D01*
X0164951Y0044527D01*
X0165561Y0044216D01*
X0166836Y0044240D02*
X0167623Y0044240D01*
X0167623Y0045026D02*
X0166836Y0045026D01*
X0166836Y0045812D02*
X0167623Y0045812D01*
X0167623Y0046598D02*
X0166836Y0046598D01*
X0166836Y0047384D02*
X0167623Y0047384D01*
X0167623Y0048170D02*
X0180969Y0048170D01*
X0180184Y0048956D02*
X0171517Y0048956D01*
X0171469Y0049262D02*
X0171257Y0049913D01*
X0170947Y0050522D01*
X0170545Y0051076D01*
X0170061Y0051559D01*
X0169507Y0051962D01*
X0168898Y0052272D01*
X0168247Y0052484D01*
X0167623Y0052582D01*
X0167623Y0048638D01*
X0171568Y0048638D01*
X0171469Y0049262D01*
X0171313Y0049741D02*
X0179733Y0049741D01*
X0179733Y0049406D02*
X0182155Y0046984D01*
X0185579Y0046984D01*
X0188001Y0049406D01*
X0188001Y0052830D01*
X0185579Y0055252D01*
X0182155Y0055252D01*
X0179733Y0052830D01*
X0179733Y0049406D01*
X0179733Y0050527D02*
X0170943Y0050527D01*
X0170307Y0051313D02*
X0179733Y0051313D01*
X0179733Y0052099D02*
X0169237Y0052099D01*
X0167623Y0052099D02*
X0166836Y0052099D01*
X0166836Y0051313D02*
X0167623Y0051313D01*
X0167623Y0050527D02*
X0166836Y0050527D01*
X0166836Y0049741D02*
X0167623Y0049741D01*
X0167623Y0048956D02*
X0166836Y0048956D01*
X0166836Y0048170D02*
X0161521Y0048170D01*
X0161521Y0048956D02*
X0162941Y0048956D01*
X0163146Y0049741D02*
X0161241Y0049741D01*
X0160916Y0050527D02*
X0163516Y0050527D01*
X0164152Y0051313D02*
X0160164Y0051313D01*
X0158882Y0052099D02*
X0165222Y0052099D01*
X0162965Y0047384D02*
X0161505Y0047384D01*
X0161179Y0046598D02*
X0163194Y0046598D01*
X0163624Y0045812D02*
X0160801Y0045812D01*
X0160015Y0045026D02*
X0164301Y0045026D01*
X0168945Y0044240D02*
X0209552Y0044240D01*
X0209552Y0045026D02*
X0170158Y0045026D01*
X0170835Y0045812D02*
X0209552Y0045812D01*
X0209552Y0046598D02*
X0171265Y0046598D01*
X0171494Y0047384D02*
X0181755Y0047384D01*
X0185979Y0047384D02*
X0209552Y0047384D01*
X0209552Y0048170D02*
X0186765Y0048170D01*
X0187551Y0048956D02*
X0209552Y0048956D01*
X0209552Y0049741D02*
X0188001Y0049741D01*
X0188001Y0050527D02*
X0209552Y0050527D01*
X0209552Y0051313D02*
X0188001Y0051313D01*
X0188001Y0052099D02*
X0209552Y0052099D01*
X0209552Y0052885D02*
X0187946Y0052885D01*
X0187160Y0053671D02*
X0209552Y0053671D01*
X0209552Y0054457D02*
X0186374Y0054457D01*
X0185589Y0055243D02*
X0209552Y0055243D01*
X0209552Y0056029D02*
X0156206Y0056029D01*
X0156206Y0056815D02*
X0209552Y0056815D01*
X0209552Y0057601D02*
X0186196Y0057601D01*
X0185579Y0056984D02*
X0188001Y0059406D01*
X0188001Y0062830D01*
X0185579Y0065252D01*
X0182155Y0065252D01*
X0179733Y0062830D01*
X0179733Y0059406D01*
X0182155Y0056984D01*
X0185579Y0056984D01*
X0186982Y0058387D02*
X0209552Y0058387D01*
X0209552Y0059172D02*
X0187768Y0059172D01*
X0188001Y0059958D02*
X0209552Y0059958D01*
X0209552Y0060744D02*
X0188001Y0060744D01*
X0188001Y0061530D02*
X0209552Y0061530D01*
X0209552Y0062316D02*
X0188001Y0062316D01*
X0187729Y0063102D02*
X0209552Y0063102D01*
X0209552Y0063888D02*
X0186943Y0063888D01*
X0186158Y0064674D02*
X0209552Y0064674D01*
X0209552Y0065460D02*
X0156206Y0065460D01*
X0156206Y0066246D02*
X0209552Y0066246D01*
X0209552Y0067032D02*
X0156206Y0067032D01*
X0156206Y0067817D02*
X0209552Y0067817D01*
X0209552Y0068603D02*
X0156206Y0068603D01*
X0156206Y0069389D02*
X0209552Y0069389D01*
X0209552Y0070175D02*
X0156206Y0070175D01*
X0156206Y0070961D02*
X0209552Y0070961D01*
X0209552Y0071747D02*
X0156206Y0071747D01*
X0156206Y0072533D02*
X0209552Y0072533D01*
X0209552Y0073319D02*
X0156206Y0073319D01*
X0156206Y0074105D02*
X0209552Y0074105D01*
X0184355Y0083536D02*
X0147238Y0083536D01*
X0146453Y0084322D02*
X0184355Y0084322D01*
X0184355Y0086679D02*
X0182729Y0086679D01*
X0183174Y0087465D02*
X0184355Y0087465D01*
X0184355Y0088251D02*
X0183174Y0088251D01*
X0183174Y0089037D02*
X0184355Y0089037D01*
X0184355Y0089823D02*
X0183174Y0089823D01*
X0183174Y0090609D02*
X0184355Y0090609D01*
X0184355Y0091395D02*
X0183174Y0091395D01*
X0183034Y0092181D02*
X0184355Y0092181D01*
X0184355Y0092967D02*
X0170288Y0092967D01*
X0169968Y0093753D02*
X0184355Y0093753D01*
X0184355Y0094539D02*
X0182714Y0094539D01*
X0183174Y0095324D02*
X0184355Y0095324D01*
X0184355Y0096110D02*
X0183174Y0096110D01*
X0183174Y0096896D02*
X0184355Y0096896D01*
X0184355Y0097682D02*
X0183174Y0097682D01*
X0183174Y0098468D02*
X0184515Y0098468D01*
X0184749Y0099254D02*
X0183174Y0099254D01*
X0183049Y0100040D02*
X0184875Y0100040D01*
X0170770Y0094539D02*
X0170754Y0094539D01*
X0168017Y0097682D02*
X0144985Y0097682D01*
X0144952Y0098468D02*
X0168017Y0098468D01*
X0168017Y0099254D02*
X0144166Y0099254D01*
X0133563Y0107113D02*
X0131998Y0107113D01*
X0129626Y0107113D02*
X0112685Y0107113D01*
X0107490Y0108685D02*
X0128450Y0108685D01*
X0128840Y0107899D02*
X0102994Y0107899D01*
X0103024Y0108685D02*
X0103740Y0108685D01*
X0101186Y0108685D02*
X0100595Y0108685D01*
X0100595Y0109471D02*
X0100926Y0109471D01*
X0101186Y0107899D02*
X0100595Y0107899D01*
X0100595Y0107113D02*
X0100955Y0107113D01*
X0100284Y0105541D02*
X0085733Y0105541D01*
X0085733Y0106327D02*
X0098119Y0106327D01*
X0098178Y0107113D02*
X0085733Y0107113D01*
X0085733Y0107899D02*
X0098787Y0107899D01*
X0098758Y0108685D02*
X0085733Y0108685D01*
X0085733Y0109471D02*
X0098174Y0109471D01*
X0098119Y0110257D02*
X0085733Y0110257D01*
X0085733Y0111043D02*
X0100284Y0111043D01*
X0100284Y0111236D02*
X0100595Y0111236D01*
X0100595Y0111236D01*
X0100284Y0111236D01*
X0101186Y0111236D02*
X0103056Y0111236D01*
X0103056Y0111236D01*
X0101186Y0111236D01*
X0101186Y0111236D01*
X0101186Y0113400D02*
X0100595Y0113400D01*
X0100595Y0114972D02*
X0101186Y0114972D01*
X0101186Y0117142D02*
X0101186Y0117142D01*
X0103056Y0117142D01*
X0103056Y0117142D01*
X0101186Y0117142D01*
X0098119Y0111829D02*
X0085630Y0111829D01*
X0085647Y0104755D02*
X0098119Y0104755D01*
X0100595Y0103184D02*
X0101186Y0103184D01*
X0101186Y0105331D02*
X0101186Y0105331D01*
X0103056Y0105331D01*
X0103056Y0105331D01*
X0101186Y0105331D01*
X0107877Y0113400D02*
X0109951Y0113400D01*
X0109956Y0114972D02*
X0107872Y0114972D01*
X0113084Y0115758D02*
X0129040Y0115758D01*
X0129040Y0116544D02*
X0113489Y0116544D01*
X0113489Y0117330D02*
X0129040Y0117330D01*
X0129040Y0118116D02*
X0113489Y0118116D01*
X0112708Y0118902D02*
X0129040Y0118902D01*
X0136521Y0122831D02*
X0181111Y0122831D01*
X0180325Y0123617D02*
X0136521Y0123617D01*
X0136642Y0124403D02*
X0179733Y0124403D01*
X0179733Y0125189D02*
X0137428Y0125189D01*
X0138214Y0125975D02*
X0179733Y0125975D01*
X0179733Y0126761D02*
X0138489Y0126761D01*
X0138489Y0127547D02*
X0179733Y0127547D01*
X0180433Y0128333D02*
X0138489Y0128333D01*
X0138489Y0129119D02*
X0181218Y0129119D01*
X0182004Y0129905D02*
X0138489Y0129905D01*
X0138489Y0132262D02*
X0181680Y0132262D01*
X0180894Y0133048D02*
X0138489Y0133048D01*
X0138489Y0133834D02*
X0180108Y0133834D01*
X0179733Y0134620D02*
X0138489Y0134620D01*
X0145773Y0135406D02*
X0179733Y0135406D01*
X0179733Y0136192D02*
X0145773Y0136192D01*
X0145773Y0136978D02*
X0179733Y0136978D01*
X0179863Y0137764D02*
X0145773Y0137764D01*
X0145773Y0138550D02*
X0180649Y0138550D01*
X0181435Y0139336D02*
X0145773Y0139336D01*
X0183800Y0159769D02*
X0069950Y0159769D01*
X0070182Y0160555D02*
X0183568Y0160555D01*
X0183568Y0161341D02*
X0070182Y0161341D01*
X0070182Y0162127D02*
X0183568Y0162127D01*
X0183568Y0162913D02*
X0070182Y0162913D01*
X0070182Y0163699D02*
X0183568Y0163699D01*
X0183568Y0164485D02*
X0070182Y0164485D01*
X0070182Y0165271D02*
X0183568Y0165271D01*
X0183568Y0166057D02*
X0070182Y0166057D01*
X0070182Y0166843D02*
X0183568Y0166843D01*
X0183568Y0167628D02*
X0070182Y0167628D01*
X0070182Y0168414D02*
X0183568Y0168414D01*
X0183568Y0169200D02*
X0070182Y0169200D01*
X0070182Y0169986D02*
X0183568Y0169986D01*
X0183568Y0170772D02*
X0070182Y0170772D01*
X0070182Y0171558D02*
X0183568Y0171558D01*
X0183568Y0172344D02*
X0070182Y0172344D01*
X0070182Y0173130D02*
X0183568Y0173130D01*
X0183568Y0173916D02*
X0070182Y0173916D01*
X0070182Y0174702D02*
X0183568Y0174702D01*
X0183568Y0175488D02*
X0070182Y0175488D01*
X0069694Y0158983D02*
X0184056Y0158983D01*
X0184311Y0158197D02*
X0069439Y0158197D01*
X0069184Y0157412D02*
X0184566Y0157412D01*
X0184763Y0156807D02*
X0184763Y0156807D01*
X0184895Y0156626D02*
X0068855Y0156626D01*
X0068987Y0156807D02*
X0068987Y0156807D01*
X0068284Y0155840D02*
X0185466Y0155840D01*
X0186037Y0155054D02*
X0067713Y0155054D01*
X0067142Y0154268D02*
X0186608Y0154268D01*
X0187035Y0153680D02*
X0187035Y0153680D01*
X0187307Y0153482D02*
X0066443Y0153482D01*
X0066715Y0153680D02*
X0066715Y0153680D01*
X0065361Y0152696D02*
X0188389Y0152696D01*
X0189471Y0151910D02*
X0064279Y0151910D01*
X0062716Y0151124D02*
X0191034Y0151124D01*
X0190163Y0151407D02*
X0190163Y0151407D01*
X0193453Y0150338D02*
X0060297Y0150338D01*
X0082980Y0094539D02*
X0082996Y0094539D01*
X0101088Y0074891D02*
X0101481Y0074891D01*
X0101481Y0074105D02*
X0101088Y0074105D01*
X0101088Y0073319D02*
X0101481Y0073319D01*
X0101481Y0072533D02*
X0101088Y0072533D01*
X0101088Y0071747D02*
X0101481Y0071747D01*
X0101481Y0070961D02*
X0101088Y0070961D01*
X0101088Y0070175D02*
X0101481Y0070175D01*
X0101481Y0069389D02*
X0101088Y0069389D01*
X0101088Y0068603D02*
X0101481Y0068603D01*
X0101481Y0067817D02*
X0101088Y0067817D01*
X0101088Y0067032D02*
X0101481Y0067032D01*
X0101481Y0066246D02*
X0101088Y0066246D01*
X0101088Y0065460D02*
X0101481Y0065460D01*
X0101481Y0064674D02*
X0101088Y0064674D01*
X0101088Y0063888D02*
X0101481Y0063888D01*
X0101481Y0063102D02*
X0101088Y0063102D01*
X0101088Y0062316D02*
X0101481Y0062316D01*
X0101481Y0061530D02*
X0101088Y0061530D01*
X0101088Y0060744D02*
X0101481Y0060744D01*
X0101481Y0059958D02*
X0101088Y0059958D01*
X0101088Y0059172D02*
X0101481Y0059172D01*
X0101481Y0058387D02*
X0101088Y0058387D01*
X0101088Y0057601D02*
X0101481Y0057601D01*
X0101481Y0056815D02*
X0101088Y0056815D01*
X0101088Y0056029D02*
X0101481Y0056029D01*
X0101481Y0055243D02*
X0101088Y0055243D01*
X0101088Y0054457D02*
X0101481Y0054457D01*
X0101481Y0053671D02*
X0101088Y0053671D01*
X0101088Y0052885D02*
X0101481Y0052885D01*
X0101481Y0052099D02*
X0101088Y0052099D01*
X0101088Y0051313D02*
X0101481Y0051313D01*
X0101481Y0050527D02*
X0101088Y0050527D01*
X0082800Y0052099D02*
X0072779Y0052099D01*
X0073565Y0051313D02*
X0082387Y0051313D01*
X0082387Y0050527D02*
X0074017Y0050527D01*
X0074017Y0049741D02*
X0082387Y0049741D01*
X0082387Y0048956D02*
X0074017Y0048956D01*
X0074017Y0048170D02*
X0082387Y0048170D01*
X0082387Y0047384D02*
X0073963Y0047384D01*
X0073177Y0046598D02*
X0082387Y0046598D01*
X0082387Y0045812D02*
X0072391Y0045812D01*
X0071605Y0045026D02*
X0082387Y0045026D01*
X0069288Y0029308D02*
X0184462Y0029308D01*
X0184207Y0028522D02*
X0069543Y0028522D01*
X0069798Y0027736D02*
X0183952Y0027736D01*
X0183696Y0026950D02*
X0070054Y0026950D01*
X0070182Y0026164D02*
X0183568Y0026164D01*
X0183568Y0025378D02*
X0070182Y0025378D01*
X0070182Y0024592D02*
X0183568Y0024592D01*
X0183568Y0023806D02*
X0070182Y0023806D01*
X0070182Y0023020D02*
X0183568Y0023020D01*
X0183568Y0022235D02*
X0070182Y0022235D01*
X0070182Y0021449D02*
X0183568Y0021449D01*
X0183568Y0020663D02*
X0070182Y0020663D01*
X0070182Y0019877D02*
X0183568Y0019877D01*
X0183568Y0019091D02*
X0070182Y0019091D01*
X0070182Y0018305D02*
X0183568Y0018305D01*
X0183568Y0017519D02*
X0070182Y0017519D01*
X0070182Y0016733D02*
X0183568Y0016733D01*
X0183568Y0015947D02*
X0070182Y0015947D01*
X0070182Y0015161D02*
X0183568Y0015161D01*
X0183568Y0014375D02*
X0070182Y0014375D01*
X0070182Y0013589D02*
X0183568Y0013589D01*
X0183568Y0012804D02*
X0070182Y0012804D01*
X0070182Y0012018D02*
X0183568Y0012018D01*
X0183568Y0011232D02*
X0070182Y0011232D01*
X0140851Y0037167D02*
X0209552Y0037167D01*
X0192468Y0036381D02*
X0141224Y0036381D01*
X0140851Y0037953D02*
X0145379Y0037953D01*
X0145379Y0038739D02*
X0140851Y0038739D01*
X0140851Y0039525D02*
X0145379Y0039525D01*
X0145379Y0040311D02*
X0140851Y0040311D01*
X0140851Y0041096D02*
X0145379Y0041096D01*
X0145379Y0041882D02*
X0140851Y0041882D01*
X0140851Y0042668D02*
X0146007Y0042668D01*
X0146757Y0043454D02*
X0140851Y0043454D01*
X0141274Y0044240D02*
X0146409Y0044240D01*
X0144916Y0045026D02*
X0141836Y0045026D01*
X0141836Y0045812D02*
X0144130Y0045812D01*
X0143752Y0046598D02*
X0141836Y0046598D01*
X0156206Y0052885D02*
X0179788Y0052885D01*
X0180574Y0053671D02*
X0156206Y0053671D01*
X0156206Y0054457D02*
X0181360Y0054457D01*
X0182146Y0055243D02*
X0156206Y0055243D01*
X0156206Y0057601D02*
X0181538Y0057601D01*
X0180753Y0058387D02*
X0156206Y0058387D01*
X0156206Y0059172D02*
X0179967Y0059172D01*
X0179733Y0059958D02*
X0156206Y0059958D01*
X0156206Y0060744D02*
X0179733Y0060744D01*
X0179733Y0061530D02*
X0156206Y0061530D01*
X0156206Y0062316D02*
X0179733Y0062316D01*
X0180005Y0063102D02*
X0156206Y0063102D01*
X0156206Y0063888D02*
X0180791Y0063888D01*
X0181577Y0064674D02*
X0156206Y0064674D01*
X0155884Y0074891D02*
X0168440Y0074891D01*
X0168017Y0075677D02*
X0155098Y0075677D01*
X0154312Y0076463D02*
X0168017Y0076463D01*
X0168017Y0077248D02*
X0153526Y0077248D01*
X0152740Y0078034D02*
X0168017Y0078034D01*
X0168017Y0078820D02*
X0151954Y0078820D01*
X0151168Y0079606D02*
X0168017Y0079606D01*
X0168017Y0080392D02*
X0150382Y0080392D01*
X0149596Y0081178D02*
X0168017Y0081178D01*
X0168017Y0081964D02*
X0148810Y0081964D01*
X0148024Y0082750D02*
X0168569Y0082750D01*
X0169795Y0085108D02*
X0145667Y0085108D01*
X0144881Y0085893D02*
X0169009Y0085893D01*
X0142227Y0083536D02*
X0139917Y0083536D01*
X0135204Y0083536D02*
X0106735Y0083536D01*
X0107521Y0082750D02*
X0134418Y0082750D01*
X0134355Y0081964D02*
X0107584Y0081964D01*
X0107584Y0081178D02*
X0134355Y0081178D01*
X0134693Y0080392D02*
X0107246Y0080392D01*
X0107652Y0079606D02*
X0106460Y0079606D01*
X0110665Y0079606D02*
X0135479Y0079606D01*
D20*
X0137702Y0048244D02*
X0137702Y0035449D01*
X0140261Y0032890D01*
X0148529Y0032890D01*
X0156403Y0032890D01*
X0172151Y0078756D02*
X0184946Y0078756D01*
X0187505Y0081315D01*
X0187505Y0089583D01*
X0187505Y0097457D01*
X0105221Y0032890D02*
X0097347Y0032890D01*
X0089080Y0032890D01*
X0086521Y0035449D01*
X0086521Y0048244D01*
X0066245Y0089583D02*
X0066245Y0097457D01*
X0066245Y0105724D01*
X0068804Y0108283D01*
X0081599Y0108283D01*
M02*
