G75*
%MOIN*%
%OFA0B0*%
%FSLAX25Y25*%
%IPPOS*%
%LPD*%
%AMOC8*
5,1,8,0,0,1.08239X$1,22.5*
%
%ADD10C,0.01200*%
%ADD11R,0.11811X0.11811*%
%ADD12R,0.04724X0.01378*%
%ADD13R,0.01378X0.04724*%
%ADD14R,0.03150X0.03937*%
%ADD15R,0.03937X0.03150*%
%ADD16R,0.03937X0.03937*%
%ADD17OC8,0.05906*%
%ADD18C,0.01181*%
%ADD19C,0.02362*%
%ADD20C,0.00787*%
%ADD21C,0.01575*%
%ADD22C,0.03150*%
D10*
X0096153Y0070307D02*
X0097121Y0069340D01*
X0099056Y0069340D01*
X0100023Y0070307D01*
X0102599Y0069340D02*
X0102599Y0075145D01*
X0100023Y0074177D02*
X0099056Y0075145D01*
X0097121Y0075145D01*
X0096153Y0074177D01*
X0096153Y0070307D01*
X0102599Y0072242D02*
X0106469Y0072242D01*
X0109044Y0073210D02*
X0110979Y0075145D01*
X0110979Y0069340D01*
X0109044Y0069340D02*
X0112914Y0069340D01*
X0106469Y0069340D02*
X0106469Y0075145D01*
X0139460Y0074177D02*
X0139460Y0070307D01*
X0140428Y0069340D01*
X0142363Y0069340D01*
X0143330Y0070307D01*
X0145906Y0069340D02*
X0145906Y0075145D01*
X0143330Y0074177D02*
X0142363Y0075145D01*
X0140428Y0075145D01*
X0139460Y0074177D01*
X0145906Y0072242D02*
X0149776Y0072242D01*
X0149776Y0069340D02*
X0149776Y0075145D01*
X0152351Y0074177D02*
X0153319Y0075145D01*
X0155254Y0075145D01*
X0156221Y0074177D01*
X0156221Y0073210D01*
X0152351Y0069340D01*
X0156221Y0069340D01*
X0164050Y0130363D02*
X0165985Y0130363D01*
X0166952Y0131331D01*
X0169528Y0130363D02*
X0169528Y0136168D01*
X0166952Y0135201D02*
X0165985Y0136168D01*
X0164050Y0136168D01*
X0163082Y0135201D01*
X0163082Y0131331D01*
X0164050Y0130363D01*
X0169528Y0133266D02*
X0173398Y0133266D01*
X0173398Y0136168D02*
X0173398Y0130363D01*
X0175973Y0131331D02*
X0176941Y0130363D01*
X0178876Y0130363D01*
X0179843Y0131331D01*
X0179843Y0132298D01*
X0178876Y0133266D01*
X0177908Y0133266D01*
X0178876Y0133266D02*
X0179843Y0134233D01*
X0179843Y0135201D01*
X0178876Y0136168D01*
X0176941Y0136168D01*
X0175973Y0135201D01*
X0103361Y0153918D02*
X0102394Y0153918D01*
X0100459Y0151983D01*
X0100459Y0150049D02*
X0100459Y0153918D01*
X0097883Y0152951D02*
X0097883Y0151983D01*
X0094013Y0151983D01*
X0094013Y0151016D02*
X0094013Y0152951D01*
X0094981Y0153918D01*
X0096916Y0153918D01*
X0097883Y0152951D01*
X0094981Y0150049D02*
X0094013Y0151016D01*
X0094981Y0150049D02*
X0096916Y0150049D01*
X0091651Y0150049D02*
X0090684Y0151016D01*
X0090684Y0154886D01*
X0089716Y0153918D02*
X0091651Y0153918D01*
X0087141Y0153918D02*
X0084238Y0153918D01*
X0083271Y0152951D01*
X0084238Y0151983D01*
X0086173Y0151983D01*
X0087141Y0151016D01*
X0086173Y0150049D01*
X0083271Y0150049D01*
X0080695Y0150049D02*
X0077793Y0150049D01*
X0076825Y0151016D01*
X0077793Y0151983D01*
X0080695Y0151983D01*
X0080695Y0152951D02*
X0079728Y0153918D01*
X0077793Y0153918D01*
X0080695Y0152951D02*
X0080695Y0150049D01*
X0074250Y0150049D02*
X0074250Y0155853D01*
X0072315Y0153918D01*
X0070380Y0155853D01*
X0070380Y0150049D01*
X0073499Y0136168D02*
X0072531Y0135201D01*
X0072531Y0131331D01*
X0073499Y0130363D01*
X0075434Y0130363D01*
X0076401Y0131331D01*
X0078977Y0130363D02*
X0078977Y0136168D01*
X0076401Y0135201D02*
X0075434Y0136168D01*
X0073499Y0136168D01*
X0078977Y0133266D02*
X0082847Y0133266D01*
X0082847Y0136168D02*
X0082847Y0130363D01*
X0085422Y0131331D02*
X0089292Y0135201D01*
X0089292Y0131331D01*
X0088325Y0130363D01*
X0086390Y0130363D01*
X0085422Y0131331D01*
X0085422Y0135201D01*
X0086390Y0136168D01*
X0088325Y0136168D01*
X0089292Y0135201D01*
D11*
X0126875Y0107673D03*
D12*
X0137505Y0107673D03*
X0137505Y0110232D03*
X0137505Y0112791D03*
X0137505Y0105114D03*
X0137505Y0102555D03*
X0116245Y0102555D03*
X0116245Y0105114D03*
X0116245Y0107673D03*
X0116245Y0110232D03*
X0116245Y0112791D03*
D13*
X0121757Y0118303D03*
X0124316Y0118303D03*
X0126875Y0118303D03*
X0129434Y0118303D03*
X0131993Y0118303D03*
X0131993Y0097043D03*
X0129434Y0097043D03*
X0126875Y0097043D03*
X0124316Y0097043D03*
X0121757Y0097043D03*
D14*
X0106796Y0103736D03*
X0099710Y0103736D03*
X0099710Y0111610D03*
X0106796Y0111610D03*
X0106796Y0119484D03*
X0106796Y0125389D03*
X0106796Y0131295D03*
X0099710Y0131295D03*
X0099710Y0125389D03*
X0099710Y0119484D03*
X0146954Y0111610D03*
X0154040Y0111610D03*
X0154040Y0103736D03*
X0154040Y0097830D03*
X0146954Y0097830D03*
X0146954Y0103736D03*
D15*
X0136718Y0127752D03*
X0130812Y0127752D03*
X0130812Y0134838D03*
X0136718Y0134838D03*
D16*
X0124907Y0134838D03*
X0124907Y0127752D03*
D17*
X0121875Y0152949D03*
X0111875Y0152949D03*
X0131875Y0152949D03*
X0141875Y0152949D03*
X0172151Y0122673D03*
X0172151Y0112673D03*
X0172151Y0102673D03*
X0172151Y0092673D03*
X0163529Y0062397D03*
X0153529Y0062397D03*
X0143529Y0062397D03*
X0133529Y0062397D03*
X0120221Y0062397D03*
X0110221Y0062397D03*
X0100221Y0062397D03*
X0090221Y0062397D03*
X0081599Y0092673D03*
X0081599Y0102673D03*
X0081599Y0112673D03*
X0081599Y0122673D03*
D18*
X0106796Y0125389D02*
X0111127Y0125389D01*
X0117033Y0119484D01*
X0120576Y0119484D01*
X0121757Y0119484D01*
X0120576Y0119484D02*
X0121757Y0118303D01*
X0124316Y0118303D02*
X0124316Y0122043D01*
X0122938Y0123421D01*
X0119001Y0123421D01*
X0111127Y0131295D01*
X0106796Y0131295D01*
X0106796Y0119484D02*
X0111127Y0119484D01*
X0116245Y0114366D01*
X0116245Y0112791D01*
X0116245Y0110232D02*
X0112505Y0110232D01*
X0111127Y0111610D01*
X0106796Y0111610D01*
X0111127Y0107673D02*
X0116245Y0107673D01*
X0116245Y0105114D02*
X0112505Y0105114D01*
X0111127Y0103736D01*
X0107190Y0103736D02*
X0111127Y0099799D01*
X0113095Y0099799D01*
X0115851Y0102555D01*
X0116245Y0102555D01*
X0118214Y0097043D02*
X0117033Y0095862D01*
X0118214Y0097043D02*
X0121757Y0097043D01*
X0124316Y0097043D02*
X0124316Y0093303D01*
X0122938Y0091925D01*
X0117033Y0091925D01*
X0126875Y0091925D02*
X0126875Y0097043D01*
X0126875Y0107673D01*
X0126875Y0097830D02*
X0126875Y0097043D01*
X0129434Y0097043D02*
X0129434Y0093303D01*
X0130812Y0091925D01*
X0141048Y0091925D01*
X0146954Y0097830D01*
X0146954Y0103736D02*
X0142623Y0103736D01*
X0141245Y0105114D01*
X0137505Y0105114D01*
X0137505Y0107673D02*
X0142623Y0107673D01*
X0141245Y0110232D02*
X0142623Y0111610D01*
X0141245Y0110232D02*
X0137505Y0110232D01*
X0137505Y0112791D02*
X0137899Y0112791D01*
X0140655Y0115547D01*
X0142623Y0115547D01*
X0146560Y0111610D01*
X0146954Y0111610D01*
X0137505Y0102555D02*
X0137505Y0100980D01*
X0138686Y0099799D01*
X0135536Y0097043D02*
X0136718Y0095862D01*
X0135536Y0097043D02*
X0131993Y0097043D01*
X0131993Y0118303D02*
X0131993Y0120665D01*
X0134749Y0123421D01*
X0134749Y0125783D01*
X0136718Y0127752D01*
X0130812Y0127752D02*
X0130812Y0123421D01*
X0129434Y0122043D01*
X0129434Y0118303D01*
X0107190Y0103736D02*
X0106796Y0103736D01*
D19*
X0111127Y0103736D03*
X0111127Y0107673D03*
X0111127Y0119484D03*
X0111127Y0125389D03*
X0111127Y0131295D03*
X0124907Y0139169D03*
X0130812Y0123421D03*
X0134749Y0123421D03*
X0126875Y0111610D03*
X0130812Y0107673D03*
X0126875Y0103736D03*
X0122938Y0107673D03*
X0117033Y0095862D03*
X0117033Y0091925D03*
X0136718Y0095862D03*
X0138686Y0099799D03*
X0142623Y0107673D03*
X0142623Y0111610D03*
D20*
X0044198Y0164366D02*
X0044198Y0050980D01*
X0059910Y0050980D01*
X0063587Y0049785D01*
X0063587Y0049785D01*
X0066715Y0047513D01*
X0066715Y0047513D01*
X0066715Y0047513D01*
X0068987Y0044385D01*
X0068987Y0044385D01*
X0070182Y0040708D01*
X0070182Y0024996D01*
X0183568Y0024996D01*
X0183568Y0040708D01*
X0184763Y0044385D01*
X0184763Y0044385D01*
X0187035Y0047513D01*
X0187035Y0047513D01*
X0187035Y0047513D01*
X0190163Y0049785D01*
X0190163Y0049785D01*
X0193840Y0050980D01*
X0195936Y0050980D01*
X0209552Y0050980D01*
X0209552Y0164366D01*
X0193840Y0164366D01*
X0190163Y0165561D01*
X0190163Y0165561D01*
X0187035Y0167833D01*
X0187035Y0167833D01*
X0187035Y0167833D01*
X0184763Y0170961D01*
X0184763Y0170961D01*
X0183568Y0174638D01*
X0183568Y0190350D01*
X0070182Y0190350D01*
X0070182Y0174638D01*
X0068987Y0170961D01*
X0068987Y0170961D01*
X0066715Y0167833D01*
X0066715Y0167833D01*
X0063587Y0165561D01*
X0063587Y0165561D01*
X0059910Y0164366D01*
X0044198Y0164366D01*
X0044198Y0163706D02*
X0209552Y0163706D01*
X0209552Y0162920D02*
X0044198Y0162920D01*
X0044198Y0162134D02*
X0209552Y0162134D01*
X0209552Y0161348D02*
X0044198Y0161348D01*
X0044198Y0160562D02*
X0209552Y0160562D01*
X0209552Y0159776D02*
X0044198Y0159776D01*
X0044198Y0158990D02*
X0209552Y0158990D01*
X0209552Y0158204D02*
X0044198Y0158204D01*
X0044198Y0157418D02*
X0069426Y0157418D01*
X0069642Y0157635D02*
X0068599Y0156591D01*
X0068599Y0155116D01*
X0068599Y0149311D01*
X0069642Y0148267D01*
X0071118Y0148267D01*
X0072161Y0149311D01*
X0072161Y0152137D01*
X0072469Y0152137D01*
X0072469Y0149311D01*
X0073512Y0148267D01*
X0074988Y0148267D01*
X0076021Y0149301D01*
X0076088Y0149235D01*
X0077055Y0148267D01*
X0081433Y0148267D01*
X0081983Y0148817D01*
X0082533Y0148267D01*
X0086911Y0148267D01*
X0087879Y0149235D01*
X0087931Y0149287D01*
X0088912Y0150269D01*
X0089923Y0149258D01*
X0089946Y0149235D01*
X0090914Y0148267D01*
X0092389Y0148267D01*
X0093316Y0149194D01*
X0094243Y0148267D01*
X0097654Y0148267D01*
X0098687Y0149301D01*
X0099721Y0148267D01*
X0101197Y0148267D01*
X0102240Y0149311D01*
X0102240Y0151246D01*
X0103132Y0152137D01*
X0104099Y0152137D01*
X0105142Y0153181D01*
X0105142Y0154656D01*
X0104099Y0155700D01*
X0101656Y0155700D01*
X0101426Y0155470D01*
X0101197Y0155700D01*
X0099721Y0155700D01*
X0098687Y0154666D01*
X0098621Y0154732D01*
X0097654Y0155700D01*
X0094243Y0155700D01*
X0093316Y0154773D01*
X0092389Y0155700D01*
X0091422Y0156667D01*
X0089946Y0156667D01*
X0088903Y0155624D01*
X0088903Y0155624D01*
X0088429Y0155150D01*
X0087879Y0155700D01*
X0083501Y0155700D01*
X0082510Y0154709D01*
X0082457Y0154656D01*
X0081994Y0154193D01*
X0081983Y0154182D01*
X0081433Y0154732D01*
X0080466Y0155700D01*
X0077055Y0155700D01*
X0076031Y0154675D01*
X0076031Y0156591D01*
X0074988Y0157635D01*
X0073512Y0157635D01*
X0072469Y0156591D01*
X0072315Y0156437D01*
X0071118Y0157635D01*
X0069642Y0157635D01*
X0068640Y0156632D02*
X0044198Y0156632D01*
X0044198Y0155847D02*
X0068599Y0155847D01*
X0068599Y0155061D02*
X0044198Y0155061D01*
X0044198Y0154275D02*
X0068599Y0154275D01*
X0068599Y0153489D02*
X0044198Y0153489D01*
X0044198Y0152703D02*
X0068599Y0152703D01*
X0068599Y0151917D02*
X0044198Y0151917D01*
X0044198Y0151131D02*
X0068599Y0151131D01*
X0068599Y0150345D02*
X0044198Y0150345D01*
X0044198Y0149559D02*
X0068599Y0149559D01*
X0069136Y0148773D02*
X0044198Y0148773D01*
X0044198Y0147987D02*
X0109158Y0147987D01*
X0109158Y0147201D02*
X0044198Y0147201D01*
X0044198Y0146416D02*
X0109158Y0146416D01*
X0109158Y0145862D02*
X0099161Y0145862D01*
X0098149Y0145442D01*
X0097373Y0144667D01*
X0096954Y0143654D01*
X0096954Y0111062D01*
X0096954Y0103188D01*
X0096954Y0101278D01*
X0097646Y0100586D01*
X0101774Y0100586D01*
X0102466Y0101278D01*
X0102466Y0140350D01*
X0116245Y0140350D01*
X0116245Y0128778D01*
X0116313Y0128614D01*
X0113489Y0131438D01*
X0113489Y0132273D01*
X0112105Y0133657D01*
X0110149Y0133657D01*
X0109558Y0133067D01*
X0109552Y0133067D01*
X0109552Y0133753D01*
X0108860Y0134445D01*
X0104732Y0134445D01*
X0104040Y0133753D01*
X0104040Y0128837D01*
X0104535Y0128342D01*
X0104040Y0127847D01*
X0104040Y0122932D01*
X0104535Y0122437D01*
X0104040Y0121942D01*
X0104040Y0117026D01*
X0104732Y0116334D01*
X0108860Y0116334D01*
X0109552Y0117026D01*
X0109552Y0117712D01*
X0109558Y0117712D01*
X0110149Y0117122D01*
X0110984Y0117122D01*
X0113444Y0114661D01*
X0113394Y0114661D01*
X0112702Y0113969D01*
X0112702Y0112541D01*
X0111861Y0113382D01*
X0109552Y0113382D01*
X0109552Y0114068D01*
X0108860Y0114760D01*
X0104732Y0114760D01*
X0104040Y0114068D01*
X0104040Y0109152D01*
X0104732Y0108460D01*
X0108765Y0108460D01*
X0108765Y0106886D01*
X0104732Y0106886D01*
X0104040Y0106194D01*
X0104040Y0101278D01*
X0104732Y0100586D01*
X0107834Y0100586D01*
X0109355Y0099065D01*
X0110393Y0098027D01*
X0113829Y0098027D01*
X0114867Y0099065D01*
X0116487Y0100685D01*
X0119097Y0100685D01*
X0119665Y0101253D01*
X0119671Y0101229D01*
X0119854Y0100912D01*
X0120114Y0100652D01*
X0120432Y0100469D01*
X0120455Y0100462D01*
X0119887Y0099894D01*
X0119887Y0098815D01*
X0117480Y0098815D01*
X0116889Y0098224D01*
X0116054Y0098224D01*
X0114670Y0096840D01*
X0114670Y0094883D01*
X0115660Y0093893D01*
X0114670Y0092903D01*
X0114670Y0090946D01*
X0116054Y0089563D01*
X0118011Y0089563D01*
X0118602Y0090153D01*
X0123672Y0090153D01*
X0124710Y0091191D01*
X0126088Y0092569D01*
X0126088Y0093287D01*
X0126875Y0093287D01*
X0126875Y0097043D01*
X0126875Y0100799D01*
X0126481Y0100799D01*
X0126481Y0101374D01*
X0127269Y0101374D01*
X0127269Y0100799D01*
X0126875Y0100799D01*
X0126875Y0097043D01*
X0126875Y0097043D01*
X0126875Y0097043D01*
X0126875Y0093287D01*
X0127662Y0093287D01*
X0127662Y0092569D01*
X0129040Y0091191D01*
X0130078Y0090153D01*
X0141782Y0090153D01*
X0142820Y0091191D01*
X0146310Y0094681D01*
X0149018Y0094681D01*
X0149710Y0095373D01*
X0149710Y0100288D01*
X0149215Y0100783D01*
X0149710Y0101278D01*
X0149710Y0106194D01*
X0149018Y0106886D01*
X0144985Y0106886D01*
X0144985Y0108460D01*
X0149018Y0108460D01*
X0149710Y0109152D01*
X0149710Y0114068D01*
X0149018Y0114760D01*
X0145916Y0114760D01*
X0144395Y0116281D01*
X0143357Y0117319D01*
X0139921Y0117319D01*
X0137263Y0114661D01*
X0134654Y0114661D01*
X0134085Y0114093D01*
X0134079Y0114116D01*
X0133896Y0114434D01*
X0133636Y0114694D01*
X0133318Y0114877D01*
X0133295Y0114883D01*
X0133863Y0115451D01*
X0133863Y0120030D01*
X0134892Y0121059D01*
X0135727Y0121059D01*
X0137111Y0122442D01*
X0137111Y0124399D01*
X0136521Y0124990D01*
X0136521Y0124996D01*
X0139175Y0124996D01*
X0139867Y0125688D01*
X0139867Y0129816D01*
X0139175Y0130508D01*
X0134260Y0130508D01*
X0133765Y0130013D01*
X0133270Y0130508D01*
X0128354Y0130508D01*
X0128056Y0130209D01*
X0128056Y0130209D01*
X0127364Y0130901D01*
X0122449Y0130901D01*
X0122055Y0130508D01*
X0121757Y0130508D01*
X0121757Y0132128D01*
X0121823Y0132014D01*
X0122082Y0131755D01*
X0122400Y0131571D01*
X0122755Y0131476D01*
X0124513Y0131476D01*
X0124513Y0134445D01*
X0125300Y0134445D01*
X0125300Y0131476D01*
X0127059Y0131476D01*
X0127413Y0131571D01*
X0127731Y0131755D01*
X0127990Y0132014D01*
X0128149Y0132288D01*
X0128354Y0132082D01*
X0139175Y0132082D01*
X0139867Y0132774D01*
X0139867Y0136902D01*
X0139175Y0137594D01*
X0133568Y0137594D01*
X0133568Y0140350D01*
X0151284Y0140350D01*
X0151284Y0095373D01*
X0151976Y0094681D01*
X0156104Y0094681D01*
X0156796Y0095373D01*
X0156796Y0143654D01*
X0156377Y0144667D01*
X0155601Y0145442D01*
X0154589Y0145862D01*
X0114670Y0145862D01*
X0114670Y0149898D01*
X0116009Y0151236D01*
X0116009Y0154661D01*
X0113587Y0157082D01*
X0110163Y0157082D01*
X0107741Y0154661D01*
X0107741Y0151236D01*
X0109158Y0149819D01*
X0109158Y0145862D01*
X0109158Y0148773D02*
X0101702Y0148773D01*
X0102240Y0149559D02*
X0109158Y0149559D01*
X0108632Y0150345D02*
X0102240Y0150345D01*
X0102240Y0151131D02*
X0107846Y0151131D01*
X0107741Y0151917D02*
X0102911Y0151917D01*
X0104665Y0152703D02*
X0107741Y0152703D01*
X0107741Y0153489D02*
X0105142Y0153489D01*
X0105142Y0154275D02*
X0107741Y0154275D01*
X0108141Y0155061D02*
X0104738Y0155061D01*
X0108927Y0155847D02*
X0092242Y0155847D01*
X0091456Y0156632D02*
X0109713Y0156632D01*
X0111875Y0152949D02*
X0111914Y0152949D01*
X0114823Y0155847D02*
X0118927Y0155847D01*
X0119713Y0156632D02*
X0114037Y0156632D01*
X0115609Y0155061D02*
X0118141Y0155061D01*
X0117741Y0154661D02*
X0117741Y0151236D01*
X0120163Y0148815D01*
X0123587Y0148815D01*
X0126009Y0151236D01*
X0126009Y0154661D01*
X0123587Y0157082D01*
X0120163Y0157082D01*
X0117741Y0154661D01*
X0117741Y0154275D02*
X0116009Y0154275D01*
X0116009Y0153489D02*
X0117741Y0153489D01*
X0117741Y0152703D02*
X0116009Y0152703D01*
X0116009Y0151917D02*
X0117741Y0151917D01*
X0117846Y0151131D02*
X0115904Y0151131D01*
X0115118Y0150345D02*
X0118632Y0150345D01*
X0119418Y0149559D02*
X0114670Y0149559D01*
X0114670Y0148773D02*
X0139903Y0148773D01*
X0140075Y0148602D02*
X0141481Y0148602D01*
X0141481Y0152555D01*
X0137529Y0152555D01*
X0137529Y0151148D01*
X0140075Y0148602D01*
X0139117Y0149559D02*
X0134332Y0149559D01*
X0133587Y0148815D02*
X0136009Y0151236D01*
X0136009Y0154661D01*
X0133587Y0157082D01*
X0130163Y0157082D01*
X0127741Y0154661D01*
X0127741Y0151236D01*
X0130163Y0148815D01*
X0133587Y0148815D01*
X0135118Y0150345D02*
X0138332Y0150345D01*
X0137546Y0151131D02*
X0135904Y0151131D01*
X0136009Y0151917D02*
X0137529Y0151917D01*
X0137529Y0153342D02*
X0141481Y0153342D01*
X0141481Y0152555D01*
X0142269Y0152555D01*
X0142269Y0153342D01*
X0146221Y0153342D01*
X0146221Y0154749D01*
X0143675Y0157295D01*
X0142269Y0157295D01*
X0142269Y0153342D01*
X0141481Y0153342D01*
X0141481Y0157295D01*
X0140075Y0157295D01*
X0137529Y0154749D01*
X0137529Y0153342D01*
X0137529Y0153489D02*
X0136009Y0153489D01*
X0136009Y0154275D02*
X0137529Y0154275D01*
X0137840Y0155061D02*
X0135609Y0155061D01*
X0134823Y0155847D02*
X0138626Y0155847D01*
X0139412Y0156632D02*
X0134037Y0156632D01*
X0136009Y0152703D02*
X0141481Y0152703D01*
X0141481Y0153489D02*
X0142269Y0153489D01*
X0142269Y0154275D02*
X0141481Y0154275D01*
X0141481Y0155061D02*
X0142269Y0155061D01*
X0142269Y0155847D02*
X0141481Y0155847D01*
X0141481Y0156632D02*
X0142269Y0156632D01*
X0144338Y0156632D02*
X0209552Y0156632D01*
X0209552Y0155847D02*
X0145124Y0155847D01*
X0145910Y0155061D02*
X0209552Y0155061D01*
X0209552Y0154275D02*
X0146221Y0154275D01*
X0146221Y0153489D02*
X0209552Y0153489D01*
X0209552Y0152703D02*
X0142269Y0152703D01*
X0142269Y0152555D02*
X0146221Y0152555D01*
X0146221Y0151148D01*
X0143675Y0148602D01*
X0142269Y0148602D01*
X0142269Y0152555D01*
X0142269Y0151917D02*
X0141481Y0151917D01*
X0141481Y0151131D02*
X0142269Y0151131D01*
X0142269Y0150345D02*
X0141481Y0150345D01*
X0141481Y0149559D02*
X0142269Y0149559D01*
X0142269Y0148773D02*
X0141481Y0148773D01*
X0143847Y0148773D02*
X0209552Y0148773D01*
X0209552Y0147987D02*
X0114670Y0147987D01*
X0114670Y0147201D02*
X0209552Y0147201D01*
X0209552Y0146416D02*
X0114670Y0146416D01*
X0116245Y0140128D02*
X0102466Y0140128D01*
X0102466Y0139342D02*
X0116245Y0139342D01*
X0116245Y0138556D02*
X0102466Y0138556D01*
X0102466Y0137771D02*
X0116245Y0137771D01*
X0116245Y0136985D02*
X0102466Y0136985D01*
X0102466Y0136199D02*
X0116245Y0136199D01*
X0116245Y0135413D02*
X0102466Y0135413D01*
X0102466Y0134627D02*
X0116245Y0134627D01*
X0116245Y0133841D02*
X0109464Y0133841D01*
X0112708Y0133055D02*
X0116245Y0133055D01*
X0116245Y0132269D02*
X0113489Y0132269D01*
X0113489Y0131483D02*
X0116245Y0131483D01*
X0116245Y0130697D02*
X0114230Y0130697D01*
X0115016Y0129911D02*
X0116245Y0129911D01*
X0116245Y0129125D02*
X0115802Y0129125D01*
X0121757Y0130697D02*
X0122245Y0130697D01*
X0122728Y0131483D02*
X0121757Y0131483D01*
X0124513Y0131483D02*
X0125300Y0131483D01*
X0125300Y0132269D02*
X0124513Y0132269D01*
X0124513Y0133055D02*
X0125300Y0133055D01*
X0125300Y0133841D02*
X0124513Y0133841D01*
X0124513Y0135232D02*
X0124513Y0138200D01*
X0122755Y0138200D01*
X0122400Y0138105D01*
X0122082Y0137922D01*
X0121823Y0137663D01*
X0121757Y0137548D01*
X0121757Y0140350D01*
X0128056Y0140350D01*
X0128056Y0137548D01*
X0127990Y0137663D01*
X0127731Y0137922D01*
X0127413Y0138105D01*
X0127059Y0138200D01*
X0125300Y0138200D01*
X0125300Y0135232D01*
X0124513Y0135232D01*
X0124513Y0135413D02*
X0125300Y0135413D01*
X0125300Y0136199D02*
X0124513Y0136199D01*
X0124513Y0136985D02*
X0125300Y0136985D01*
X0125300Y0137771D02*
X0124513Y0137771D01*
X0121757Y0138556D02*
X0128056Y0138556D01*
X0128056Y0137771D02*
X0127882Y0137771D01*
X0128056Y0139342D02*
X0121757Y0139342D01*
X0121757Y0140128D02*
X0128056Y0140128D01*
X0133568Y0140128D02*
X0151284Y0140128D01*
X0151284Y0139342D02*
X0133568Y0139342D01*
X0133568Y0138556D02*
X0151284Y0138556D01*
X0151284Y0137771D02*
X0133568Y0137771D01*
X0128168Y0132269D02*
X0128138Y0132269D01*
X0127085Y0131483D02*
X0151284Y0131483D01*
X0151284Y0130697D02*
X0127568Y0130697D01*
X0121931Y0137771D02*
X0121757Y0137771D01*
X0124332Y0149559D02*
X0129418Y0149559D01*
X0128632Y0150345D02*
X0125118Y0150345D01*
X0125904Y0151131D02*
X0127846Y0151131D01*
X0127741Y0151917D02*
X0126009Y0151917D01*
X0126009Y0152703D02*
X0127741Y0152703D01*
X0127741Y0153489D02*
X0126009Y0153489D01*
X0126009Y0154275D02*
X0127741Y0154275D01*
X0128141Y0155061D02*
X0125609Y0155061D01*
X0124823Y0155847D02*
X0128927Y0155847D01*
X0129713Y0156632D02*
X0124037Y0156632D01*
X0139785Y0136985D02*
X0151284Y0136985D01*
X0151284Y0136199D02*
X0139867Y0136199D01*
X0139867Y0135413D02*
X0151284Y0135413D01*
X0151284Y0134627D02*
X0139867Y0134627D01*
X0139867Y0133841D02*
X0151284Y0133841D01*
X0151284Y0133055D02*
X0139867Y0133055D01*
X0139362Y0132269D02*
X0151284Y0132269D01*
X0151284Y0129911D02*
X0139771Y0129911D01*
X0139867Y0129125D02*
X0151284Y0129125D01*
X0151284Y0128340D02*
X0139867Y0128340D01*
X0139867Y0127554D02*
X0151284Y0127554D01*
X0151284Y0126768D02*
X0139867Y0126768D01*
X0139867Y0125982D02*
X0151284Y0125982D01*
X0151284Y0125196D02*
X0139375Y0125196D01*
X0137101Y0124410D02*
X0151284Y0124410D01*
X0151284Y0123624D02*
X0137111Y0123624D01*
X0137111Y0122838D02*
X0151284Y0122838D01*
X0151284Y0122052D02*
X0136721Y0122052D01*
X0135935Y0121266D02*
X0151284Y0121266D01*
X0151284Y0120480D02*
X0134314Y0120480D01*
X0133863Y0119695D02*
X0151284Y0119695D01*
X0151284Y0118909D02*
X0133863Y0118909D01*
X0133863Y0118123D02*
X0151284Y0118123D01*
X0151284Y0117337D02*
X0133863Y0117337D01*
X0133863Y0116551D02*
X0139153Y0116551D01*
X0138367Y0115765D02*
X0133863Y0115765D01*
X0133391Y0114979D02*
X0137581Y0114979D01*
X0134186Y0114193D02*
X0134035Y0114193D01*
X0144125Y0116551D02*
X0151284Y0116551D01*
X0151284Y0115765D02*
X0144910Y0115765D01*
X0144395Y0116281D02*
X0144395Y0116281D01*
X0145696Y0114979D02*
X0151284Y0114979D01*
X0151284Y0114193D02*
X0149584Y0114193D01*
X0149710Y0113407D02*
X0151284Y0113407D01*
X0151284Y0112621D02*
X0149710Y0112621D01*
X0149710Y0111835D02*
X0151284Y0111835D01*
X0151284Y0111049D02*
X0149710Y0111049D01*
X0149710Y0110264D02*
X0151284Y0110264D01*
X0151284Y0109478D02*
X0149710Y0109478D01*
X0149249Y0108692D02*
X0151284Y0108692D01*
X0151284Y0107906D02*
X0144985Y0107906D01*
X0144985Y0107120D02*
X0151284Y0107120D01*
X0151284Y0106334D02*
X0149569Y0106334D01*
X0149710Y0105548D02*
X0151284Y0105548D01*
X0151284Y0104762D02*
X0149710Y0104762D01*
X0149710Y0103976D02*
X0151284Y0103976D01*
X0151284Y0103190D02*
X0149710Y0103190D01*
X0149710Y0102404D02*
X0151284Y0102404D01*
X0151284Y0101619D02*
X0149710Y0101619D01*
X0149264Y0100833D02*
X0151284Y0100833D01*
X0151284Y0100047D02*
X0149710Y0100047D01*
X0149710Y0099261D02*
X0151284Y0099261D01*
X0151284Y0098475D02*
X0149710Y0098475D01*
X0149710Y0097689D02*
X0151284Y0097689D01*
X0151284Y0096903D02*
X0149710Y0096903D01*
X0149710Y0096117D02*
X0151284Y0096117D01*
X0151326Y0095331D02*
X0149668Y0095331D01*
X0146174Y0094545D02*
X0168177Y0094545D01*
X0168017Y0094385D02*
X0168017Y0090961D01*
X0170438Y0088539D01*
X0173863Y0088539D01*
X0176284Y0090961D01*
X0176284Y0094385D01*
X0173863Y0096807D01*
X0170438Y0096807D01*
X0168017Y0094385D01*
X0168017Y0093759D02*
X0145388Y0093759D01*
X0144602Y0092973D02*
X0168017Y0092973D01*
X0168017Y0092188D02*
X0143816Y0092188D01*
X0143031Y0091402D02*
X0168017Y0091402D01*
X0168362Y0090616D02*
X0142245Y0090616D01*
X0129616Y0090616D02*
X0124134Y0090616D01*
X0124920Y0091402D02*
X0128830Y0091402D01*
X0128044Y0092188D02*
X0125706Y0092188D01*
X0126088Y0092973D02*
X0127662Y0092973D01*
X0126875Y0093759D02*
X0126875Y0093759D01*
X0126875Y0094545D02*
X0126875Y0094545D01*
X0126875Y0095331D02*
X0126875Y0095331D01*
X0126875Y0096117D02*
X0126875Y0096117D01*
X0126875Y0096903D02*
X0126875Y0096903D01*
X0126875Y0097689D02*
X0126875Y0097689D01*
X0126875Y0098475D02*
X0126875Y0098475D01*
X0126875Y0099261D02*
X0126875Y0099261D01*
X0126875Y0100047D02*
X0126875Y0100047D01*
X0126481Y0100833D02*
X0127269Y0100833D01*
X0120039Y0100047D02*
X0115849Y0100047D01*
X0115063Y0099261D02*
X0119887Y0099261D01*
X0119933Y0100833D02*
X0119244Y0100833D01*
X0117140Y0098475D02*
X0114277Y0098475D01*
X0115519Y0097689D02*
X0044198Y0097689D01*
X0044198Y0098475D02*
X0109946Y0098475D01*
X0109160Y0099261D02*
X0084033Y0099261D01*
X0083312Y0098539D02*
X0085733Y0100961D01*
X0085733Y0104385D01*
X0083312Y0106807D01*
X0079887Y0106807D01*
X0077466Y0104385D01*
X0077466Y0100961D01*
X0079887Y0098539D01*
X0083312Y0098539D01*
X0083400Y0097019D02*
X0081993Y0097019D01*
X0081993Y0093067D01*
X0081206Y0093067D01*
X0081206Y0097019D01*
X0079799Y0097019D01*
X0077253Y0094473D01*
X0077253Y0093067D01*
X0081206Y0093067D01*
X0081206Y0092279D01*
X0081993Y0092279D01*
X0081993Y0088326D01*
X0083400Y0088326D01*
X0085946Y0090873D01*
X0085946Y0092279D01*
X0081993Y0092279D01*
X0081993Y0093067D01*
X0085946Y0093067D01*
X0085946Y0094473D01*
X0083400Y0097019D01*
X0083516Y0096903D02*
X0114733Y0096903D01*
X0114670Y0096117D02*
X0084302Y0096117D01*
X0085088Y0095331D02*
X0114670Y0095331D01*
X0115008Y0094545D02*
X0085874Y0094545D01*
X0085946Y0093759D02*
X0115526Y0093759D01*
X0114740Y0092973D02*
X0081993Y0092973D01*
X0081993Y0092188D02*
X0081206Y0092188D01*
X0081206Y0092279D02*
X0081206Y0088326D01*
X0079799Y0088326D01*
X0077253Y0090873D01*
X0077253Y0092279D01*
X0081206Y0092279D01*
X0081206Y0092973D02*
X0044198Y0092973D01*
X0044198Y0092188D02*
X0077253Y0092188D01*
X0077253Y0091402D02*
X0044198Y0091402D01*
X0044198Y0090616D02*
X0077510Y0090616D01*
X0078296Y0089830D02*
X0044198Y0089830D01*
X0044198Y0089044D02*
X0079082Y0089044D01*
X0081206Y0089044D02*
X0081993Y0089044D01*
X0081993Y0089830D02*
X0081206Y0089830D01*
X0081206Y0090616D02*
X0081993Y0090616D01*
X0081993Y0091402D02*
X0081206Y0091402D01*
X0081206Y0093759D02*
X0081993Y0093759D01*
X0081993Y0094545D02*
X0081206Y0094545D01*
X0081206Y0095331D02*
X0081993Y0095331D01*
X0081993Y0096117D02*
X0081206Y0096117D01*
X0081206Y0096903D02*
X0081993Y0096903D01*
X0079683Y0096903D02*
X0044198Y0096903D01*
X0044198Y0096117D02*
X0078897Y0096117D01*
X0078111Y0095331D02*
X0044198Y0095331D01*
X0044198Y0094545D02*
X0077325Y0094545D01*
X0077253Y0093759D02*
X0044198Y0093759D01*
X0044198Y0088258D02*
X0209552Y0088258D01*
X0209552Y0087472D02*
X0044198Y0087472D01*
X0044198Y0086686D02*
X0209552Y0086686D01*
X0209552Y0085900D02*
X0044198Y0085900D01*
X0044198Y0085114D02*
X0209552Y0085114D01*
X0209552Y0084328D02*
X0044198Y0084328D01*
X0044198Y0083543D02*
X0209552Y0083543D01*
X0209552Y0082757D02*
X0044198Y0082757D01*
X0044198Y0081971D02*
X0209552Y0081971D01*
X0209552Y0081185D02*
X0044198Y0081185D01*
X0044198Y0080399D02*
X0209552Y0080399D01*
X0209552Y0079613D02*
X0044198Y0079613D01*
X0044198Y0078827D02*
X0209552Y0078827D01*
X0209552Y0078041D02*
X0044198Y0078041D01*
X0044198Y0077255D02*
X0209552Y0077255D01*
X0209552Y0076469D02*
X0156448Y0076469D01*
X0155992Y0076926D02*
X0152581Y0076926D01*
X0151561Y0075906D01*
X0151547Y0075892D01*
X0150514Y0076926D01*
X0149038Y0076926D01*
X0147995Y0075883D01*
X0147995Y0074023D01*
X0147687Y0074023D01*
X0147687Y0075883D01*
X0146644Y0076926D01*
X0145168Y0076926D01*
X0144134Y0075892D01*
X0143101Y0076926D01*
X0139690Y0076926D01*
X0138670Y0075906D01*
X0138647Y0075883D01*
X0137694Y0074930D01*
X0137679Y0074915D01*
X0137679Y0069570D01*
X0138723Y0068526D01*
X0139690Y0067559D01*
X0143101Y0067559D01*
X0144134Y0068593D01*
X0145168Y0067559D01*
X0146644Y0067559D01*
X0147687Y0068602D01*
X0147687Y0070461D01*
X0147995Y0070461D01*
X0147995Y0068602D01*
X0149038Y0067559D01*
X0150514Y0067559D01*
X0151064Y0068109D01*
X0151614Y0067559D01*
X0156959Y0067559D01*
X0158002Y0068602D01*
X0158002Y0070078D01*
X0156959Y0071121D01*
X0156651Y0071121D01*
X0156959Y0071429D01*
X0158002Y0072472D01*
X0158002Y0074915D01*
X0157035Y0075883D01*
X0155992Y0076926D01*
X0157234Y0075683D02*
X0209552Y0075683D01*
X0209552Y0074898D02*
X0158002Y0074898D01*
X0158002Y0074112D02*
X0209552Y0074112D01*
X0209552Y0073326D02*
X0158002Y0073326D01*
X0158002Y0072540D02*
X0209552Y0072540D01*
X0209552Y0071754D02*
X0157284Y0071754D01*
X0157112Y0070968D02*
X0209552Y0070968D01*
X0209552Y0070182D02*
X0157898Y0070182D01*
X0158002Y0069396D02*
X0209552Y0069396D01*
X0209552Y0068610D02*
X0158002Y0068610D01*
X0157225Y0067824D02*
X0209552Y0067824D01*
X0209552Y0067038D02*
X0044198Y0067038D01*
X0044198Y0066252D02*
X0088230Y0066252D01*
X0088509Y0066531D02*
X0086088Y0064110D01*
X0086088Y0060685D01*
X0088509Y0058263D01*
X0091934Y0058263D01*
X0094355Y0060685D01*
X0094355Y0064110D01*
X0091934Y0066531D01*
X0088509Y0066531D01*
X0087445Y0065467D02*
X0044198Y0065467D01*
X0044198Y0064681D02*
X0086659Y0064681D01*
X0086088Y0063895D02*
X0044198Y0063895D01*
X0044198Y0063109D02*
X0086088Y0063109D01*
X0086088Y0062323D02*
X0044198Y0062323D01*
X0044198Y0061537D02*
X0086088Y0061537D01*
X0086088Y0060751D02*
X0044198Y0060751D01*
X0044198Y0059965D02*
X0086807Y0059965D01*
X0087593Y0059179D02*
X0044198Y0059179D01*
X0044198Y0058393D02*
X0088379Y0058393D01*
X0092064Y0058393D02*
X0098379Y0058393D01*
X0098509Y0058263D02*
X0101934Y0058263D01*
X0104355Y0060685D01*
X0104355Y0064110D01*
X0101934Y0066531D01*
X0098509Y0066531D01*
X0096088Y0064110D01*
X0096088Y0060685D01*
X0098509Y0058263D01*
X0097593Y0059179D02*
X0092850Y0059179D01*
X0093635Y0059965D02*
X0096807Y0059965D01*
X0096088Y0060751D02*
X0094355Y0060751D01*
X0094355Y0061537D02*
X0096088Y0061537D01*
X0096088Y0062323D02*
X0094355Y0062323D01*
X0094355Y0063109D02*
X0096088Y0063109D01*
X0096088Y0063895D02*
X0094355Y0063895D01*
X0093784Y0064681D02*
X0096659Y0064681D01*
X0097445Y0065467D02*
X0092998Y0065467D01*
X0092212Y0066252D02*
X0098230Y0066252D01*
X0099793Y0067559D02*
X0096383Y0067559D01*
X0095340Y0068602D01*
X0094372Y0069570D01*
X0094372Y0074915D01*
X0094387Y0074930D01*
X0095340Y0075883D01*
X0095363Y0075906D01*
X0096383Y0076926D01*
X0099793Y0076926D01*
X0100827Y0075892D01*
X0101861Y0076926D01*
X0103336Y0076926D01*
X0104380Y0075883D01*
X0104380Y0074023D01*
X0104688Y0074023D01*
X0104688Y0075883D01*
X0105731Y0076926D01*
X0107206Y0076926D01*
X0108250Y0075883D01*
X0108250Y0074934D01*
X0110241Y0076926D01*
X0111717Y0076926D01*
X0111732Y0076911D01*
X0112760Y0075883D01*
X0112760Y0071121D01*
X0113652Y0071121D01*
X0114695Y0070078D01*
X0114695Y0068602D01*
X0113652Y0067559D01*
X0108306Y0067559D01*
X0107756Y0068109D01*
X0107206Y0067559D01*
X0105731Y0067559D01*
X0104688Y0068602D01*
X0104688Y0070461D01*
X0104380Y0070461D01*
X0104380Y0068602D01*
X0103336Y0067559D01*
X0101861Y0067559D01*
X0100827Y0068593D01*
X0099793Y0067559D01*
X0100059Y0067824D02*
X0101595Y0067824D01*
X0102212Y0066252D02*
X0108230Y0066252D01*
X0108509Y0066531D02*
X0106088Y0064110D01*
X0106088Y0060685D01*
X0108509Y0058263D01*
X0111934Y0058263D01*
X0114355Y0060685D01*
X0114355Y0064110D01*
X0111934Y0066531D01*
X0108509Y0066531D01*
X0108041Y0067824D02*
X0107472Y0067824D01*
X0105465Y0067824D02*
X0103602Y0067824D01*
X0104380Y0068610D02*
X0104688Y0068610D01*
X0104688Y0069396D02*
X0104380Y0069396D01*
X0104380Y0070182D02*
X0104688Y0070182D01*
X0104688Y0074112D02*
X0104380Y0074112D01*
X0104380Y0074898D02*
X0104688Y0074898D01*
X0104688Y0075683D02*
X0104380Y0075683D01*
X0103793Y0076469D02*
X0105274Y0076469D01*
X0107663Y0076469D02*
X0109785Y0076469D01*
X0108999Y0075683D02*
X0108250Y0075683D01*
X0112174Y0076469D02*
X0139233Y0076469D01*
X0138448Y0075683D02*
X0112760Y0075683D01*
X0112760Y0074898D02*
X0137679Y0074898D01*
X0137679Y0074112D02*
X0112760Y0074112D01*
X0112760Y0073326D02*
X0137679Y0073326D01*
X0137679Y0072540D02*
X0112760Y0072540D01*
X0112760Y0071754D02*
X0137679Y0071754D01*
X0137679Y0070968D02*
X0113805Y0070968D01*
X0114591Y0070182D02*
X0137679Y0070182D01*
X0137853Y0069396D02*
X0114695Y0069396D01*
X0114695Y0068610D02*
X0138639Y0068610D01*
X0138723Y0068526D02*
X0138723Y0068526D01*
X0139424Y0067824D02*
X0113917Y0067824D01*
X0112212Y0066252D02*
X0117930Y0066252D01*
X0118421Y0066744D02*
X0115875Y0064198D01*
X0115875Y0062791D01*
X0119828Y0062791D01*
X0119828Y0066744D01*
X0118421Y0066744D01*
X0119828Y0066252D02*
X0120615Y0066252D01*
X0120615Y0066744D02*
X0122022Y0066744D01*
X0124568Y0064198D01*
X0124568Y0062791D01*
X0120615Y0062791D01*
X0119828Y0062791D01*
X0119828Y0062004D01*
X0115875Y0062004D01*
X0115875Y0060597D01*
X0118421Y0058051D01*
X0119828Y0058051D01*
X0119828Y0062004D01*
X0120615Y0062004D01*
X0120615Y0062791D01*
X0120615Y0066744D01*
X0120615Y0065467D02*
X0119828Y0065467D01*
X0119828Y0064681D02*
X0120615Y0064681D01*
X0120615Y0063895D02*
X0119828Y0063895D01*
X0119828Y0063109D02*
X0120615Y0063109D01*
X0120615Y0062323D02*
X0129395Y0062323D01*
X0129395Y0063109D02*
X0124568Y0063109D01*
X0124568Y0063895D02*
X0129395Y0063895D01*
X0129395Y0064110D02*
X0129395Y0060685D01*
X0131816Y0058263D01*
X0135241Y0058263D01*
X0137662Y0060685D01*
X0137662Y0064110D01*
X0135241Y0066531D01*
X0131816Y0066531D01*
X0129395Y0064110D01*
X0129966Y0064681D02*
X0124085Y0064681D01*
X0123299Y0065467D02*
X0130752Y0065467D01*
X0131538Y0066252D02*
X0122513Y0066252D01*
X0119828Y0062323D02*
X0114355Y0062323D01*
X0114355Y0063109D02*
X0115875Y0063109D01*
X0115875Y0063895D02*
X0114355Y0063895D01*
X0113784Y0064681D02*
X0116358Y0064681D01*
X0117144Y0065467D02*
X0112998Y0065467D01*
X0114355Y0061537D02*
X0115875Y0061537D01*
X0115875Y0060751D02*
X0114355Y0060751D01*
X0113635Y0059965D02*
X0116507Y0059965D01*
X0117293Y0059179D02*
X0112850Y0059179D01*
X0112064Y0058393D02*
X0118079Y0058393D01*
X0119828Y0058393D02*
X0120615Y0058393D01*
X0120615Y0058051D02*
X0122022Y0058051D01*
X0124568Y0060597D01*
X0124568Y0062004D01*
X0120615Y0062004D01*
X0120615Y0058051D01*
X0120615Y0059179D02*
X0119828Y0059179D01*
X0119828Y0059965D02*
X0120615Y0059965D01*
X0120615Y0060751D02*
X0119828Y0060751D01*
X0119828Y0061537D02*
X0120615Y0061537D01*
X0123150Y0059179D02*
X0130900Y0059179D01*
X0130115Y0059965D02*
X0123936Y0059965D01*
X0124568Y0060751D02*
X0129395Y0060751D01*
X0129395Y0061537D02*
X0124568Y0061537D01*
X0122364Y0058393D02*
X0131686Y0058393D01*
X0135371Y0058393D02*
X0141686Y0058393D01*
X0141816Y0058263D02*
X0145241Y0058263D01*
X0147662Y0060685D01*
X0147662Y0064110D01*
X0145241Y0066531D01*
X0141816Y0066531D01*
X0139395Y0064110D01*
X0139395Y0060685D01*
X0141816Y0058263D01*
X0140900Y0059179D02*
X0136157Y0059179D01*
X0136943Y0059965D02*
X0140115Y0059965D01*
X0139395Y0060751D02*
X0137662Y0060751D01*
X0137662Y0061537D02*
X0139395Y0061537D01*
X0139395Y0062323D02*
X0137662Y0062323D01*
X0137662Y0063109D02*
X0139395Y0063109D01*
X0139395Y0063895D02*
X0137662Y0063895D01*
X0137091Y0064681D02*
X0139966Y0064681D01*
X0140752Y0065467D02*
X0136305Y0065467D01*
X0135520Y0066252D02*
X0141538Y0066252D01*
X0143366Y0067824D02*
X0144903Y0067824D01*
X0145520Y0066252D02*
X0151538Y0066252D01*
X0151816Y0066531D02*
X0149395Y0064110D01*
X0149395Y0060685D01*
X0151816Y0058263D01*
X0155241Y0058263D01*
X0157662Y0060685D01*
X0157662Y0064110D01*
X0155241Y0066531D01*
X0151816Y0066531D01*
X0151348Y0067824D02*
X0150779Y0067824D01*
X0148772Y0067824D02*
X0146909Y0067824D01*
X0147687Y0068610D02*
X0147995Y0068610D01*
X0147995Y0069396D02*
X0147687Y0069396D01*
X0147687Y0070182D02*
X0147995Y0070182D01*
X0147995Y0074112D02*
X0147687Y0074112D01*
X0147687Y0074898D02*
X0147995Y0074898D01*
X0147995Y0075683D02*
X0147687Y0075683D01*
X0147100Y0076469D02*
X0148581Y0076469D01*
X0150970Y0076469D02*
X0152124Y0076469D01*
X0144711Y0076469D02*
X0143557Y0076469D01*
X0146305Y0065467D02*
X0150752Y0065467D01*
X0149966Y0064681D02*
X0147091Y0064681D01*
X0147662Y0063895D02*
X0149395Y0063895D01*
X0149395Y0063109D02*
X0147662Y0063109D01*
X0147662Y0062323D02*
X0149395Y0062323D01*
X0149395Y0061537D02*
X0147662Y0061537D01*
X0147662Y0060751D02*
X0149395Y0060751D01*
X0150115Y0059965D02*
X0146943Y0059965D01*
X0146157Y0059179D02*
X0150900Y0059179D01*
X0151686Y0058393D02*
X0145371Y0058393D01*
X0155371Y0058393D02*
X0161386Y0058393D01*
X0161728Y0058051D02*
X0163135Y0058051D01*
X0163135Y0062004D01*
X0159182Y0062004D01*
X0159182Y0060597D01*
X0161728Y0058051D01*
X0163135Y0058393D02*
X0163922Y0058393D01*
X0163922Y0058051D02*
X0165329Y0058051D01*
X0167875Y0060597D01*
X0167875Y0062004D01*
X0163922Y0062004D01*
X0163922Y0062791D01*
X0163135Y0062791D01*
X0163135Y0066744D01*
X0161728Y0066744D01*
X0159182Y0064198D01*
X0159182Y0062791D01*
X0163135Y0062791D01*
X0163135Y0062004D01*
X0163922Y0062004D01*
X0163922Y0058051D01*
X0163922Y0059179D02*
X0163135Y0059179D01*
X0163135Y0059965D02*
X0163922Y0059965D01*
X0163922Y0060751D02*
X0163135Y0060751D01*
X0163135Y0061537D02*
X0163922Y0061537D01*
X0163922Y0062323D02*
X0209552Y0062323D01*
X0209552Y0063109D02*
X0167875Y0063109D01*
X0167875Y0062791D02*
X0167875Y0064198D01*
X0165329Y0066744D01*
X0163922Y0066744D01*
X0163922Y0062791D01*
X0167875Y0062791D01*
X0167875Y0063895D02*
X0209552Y0063895D01*
X0209552Y0064681D02*
X0167392Y0064681D01*
X0166606Y0065467D02*
X0209552Y0065467D01*
X0209552Y0066252D02*
X0165820Y0066252D01*
X0163922Y0066252D02*
X0163135Y0066252D01*
X0163135Y0065467D02*
X0163922Y0065467D01*
X0163922Y0064681D02*
X0163135Y0064681D01*
X0163135Y0063895D02*
X0163922Y0063895D01*
X0163922Y0063109D02*
X0163135Y0063109D01*
X0163135Y0062323D02*
X0157662Y0062323D01*
X0157662Y0063109D02*
X0159182Y0063109D01*
X0159182Y0063895D02*
X0157662Y0063895D01*
X0157091Y0064681D02*
X0159665Y0064681D01*
X0160451Y0065467D02*
X0156305Y0065467D01*
X0155520Y0066252D02*
X0161237Y0066252D01*
X0159182Y0061537D02*
X0157662Y0061537D01*
X0157662Y0060751D02*
X0159182Y0060751D01*
X0159814Y0059965D02*
X0156943Y0059965D01*
X0156157Y0059179D02*
X0160600Y0059179D01*
X0165671Y0058393D02*
X0209552Y0058393D01*
X0209552Y0057607D02*
X0044198Y0057607D01*
X0044198Y0056822D02*
X0209552Y0056822D01*
X0209552Y0056036D02*
X0044198Y0056036D01*
X0044198Y0055250D02*
X0209552Y0055250D01*
X0209552Y0054464D02*
X0044198Y0054464D01*
X0044198Y0053678D02*
X0209552Y0053678D01*
X0209552Y0052892D02*
X0044198Y0052892D01*
X0044198Y0052106D02*
X0209552Y0052106D01*
X0209552Y0051320D02*
X0044198Y0051320D01*
X0044198Y0067824D02*
X0096117Y0067824D01*
X0095331Y0068610D02*
X0044198Y0068610D01*
X0044198Y0069396D02*
X0094546Y0069396D01*
X0094372Y0070182D02*
X0044198Y0070182D01*
X0044198Y0070968D02*
X0094372Y0070968D01*
X0094372Y0071754D02*
X0044198Y0071754D01*
X0044198Y0072540D02*
X0094372Y0072540D01*
X0094372Y0073326D02*
X0044198Y0073326D01*
X0044198Y0074112D02*
X0094372Y0074112D01*
X0094372Y0074898D02*
X0044198Y0074898D01*
X0044198Y0075683D02*
X0095140Y0075683D01*
X0095926Y0076469D02*
X0044198Y0076469D01*
X0044198Y0099261D02*
X0079165Y0099261D01*
X0078379Y0100047D02*
X0044198Y0100047D01*
X0044198Y0100833D02*
X0077594Y0100833D01*
X0077466Y0101619D02*
X0044198Y0101619D01*
X0044198Y0102404D02*
X0077466Y0102404D01*
X0077466Y0103190D02*
X0044198Y0103190D01*
X0044198Y0103976D02*
X0077466Y0103976D01*
X0077843Y0104762D02*
X0044198Y0104762D01*
X0044198Y0105548D02*
X0078628Y0105548D01*
X0079414Y0106334D02*
X0044198Y0106334D01*
X0044198Y0107120D02*
X0096954Y0107120D01*
X0096954Y0107906D02*
X0044198Y0107906D01*
X0044198Y0108692D02*
X0079734Y0108692D01*
X0079887Y0108539D02*
X0077466Y0110961D01*
X0077466Y0114385D01*
X0079887Y0116807D01*
X0083312Y0116807D01*
X0085733Y0114385D01*
X0085733Y0110961D01*
X0083312Y0108539D01*
X0079887Y0108539D01*
X0078949Y0109478D02*
X0044198Y0109478D01*
X0044198Y0110264D02*
X0078163Y0110264D01*
X0077466Y0111049D02*
X0044198Y0111049D01*
X0044198Y0111835D02*
X0077466Y0111835D01*
X0077466Y0112621D02*
X0044198Y0112621D01*
X0044198Y0113407D02*
X0077466Y0113407D01*
X0077466Y0114193D02*
X0044198Y0114193D01*
X0044198Y0114979D02*
X0078059Y0114979D01*
X0078845Y0115765D02*
X0044198Y0115765D01*
X0044198Y0116551D02*
X0079631Y0116551D01*
X0079887Y0118539D02*
X0083312Y0118539D01*
X0085733Y0120961D01*
X0085733Y0124385D01*
X0083312Y0126807D01*
X0079887Y0126807D01*
X0077466Y0124385D01*
X0077466Y0120961D01*
X0079887Y0118539D01*
X0079518Y0118909D02*
X0044198Y0118909D01*
X0044198Y0119695D02*
X0078732Y0119695D01*
X0077946Y0120480D02*
X0044198Y0120480D01*
X0044198Y0121266D02*
X0077466Y0121266D01*
X0077466Y0122052D02*
X0044198Y0122052D01*
X0044198Y0122838D02*
X0077466Y0122838D01*
X0077466Y0123624D02*
X0044198Y0123624D01*
X0044198Y0124410D02*
X0077490Y0124410D01*
X0078276Y0125196D02*
X0044198Y0125196D01*
X0044198Y0125982D02*
X0079062Y0125982D01*
X0079848Y0126768D02*
X0044198Y0126768D01*
X0044198Y0127554D02*
X0096954Y0127554D01*
X0096954Y0128340D02*
X0044198Y0128340D01*
X0044198Y0129125D02*
X0072218Y0129125D01*
X0071718Y0129626D02*
X0072761Y0128582D01*
X0076171Y0128582D01*
X0077205Y0129616D01*
X0078239Y0128582D01*
X0079714Y0128582D01*
X0080758Y0129626D01*
X0080758Y0131485D01*
X0081066Y0131485D01*
X0081066Y0129626D01*
X0082109Y0128582D01*
X0083584Y0128582D01*
X0084618Y0129616D01*
X0084684Y0129550D01*
X0085652Y0128582D01*
X0089062Y0128582D01*
X0089077Y0128597D01*
X0090030Y0129550D01*
X0090053Y0129573D01*
X0091073Y0130593D01*
X0091073Y0135939D01*
X0090030Y0136982D01*
X0089062Y0137950D01*
X0085652Y0137950D01*
X0084661Y0136959D01*
X0084618Y0136916D01*
X0083584Y0137950D01*
X0082109Y0137950D01*
X0081066Y0136906D01*
X0081066Y0135047D01*
X0080758Y0135047D01*
X0080758Y0136906D01*
X0079714Y0137950D01*
X0078239Y0137950D01*
X0077205Y0136916D01*
X0076171Y0137950D01*
X0072761Y0137950D01*
X0071741Y0136930D01*
X0071718Y0136906D01*
X0070765Y0135953D01*
X0070750Y0135939D01*
X0070750Y0130593D01*
X0071718Y0129626D01*
X0071432Y0129911D02*
X0044198Y0129911D01*
X0044198Y0130697D02*
X0070750Y0130697D01*
X0070750Y0131483D02*
X0044198Y0131483D01*
X0044198Y0132269D02*
X0070750Y0132269D01*
X0070750Y0133055D02*
X0044198Y0133055D01*
X0044198Y0133841D02*
X0070750Y0133841D01*
X0070750Y0134627D02*
X0044198Y0134627D01*
X0044198Y0135413D02*
X0070750Y0135413D01*
X0071010Y0136199D02*
X0044198Y0136199D01*
X0044198Y0136985D02*
X0071796Y0136985D01*
X0071718Y0136906D02*
X0071718Y0136906D01*
X0072582Y0137771D02*
X0044198Y0137771D01*
X0044198Y0138556D02*
X0096954Y0138556D01*
X0096954Y0137771D02*
X0089241Y0137771D01*
X0090027Y0136985D02*
X0096954Y0136985D01*
X0096954Y0136199D02*
X0090813Y0136199D01*
X0091073Y0135413D02*
X0096954Y0135413D01*
X0096954Y0134627D02*
X0091073Y0134627D01*
X0091073Y0133841D02*
X0096954Y0133841D01*
X0096954Y0133055D02*
X0091073Y0133055D01*
X0091073Y0132269D02*
X0096954Y0132269D01*
X0096954Y0131483D02*
X0091073Y0131483D01*
X0091073Y0130697D02*
X0096954Y0130697D01*
X0096954Y0129911D02*
X0090391Y0129911D01*
X0089606Y0129125D02*
X0096954Y0129125D01*
X0096954Y0126768D02*
X0083351Y0126768D01*
X0084137Y0125982D02*
X0096954Y0125982D01*
X0096954Y0125196D02*
X0084923Y0125196D01*
X0085708Y0124410D02*
X0096954Y0124410D01*
X0096954Y0123624D02*
X0085733Y0123624D01*
X0085733Y0122838D02*
X0096954Y0122838D01*
X0096954Y0122052D02*
X0085733Y0122052D01*
X0085733Y0121266D02*
X0096954Y0121266D01*
X0096954Y0120480D02*
X0085253Y0120480D01*
X0084467Y0119695D02*
X0096954Y0119695D01*
X0096954Y0118909D02*
X0083681Y0118909D01*
X0083568Y0116551D02*
X0096954Y0116551D01*
X0096954Y0117337D02*
X0044198Y0117337D01*
X0044198Y0118123D02*
X0096954Y0118123D01*
X0096954Y0115765D02*
X0084354Y0115765D01*
X0085139Y0114979D02*
X0096954Y0114979D01*
X0096954Y0114193D02*
X0085733Y0114193D01*
X0085733Y0113407D02*
X0096954Y0113407D01*
X0096954Y0112621D02*
X0085733Y0112621D01*
X0085733Y0111835D02*
X0096954Y0111835D01*
X0096954Y0111049D02*
X0085733Y0111049D01*
X0085036Y0110264D02*
X0096954Y0110264D01*
X0096954Y0109478D02*
X0084250Y0109478D01*
X0083464Y0108692D02*
X0096954Y0108692D01*
X0096954Y0106334D02*
X0083784Y0106334D01*
X0084570Y0105548D02*
X0096954Y0105548D01*
X0096954Y0104762D02*
X0085356Y0104762D01*
X0085733Y0103976D02*
X0096954Y0103976D01*
X0096954Y0103190D02*
X0085733Y0103190D01*
X0085733Y0102404D02*
X0096954Y0102404D01*
X0096954Y0101619D02*
X0085733Y0101619D01*
X0085605Y0100833D02*
X0097399Y0100833D01*
X0102020Y0100833D02*
X0104486Y0100833D01*
X0104040Y0101619D02*
X0102466Y0101619D01*
X0102466Y0102404D02*
X0104040Y0102404D01*
X0104040Y0103190D02*
X0102466Y0103190D01*
X0102466Y0103976D02*
X0104040Y0103976D01*
X0104040Y0104762D02*
X0102466Y0104762D01*
X0102466Y0105548D02*
X0104040Y0105548D01*
X0104181Y0106334D02*
X0102466Y0106334D01*
X0102466Y0107120D02*
X0108765Y0107120D01*
X0108765Y0107906D02*
X0102466Y0107906D01*
X0102466Y0108692D02*
X0104501Y0108692D01*
X0104040Y0109478D02*
X0102466Y0109478D01*
X0102466Y0110264D02*
X0104040Y0110264D01*
X0104040Y0111049D02*
X0102466Y0111049D01*
X0102466Y0111835D02*
X0104040Y0111835D01*
X0104040Y0112621D02*
X0102466Y0112621D01*
X0102466Y0113407D02*
X0104040Y0113407D01*
X0104166Y0114193D02*
X0102466Y0114193D01*
X0102466Y0114979D02*
X0113126Y0114979D01*
X0112926Y0114193D02*
X0109427Y0114193D01*
X0109552Y0113407D02*
X0112702Y0113407D01*
X0112702Y0112621D02*
X0112621Y0112621D01*
X0112340Y0115765D02*
X0102466Y0115765D01*
X0102466Y0116551D02*
X0104516Y0116551D01*
X0104040Y0117337D02*
X0102466Y0117337D01*
X0102466Y0118123D02*
X0104040Y0118123D01*
X0104040Y0118909D02*
X0102466Y0118909D01*
X0102466Y0119695D02*
X0104040Y0119695D01*
X0104040Y0120480D02*
X0102466Y0120480D01*
X0102466Y0121266D02*
X0104040Y0121266D01*
X0104151Y0122052D02*
X0102466Y0122052D01*
X0102466Y0122838D02*
X0104134Y0122838D01*
X0104040Y0123624D02*
X0102466Y0123624D01*
X0102466Y0124410D02*
X0104040Y0124410D01*
X0104040Y0125196D02*
X0102466Y0125196D01*
X0102466Y0125982D02*
X0104040Y0125982D01*
X0104040Y0126768D02*
X0102466Y0126768D01*
X0102466Y0127554D02*
X0104040Y0127554D01*
X0104533Y0128340D02*
X0102466Y0128340D01*
X0102466Y0129125D02*
X0104040Y0129125D01*
X0104040Y0129911D02*
X0102466Y0129911D01*
X0102466Y0130697D02*
X0104040Y0130697D01*
X0104040Y0131483D02*
X0102466Y0131483D01*
X0102466Y0132269D02*
X0104040Y0132269D01*
X0104040Y0133055D02*
X0102466Y0133055D01*
X0102466Y0133841D02*
X0104129Y0133841D01*
X0096954Y0139342D02*
X0044198Y0139342D01*
X0044198Y0140128D02*
X0096954Y0140128D01*
X0096954Y0140914D02*
X0044198Y0140914D01*
X0044198Y0141700D02*
X0096954Y0141700D01*
X0096954Y0142486D02*
X0044198Y0142486D01*
X0044198Y0143272D02*
X0096954Y0143272D01*
X0097121Y0144058D02*
X0044198Y0144058D01*
X0044198Y0144844D02*
X0097550Y0144844D01*
X0098601Y0145630D02*
X0044198Y0145630D01*
X0060297Y0164492D02*
X0193453Y0164492D01*
X0191034Y0165277D02*
X0062716Y0165277D01*
X0064279Y0166063D02*
X0189471Y0166063D01*
X0188389Y0166849D02*
X0065361Y0166849D01*
X0066443Y0167635D02*
X0187307Y0167635D01*
X0186608Y0168421D02*
X0067142Y0168421D01*
X0067713Y0169207D02*
X0186037Y0169207D01*
X0185466Y0169993D02*
X0068284Y0169993D01*
X0068855Y0170779D02*
X0184895Y0170779D01*
X0184566Y0171565D02*
X0069184Y0171565D01*
X0069439Y0172351D02*
X0184311Y0172351D01*
X0184056Y0173137D02*
X0069694Y0173137D01*
X0069950Y0173923D02*
X0183800Y0173923D01*
X0183568Y0174708D02*
X0070182Y0174708D01*
X0070182Y0175494D02*
X0183568Y0175494D01*
X0183568Y0176280D02*
X0070182Y0176280D01*
X0070182Y0177066D02*
X0183568Y0177066D01*
X0183568Y0177852D02*
X0070182Y0177852D01*
X0070182Y0178638D02*
X0183568Y0178638D01*
X0183568Y0179424D02*
X0070182Y0179424D01*
X0070182Y0180210D02*
X0183568Y0180210D01*
X0183568Y0180996D02*
X0070182Y0180996D01*
X0070182Y0181782D02*
X0183568Y0181782D01*
X0183568Y0182568D02*
X0070182Y0182568D01*
X0070182Y0183353D02*
X0183568Y0183353D01*
X0183568Y0184139D02*
X0070182Y0184139D01*
X0070182Y0184925D02*
X0183568Y0184925D01*
X0183568Y0185711D02*
X0070182Y0185711D01*
X0070182Y0186497D02*
X0183568Y0186497D01*
X0183568Y0187283D02*
X0070182Y0187283D01*
X0070182Y0188069D02*
X0183568Y0188069D01*
X0183568Y0188855D02*
X0070182Y0188855D01*
X0070182Y0189641D02*
X0183568Y0189641D01*
X0209552Y0157418D02*
X0075204Y0157418D01*
X0075990Y0156632D02*
X0089911Y0156632D01*
X0089125Y0155847D02*
X0076031Y0155847D01*
X0076031Y0155061D02*
X0076416Y0155061D01*
X0073296Y0157418D02*
X0071334Y0157418D01*
X0072120Y0156632D02*
X0072510Y0156632D01*
X0072469Y0151917D02*
X0072161Y0151917D01*
X0072161Y0151131D02*
X0072469Y0151131D01*
X0072469Y0150345D02*
X0072161Y0150345D01*
X0072161Y0149559D02*
X0072469Y0149559D01*
X0073006Y0148773D02*
X0071623Y0148773D01*
X0075493Y0148773D02*
X0076549Y0148773D01*
X0081939Y0148773D02*
X0082027Y0148773D01*
X0082076Y0154275D02*
X0081890Y0154275D01*
X0081104Y0155061D02*
X0082862Y0155061D01*
X0088203Y0149559D02*
X0089622Y0149559D01*
X0090408Y0148773D02*
X0087417Y0148773D01*
X0092895Y0148773D02*
X0093737Y0148773D01*
X0098159Y0148773D02*
X0099215Y0148773D01*
X0099082Y0155061D02*
X0098292Y0155061D01*
X0093604Y0155061D02*
X0093028Y0155061D01*
X0085473Y0137771D02*
X0083763Y0137771D01*
X0084549Y0136985D02*
X0084687Y0136985D01*
X0081930Y0137771D02*
X0079893Y0137771D01*
X0080679Y0136985D02*
X0081144Y0136985D01*
X0081066Y0136199D02*
X0080758Y0136199D01*
X0080758Y0135413D02*
X0081066Y0135413D01*
X0078060Y0137771D02*
X0076350Y0137771D01*
X0077136Y0136985D02*
X0077274Y0136985D01*
X0080758Y0131483D02*
X0081066Y0131483D01*
X0081066Y0130697D02*
X0080758Y0130697D01*
X0080758Y0129911D02*
X0081066Y0129911D01*
X0081566Y0129125D02*
X0080258Y0129125D01*
X0077696Y0129125D02*
X0076715Y0129125D01*
X0084127Y0129125D02*
X0085109Y0129125D01*
X0109077Y0116551D02*
X0111555Y0116551D01*
X0109933Y0117337D02*
X0109552Y0117337D01*
X0108374Y0100047D02*
X0084819Y0100047D01*
X0085946Y0092188D02*
X0114670Y0092188D01*
X0114670Y0091402D02*
X0085946Y0091402D01*
X0085689Y0090616D02*
X0115001Y0090616D01*
X0115787Y0089830D02*
X0084903Y0089830D01*
X0084117Y0089044D02*
X0169933Y0089044D01*
X0169148Y0089830D02*
X0118278Y0089830D01*
X0101404Y0076469D02*
X0100250Y0076469D01*
X0102998Y0065467D02*
X0107445Y0065467D01*
X0106659Y0064681D02*
X0103784Y0064681D01*
X0104355Y0063895D02*
X0106088Y0063895D01*
X0106088Y0063109D02*
X0104355Y0063109D01*
X0104355Y0062323D02*
X0106088Y0062323D01*
X0106088Y0061537D02*
X0104355Y0061537D01*
X0104355Y0060751D02*
X0106088Y0060751D01*
X0106807Y0059965D02*
X0103635Y0059965D01*
X0102850Y0059179D02*
X0107593Y0059179D01*
X0108379Y0058393D02*
X0102064Y0058393D01*
X0069032Y0044247D02*
X0184718Y0044247D01*
X0184462Y0043461D02*
X0069288Y0043461D01*
X0069543Y0042675D02*
X0184207Y0042675D01*
X0183952Y0041889D02*
X0069798Y0041889D01*
X0070054Y0041103D02*
X0183696Y0041103D01*
X0183568Y0040317D02*
X0070182Y0040317D01*
X0070182Y0039531D02*
X0183568Y0039531D01*
X0183568Y0038746D02*
X0070182Y0038746D01*
X0070182Y0037960D02*
X0183568Y0037960D01*
X0183568Y0037174D02*
X0070182Y0037174D01*
X0070182Y0036388D02*
X0183568Y0036388D01*
X0183568Y0035602D02*
X0070182Y0035602D01*
X0070182Y0034816D02*
X0183568Y0034816D01*
X0183568Y0034030D02*
X0070182Y0034030D01*
X0070182Y0033244D02*
X0183568Y0033244D01*
X0183568Y0032458D02*
X0070182Y0032458D01*
X0070182Y0031672D02*
X0183568Y0031672D01*
X0183568Y0030886D02*
X0070182Y0030886D01*
X0070182Y0030100D02*
X0183568Y0030100D01*
X0183568Y0029315D02*
X0070182Y0029315D01*
X0070182Y0028529D02*
X0183568Y0028529D01*
X0183568Y0027743D02*
X0070182Y0027743D01*
X0070182Y0026957D02*
X0183568Y0026957D01*
X0183568Y0026171D02*
X0070182Y0026171D01*
X0070182Y0025385D02*
X0183568Y0025385D01*
X0185233Y0045033D02*
X0068517Y0045033D01*
X0067946Y0045819D02*
X0185804Y0045819D01*
X0186375Y0046605D02*
X0067375Y0046605D01*
X0066804Y0047391D02*
X0186946Y0047391D01*
X0187948Y0048176D02*
X0065802Y0048176D01*
X0064720Y0048962D02*
X0189030Y0048962D01*
X0190112Y0049748D02*
X0063638Y0049748D01*
X0061282Y0050534D02*
X0192468Y0050534D01*
X0209552Y0059179D02*
X0166457Y0059179D01*
X0167243Y0059965D02*
X0209552Y0059965D01*
X0209552Y0060751D02*
X0167875Y0060751D01*
X0167875Y0061537D02*
X0209552Y0061537D01*
X0209552Y0089044D02*
X0174368Y0089044D01*
X0175154Y0089830D02*
X0209552Y0089830D01*
X0209552Y0090616D02*
X0175940Y0090616D01*
X0176284Y0091402D02*
X0209552Y0091402D01*
X0209552Y0092188D02*
X0176284Y0092188D01*
X0176284Y0092973D02*
X0209552Y0092973D01*
X0209552Y0093759D02*
X0176284Y0093759D01*
X0176124Y0094545D02*
X0209552Y0094545D01*
X0209552Y0095331D02*
X0175338Y0095331D01*
X0174553Y0096117D02*
X0209552Y0096117D01*
X0209552Y0096903D02*
X0156796Y0096903D01*
X0156796Y0096117D02*
X0169749Y0096117D01*
X0168963Y0095331D02*
X0156755Y0095331D01*
X0156796Y0097689D02*
X0209552Y0097689D01*
X0209552Y0098475D02*
X0156796Y0098475D01*
X0156796Y0099261D02*
X0169717Y0099261D01*
X0170438Y0098539D02*
X0173863Y0098539D01*
X0176284Y0100961D01*
X0176284Y0104385D01*
X0173863Y0106807D01*
X0170438Y0106807D01*
X0168017Y0104385D01*
X0168017Y0100961D01*
X0170438Y0098539D01*
X0168931Y0100047D02*
X0156796Y0100047D01*
X0156796Y0100833D02*
X0168145Y0100833D01*
X0168017Y0101619D02*
X0156796Y0101619D01*
X0156796Y0102404D02*
X0168017Y0102404D01*
X0168017Y0103190D02*
X0156796Y0103190D01*
X0156796Y0103976D02*
X0168017Y0103976D01*
X0168394Y0104762D02*
X0156796Y0104762D01*
X0156796Y0105548D02*
X0169180Y0105548D01*
X0169966Y0106334D02*
X0156796Y0106334D01*
X0156796Y0107120D02*
X0209552Y0107120D01*
X0209552Y0107906D02*
X0156796Y0107906D01*
X0156796Y0108692D02*
X0170286Y0108692D01*
X0170438Y0108539D02*
X0173863Y0108539D01*
X0176284Y0110961D01*
X0176284Y0114385D01*
X0173863Y0116807D01*
X0170438Y0116807D01*
X0168017Y0114385D01*
X0168017Y0110961D01*
X0170438Y0108539D01*
X0169500Y0109478D02*
X0156796Y0109478D01*
X0156796Y0110264D02*
X0168714Y0110264D01*
X0168017Y0111049D02*
X0156796Y0111049D01*
X0156796Y0111835D02*
X0168017Y0111835D01*
X0168017Y0112621D02*
X0156796Y0112621D01*
X0156796Y0113407D02*
X0168017Y0113407D01*
X0168017Y0114193D02*
X0156796Y0114193D01*
X0156796Y0114979D02*
X0168611Y0114979D01*
X0169397Y0115765D02*
X0156796Y0115765D01*
X0156796Y0116551D02*
X0170182Y0116551D01*
X0170350Y0118326D02*
X0167804Y0120873D01*
X0167804Y0122279D01*
X0171757Y0122279D01*
X0172544Y0122279D01*
X0172544Y0118326D01*
X0173951Y0118326D01*
X0176497Y0120873D01*
X0176497Y0122279D01*
X0172544Y0122279D01*
X0172544Y0123067D01*
X0171757Y0123067D01*
X0171757Y0127019D01*
X0170350Y0127019D01*
X0167804Y0124473D01*
X0167804Y0123067D01*
X0171757Y0123067D01*
X0171757Y0122279D01*
X0171757Y0118326D01*
X0170350Y0118326D01*
X0169768Y0118909D02*
X0156796Y0118909D01*
X0156796Y0119695D02*
X0168982Y0119695D01*
X0168196Y0120480D02*
X0156796Y0120480D01*
X0156796Y0121266D02*
X0167804Y0121266D01*
X0167804Y0122052D02*
X0156796Y0122052D01*
X0156796Y0122838D02*
X0171757Y0122838D01*
X0171757Y0122052D02*
X0172544Y0122052D01*
X0172544Y0121266D02*
X0171757Y0121266D01*
X0171757Y0120480D02*
X0172544Y0120480D01*
X0172544Y0119695D02*
X0171757Y0119695D01*
X0171757Y0118909D02*
X0172544Y0118909D01*
X0174533Y0118909D02*
X0209552Y0118909D01*
X0209552Y0119695D02*
X0175319Y0119695D01*
X0176105Y0120480D02*
X0209552Y0120480D01*
X0209552Y0121266D02*
X0176497Y0121266D01*
X0176497Y0122052D02*
X0209552Y0122052D01*
X0209552Y0122838D02*
X0172544Y0122838D01*
X0172544Y0123067D02*
X0176497Y0123067D01*
X0176497Y0124473D01*
X0173951Y0127019D01*
X0172544Y0127019D01*
X0172544Y0123067D01*
X0172544Y0123624D02*
X0171757Y0123624D01*
X0171757Y0124410D02*
X0172544Y0124410D01*
X0172544Y0125196D02*
X0171757Y0125196D01*
X0171757Y0125982D02*
X0172544Y0125982D01*
X0172544Y0126768D02*
X0171757Y0126768D01*
X0170099Y0126768D02*
X0156796Y0126768D01*
X0156796Y0127554D02*
X0209552Y0127554D01*
X0209552Y0128340D02*
X0156796Y0128340D01*
X0156796Y0129125D02*
X0162769Y0129125D01*
X0162269Y0129626D02*
X0163312Y0128582D01*
X0166723Y0128582D01*
X0167756Y0129616D01*
X0168790Y0128582D01*
X0170266Y0128582D01*
X0171309Y0129626D01*
X0171309Y0131485D01*
X0171617Y0131485D01*
X0171617Y0129626D01*
X0172660Y0128582D01*
X0174136Y0128582D01*
X0175169Y0129616D01*
X0176203Y0128582D01*
X0179614Y0128582D01*
X0179628Y0128597D01*
X0180581Y0129550D01*
X0180604Y0129573D01*
X0181624Y0130593D01*
X0181624Y0133036D01*
X0181395Y0133266D01*
X0181624Y0133496D01*
X0181624Y0135939D01*
X0180581Y0136982D01*
X0179614Y0137950D01*
X0176203Y0137950D01*
X0175212Y0136959D01*
X0175169Y0136916D01*
X0174136Y0137950D01*
X0172660Y0137950D01*
X0171617Y0136906D01*
X0171617Y0135047D01*
X0171309Y0135047D01*
X0171309Y0136906D01*
X0170266Y0137950D01*
X0168790Y0137950D01*
X0167756Y0136916D01*
X0166723Y0137950D01*
X0163312Y0137950D01*
X0162292Y0136930D01*
X0162269Y0136906D01*
X0161316Y0135953D01*
X0161301Y0135939D01*
X0161301Y0130593D01*
X0162269Y0129626D01*
X0161983Y0129911D02*
X0156796Y0129911D01*
X0156796Y0130697D02*
X0161301Y0130697D01*
X0161301Y0131483D02*
X0156796Y0131483D01*
X0156796Y0132269D02*
X0161301Y0132269D01*
X0161301Y0133055D02*
X0156796Y0133055D01*
X0156796Y0133841D02*
X0161301Y0133841D01*
X0161301Y0134627D02*
X0156796Y0134627D01*
X0156796Y0135413D02*
X0161301Y0135413D01*
X0161561Y0136199D02*
X0156796Y0136199D01*
X0156796Y0136985D02*
X0162347Y0136985D01*
X0163133Y0137771D02*
X0156796Y0137771D01*
X0156796Y0138556D02*
X0209552Y0138556D01*
X0209552Y0137771D02*
X0179793Y0137771D01*
X0180578Y0136985D02*
X0209552Y0136985D01*
X0209552Y0136199D02*
X0181364Y0136199D01*
X0181624Y0135413D02*
X0209552Y0135413D01*
X0209552Y0134627D02*
X0181624Y0134627D01*
X0181624Y0133841D02*
X0209552Y0133841D01*
X0209552Y0133055D02*
X0181606Y0133055D01*
X0181624Y0132269D02*
X0209552Y0132269D01*
X0209552Y0131483D02*
X0181624Y0131483D01*
X0181624Y0130697D02*
X0209552Y0130697D01*
X0209552Y0129911D02*
X0180943Y0129911D01*
X0180157Y0129125D02*
X0209552Y0129125D01*
X0209552Y0126768D02*
X0174203Y0126768D01*
X0174988Y0125982D02*
X0209552Y0125982D01*
X0209552Y0125196D02*
X0175774Y0125196D01*
X0176497Y0124410D02*
X0209552Y0124410D01*
X0209552Y0123624D02*
X0176497Y0123624D01*
X0175660Y0129125D02*
X0174679Y0129125D01*
X0172117Y0129125D02*
X0170809Y0129125D01*
X0171309Y0129911D02*
X0171617Y0129911D01*
X0171617Y0130697D02*
X0171309Y0130697D01*
X0171309Y0131483D02*
X0171617Y0131483D01*
X0171617Y0135413D02*
X0171309Y0135413D01*
X0171309Y0136199D02*
X0171617Y0136199D01*
X0171695Y0136985D02*
X0171230Y0136985D01*
X0170445Y0137771D02*
X0172481Y0137771D01*
X0174315Y0137771D02*
X0176024Y0137771D01*
X0175238Y0136985D02*
X0175100Y0136985D01*
X0168611Y0137771D02*
X0166902Y0137771D01*
X0167687Y0136985D02*
X0167825Y0136985D01*
X0168247Y0129125D02*
X0167266Y0129125D01*
X0169313Y0125982D02*
X0156796Y0125982D01*
X0156796Y0125196D02*
X0168527Y0125196D01*
X0167804Y0124410D02*
X0156796Y0124410D01*
X0156796Y0123624D02*
X0167804Y0123624D01*
X0174119Y0116551D02*
X0209552Y0116551D01*
X0209552Y0117337D02*
X0156796Y0117337D01*
X0156796Y0118123D02*
X0209552Y0118123D01*
X0209552Y0115765D02*
X0174905Y0115765D01*
X0175691Y0114979D02*
X0209552Y0114979D01*
X0209552Y0114193D02*
X0176284Y0114193D01*
X0176284Y0113407D02*
X0209552Y0113407D01*
X0209552Y0112621D02*
X0176284Y0112621D01*
X0176284Y0111835D02*
X0209552Y0111835D01*
X0209552Y0111049D02*
X0176284Y0111049D01*
X0175587Y0110264D02*
X0209552Y0110264D01*
X0209552Y0109478D02*
X0174802Y0109478D01*
X0174016Y0108692D02*
X0209552Y0108692D01*
X0209552Y0106334D02*
X0174336Y0106334D01*
X0175122Y0105548D02*
X0209552Y0105548D01*
X0209552Y0104762D02*
X0175907Y0104762D01*
X0176284Y0103976D02*
X0209552Y0103976D01*
X0209552Y0103190D02*
X0176284Y0103190D01*
X0176284Y0102404D02*
X0209552Y0102404D01*
X0209552Y0101619D02*
X0176284Y0101619D01*
X0176156Y0100833D02*
X0209552Y0100833D01*
X0209552Y0100047D02*
X0175371Y0100047D01*
X0174585Y0099261D02*
X0209552Y0099261D01*
X0209552Y0139342D02*
X0156796Y0139342D01*
X0156796Y0140128D02*
X0209552Y0140128D01*
X0209552Y0140914D02*
X0156796Y0140914D01*
X0156796Y0141700D02*
X0209552Y0141700D01*
X0209552Y0142486D02*
X0156796Y0142486D01*
X0156796Y0143272D02*
X0209552Y0143272D01*
X0209552Y0144058D02*
X0156629Y0144058D01*
X0156200Y0144844D02*
X0209552Y0144844D01*
X0209552Y0145630D02*
X0155149Y0145630D01*
X0146204Y0151131D02*
X0209552Y0151131D01*
X0209552Y0150345D02*
X0145418Y0150345D01*
X0144633Y0149559D02*
X0209552Y0149559D01*
X0209552Y0151917D02*
X0146221Y0151917D01*
D21*
X0124907Y0127752D02*
X0124907Y0127358D01*
X0126875Y0125389D01*
X0126875Y0118303D01*
D22*
X0124907Y0127752D02*
X0120576Y0127752D01*
X0119001Y0129326D01*
X0119001Y0143106D01*
X0111914Y0143106D01*
X0099710Y0143106D01*
X0099710Y0131295D01*
X0099710Y0125389D01*
X0099710Y0119484D01*
X0099710Y0111610D01*
X0099710Y0103736D01*
X0130812Y0134838D02*
X0130812Y0143106D01*
X0119001Y0143106D01*
X0111914Y0143106D02*
X0111914Y0152949D01*
X0130812Y0143106D02*
X0154040Y0143106D01*
X0154040Y0111610D01*
X0154040Y0103736D01*
X0154040Y0097830D01*
X0136718Y0134838D02*
X0130812Y0134838D01*
M02*
