G75*
%MOIN*%
%OFA0B0*%
%FSLAX25Y25*%
%IPPOS*%
%LPD*%
%AMOC8*
5,1,8,0,0,1.08239X$1,22.5*
%
%ADD10C,0.00000*%
%ADD11C,0.07874*%
D10*
X0042229Y0024622D02*
X0042229Y0048638D01*
X0042229Y0044307D02*
X0042229Y0142732D01*
X0042229Y0138402D02*
X0042229Y0162417D01*
X0042234Y0162798D01*
X0042247Y0163178D01*
X0042270Y0163558D01*
X0042303Y0163937D01*
X0042344Y0164315D01*
X0042394Y0164692D01*
X0042454Y0165068D01*
X0042522Y0165443D01*
X0042600Y0165815D01*
X0042687Y0166186D01*
X0042782Y0166554D01*
X0042887Y0166920D01*
X0043000Y0167283D01*
X0043122Y0167644D01*
X0043252Y0168001D01*
X0043392Y0168355D01*
X0043539Y0168706D01*
X0043696Y0169053D01*
X0043860Y0169396D01*
X0044033Y0169735D01*
X0044214Y0170070D01*
X0044403Y0170401D01*
X0044600Y0170726D01*
X0044804Y0171047D01*
X0045017Y0171363D01*
X0045237Y0171673D01*
X0045464Y0171979D01*
X0045699Y0172278D01*
X0045941Y0172572D01*
X0046189Y0172860D01*
X0046445Y0173142D01*
X0046708Y0173417D01*
X0046977Y0173686D01*
X0047252Y0173949D01*
X0047534Y0174205D01*
X0047822Y0174453D01*
X0048116Y0174695D01*
X0048415Y0174930D01*
X0048721Y0175157D01*
X0049031Y0175377D01*
X0049347Y0175590D01*
X0049668Y0175794D01*
X0049993Y0175991D01*
X0050324Y0176180D01*
X0050659Y0176361D01*
X0050998Y0176534D01*
X0051341Y0176698D01*
X0051688Y0176855D01*
X0052039Y0177002D01*
X0052393Y0177142D01*
X0052750Y0177272D01*
X0053111Y0177394D01*
X0053474Y0177507D01*
X0053840Y0177612D01*
X0054208Y0177707D01*
X0054579Y0177794D01*
X0054951Y0177872D01*
X0055326Y0177940D01*
X0055702Y0178000D01*
X0056079Y0178050D01*
X0056457Y0178091D01*
X0056836Y0178124D01*
X0057216Y0178147D01*
X0057596Y0178160D01*
X0057977Y0178165D01*
X0081993Y0178165D01*
X0077662Y0178165D02*
X0176088Y0178165D01*
X0171757Y0178165D02*
X0195773Y0178165D01*
X0196154Y0178160D01*
X0196534Y0178147D01*
X0196914Y0178124D01*
X0197293Y0178091D01*
X0197671Y0178050D01*
X0198048Y0178000D01*
X0198424Y0177940D01*
X0198799Y0177872D01*
X0199171Y0177794D01*
X0199542Y0177707D01*
X0199910Y0177612D01*
X0200276Y0177507D01*
X0200639Y0177394D01*
X0201000Y0177272D01*
X0201357Y0177142D01*
X0201711Y0177002D01*
X0202062Y0176855D01*
X0202409Y0176698D01*
X0202752Y0176534D01*
X0203091Y0176361D01*
X0203426Y0176180D01*
X0203757Y0175991D01*
X0204082Y0175794D01*
X0204403Y0175590D01*
X0204719Y0175377D01*
X0205029Y0175157D01*
X0205335Y0174930D01*
X0205634Y0174695D01*
X0205928Y0174453D01*
X0206216Y0174205D01*
X0206498Y0173949D01*
X0206773Y0173686D01*
X0207042Y0173417D01*
X0207305Y0173142D01*
X0207561Y0172860D01*
X0207809Y0172572D01*
X0208051Y0172278D01*
X0208286Y0171979D01*
X0208513Y0171673D01*
X0208733Y0171363D01*
X0208946Y0171047D01*
X0209150Y0170726D01*
X0209347Y0170401D01*
X0209536Y0170070D01*
X0209717Y0169735D01*
X0209890Y0169396D01*
X0210054Y0169053D01*
X0210211Y0168706D01*
X0210358Y0168355D01*
X0210498Y0168001D01*
X0210628Y0167644D01*
X0210750Y0167283D01*
X0210863Y0166920D01*
X0210968Y0166554D01*
X0211063Y0166186D01*
X0211150Y0165815D01*
X0211228Y0165443D01*
X0211296Y0165068D01*
X0211356Y0164692D01*
X0211406Y0164315D01*
X0211447Y0163937D01*
X0211480Y0163558D01*
X0211503Y0163178D01*
X0211516Y0162798D01*
X0211521Y0162417D01*
X0211521Y0138402D01*
X0211521Y0142732D02*
X0211521Y0044307D01*
X0211521Y0048638D02*
X0211521Y0024622D01*
X0211516Y0024241D01*
X0211503Y0023861D01*
X0211480Y0023481D01*
X0211447Y0023102D01*
X0211406Y0022724D01*
X0211356Y0022347D01*
X0211296Y0021971D01*
X0211228Y0021596D01*
X0211150Y0021224D01*
X0211063Y0020853D01*
X0210968Y0020485D01*
X0210863Y0020119D01*
X0210750Y0019756D01*
X0210628Y0019395D01*
X0210498Y0019038D01*
X0210358Y0018684D01*
X0210211Y0018333D01*
X0210054Y0017986D01*
X0209890Y0017643D01*
X0209717Y0017304D01*
X0209536Y0016969D01*
X0209347Y0016638D01*
X0209150Y0016313D01*
X0208946Y0015992D01*
X0208733Y0015676D01*
X0208513Y0015366D01*
X0208286Y0015060D01*
X0208051Y0014761D01*
X0207809Y0014467D01*
X0207561Y0014179D01*
X0207305Y0013897D01*
X0207042Y0013622D01*
X0206773Y0013353D01*
X0206498Y0013090D01*
X0206216Y0012834D01*
X0205928Y0012586D01*
X0205634Y0012344D01*
X0205335Y0012109D01*
X0205029Y0011882D01*
X0204719Y0011662D01*
X0204403Y0011449D01*
X0204082Y0011245D01*
X0203757Y0011048D01*
X0203426Y0010859D01*
X0203091Y0010678D01*
X0202752Y0010505D01*
X0202409Y0010341D01*
X0202062Y0010184D01*
X0201711Y0010037D01*
X0201357Y0009897D01*
X0201000Y0009767D01*
X0200639Y0009645D01*
X0200276Y0009532D01*
X0199910Y0009427D01*
X0199542Y0009332D01*
X0199171Y0009245D01*
X0198799Y0009167D01*
X0198424Y0009099D01*
X0198048Y0009039D01*
X0197671Y0008989D01*
X0197293Y0008948D01*
X0196914Y0008915D01*
X0196534Y0008892D01*
X0196154Y0008879D01*
X0195773Y0008874D01*
X0171757Y0008874D01*
X0176088Y0008874D02*
X0077662Y0008874D01*
X0081993Y0008874D02*
X0057977Y0008874D01*
X0057596Y0008879D01*
X0057216Y0008892D01*
X0056836Y0008915D01*
X0056457Y0008948D01*
X0056079Y0008989D01*
X0055702Y0009039D01*
X0055326Y0009099D01*
X0054951Y0009167D01*
X0054579Y0009245D01*
X0054208Y0009332D01*
X0053840Y0009427D01*
X0053474Y0009532D01*
X0053111Y0009645D01*
X0052750Y0009767D01*
X0052393Y0009897D01*
X0052039Y0010037D01*
X0051688Y0010184D01*
X0051341Y0010341D01*
X0050998Y0010505D01*
X0050659Y0010678D01*
X0050324Y0010859D01*
X0049993Y0011048D01*
X0049668Y0011245D01*
X0049347Y0011449D01*
X0049031Y0011662D01*
X0048721Y0011882D01*
X0048415Y0012109D01*
X0048116Y0012344D01*
X0047822Y0012586D01*
X0047534Y0012834D01*
X0047252Y0013090D01*
X0046977Y0013353D01*
X0046708Y0013622D01*
X0046445Y0013897D01*
X0046189Y0014179D01*
X0045941Y0014467D01*
X0045699Y0014761D01*
X0045464Y0015060D01*
X0045237Y0015366D01*
X0045017Y0015676D01*
X0044804Y0015992D01*
X0044600Y0016313D01*
X0044403Y0016638D01*
X0044214Y0016969D01*
X0044033Y0017304D01*
X0043860Y0017643D01*
X0043696Y0017986D01*
X0043539Y0018333D01*
X0043392Y0018684D01*
X0043252Y0019038D01*
X0043122Y0019395D01*
X0043000Y0019756D01*
X0042887Y0020119D01*
X0042782Y0020485D01*
X0042687Y0020853D01*
X0042600Y0021224D01*
X0042522Y0021596D01*
X0042454Y0021971D01*
X0042394Y0022347D01*
X0042344Y0022724D01*
X0042303Y0023102D01*
X0042270Y0023481D01*
X0042247Y0023861D01*
X0042234Y0024241D01*
X0042229Y0024622D01*
X0051678Y0024622D02*
X0051680Y0024780D01*
X0051686Y0024938D01*
X0051696Y0025096D01*
X0051710Y0025254D01*
X0051728Y0025411D01*
X0051749Y0025568D01*
X0051775Y0025724D01*
X0051805Y0025880D01*
X0051838Y0026035D01*
X0051876Y0026188D01*
X0051917Y0026341D01*
X0051962Y0026493D01*
X0052011Y0026644D01*
X0052064Y0026793D01*
X0052120Y0026941D01*
X0052180Y0027087D01*
X0052244Y0027232D01*
X0052312Y0027375D01*
X0052383Y0027517D01*
X0052457Y0027657D01*
X0052535Y0027794D01*
X0052617Y0027930D01*
X0052701Y0028064D01*
X0052790Y0028195D01*
X0052881Y0028324D01*
X0052976Y0028451D01*
X0053073Y0028576D01*
X0053174Y0028698D01*
X0053278Y0028817D01*
X0053385Y0028934D01*
X0053495Y0029048D01*
X0053608Y0029159D01*
X0053723Y0029268D01*
X0053841Y0029373D01*
X0053962Y0029475D01*
X0054085Y0029575D01*
X0054211Y0029671D01*
X0054339Y0029764D01*
X0054469Y0029854D01*
X0054602Y0029940D01*
X0054737Y0030024D01*
X0054873Y0030103D01*
X0055012Y0030180D01*
X0055153Y0030252D01*
X0055295Y0030322D01*
X0055439Y0030387D01*
X0055585Y0030449D01*
X0055732Y0030507D01*
X0055881Y0030562D01*
X0056031Y0030613D01*
X0056182Y0030660D01*
X0056334Y0030703D01*
X0056487Y0030742D01*
X0056642Y0030778D01*
X0056797Y0030809D01*
X0056953Y0030837D01*
X0057109Y0030861D01*
X0057266Y0030881D01*
X0057424Y0030897D01*
X0057581Y0030909D01*
X0057740Y0030917D01*
X0057898Y0030921D01*
X0058056Y0030921D01*
X0058214Y0030917D01*
X0058373Y0030909D01*
X0058530Y0030897D01*
X0058688Y0030881D01*
X0058845Y0030861D01*
X0059001Y0030837D01*
X0059157Y0030809D01*
X0059312Y0030778D01*
X0059467Y0030742D01*
X0059620Y0030703D01*
X0059772Y0030660D01*
X0059923Y0030613D01*
X0060073Y0030562D01*
X0060222Y0030507D01*
X0060369Y0030449D01*
X0060515Y0030387D01*
X0060659Y0030322D01*
X0060801Y0030252D01*
X0060942Y0030180D01*
X0061081Y0030103D01*
X0061217Y0030024D01*
X0061352Y0029940D01*
X0061485Y0029854D01*
X0061615Y0029764D01*
X0061743Y0029671D01*
X0061869Y0029575D01*
X0061992Y0029475D01*
X0062113Y0029373D01*
X0062231Y0029268D01*
X0062346Y0029159D01*
X0062459Y0029048D01*
X0062569Y0028934D01*
X0062676Y0028817D01*
X0062780Y0028698D01*
X0062881Y0028576D01*
X0062978Y0028451D01*
X0063073Y0028324D01*
X0063164Y0028195D01*
X0063253Y0028064D01*
X0063337Y0027930D01*
X0063419Y0027794D01*
X0063497Y0027657D01*
X0063571Y0027517D01*
X0063642Y0027375D01*
X0063710Y0027232D01*
X0063774Y0027087D01*
X0063834Y0026941D01*
X0063890Y0026793D01*
X0063943Y0026644D01*
X0063992Y0026493D01*
X0064037Y0026341D01*
X0064078Y0026188D01*
X0064116Y0026035D01*
X0064149Y0025880D01*
X0064179Y0025724D01*
X0064205Y0025568D01*
X0064226Y0025411D01*
X0064244Y0025254D01*
X0064258Y0025096D01*
X0064268Y0024938D01*
X0064274Y0024780D01*
X0064276Y0024622D01*
X0064274Y0024464D01*
X0064268Y0024306D01*
X0064258Y0024148D01*
X0064244Y0023990D01*
X0064226Y0023833D01*
X0064205Y0023676D01*
X0064179Y0023520D01*
X0064149Y0023364D01*
X0064116Y0023209D01*
X0064078Y0023056D01*
X0064037Y0022903D01*
X0063992Y0022751D01*
X0063943Y0022600D01*
X0063890Y0022451D01*
X0063834Y0022303D01*
X0063774Y0022157D01*
X0063710Y0022012D01*
X0063642Y0021869D01*
X0063571Y0021727D01*
X0063497Y0021587D01*
X0063419Y0021450D01*
X0063337Y0021314D01*
X0063253Y0021180D01*
X0063164Y0021049D01*
X0063073Y0020920D01*
X0062978Y0020793D01*
X0062881Y0020668D01*
X0062780Y0020546D01*
X0062676Y0020427D01*
X0062569Y0020310D01*
X0062459Y0020196D01*
X0062346Y0020085D01*
X0062231Y0019976D01*
X0062113Y0019871D01*
X0061992Y0019769D01*
X0061869Y0019669D01*
X0061743Y0019573D01*
X0061615Y0019480D01*
X0061485Y0019390D01*
X0061352Y0019304D01*
X0061217Y0019220D01*
X0061081Y0019141D01*
X0060942Y0019064D01*
X0060801Y0018992D01*
X0060659Y0018922D01*
X0060515Y0018857D01*
X0060369Y0018795D01*
X0060222Y0018737D01*
X0060073Y0018682D01*
X0059923Y0018631D01*
X0059772Y0018584D01*
X0059620Y0018541D01*
X0059467Y0018502D01*
X0059312Y0018466D01*
X0059157Y0018435D01*
X0059001Y0018407D01*
X0058845Y0018383D01*
X0058688Y0018363D01*
X0058530Y0018347D01*
X0058373Y0018335D01*
X0058214Y0018327D01*
X0058056Y0018323D01*
X0057898Y0018323D01*
X0057740Y0018327D01*
X0057581Y0018335D01*
X0057424Y0018347D01*
X0057266Y0018363D01*
X0057109Y0018383D01*
X0056953Y0018407D01*
X0056797Y0018435D01*
X0056642Y0018466D01*
X0056487Y0018502D01*
X0056334Y0018541D01*
X0056182Y0018584D01*
X0056031Y0018631D01*
X0055881Y0018682D01*
X0055732Y0018737D01*
X0055585Y0018795D01*
X0055439Y0018857D01*
X0055295Y0018922D01*
X0055153Y0018992D01*
X0055012Y0019064D01*
X0054873Y0019141D01*
X0054737Y0019220D01*
X0054602Y0019304D01*
X0054469Y0019390D01*
X0054339Y0019480D01*
X0054211Y0019573D01*
X0054085Y0019669D01*
X0053962Y0019769D01*
X0053841Y0019871D01*
X0053723Y0019976D01*
X0053608Y0020085D01*
X0053495Y0020196D01*
X0053385Y0020310D01*
X0053278Y0020427D01*
X0053174Y0020546D01*
X0053073Y0020668D01*
X0052976Y0020793D01*
X0052881Y0020920D01*
X0052790Y0021049D01*
X0052701Y0021180D01*
X0052617Y0021314D01*
X0052535Y0021450D01*
X0052457Y0021587D01*
X0052383Y0021727D01*
X0052312Y0021869D01*
X0052244Y0022012D01*
X0052180Y0022157D01*
X0052120Y0022303D01*
X0052064Y0022451D01*
X0052011Y0022600D01*
X0051962Y0022751D01*
X0051917Y0022903D01*
X0051876Y0023056D01*
X0051838Y0023209D01*
X0051805Y0023364D01*
X0051775Y0023520D01*
X0051749Y0023676D01*
X0051728Y0023833D01*
X0051710Y0023990D01*
X0051696Y0024148D01*
X0051686Y0024306D01*
X0051680Y0024464D01*
X0051678Y0024622D01*
X0051678Y0162417D02*
X0051680Y0162575D01*
X0051686Y0162733D01*
X0051696Y0162891D01*
X0051710Y0163049D01*
X0051728Y0163206D01*
X0051749Y0163363D01*
X0051775Y0163519D01*
X0051805Y0163675D01*
X0051838Y0163830D01*
X0051876Y0163983D01*
X0051917Y0164136D01*
X0051962Y0164288D01*
X0052011Y0164439D01*
X0052064Y0164588D01*
X0052120Y0164736D01*
X0052180Y0164882D01*
X0052244Y0165027D01*
X0052312Y0165170D01*
X0052383Y0165312D01*
X0052457Y0165452D01*
X0052535Y0165589D01*
X0052617Y0165725D01*
X0052701Y0165859D01*
X0052790Y0165990D01*
X0052881Y0166119D01*
X0052976Y0166246D01*
X0053073Y0166371D01*
X0053174Y0166493D01*
X0053278Y0166612D01*
X0053385Y0166729D01*
X0053495Y0166843D01*
X0053608Y0166954D01*
X0053723Y0167063D01*
X0053841Y0167168D01*
X0053962Y0167270D01*
X0054085Y0167370D01*
X0054211Y0167466D01*
X0054339Y0167559D01*
X0054469Y0167649D01*
X0054602Y0167735D01*
X0054737Y0167819D01*
X0054873Y0167898D01*
X0055012Y0167975D01*
X0055153Y0168047D01*
X0055295Y0168117D01*
X0055439Y0168182D01*
X0055585Y0168244D01*
X0055732Y0168302D01*
X0055881Y0168357D01*
X0056031Y0168408D01*
X0056182Y0168455D01*
X0056334Y0168498D01*
X0056487Y0168537D01*
X0056642Y0168573D01*
X0056797Y0168604D01*
X0056953Y0168632D01*
X0057109Y0168656D01*
X0057266Y0168676D01*
X0057424Y0168692D01*
X0057581Y0168704D01*
X0057740Y0168712D01*
X0057898Y0168716D01*
X0058056Y0168716D01*
X0058214Y0168712D01*
X0058373Y0168704D01*
X0058530Y0168692D01*
X0058688Y0168676D01*
X0058845Y0168656D01*
X0059001Y0168632D01*
X0059157Y0168604D01*
X0059312Y0168573D01*
X0059467Y0168537D01*
X0059620Y0168498D01*
X0059772Y0168455D01*
X0059923Y0168408D01*
X0060073Y0168357D01*
X0060222Y0168302D01*
X0060369Y0168244D01*
X0060515Y0168182D01*
X0060659Y0168117D01*
X0060801Y0168047D01*
X0060942Y0167975D01*
X0061081Y0167898D01*
X0061217Y0167819D01*
X0061352Y0167735D01*
X0061485Y0167649D01*
X0061615Y0167559D01*
X0061743Y0167466D01*
X0061869Y0167370D01*
X0061992Y0167270D01*
X0062113Y0167168D01*
X0062231Y0167063D01*
X0062346Y0166954D01*
X0062459Y0166843D01*
X0062569Y0166729D01*
X0062676Y0166612D01*
X0062780Y0166493D01*
X0062881Y0166371D01*
X0062978Y0166246D01*
X0063073Y0166119D01*
X0063164Y0165990D01*
X0063253Y0165859D01*
X0063337Y0165725D01*
X0063419Y0165589D01*
X0063497Y0165452D01*
X0063571Y0165312D01*
X0063642Y0165170D01*
X0063710Y0165027D01*
X0063774Y0164882D01*
X0063834Y0164736D01*
X0063890Y0164588D01*
X0063943Y0164439D01*
X0063992Y0164288D01*
X0064037Y0164136D01*
X0064078Y0163983D01*
X0064116Y0163830D01*
X0064149Y0163675D01*
X0064179Y0163519D01*
X0064205Y0163363D01*
X0064226Y0163206D01*
X0064244Y0163049D01*
X0064258Y0162891D01*
X0064268Y0162733D01*
X0064274Y0162575D01*
X0064276Y0162417D01*
X0064274Y0162259D01*
X0064268Y0162101D01*
X0064258Y0161943D01*
X0064244Y0161785D01*
X0064226Y0161628D01*
X0064205Y0161471D01*
X0064179Y0161315D01*
X0064149Y0161159D01*
X0064116Y0161004D01*
X0064078Y0160851D01*
X0064037Y0160698D01*
X0063992Y0160546D01*
X0063943Y0160395D01*
X0063890Y0160246D01*
X0063834Y0160098D01*
X0063774Y0159952D01*
X0063710Y0159807D01*
X0063642Y0159664D01*
X0063571Y0159522D01*
X0063497Y0159382D01*
X0063419Y0159245D01*
X0063337Y0159109D01*
X0063253Y0158975D01*
X0063164Y0158844D01*
X0063073Y0158715D01*
X0062978Y0158588D01*
X0062881Y0158463D01*
X0062780Y0158341D01*
X0062676Y0158222D01*
X0062569Y0158105D01*
X0062459Y0157991D01*
X0062346Y0157880D01*
X0062231Y0157771D01*
X0062113Y0157666D01*
X0061992Y0157564D01*
X0061869Y0157464D01*
X0061743Y0157368D01*
X0061615Y0157275D01*
X0061485Y0157185D01*
X0061352Y0157099D01*
X0061217Y0157015D01*
X0061081Y0156936D01*
X0060942Y0156859D01*
X0060801Y0156787D01*
X0060659Y0156717D01*
X0060515Y0156652D01*
X0060369Y0156590D01*
X0060222Y0156532D01*
X0060073Y0156477D01*
X0059923Y0156426D01*
X0059772Y0156379D01*
X0059620Y0156336D01*
X0059467Y0156297D01*
X0059312Y0156261D01*
X0059157Y0156230D01*
X0059001Y0156202D01*
X0058845Y0156178D01*
X0058688Y0156158D01*
X0058530Y0156142D01*
X0058373Y0156130D01*
X0058214Y0156122D01*
X0058056Y0156118D01*
X0057898Y0156118D01*
X0057740Y0156122D01*
X0057581Y0156130D01*
X0057424Y0156142D01*
X0057266Y0156158D01*
X0057109Y0156178D01*
X0056953Y0156202D01*
X0056797Y0156230D01*
X0056642Y0156261D01*
X0056487Y0156297D01*
X0056334Y0156336D01*
X0056182Y0156379D01*
X0056031Y0156426D01*
X0055881Y0156477D01*
X0055732Y0156532D01*
X0055585Y0156590D01*
X0055439Y0156652D01*
X0055295Y0156717D01*
X0055153Y0156787D01*
X0055012Y0156859D01*
X0054873Y0156936D01*
X0054737Y0157015D01*
X0054602Y0157099D01*
X0054469Y0157185D01*
X0054339Y0157275D01*
X0054211Y0157368D01*
X0054085Y0157464D01*
X0053962Y0157564D01*
X0053841Y0157666D01*
X0053723Y0157771D01*
X0053608Y0157880D01*
X0053495Y0157991D01*
X0053385Y0158105D01*
X0053278Y0158222D01*
X0053174Y0158341D01*
X0053073Y0158463D01*
X0052976Y0158588D01*
X0052881Y0158715D01*
X0052790Y0158844D01*
X0052701Y0158975D01*
X0052617Y0159109D01*
X0052535Y0159245D01*
X0052457Y0159382D01*
X0052383Y0159522D01*
X0052312Y0159664D01*
X0052244Y0159807D01*
X0052180Y0159952D01*
X0052120Y0160098D01*
X0052064Y0160246D01*
X0052011Y0160395D01*
X0051962Y0160546D01*
X0051917Y0160698D01*
X0051876Y0160851D01*
X0051838Y0161004D01*
X0051805Y0161159D01*
X0051775Y0161315D01*
X0051749Y0161471D01*
X0051728Y0161628D01*
X0051710Y0161785D01*
X0051696Y0161943D01*
X0051686Y0162101D01*
X0051680Y0162259D01*
X0051678Y0162417D01*
X0189474Y0162417D02*
X0189476Y0162575D01*
X0189482Y0162733D01*
X0189492Y0162891D01*
X0189506Y0163049D01*
X0189524Y0163206D01*
X0189545Y0163363D01*
X0189571Y0163519D01*
X0189601Y0163675D01*
X0189634Y0163830D01*
X0189672Y0163983D01*
X0189713Y0164136D01*
X0189758Y0164288D01*
X0189807Y0164439D01*
X0189860Y0164588D01*
X0189916Y0164736D01*
X0189976Y0164882D01*
X0190040Y0165027D01*
X0190108Y0165170D01*
X0190179Y0165312D01*
X0190253Y0165452D01*
X0190331Y0165589D01*
X0190413Y0165725D01*
X0190497Y0165859D01*
X0190586Y0165990D01*
X0190677Y0166119D01*
X0190772Y0166246D01*
X0190869Y0166371D01*
X0190970Y0166493D01*
X0191074Y0166612D01*
X0191181Y0166729D01*
X0191291Y0166843D01*
X0191404Y0166954D01*
X0191519Y0167063D01*
X0191637Y0167168D01*
X0191758Y0167270D01*
X0191881Y0167370D01*
X0192007Y0167466D01*
X0192135Y0167559D01*
X0192265Y0167649D01*
X0192398Y0167735D01*
X0192533Y0167819D01*
X0192669Y0167898D01*
X0192808Y0167975D01*
X0192949Y0168047D01*
X0193091Y0168117D01*
X0193235Y0168182D01*
X0193381Y0168244D01*
X0193528Y0168302D01*
X0193677Y0168357D01*
X0193827Y0168408D01*
X0193978Y0168455D01*
X0194130Y0168498D01*
X0194283Y0168537D01*
X0194438Y0168573D01*
X0194593Y0168604D01*
X0194749Y0168632D01*
X0194905Y0168656D01*
X0195062Y0168676D01*
X0195220Y0168692D01*
X0195377Y0168704D01*
X0195536Y0168712D01*
X0195694Y0168716D01*
X0195852Y0168716D01*
X0196010Y0168712D01*
X0196169Y0168704D01*
X0196326Y0168692D01*
X0196484Y0168676D01*
X0196641Y0168656D01*
X0196797Y0168632D01*
X0196953Y0168604D01*
X0197108Y0168573D01*
X0197263Y0168537D01*
X0197416Y0168498D01*
X0197568Y0168455D01*
X0197719Y0168408D01*
X0197869Y0168357D01*
X0198018Y0168302D01*
X0198165Y0168244D01*
X0198311Y0168182D01*
X0198455Y0168117D01*
X0198597Y0168047D01*
X0198738Y0167975D01*
X0198877Y0167898D01*
X0199013Y0167819D01*
X0199148Y0167735D01*
X0199281Y0167649D01*
X0199411Y0167559D01*
X0199539Y0167466D01*
X0199665Y0167370D01*
X0199788Y0167270D01*
X0199909Y0167168D01*
X0200027Y0167063D01*
X0200142Y0166954D01*
X0200255Y0166843D01*
X0200365Y0166729D01*
X0200472Y0166612D01*
X0200576Y0166493D01*
X0200677Y0166371D01*
X0200774Y0166246D01*
X0200869Y0166119D01*
X0200960Y0165990D01*
X0201049Y0165859D01*
X0201133Y0165725D01*
X0201215Y0165589D01*
X0201293Y0165452D01*
X0201367Y0165312D01*
X0201438Y0165170D01*
X0201506Y0165027D01*
X0201570Y0164882D01*
X0201630Y0164736D01*
X0201686Y0164588D01*
X0201739Y0164439D01*
X0201788Y0164288D01*
X0201833Y0164136D01*
X0201874Y0163983D01*
X0201912Y0163830D01*
X0201945Y0163675D01*
X0201975Y0163519D01*
X0202001Y0163363D01*
X0202022Y0163206D01*
X0202040Y0163049D01*
X0202054Y0162891D01*
X0202064Y0162733D01*
X0202070Y0162575D01*
X0202072Y0162417D01*
X0202070Y0162259D01*
X0202064Y0162101D01*
X0202054Y0161943D01*
X0202040Y0161785D01*
X0202022Y0161628D01*
X0202001Y0161471D01*
X0201975Y0161315D01*
X0201945Y0161159D01*
X0201912Y0161004D01*
X0201874Y0160851D01*
X0201833Y0160698D01*
X0201788Y0160546D01*
X0201739Y0160395D01*
X0201686Y0160246D01*
X0201630Y0160098D01*
X0201570Y0159952D01*
X0201506Y0159807D01*
X0201438Y0159664D01*
X0201367Y0159522D01*
X0201293Y0159382D01*
X0201215Y0159245D01*
X0201133Y0159109D01*
X0201049Y0158975D01*
X0200960Y0158844D01*
X0200869Y0158715D01*
X0200774Y0158588D01*
X0200677Y0158463D01*
X0200576Y0158341D01*
X0200472Y0158222D01*
X0200365Y0158105D01*
X0200255Y0157991D01*
X0200142Y0157880D01*
X0200027Y0157771D01*
X0199909Y0157666D01*
X0199788Y0157564D01*
X0199665Y0157464D01*
X0199539Y0157368D01*
X0199411Y0157275D01*
X0199281Y0157185D01*
X0199148Y0157099D01*
X0199013Y0157015D01*
X0198877Y0156936D01*
X0198738Y0156859D01*
X0198597Y0156787D01*
X0198455Y0156717D01*
X0198311Y0156652D01*
X0198165Y0156590D01*
X0198018Y0156532D01*
X0197869Y0156477D01*
X0197719Y0156426D01*
X0197568Y0156379D01*
X0197416Y0156336D01*
X0197263Y0156297D01*
X0197108Y0156261D01*
X0196953Y0156230D01*
X0196797Y0156202D01*
X0196641Y0156178D01*
X0196484Y0156158D01*
X0196326Y0156142D01*
X0196169Y0156130D01*
X0196010Y0156122D01*
X0195852Y0156118D01*
X0195694Y0156118D01*
X0195536Y0156122D01*
X0195377Y0156130D01*
X0195220Y0156142D01*
X0195062Y0156158D01*
X0194905Y0156178D01*
X0194749Y0156202D01*
X0194593Y0156230D01*
X0194438Y0156261D01*
X0194283Y0156297D01*
X0194130Y0156336D01*
X0193978Y0156379D01*
X0193827Y0156426D01*
X0193677Y0156477D01*
X0193528Y0156532D01*
X0193381Y0156590D01*
X0193235Y0156652D01*
X0193091Y0156717D01*
X0192949Y0156787D01*
X0192808Y0156859D01*
X0192669Y0156936D01*
X0192533Y0157015D01*
X0192398Y0157099D01*
X0192265Y0157185D01*
X0192135Y0157275D01*
X0192007Y0157368D01*
X0191881Y0157464D01*
X0191758Y0157564D01*
X0191637Y0157666D01*
X0191519Y0157771D01*
X0191404Y0157880D01*
X0191291Y0157991D01*
X0191181Y0158105D01*
X0191074Y0158222D01*
X0190970Y0158341D01*
X0190869Y0158463D01*
X0190772Y0158588D01*
X0190677Y0158715D01*
X0190586Y0158844D01*
X0190497Y0158975D01*
X0190413Y0159109D01*
X0190331Y0159245D01*
X0190253Y0159382D01*
X0190179Y0159522D01*
X0190108Y0159664D01*
X0190040Y0159807D01*
X0189976Y0159952D01*
X0189916Y0160098D01*
X0189860Y0160246D01*
X0189807Y0160395D01*
X0189758Y0160546D01*
X0189713Y0160698D01*
X0189672Y0160851D01*
X0189634Y0161004D01*
X0189601Y0161159D01*
X0189571Y0161315D01*
X0189545Y0161471D01*
X0189524Y0161628D01*
X0189506Y0161785D01*
X0189492Y0161943D01*
X0189482Y0162101D01*
X0189476Y0162259D01*
X0189474Y0162417D01*
X0189474Y0024622D02*
X0189476Y0024780D01*
X0189482Y0024938D01*
X0189492Y0025096D01*
X0189506Y0025254D01*
X0189524Y0025411D01*
X0189545Y0025568D01*
X0189571Y0025724D01*
X0189601Y0025880D01*
X0189634Y0026035D01*
X0189672Y0026188D01*
X0189713Y0026341D01*
X0189758Y0026493D01*
X0189807Y0026644D01*
X0189860Y0026793D01*
X0189916Y0026941D01*
X0189976Y0027087D01*
X0190040Y0027232D01*
X0190108Y0027375D01*
X0190179Y0027517D01*
X0190253Y0027657D01*
X0190331Y0027794D01*
X0190413Y0027930D01*
X0190497Y0028064D01*
X0190586Y0028195D01*
X0190677Y0028324D01*
X0190772Y0028451D01*
X0190869Y0028576D01*
X0190970Y0028698D01*
X0191074Y0028817D01*
X0191181Y0028934D01*
X0191291Y0029048D01*
X0191404Y0029159D01*
X0191519Y0029268D01*
X0191637Y0029373D01*
X0191758Y0029475D01*
X0191881Y0029575D01*
X0192007Y0029671D01*
X0192135Y0029764D01*
X0192265Y0029854D01*
X0192398Y0029940D01*
X0192533Y0030024D01*
X0192669Y0030103D01*
X0192808Y0030180D01*
X0192949Y0030252D01*
X0193091Y0030322D01*
X0193235Y0030387D01*
X0193381Y0030449D01*
X0193528Y0030507D01*
X0193677Y0030562D01*
X0193827Y0030613D01*
X0193978Y0030660D01*
X0194130Y0030703D01*
X0194283Y0030742D01*
X0194438Y0030778D01*
X0194593Y0030809D01*
X0194749Y0030837D01*
X0194905Y0030861D01*
X0195062Y0030881D01*
X0195220Y0030897D01*
X0195377Y0030909D01*
X0195536Y0030917D01*
X0195694Y0030921D01*
X0195852Y0030921D01*
X0196010Y0030917D01*
X0196169Y0030909D01*
X0196326Y0030897D01*
X0196484Y0030881D01*
X0196641Y0030861D01*
X0196797Y0030837D01*
X0196953Y0030809D01*
X0197108Y0030778D01*
X0197263Y0030742D01*
X0197416Y0030703D01*
X0197568Y0030660D01*
X0197719Y0030613D01*
X0197869Y0030562D01*
X0198018Y0030507D01*
X0198165Y0030449D01*
X0198311Y0030387D01*
X0198455Y0030322D01*
X0198597Y0030252D01*
X0198738Y0030180D01*
X0198877Y0030103D01*
X0199013Y0030024D01*
X0199148Y0029940D01*
X0199281Y0029854D01*
X0199411Y0029764D01*
X0199539Y0029671D01*
X0199665Y0029575D01*
X0199788Y0029475D01*
X0199909Y0029373D01*
X0200027Y0029268D01*
X0200142Y0029159D01*
X0200255Y0029048D01*
X0200365Y0028934D01*
X0200472Y0028817D01*
X0200576Y0028698D01*
X0200677Y0028576D01*
X0200774Y0028451D01*
X0200869Y0028324D01*
X0200960Y0028195D01*
X0201049Y0028064D01*
X0201133Y0027930D01*
X0201215Y0027794D01*
X0201293Y0027657D01*
X0201367Y0027517D01*
X0201438Y0027375D01*
X0201506Y0027232D01*
X0201570Y0027087D01*
X0201630Y0026941D01*
X0201686Y0026793D01*
X0201739Y0026644D01*
X0201788Y0026493D01*
X0201833Y0026341D01*
X0201874Y0026188D01*
X0201912Y0026035D01*
X0201945Y0025880D01*
X0201975Y0025724D01*
X0202001Y0025568D01*
X0202022Y0025411D01*
X0202040Y0025254D01*
X0202054Y0025096D01*
X0202064Y0024938D01*
X0202070Y0024780D01*
X0202072Y0024622D01*
X0202070Y0024464D01*
X0202064Y0024306D01*
X0202054Y0024148D01*
X0202040Y0023990D01*
X0202022Y0023833D01*
X0202001Y0023676D01*
X0201975Y0023520D01*
X0201945Y0023364D01*
X0201912Y0023209D01*
X0201874Y0023056D01*
X0201833Y0022903D01*
X0201788Y0022751D01*
X0201739Y0022600D01*
X0201686Y0022451D01*
X0201630Y0022303D01*
X0201570Y0022157D01*
X0201506Y0022012D01*
X0201438Y0021869D01*
X0201367Y0021727D01*
X0201293Y0021587D01*
X0201215Y0021450D01*
X0201133Y0021314D01*
X0201049Y0021180D01*
X0200960Y0021049D01*
X0200869Y0020920D01*
X0200774Y0020793D01*
X0200677Y0020668D01*
X0200576Y0020546D01*
X0200472Y0020427D01*
X0200365Y0020310D01*
X0200255Y0020196D01*
X0200142Y0020085D01*
X0200027Y0019976D01*
X0199909Y0019871D01*
X0199788Y0019769D01*
X0199665Y0019669D01*
X0199539Y0019573D01*
X0199411Y0019480D01*
X0199281Y0019390D01*
X0199148Y0019304D01*
X0199013Y0019220D01*
X0198877Y0019141D01*
X0198738Y0019064D01*
X0198597Y0018992D01*
X0198455Y0018922D01*
X0198311Y0018857D01*
X0198165Y0018795D01*
X0198018Y0018737D01*
X0197869Y0018682D01*
X0197719Y0018631D01*
X0197568Y0018584D01*
X0197416Y0018541D01*
X0197263Y0018502D01*
X0197108Y0018466D01*
X0196953Y0018435D01*
X0196797Y0018407D01*
X0196641Y0018383D01*
X0196484Y0018363D01*
X0196326Y0018347D01*
X0196169Y0018335D01*
X0196010Y0018327D01*
X0195852Y0018323D01*
X0195694Y0018323D01*
X0195536Y0018327D01*
X0195377Y0018335D01*
X0195220Y0018347D01*
X0195062Y0018363D01*
X0194905Y0018383D01*
X0194749Y0018407D01*
X0194593Y0018435D01*
X0194438Y0018466D01*
X0194283Y0018502D01*
X0194130Y0018541D01*
X0193978Y0018584D01*
X0193827Y0018631D01*
X0193677Y0018682D01*
X0193528Y0018737D01*
X0193381Y0018795D01*
X0193235Y0018857D01*
X0193091Y0018922D01*
X0192949Y0018992D01*
X0192808Y0019064D01*
X0192669Y0019141D01*
X0192533Y0019220D01*
X0192398Y0019304D01*
X0192265Y0019390D01*
X0192135Y0019480D01*
X0192007Y0019573D01*
X0191881Y0019669D01*
X0191758Y0019769D01*
X0191637Y0019871D01*
X0191519Y0019976D01*
X0191404Y0020085D01*
X0191291Y0020196D01*
X0191181Y0020310D01*
X0191074Y0020427D01*
X0190970Y0020546D01*
X0190869Y0020668D01*
X0190772Y0020793D01*
X0190677Y0020920D01*
X0190586Y0021049D01*
X0190497Y0021180D01*
X0190413Y0021314D01*
X0190331Y0021450D01*
X0190253Y0021587D01*
X0190179Y0021727D01*
X0190108Y0021869D01*
X0190040Y0022012D01*
X0189976Y0022157D01*
X0189916Y0022303D01*
X0189860Y0022451D01*
X0189807Y0022600D01*
X0189758Y0022751D01*
X0189713Y0022903D01*
X0189672Y0023056D01*
X0189634Y0023209D01*
X0189601Y0023364D01*
X0189571Y0023520D01*
X0189545Y0023676D01*
X0189524Y0023833D01*
X0189506Y0023990D01*
X0189492Y0024148D01*
X0189482Y0024306D01*
X0189476Y0024464D01*
X0189474Y0024622D01*
D11*
X0038292Y0024622D02*
X0038292Y0044701D01*
X0038292Y0024622D02*
X0038298Y0024146D01*
X0038315Y0023671D01*
X0038344Y0023196D01*
X0038384Y0022722D01*
X0038436Y0022249D01*
X0038499Y0021778D01*
X0038573Y0021308D01*
X0038659Y0020840D01*
X0038756Y0020374D01*
X0038864Y0019911D01*
X0038983Y0019451D01*
X0039114Y0018993D01*
X0039255Y0018539D01*
X0039408Y0018088D01*
X0039571Y0017642D01*
X0039745Y0017199D01*
X0039930Y0016761D01*
X0040125Y0016327D01*
X0040331Y0015898D01*
X0040547Y0015474D01*
X0040773Y0015055D01*
X0041009Y0014642D01*
X0041255Y0014235D01*
X0041511Y0013834D01*
X0041777Y0013440D01*
X0042052Y0013051D01*
X0042336Y0012670D01*
X0042629Y0012296D01*
X0042931Y0011928D01*
X0043243Y0011568D01*
X0043562Y0011216D01*
X0043890Y0010872D01*
X0044227Y0010535D01*
X0044571Y0010207D01*
X0044923Y0009888D01*
X0045283Y0009576D01*
X0045651Y0009274D01*
X0046025Y0008981D01*
X0046406Y0008697D01*
X0046795Y0008422D01*
X0047189Y0008156D01*
X0047590Y0007900D01*
X0047997Y0007654D01*
X0048410Y0007418D01*
X0048829Y0007192D01*
X0049253Y0006976D01*
X0049682Y0006770D01*
X0050116Y0006575D01*
X0050554Y0006390D01*
X0050997Y0006216D01*
X0051443Y0006053D01*
X0051894Y0005900D01*
X0052348Y0005759D01*
X0052806Y0005628D01*
X0053266Y0005509D01*
X0053729Y0005401D01*
X0054195Y0005304D01*
X0054663Y0005218D01*
X0055133Y0005144D01*
X0055604Y0005081D01*
X0056077Y0005029D01*
X0056551Y0004989D01*
X0057026Y0004960D01*
X0057501Y0004943D01*
X0057977Y0004937D01*
X0078056Y0004937D01*
X0175694Y0004937D02*
X0195773Y0004937D01*
X0196249Y0004943D01*
X0196724Y0004960D01*
X0197199Y0004989D01*
X0197673Y0005029D01*
X0198146Y0005081D01*
X0198617Y0005144D01*
X0199087Y0005218D01*
X0199555Y0005304D01*
X0200021Y0005401D01*
X0200484Y0005509D01*
X0200944Y0005628D01*
X0201402Y0005759D01*
X0201856Y0005900D01*
X0202307Y0006053D01*
X0202753Y0006216D01*
X0203196Y0006390D01*
X0203634Y0006575D01*
X0204068Y0006770D01*
X0204497Y0006976D01*
X0204921Y0007192D01*
X0205340Y0007418D01*
X0205753Y0007654D01*
X0206160Y0007900D01*
X0206561Y0008156D01*
X0206955Y0008422D01*
X0207344Y0008697D01*
X0207725Y0008981D01*
X0208099Y0009274D01*
X0208467Y0009576D01*
X0208827Y0009888D01*
X0209179Y0010207D01*
X0209523Y0010535D01*
X0209860Y0010872D01*
X0210188Y0011216D01*
X0210507Y0011568D01*
X0210819Y0011928D01*
X0211121Y0012296D01*
X0211414Y0012670D01*
X0211698Y0013051D01*
X0211973Y0013440D01*
X0212239Y0013834D01*
X0212495Y0014235D01*
X0212741Y0014642D01*
X0212977Y0015055D01*
X0213203Y0015474D01*
X0213419Y0015898D01*
X0213625Y0016327D01*
X0213820Y0016761D01*
X0214005Y0017199D01*
X0214179Y0017642D01*
X0214342Y0018088D01*
X0214495Y0018539D01*
X0214636Y0018993D01*
X0214767Y0019451D01*
X0214886Y0019911D01*
X0214994Y0020374D01*
X0215091Y0020840D01*
X0215177Y0021308D01*
X0215251Y0021778D01*
X0215314Y0022249D01*
X0215366Y0022722D01*
X0215406Y0023196D01*
X0215435Y0023671D01*
X0215452Y0024146D01*
X0215458Y0024622D01*
X0215458Y0044701D01*
X0215458Y0142339D02*
X0215458Y0162417D01*
X0215452Y0162893D01*
X0215435Y0163368D01*
X0215406Y0163843D01*
X0215366Y0164317D01*
X0215314Y0164790D01*
X0215251Y0165261D01*
X0215177Y0165731D01*
X0215091Y0166199D01*
X0214994Y0166665D01*
X0214886Y0167128D01*
X0214767Y0167588D01*
X0214636Y0168046D01*
X0214495Y0168500D01*
X0214342Y0168951D01*
X0214179Y0169397D01*
X0214005Y0169840D01*
X0213820Y0170278D01*
X0213625Y0170712D01*
X0213419Y0171141D01*
X0213203Y0171565D01*
X0212977Y0171984D01*
X0212741Y0172397D01*
X0212495Y0172804D01*
X0212239Y0173205D01*
X0211973Y0173599D01*
X0211698Y0173988D01*
X0211414Y0174369D01*
X0211121Y0174743D01*
X0210819Y0175111D01*
X0210507Y0175471D01*
X0210188Y0175823D01*
X0209860Y0176167D01*
X0209523Y0176504D01*
X0209179Y0176832D01*
X0208827Y0177151D01*
X0208467Y0177463D01*
X0208099Y0177765D01*
X0207725Y0178058D01*
X0207344Y0178342D01*
X0206955Y0178617D01*
X0206561Y0178883D01*
X0206160Y0179139D01*
X0205753Y0179385D01*
X0205340Y0179621D01*
X0204921Y0179847D01*
X0204497Y0180063D01*
X0204068Y0180269D01*
X0203634Y0180464D01*
X0203196Y0180649D01*
X0202753Y0180823D01*
X0202307Y0180986D01*
X0201856Y0181139D01*
X0201402Y0181280D01*
X0200944Y0181411D01*
X0200484Y0181530D01*
X0200021Y0181638D01*
X0199555Y0181735D01*
X0199087Y0181821D01*
X0198617Y0181895D01*
X0198146Y0181958D01*
X0197673Y0182010D01*
X0197199Y0182050D01*
X0196724Y0182079D01*
X0196249Y0182096D01*
X0195773Y0182102D01*
X0175694Y0182102D01*
X0078056Y0182102D02*
X0057977Y0182102D01*
X0057501Y0182096D01*
X0057026Y0182079D01*
X0056551Y0182050D01*
X0056077Y0182010D01*
X0055604Y0181958D01*
X0055133Y0181895D01*
X0054663Y0181821D01*
X0054195Y0181735D01*
X0053729Y0181638D01*
X0053266Y0181530D01*
X0052806Y0181411D01*
X0052348Y0181280D01*
X0051894Y0181139D01*
X0051443Y0180986D01*
X0050997Y0180823D01*
X0050554Y0180649D01*
X0050116Y0180464D01*
X0049682Y0180269D01*
X0049253Y0180063D01*
X0048829Y0179847D01*
X0048410Y0179621D01*
X0047997Y0179385D01*
X0047590Y0179139D01*
X0047189Y0178883D01*
X0046795Y0178617D01*
X0046406Y0178342D01*
X0046025Y0178058D01*
X0045651Y0177765D01*
X0045283Y0177463D01*
X0044923Y0177151D01*
X0044571Y0176832D01*
X0044227Y0176504D01*
X0043890Y0176167D01*
X0043562Y0175823D01*
X0043243Y0175471D01*
X0042931Y0175111D01*
X0042629Y0174743D01*
X0042336Y0174369D01*
X0042052Y0173988D01*
X0041777Y0173599D01*
X0041511Y0173205D01*
X0041255Y0172804D01*
X0041009Y0172397D01*
X0040773Y0171984D01*
X0040547Y0171565D01*
X0040331Y0171141D01*
X0040125Y0170712D01*
X0039930Y0170278D01*
X0039745Y0169840D01*
X0039571Y0169397D01*
X0039408Y0168951D01*
X0039255Y0168500D01*
X0039114Y0168046D01*
X0038983Y0167588D01*
X0038864Y0167128D01*
X0038756Y0166665D01*
X0038659Y0166199D01*
X0038573Y0165731D01*
X0038499Y0165261D01*
X0038436Y0164790D01*
X0038384Y0164317D01*
X0038344Y0163843D01*
X0038315Y0163368D01*
X0038298Y0162893D01*
X0038292Y0162417D01*
X0038292Y0142339D01*
M02*
