%
M48
M72
T01C0.01181
T02C0.03937
T03C0.12598
%
T01
X111127Y103736
X111127Y107673
X111127Y119484
X111127Y125389
X111127Y131295
X124907Y139169
X130812Y123421
X134749Y123421
X126875Y111610
X130812Y107673
X126875Y103736
X122938Y107673
X117033Y95862
X117033Y91925
X136718Y95862
X138686Y99799
X142623Y107673
X142623Y111610
T02
X172151Y112673
X172151Y122673
X172151Y102673
X172151Y92673
X163529Y62397
X153529Y62397
X143529Y62397
X133529Y62397
X120221Y62397
X110221Y62397
X100221Y62397
X90221Y62397
X81599Y92673
X81599Y102673
X81599Y112673
X81599Y122673
X111875Y152949
X121875Y152949
X131875Y152949
X141875Y152949
T03
X57977Y38775
X57977Y176571
X195773Y176571
X195773Y38775
M30
