%
M48
M72
T01C0.01181
T02C0.03543
T03C0.12598
%
T01
X105221Y81709
X109158Y77772
X111127Y89583
X111127Y93520
X111127Y105331
X111127Y111236
X111127Y117142
X124907Y125016
X130812Y109268
X134749Y109268
X126875Y97457
X122938Y93520
X126875Y89583
X130812Y93520
X138686Y85646
X136718Y81709
X142623Y93520
X142623Y97457
T02
X172151Y98441
X172151Y88598
X172151Y78756
X172151Y108283
X141639Y138795
X131796Y138795
X121954Y138795
X112111Y138795
X81599Y108283
X81599Y98441
X81599Y88598
X81599Y78756
X86521Y48244
X96363Y48244
X106206Y48244
X116048Y48244
X137702Y48244
X147544Y48244
X157387Y48244
X167229Y48244
T03
X57977Y24622
X57977Y162417
X195773Y162417
X195773Y24622
M30
