G75*
%MOIN*%
%OFA0B0*%
%FSLAX25Y25*%
%IPPOS*%
%LPD*%
%AMOC8*
5,1,8,0,0,1.08239X$1,22.5*
%
%ADD10C,0.00787*%
%ADD11C,0.00800*%
D10*
X0069001Y0088008D02*
X0070576Y0088008D01*
X0070576Y0091157D02*
X0069001Y0091157D01*
X0069001Y0095882D02*
X0070576Y0095882D01*
X0070576Y0099031D02*
X0069001Y0099031D01*
X0102859Y0103362D02*
X0103253Y0103362D01*
X0103647Y0103362D01*
X0103647Y0107299D02*
X0103253Y0107299D01*
X0102859Y0107299D01*
X0102859Y0109268D02*
X0103253Y0109268D01*
X0103647Y0109268D01*
X0103647Y0113205D02*
X0103253Y0113205D01*
X0102859Y0113205D01*
X0102859Y0115173D02*
X0103253Y0115173D01*
X0103647Y0115173D01*
X0103647Y0119110D02*
X0103253Y0119110D01*
X0102859Y0119110D01*
X0103647Y0037220D02*
X0103647Y0035646D01*
X0106796Y0035646D02*
X0106796Y0037220D01*
X0098922Y0037220D02*
X0098922Y0035646D01*
X0095773Y0035646D02*
X0095773Y0037220D01*
X0146954Y0037220D02*
X0146954Y0035646D01*
X0150103Y0035646D02*
X0150103Y0037220D01*
X0154828Y0037220D02*
X0154828Y0035646D01*
X0157977Y0035646D02*
X0157977Y0037220D01*
X0183174Y0088008D02*
X0184749Y0088008D01*
X0184749Y0091157D02*
X0183174Y0091157D01*
X0183174Y0095882D02*
X0184749Y0095882D01*
X0184749Y0099031D02*
X0183174Y0099031D01*
D11*
X0067576Y0082109D02*
X0065483Y0082109D01*
X0065483Y0084202D02*
X0065483Y0084725D01*
X0066006Y0085248D01*
X0067053Y0085248D01*
X0067576Y0084725D01*
X0065483Y0084202D02*
X0067576Y0082109D01*
X0069108Y0082109D02*
X0071201Y0082109D01*
X0070154Y0082109D02*
X0070154Y0085248D01*
X0071201Y0084202D01*
X0072733Y0084725D02*
X0073256Y0085248D01*
X0074826Y0085248D01*
X0074826Y0082109D01*
X0074826Y0083155D02*
X0073256Y0083155D01*
X0072733Y0083679D01*
X0072733Y0084725D01*
X0073780Y0083155D02*
X0072733Y0082109D01*
X0072733Y0101794D02*
X0073780Y0102840D01*
X0073256Y0102840D02*
X0074826Y0102840D01*
X0074826Y0101794D02*
X0074826Y0104933D01*
X0073256Y0104933D01*
X0072733Y0104410D01*
X0072733Y0103364D01*
X0073256Y0102840D01*
X0071201Y0101794D02*
X0069108Y0101794D01*
X0070154Y0101794D02*
X0070154Y0104933D01*
X0071201Y0103887D01*
X0067576Y0103887D02*
X0066529Y0104933D01*
X0066529Y0101794D01*
X0065483Y0101794D02*
X0067576Y0101794D01*
X0089105Y0104285D02*
X0089105Y0106379D01*
X0089628Y0106902D01*
X0090675Y0106902D01*
X0091198Y0106379D01*
X0091198Y0105855D01*
X0090675Y0105332D01*
X0089105Y0105332D01*
X0089105Y0104285D02*
X0089628Y0103762D01*
X0090675Y0103762D01*
X0091198Y0104285D01*
X0092730Y0103762D02*
X0094823Y0103762D01*
X0093776Y0103762D02*
X0093776Y0106902D01*
X0094823Y0105855D01*
X0096355Y0105332D02*
X0096355Y0106379D01*
X0096878Y0106902D01*
X0098448Y0106902D01*
X0098448Y0103762D01*
X0098448Y0104809D02*
X0096878Y0104809D01*
X0096355Y0105332D01*
X0097402Y0104809D02*
X0096355Y0103762D01*
X0096355Y0109668D02*
X0097402Y0110714D01*
X0096878Y0110714D02*
X0098448Y0110714D01*
X0098448Y0109668D02*
X0098448Y0112807D01*
X0096878Y0112807D01*
X0096355Y0112284D01*
X0096355Y0111238D01*
X0096878Y0110714D01*
X0094823Y0109668D02*
X0092730Y0109668D01*
X0091198Y0110191D02*
X0089105Y0112284D01*
X0089105Y0110191D01*
X0089628Y0109668D01*
X0090675Y0109668D01*
X0091198Y0110191D01*
X0091198Y0112284D01*
X0090675Y0112807D01*
X0089628Y0112807D01*
X0089105Y0112284D01*
X0089105Y0115573D02*
X0091198Y0115573D01*
X0090151Y0115573D02*
X0090151Y0118713D01*
X0091198Y0117666D01*
X0092730Y0117666D02*
X0092730Y0118190D01*
X0093253Y0118713D01*
X0094300Y0118713D01*
X0094823Y0118190D01*
X0096355Y0118190D02*
X0096355Y0117143D01*
X0096878Y0116620D01*
X0098448Y0116620D01*
X0097402Y0116620D02*
X0096355Y0115573D01*
X0094823Y0115573D02*
X0092730Y0117666D01*
X0092730Y0115573D02*
X0094823Y0115573D01*
X0094300Y0112807D02*
X0094823Y0112284D01*
X0094300Y0112807D02*
X0093253Y0112807D01*
X0092730Y0112284D01*
X0092730Y0111761D01*
X0094823Y0109668D01*
X0098448Y0115573D02*
X0098448Y0118713D01*
X0096878Y0118713D01*
X0096355Y0118190D01*
X0092490Y0040739D02*
X0091967Y0040739D01*
X0091443Y0040215D01*
X0090920Y0040739D01*
X0090397Y0040739D01*
X0089873Y0040215D01*
X0089873Y0039169D01*
X0090397Y0038646D01*
X0091443Y0039692D02*
X0091443Y0040215D01*
X0092490Y0040739D02*
X0093013Y0040215D01*
X0093013Y0039169D01*
X0092490Y0038646D01*
X0093013Y0036067D02*
X0089873Y0036067D01*
X0089873Y0035020D02*
X0089873Y0037114D01*
X0091967Y0035020D02*
X0093013Y0036067D01*
X0092490Y0033488D02*
X0091443Y0033488D01*
X0090920Y0032965D01*
X0090920Y0031395D01*
X0089873Y0031395D02*
X0093013Y0031395D01*
X0093013Y0032965D01*
X0092490Y0033488D01*
X0090920Y0032442D02*
X0089873Y0033488D01*
X0109558Y0033488D02*
X0110605Y0032442D01*
X0110605Y0032965D02*
X0110605Y0031395D01*
X0109558Y0031395D02*
X0112698Y0031395D01*
X0112698Y0032965D01*
X0112175Y0033488D01*
X0111128Y0033488D01*
X0110605Y0032965D01*
X0109558Y0035020D02*
X0109558Y0037114D01*
X0109558Y0036067D02*
X0112698Y0036067D01*
X0111652Y0035020D01*
X0111128Y0038646D02*
X0111128Y0040739D01*
X0109558Y0040215D02*
X0112698Y0040215D01*
X0111128Y0038646D01*
X0141055Y0039169D02*
X0141578Y0038646D01*
X0141055Y0039169D02*
X0141055Y0040215D01*
X0141578Y0040739D01*
X0142624Y0040739D01*
X0143148Y0040215D01*
X0143148Y0039692D01*
X0142624Y0038646D01*
X0144194Y0038646D01*
X0144194Y0040739D01*
X0144194Y0036067D02*
X0141055Y0036067D01*
X0141055Y0035020D02*
X0141055Y0037114D01*
X0143148Y0035020D02*
X0144194Y0036067D01*
X0143671Y0033488D02*
X0142624Y0033488D01*
X0142101Y0032965D01*
X0142101Y0031395D01*
X0141055Y0031395D02*
X0144194Y0031395D01*
X0144194Y0032965D01*
X0143671Y0033488D01*
X0142101Y0032442D02*
X0141055Y0033488D01*
X0160740Y0033488D02*
X0161786Y0032442D01*
X0161786Y0032965D02*
X0161786Y0031395D01*
X0160740Y0031395D02*
X0163879Y0031395D01*
X0163879Y0032965D01*
X0163356Y0033488D01*
X0162309Y0033488D01*
X0161786Y0032965D01*
X0160740Y0035020D02*
X0160740Y0037114D01*
X0160740Y0036067D02*
X0163879Y0036067D01*
X0162833Y0035020D01*
X0162309Y0038646D02*
X0162309Y0040215D01*
X0161786Y0040739D01*
X0161263Y0040739D01*
X0160740Y0040215D01*
X0160740Y0039169D01*
X0161263Y0038646D01*
X0162309Y0038646D01*
X0163356Y0039692D01*
X0163879Y0040739D01*
X0181749Y0082109D02*
X0181749Y0082632D01*
X0179656Y0084725D01*
X0179656Y0085248D01*
X0181749Y0085248D01*
X0184328Y0085248D02*
X0184328Y0082109D01*
X0185374Y0082109D02*
X0183281Y0082109D01*
X0185374Y0084202D02*
X0184328Y0085248D01*
X0186906Y0084725D02*
X0186906Y0083679D01*
X0187430Y0083155D01*
X0188999Y0083155D01*
X0187953Y0083155D02*
X0186906Y0082109D01*
X0188999Y0082109D02*
X0188999Y0085248D01*
X0187430Y0085248D01*
X0186906Y0084725D01*
X0186906Y0101794D02*
X0187953Y0102840D01*
X0187430Y0102840D02*
X0188999Y0102840D01*
X0188999Y0101794D02*
X0188999Y0104933D01*
X0187430Y0104933D01*
X0186906Y0104410D01*
X0186906Y0103364D01*
X0187430Y0102840D01*
X0185374Y0101794D02*
X0183281Y0101794D01*
X0184328Y0101794D02*
X0184328Y0104933D01*
X0185374Y0103887D01*
X0181749Y0103887D02*
X0181749Y0104410D01*
X0181226Y0104933D01*
X0180179Y0104933D01*
X0179656Y0104410D01*
X0179656Y0103887D01*
X0180179Y0103364D01*
X0181226Y0103364D01*
X0181749Y0103887D01*
X0181226Y0103364D02*
X0181749Y0102840D01*
X0181749Y0102317D01*
X0181226Y0101794D01*
X0180179Y0101794D01*
X0179656Y0102317D01*
X0179656Y0102840D01*
X0180179Y0103364D01*
M02*
