G75*
%MOIN*%
%OFA0B0*%
%FSLAX25Y25*%
%IPPOS*%
%LPD*%
%AMOC8*
5,1,8,0,0,1.08239X$1,22.5*
%
%ADD10C,0.00787*%
%ADD11C,0.01200*%
%ADD12C,0.01100*%
%ADD13C,0.00900*%
%ADD14C,0.00800*%
D10*
X0060733Y0043520D02*
X0063489Y0046276D01*
X0063489Y0043520D01*
X0060733Y0043520D01*
X0061454Y0044240D02*
X0063489Y0044240D01*
X0063489Y0045026D02*
X0062240Y0045026D01*
X0063026Y0045812D02*
X0063489Y0045812D01*
X0076875Y0057299D02*
X0076875Y0012024D01*
X0125694Y0012024D01*
X0125694Y0057299D01*
X0122544Y0057299D01*
X0122544Y0039583D01*
X0080025Y0039583D01*
X0080025Y0057299D01*
X0076875Y0057299D01*
X0081599Y0058087D02*
X0085536Y0058087D01*
X0083568Y0054150D01*
X0081599Y0058087D01*
X0081842Y0057601D02*
X0085293Y0057601D01*
X0084900Y0056815D02*
X0082235Y0056815D01*
X0082628Y0056029D02*
X0084508Y0056029D01*
X0084115Y0055243D02*
X0083021Y0055243D01*
X0083414Y0054457D02*
X0083722Y0054457D01*
X0090655Y0069110D02*
X0045379Y0069110D01*
X0045379Y0117929D01*
X0090655Y0117929D01*
X0090655Y0114780D01*
X0072938Y0114780D01*
X0072938Y0072260D01*
X0090655Y0072260D01*
X0090655Y0069110D01*
X0102466Y0088008D02*
X0104040Y0088008D01*
X0104040Y0091157D02*
X0102466Y0091157D01*
X0102466Y0095882D02*
X0104040Y0095882D01*
X0104040Y0099031D02*
X0102466Y0099031D01*
X0102466Y0103756D02*
X0104040Y0103756D01*
X0104040Y0106906D02*
X0102466Y0106906D01*
X0102466Y0109661D02*
X0104040Y0109661D01*
X0104040Y0112811D02*
X0102466Y0112811D01*
X0102466Y0115567D02*
X0104040Y0115567D01*
X0104040Y0118717D02*
X0102466Y0118717D01*
X0102466Y0129740D02*
X0102466Y0175016D01*
X0151284Y0175016D01*
X0151284Y0129740D01*
X0148135Y0129740D01*
X0148135Y0147457D01*
X0105615Y0147457D01*
X0105615Y0129740D01*
X0102466Y0129740D01*
X0091442Y0113205D02*
X0091442Y0109268D01*
X0087505Y0111236D01*
X0091442Y0113205D01*
X0091442Y0112615D02*
X0090262Y0112615D01*
X0091442Y0111829D02*
X0088690Y0111829D01*
X0087892Y0111043D02*
X0091442Y0111043D01*
X0091442Y0110257D02*
X0089464Y0110257D01*
X0091036Y0109471D02*
X0091442Y0109471D01*
X0113095Y0103756D02*
X0113095Y0102181D01*
X0114670Y0102181D01*
X0114670Y0103756D01*
X0113095Y0103756D01*
X0113095Y0103184D02*
X0114670Y0103184D01*
X0114670Y0102398D02*
X0113095Y0102398D01*
X0112702Y0102969D02*
X0112704Y0103038D01*
X0112710Y0103106D01*
X0112720Y0103174D01*
X0112734Y0103241D01*
X0112752Y0103308D01*
X0112773Y0103373D01*
X0112799Y0103437D01*
X0112828Y0103499D01*
X0112860Y0103559D01*
X0112896Y0103618D01*
X0112936Y0103674D01*
X0112978Y0103728D01*
X0113024Y0103779D01*
X0113073Y0103828D01*
X0113124Y0103874D01*
X0113178Y0103916D01*
X0113234Y0103956D01*
X0113292Y0103992D01*
X0113353Y0104024D01*
X0113415Y0104053D01*
X0113479Y0104079D01*
X0113544Y0104100D01*
X0113611Y0104118D01*
X0113678Y0104132D01*
X0113746Y0104142D01*
X0113814Y0104148D01*
X0113883Y0104150D01*
X0113952Y0104148D01*
X0114020Y0104142D01*
X0114088Y0104132D01*
X0114155Y0104118D01*
X0114222Y0104100D01*
X0114287Y0104079D01*
X0114351Y0104053D01*
X0114413Y0104024D01*
X0114473Y0103992D01*
X0114532Y0103956D01*
X0114588Y0103916D01*
X0114642Y0103874D01*
X0114693Y0103828D01*
X0114742Y0103779D01*
X0114788Y0103728D01*
X0114830Y0103674D01*
X0114870Y0103618D01*
X0114906Y0103559D01*
X0114938Y0103499D01*
X0114967Y0103437D01*
X0114993Y0103373D01*
X0115014Y0103308D01*
X0115032Y0103241D01*
X0115046Y0103174D01*
X0115056Y0103106D01*
X0115062Y0103038D01*
X0115064Y0102969D01*
X0115062Y0102900D01*
X0115056Y0102832D01*
X0115046Y0102764D01*
X0115032Y0102697D01*
X0115014Y0102630D01*
X0114993Y0102565D01*
X0114967Y0102501D01*
X0114938Y0102439D01*
X0114906Y0102378D01*
X0114870Y0102320D01*
X0114830Y0102264D01*
X0114788Y0102210D01*
X0114742Y0102159D01*
X0114693Y0102110D01*
X0114642Y0102064D01*
X0114588Y0102022D01*
X0114532Y0101982D01*
X0114474Y0101946D01*
X0114413Y0101914D01*
X0114351Y0101885D01*
X0114287Y0101859D01*
X0114222Y0101838D01*
X0114155Y0101820D01*
X0114088Y0101806D01*
X0114020Y0101796D01*
X0113952Y0101790D01*
X0113883Y0101788D01*
X0113814Y0101790D01*
X0113746Y0101796D01*
X0113678Y0101806D01*
X0113611Y0101820D01*
X0113544Y0101838D01*
X0113479Y0101859D01*
X0113415Y0101885D01*
X0113353Y0101914D01*
X0113292Y0101946D01*
X0113234Y0101982D01*
X0113178Y0102022D01*
X0113124Y0102064D01*
X0113073Y0102110D01*
X0113024Y0102159D01*
X0112978Y0102210D01*
X0112936Y0102264D01*
X0112896Y0102320D01*
X0112860Y0102378D01*
X0112828Y0102439D01*
X0112799Y0102501D01*
X0112773Y0102565D01*
X0112752Y0102630D01*
X0112734Y0102697D01*
X0112720Y0102764D01*
X0112710Y0102832D01*
X0112704Y0102900D01*
X0112702Y0102969D01*
X0117033Y0103362D02*
X0117033Y0100606D01*
X0117033Y0103362D02*
X0119788Y0103362D01*
X0129237Y0116354D02*
X0129237Y0117929D01*
X0127269Y0117142D02*
X0122544Y0117142D01*
X0132387Y0117929D02*
X0132387Y0116354D01*
X0135143Y0116354D02*
X0135143Y0117929D01*
X0138292Y0117929D02*
X0138292Y0116354D01*
X0136718Y0103362D02*
X0133962Y0103362D01*
X0136718Y0103362D02*
X0136718Y0100606D01*
X0149710Y0099031D02*
X0151284Y0099031D01*
X0151284Y0095882D02*
X0149710Y0095882D01*
X0149710Y0091157D02*
X0151284Y0091157D01*
X0151284Y0088008D02*
X0149710Y0088008D01*
X0149710Y0085252D02*
X0151284Y0085252D01*
X0151284Y0082102D02*
X0149710Y0082102D01*
X0136718Y0083677D02*
X0133962Y0083677D01*
X0136718Y0083677D02*
X0136718Y0086433D01*
X0119788Y0083677D02*
X0117033Y0083677D01*
X0117033Y0086433D01*
X0128056Y0057299D02*
X0128056Y0012024D01*
X0176875Y0012024D01*
X0176875Y0057299D01*
X0173725Y0057299D01*
X0173725Y0039583D01*
X0131206Y0039583D01*
X0131206Y0057299D01*
X0128056Y0057299D01*
X0132781Y0058087D02*
X0136718Y0058087D01*
X0134749Y0054150D01*
X0132781Y0058087D01*
X0133024Y0057601D02*
X0136475Y0057601D01*
X0136082Y0056815D02*
X0133416Y0056815D01*
X0133809Y0056029D02*
X0135689Y0056029D01*
X0135296Y0055243D02*
X0134202Y0055243D01*
X0134595Y0054457D02*
X0134903Y0054457D01*
X0163095Y0069110D02*
X0208371Y0069110D01*
X0208371Y0117929D01*
X0163095Y0117929D01*
X0163095Y0114780D01*
X0180812Y0114780D01*
X0180812Y0072260D01*
X0163095Y0072260D01*
X0163095Y0069110D01*
X0162308Y0073835D02*
X0162308Y0077772D01*
X0166245Y0075803D01*
X0162308Y0073835D01*
X0162308Y0074105D02*
X0162848Y0074105D01*
X0162308Y0074891D02*
X0164420Y0074891D01*
X0164926Y0076463D02*
X0162308Y0076463D01*
X0162308Y0077248D02*
X0163355Y0077248D01*
X0162308Y0075677D02*
X0165992Y0075677D01*
X0190261Y0066748D02*
X0190261Y0063992D01*
X0193017Y0066748D01*
X0190261Y0066748D01*
X0190261Y0066246D02*
X0192514Y0066246D01*
X0191728Y0065460D02*
X0190261Y0065460D01*
X0190261Y0064674D02*
X0190943Y0064674D01*
X0146560Y0128953D02*
X0142623Y0128953D01*
X0144592Y0132890D01*
X0146560Y0128953D01*
X0146477Y0129119D02*
X0142706Y0129119D01*
X0143099Y0129905D02*
X0146084Y0129905D01*
X0145691Y0130691D02*
X0143492Y0130691D01*
X0143885Y0131476D02*
X0145298Y0131476D01*
X0144905Y0132262D02*
X0144278Y0132262D01*
X0190261Y0138795D02*
X0193017Y0141551D01*
X0190261Y0141551D01*
X0190261Y0138795D01*
X0190261Y0139336D02*
X0190801Y0139336D01*
X0190261Y0140121D02*
X0191587Y0140121D01*
X0192373Y0140907D02*
X0190261Y0140907D01*
X0063489Y0123047D02*
X0063489Y0120291D01*
X0060733Y0120291D01*
X0063489Y0123047D01*
X0063489Y0122831D02*
X0063273Y0122831D01*
X0063489Y0122045D02*
X0062487Y0122045D01*
X0061702Y0121260D02*
X0063489Y0121260D01*
X0063489Y0120474D02*
X0060916Y0120474D01*
D11*
X0078437Y0121115D02*
X0079404Y0120147D01*
X0081339Y0120147D01*
X0082307Y0121115D01*
X0084882Y0120147D02*
X0084882Y0125952D01*
X0082307Y0124985D02*
X0081339Y0125952D01*
X0079404Y0125952D01*
X0078437Y0124985D01*
X0078437Y0121115D01*
X0084882Y0123050D02*
X0088752Y0123050D01*
X0088752Y0125952D02*
X0088752Y0120147D01*
X0091328Y0121115D02*
X0091328Y0124985D01*
X0092295Y0125952D01*
X0094230Y0125952D01*
X0095198Y0124985D01*
X0091328Y0121115D01*
X0092295Y0120147D01*
X0094230Y0120147D01*
X0095198Y0121115D01*
X0095198Y0124985D01*
X0097560Y0165423D02*
X0096592Y0166390D01*
X0096592Y0170260D01*
X0095625Y0169293D02*
X0097560Y0169293D01*
X0093049Y0169293D02*
X0090147Y0169293D01*
X0089179Y0168325D01*
X0090147Y0167358D01*
X0092082Y0167358D01*
X0093049Y0166390D01*
X0092082Y0165423D01*
X0089179Y0165423D01*
X0086604Y0166390D02*
X0086604Y0168325D01*
X0085636Y0169293D01*
X0083701Y0169293D01*
X0082734Y0168325D01*
X0082734Y0166390D01*
X0083701Y0165423D01*
X0085636Y0165423D01*
X0086604Y0166390D01*
X0080158Y0165423D02*
X0080158Y0171228D01*
X0080158Y0168325D02*
X0076288Y0168325D01*
X0076288Y0165423D02*
X0076288Y0171228D01*
X0154663Y0148607D02*
X0154663Y0144737D01*
X0155630Y0143769D01*
X0157565Y0143769D01*
X0158533Y0144737D01*
X0157565Y0145704D02*
X0157565Y0147639D01*
X0155630Y0147639D01*
X0155630Y0145704D01*
X0157565Y0145704D01*
X0158533Y0146672D01*
X0158533Y0148607D01*
X0157565Y0149574D01*
X0155630Y0149574D01*
X0154663Y0148607D01*
X0161108Y0142802D02*
X0164978Y0142802D01*
X0167554Y0143769D02*
X0167554Y0149574D01*
X0168521Y0146672D02*
X0171424Y0143769D01*
X0173999Y0146672D02*
X0177869Y0146672D01*
X0176902Y0149574D02*
X0176902Y0143769D01*
X0173999Y0146672D02*
X0176902Y0149574D01*
X0180445Y0149574D02*
X0184315Y0149574D01*
X0184315Y0148607D01*
X0180445Y0144737D01*
X0180445Y0143769D01*
X0184315Y0143769D01*
X0186890Y0144737D02*
X0187858Y0143769D01*
X0189793Y0143769D01*
X0190760Y0144737D01*
X0190760Y0149574D01*
X0186890Y0149574D02*
X0186890Y0144737D01*
X0193336Y0145704D02*
X0197206Y0149574D01*
X0193336Y0149574D02*
X0193336Y0143769D01*
X0194303Y0146672D02*
X0197206Y0143769D01*
X0199781Y0143769D02*
X0201716Y0143769D01*
X0200749Y0143769D02*
X0200749Y0149574D01*
X0201716Y0149574D02*
X0199781Y0149574D01*
X0204078Y0142802D02*
X0207948Y0142802D01*
X0175906Y0124985D02*
X0175906Y0124017D01*
X0174939Y0123050D01*
X0175906Y0122082D01*
X0175906Y0121115D01*
X0174939Y0120147D01*
X0173004Y0120147D01*
X0172036Y0121115D01*
X0173971Y0123050D02*
X0174939Y0123050D01*
X0175906Y0124985D02*
X0174939Y0125952D01*
X0173004Y0125952D01*
X0172036Y0124985D01*
X0169461Y0125952D02*
X0169461Y0120147D01*
X0169461Y0123050D02*
X0165591Y0123050D01*
X0165591Y0125952D02*
X0165591Y0120147D01*
X0163015Y0121115D02*
X0162048Y0120147D01*
X0160113Y0120147D01*
X0159145Y0121115D01*
X0159145Y0124985D01*
X0160113Y0125952D01*
X0162048Y0125952D01*
X0163015Y0124985D01*
X0167554Y0145704D02*
X0171424Y0149574D01*
X0171002Y0062960D02*
X0169067Y0062960D01*
X0168099Y0061993D01*
X0165524Y0062960D02*
X0165524Y0057155D01*
X0168099Y0057155D02*
X0171969Y0061025D01*
X0171969Y0061993D01*
X0171002Y0062960D01*
X0171969Y0057155D02*
X0168099Y0057155D01*
X0165524Y0060058D02*
X0161654Y0060058D01*
X0161654Y0062960D02*
X0161654Y0057155D01*
X0159078Y0058123D02*
X0158111Y0057155D01*
X0156176Y0057155D01*
X0155208Y0058123D01*
X0155208Y0061993D01*
X0156176Y0062960D01*
X0158111Y0062960D01*
X0159078Y0061993D01*
X0105040Y0057155D02*
X0101170Y0057155D01*
X0103105Y0057155D02*
X0103105Y0062960D01*
X0101170Y0061025D01*
X0098595Y0060058D02*
X0094725Y0060058D01*
X0094725Y0062960D02*
X0094725Y0057155D01*
X0092149Y0058123D02*
X0091182Y0057155D01*
X0089247Y0057155D01*
X0088279Y0058123D01*
X0088279Y0061993D01*
X0089247Y0062960D01*
X0091182Y0062960D01*
X0092149Y0061993D01*
X0098595Y0062960D02*
X0098595Y0057155D01*
D12*
X0105760Y0061698D02*
X0108713Y0061698D01*
X0109697Y0062682D01*
X0109697Y0063666D01*
X0108713Y0064650D01*
X0105760Y0064650D01*
X0105760Y0061698D02*
X0105760Y0067603D01*
X0108713Y0067603D01*
X0109697Y0066619D01*
X0109697Y0065634D01*
X0108713Y0064650D01*
X0112205Y0063666D02*
X0114174Y0065634D01*
X0115158Y0065634D01*
X0117577Y0064650D02*
X0118561Y0065634D01*
X0120529Y0065634D01*
X0121513Y0064650D01*
X0121513Y0063666D01*
X0117577Y0063666D01*
X0117577Y0062682D02*
X0117577Y0064650D01*
X0117577Y0062682D02*
X0118561Y0061698D01*
X0120529Y0061698D01*
X0124022Y0062682D02*
X0125006Y0063666D01*
X0127959Y0063666D01*
X0127959Y0064650D02*
X0127959Y0061698D01*
X0125006Y0061698D01*
X0124022Y0062682D01*
X0125006Y0065634D02*
X0126975Y0065634D01*
X0127959Y0064650D01*
X0130468Y0063666D02*
X0133420Y0065634D01*
X0135839Y0064650D02*
X0135839Y0062682D01*
X0136823Y0061698D01*
X0138792Y0061698D01*
X0139776Y0062682D01*
X0139776Y0064650D01*
X0138792Y0065634D01*
X0136823Y0065634D01*
X0135839Y0064650D01*
X0133420Y0061698D02*
X0130468Y0063666D01*
X0130468Y0061698D02*
X0130468Y0067603D01*
X0130378Y0072198D02*
X0129393Y0073182D01*
X0130378Y0072198D02*
X0132346Y0072198D01*
X0133330Y0073182D01*
X0133330Y0075150D01*
X0132346Y0076134D01*
X0131362Y0076134D01*
X0129393Y0075150D01*
X0129393Y0078103D01*
X0133330Y0078103D01*
X0135839Y0075150D02*
X0139776Y0075150D01*
X0138792Y0072198D02*
X0138792Y0078103D01*
X0135839Y0075150D01*
X0142284Y0075150D02*
X0146221Y0075150D01*
X0145237Y0072198D02*
X0145237Y0078103D01*
X0142284Y0075150D01*
X0148730Y0075150D02*
X0152667Y0075150D01*
X0152667Y0076134D02*
X0152667Y0072198D01*
X0152667Y0076134D02*
X0150698Y0078103D01*
X0148730Y0076134D01*
X0148730Y0072198D01*
X0149714Y0066619D02*
X0149714Y0062682D01*
X0150698Y0061698D01*
X0150698Y0065634D02*
X0148730Y0065634D01*
X0146221Y0065634D02*
X0146221Y0061698D01*
X0143269Y0061698D01*
X0142284Y0062682D01*
X0142284Y0065634D01*
X0126885Y0073182D02*
X0126885Y0077119D01*
X0125901Y0078103D01*
X0123932Y0078103D01*
X0122948Y0077119D01*
X0122948Y0076134D01*
X0123932Y0075150D01*
X0126885Y0075150D01*
X0126885Y0073182D02*
X0125901Y0072198D01*
X0123932Y0072198D01*
X0122948Y0073182D01*
X0120439Y0072198D02*
X0120439Y0076134D01*
X0118471Y0078103D01*
X0116502Y0076134D01*
X0116502Y0072198D01*
X0113994Y0073182D02*
X0113010Y0072198D01*
X0111041Y0072198D01*
X0110057Y0073182D01*
X0110057Y0077119D01*
X0111041Y0078103D01*
X0113010Y0078103D01*
X0113994Y0077119D01*
X0116502Y0075150D02*
X0120439Y0075150D01*
X0112205Y0065634D02*
X0112205Y0061698D01*
X0103612Y0072198D02*
X0103612Y0078103D01*
X0106564Y0078103D01*
X0107548Y0077119D01*
X0107548Y0075150D01*
X0106564Y0074166D01*
X0103612Y0074166D01*
D13*
X0138903Y0103281D02*
X0140271Y0103281D01*
X0139587Y0103281D02*
X0139587Y0107384D01*
X0138903Y0107384D02*
X0140271Y0107384D01*
X0141972Y0106700D02*
X0141972Y0103965D01*
X0142656Y0103281D01*
X0144024Y0103281D01*
X0144708Y0103965D01*
X0146576Y0103281D02*
X0149312Y0103281D01*
X0147944Y0103281D02*
X0147944Y0107384D01*
X0146576Y0106016D01*
X0144708Y0106700D02*
X0144024Y0107384D01*
X0142656Y0107384D01*
X0141972Y0106700D01*
X0154801Y0152631D02*
X0154163Y0153269D01*
X0154163Y0154545D01*
X0154801Y0155183D01*
X0156715Y0155183D01*
X0156715Y0156459D02*
X0156715Y0152631D01*
X0154801Y0152631D01*
X0158513Y0153269D02*
X0159151Y0152631D01*
X0161065Y0152631D01*
X0162863Y0153269D02*
X0163501Y0152631D01*
X0165415Y0152631D01*
X0167214Y0153269D02*
X0167851Y0152631D01*
X0169127Y0152631D01*
X0169765Y0153269D01*
X0169765Y0154545D01*
X0169127Y0155183D01*
X0168489Y0155183D01*
X0167214Y0154545D01*
X0167214Y0156459D01*
X0169765Y0156459D01*
X0172202Y0155821D02*
X0172202Y0152631D01*
X0171564Y0154545D02*
X0172840Y0154545D01*
X0172202Y0155821D02*
X0172840Y0156459D01*
X0174464Y0155821D02*
X0175102Y0156459D01*
X0176378Y0156459D01*
X0177016Y0155821D01*
X0177016Y0155183D01*
X0174464Y0152631D01*
X0177016Y0152631D01*
X0178814Y0153269D02*
X0178814Y0154545D01*
X0179452Y0155183D01*
X0181366Y0155183D01*
X0181366Y0156459D02*
X0181366Y0152631D01*
X0179452Y0152631D01*
X0178814Y0153269D01*
X0165415Y0155183D02*
X0163501Y0155183D01*
X0162863Y0154545D01*
X0162863Y0153269D01*
X0161065Y0155183D02*
X0159151Y0155183D01*
X0158513Y0154545D01*
X0158513Y0153269D01*
D14*
X0063466Y0043642D02*
X0055828Y0043642D01*
X0055828Y0064657D01*
X0063466Y0064657D01*
X0063466Y0043642D01*
X0064283Y0042474D02*
X0067085Y0042474D01*
X0067085Y0041773D01*
X0064283Y0038971D01*
X0064283Y0038270D01*
X0062481Y0038270D02*
X0059679Y0042474D01*
X0062481Y0042474D02*
X0059679Y0038270D01*
X0087238Y0075672D02*
X0090040Y0079875D01*
X0091842Y0079175D02*
X0092543Y0079875D01*
X0093944Y0079875D01*
X0094644Y0079175D01*
X0094644Y0078474D01*
X0091842Y0075672D01*
X0094644Y0075672D01*
X0090040Y0075672D02*
X0087238Y0079875D01*
X0090185Y0088014D02*
X0090185Y0091154D01*
X0091755Y0091154D01*
X0092278Y0090631D01*
X0092278Y0089584D01*
X0091755Y0089061D01*
X0090185Y0089061D01*
X0091232Y0089061D02*
X0092278Y0088014D01*
X0093810Y0088537D02*
X0093810Y0089061D01*
X0094334Y0089584D01*
X0095380Y0089584D01*
X0095904Y0089061D01*
X0095904Y0088537D01*
X0095380Y0088014D01*
X0094334Y0088014D01*
X0093810Y0088537D01*
X0094334Y0089584D02*
X0093810Y0090107D01*
X0093810Y0090631D01*
X0094334Y0091154D01*
X0095380Y0091154D01*
X0095904Y0090631D01*
X0095904Y0090107D01*
X0095380Y0089584D01*
X0093810Y0095888D02*
X0093810Y0096411D01*
X0095904Y0098505D01*
X0095904Y0099028D01*
X0093810Y0099028D01*
X0092278Y0098505D02*
X0092278Y0097458D01*
X0091755Y0096935D01*
X0090185Y0096935D01*
X0090185Y0095888D02*
X0090185Y0099028D01*
X0091755Y0099028D01*
X0092278Y0098505D01*
X0091232Y0096935D02*
X0092278Y0095888D01*
X0092278Y0103762D02*
X0091232Y0104809D01*
X0091755Y0104809D02*
X0090185Y0104809D01*
X0090185Y0103762D02*
X0090185Y0106902D01*
X0091755Y0106902D01*
X0092278Y0106379D01*
X0092278Y0105332D01*
X0091755Y0104809D01*
X0093810Y0105855D02*
X0094857Y0106902D01*
X0094857Y0103762D01*
X0093810Y0103762D02*
X0095904Y0103762D01*
X0109870Y0109668D02*
X0109870Y0112807D01*
X0111440Y0112807D01*
X0111963Y0112284D01*
X0111963Y0111238D01*
X0111440Y0110714D01*
X0109870Y0110714D01*
X0110917Y0110714D02*
X0111963Y0109668D01*
X0113495Y0109668D02*
X0115589Y0111761D01*
X0115589Y0112284D01*
X0115065Y0112807D01*
X0114019Y0112807D01*
X0113495Y0112284D01*
X0114019Y0115573D02*
X0113495Y0116097D01*
X0114019Y0115573D02*
X0115065Y0115573D01*
X0115589Y0116097D01*
X0115589Y0116620D01*
X0115065Y0117143D01*
X0114542Y0117143D01*
X0115065Y0117143D02*
X0115589Y0117666D01*
X0115589Y0118190D01*
X0115065Y0118713D01*
X0114019Y0118713D01*
X0113495Y0118190D01*
X0111963Y0118190D02*
X0111963Y0117143D01*
X0111440Y0116620D01*
X0109870Y0116620D01*
X0109870Y0115573D02*
X0109870Y0118713D01*
X0111440Y0118713D01*
X0111963Y0118190D01*
X0110917Y0116620D02*
X0111963Y0115573D01*
X0116897Y0115040D02*
X0116897Y0113638D01*
X0117598Y0112938D01*
X0120400Y0112938D01*
X0121101Y0113638D01*
X0121101Y0115040D01*
X0120400Y0115740D01*
X0121101Y0117542D02*
X0121101Y0120344D01*
X0121101Y0118943D02*
X0116897Y0118943D01*
X0118299Y0117542D01*
X0117598Y0115740D02*
X0116897Y0115040D01*
X0115589Y0109668D02*
X0113495Y0109668D01*
X0127587Y0123447D02*
X0127587Y0126587D01*
X0129157Y0126587D01*
X0129680Y0126064D01*
X0129680Y0125017D01*
X0129157Y0124494D01*
X0127587Y0124494D01*
X0128633Y0124494D02*
X0129680Y0123447D01*
X0131212Y0123971D02*
X0131735Y0123447D01*
X0132782Y0123447D01*
X0133305Y0123971D01*
X0133305Y0125017D01*
X0132782Y0125540D01*
X0132259Y0125540D01*
X0131212Y0125017D01*
X0131212Y0126587D01*
X0133305Y0126587D01*
X0130077Y0128821D02*
X0127275Y0128821D01*
X0128676Y0128821D02*
X0128676Y0133025D01*
X0127275Y0131624D01*
X0125473Y0133025D02*
X0122671Y0128821D01*
X0125473Y0128821D02*
X0122671Y0133025D01*
X0141052Y0119112D02*
X0142622Y0117542D01*
X0142622Y0119635D01*
X0144192Y0119112D02*
X0141052Y0119112D01*
X0141575Y0116010D02*
X0142622Y0116010D01*
X0143145Y0115486D01*
X0143145Y0113917D01*
X0143145Y0114963D02*
X0144192Y0116010D01*
X0144192Y0113917D02*
X0141052Y0113917D01*
X0141052Y0115486D01*
X0141575Y0116010D01*
X0157114Y0099028D02*
X0158684Y0099028D01*
X0159208Y0098505D01*
X0159208Y0097458D01*
X0158684Y0096935D01*
X0157114Y0096935D01*
X0157114Y0095888D02*
X0157114Y0099028D01*
X0158161Y0096935D02*
X0159208Y0095888D01*
X0160740Y0096411D02*
X0160740Y0097458D01*
X0162309Y0097458D01*
X0162833Y0096935D01*
X0162833Y0096411D01*
X0162309Y0095888D01*
X0161263Y0095888D01*
X0160740Y0096411D01*
X0160740Y0097458D02*
X0161786Y0098505D01*
X0162833Y0099028D01*
X0163409Y0107168D02*
X0162708Y0107868D01*
X0163409Y0107168D02*
X0164810Y0107168D01*
X0165510Y0107868D01*
X0165510Y0109270D01*
X0164810Y0109970D01*
X0164109Y0109970D01*
X0162708Y0109270D01*
X0162708Y0111371D01*
X0165510Y0111371D01*
X0160907Y0111371D02*
X0158104Y0107168D01*
X0160907Y0107168D02*
X0158104Y0111371D01*
X0158840Y0091154D02*
X0157270Y0091154D01*
X0157270Y0088014D01*
X0157270Y0089061D02*
X0158840Y0089061D01*
X0159364Y0089584D01*
X0159364Y0090631D01*
X0158840Y0091154D01*
X0158317Y0089061D02*
X0159364Y0088014D01*
X0160896Y0088014D02*
X0162989Y0088014D01*
X0161942Y0088014D02*
X0161942Y0091154D01*
X0160896Y0090107D01*
X0164521Y0090631D02*
X0164521Y0088537D01*
X0166614Y0090631D01*
X0166614Y0088537D01*
X0166091Y0088014D01*
X0165044Y0088014D01*
X0164521Y0088537D01*
X0164521Y0090631D02*
X0165044Y0091154D01*
X0166091Y0091154D01*
X0166614Y0090631D01*
X0162309Y0085248D02*
X0161263Y0085248D01*
X0160740Y0084725D01*
X0160740Y0084202D01*
X0161263Y0083679D01*
X0162833Y0083679D01*
X0162833Y0084725D02*
X0162309Y0085248D01*
X0162833Y0084725D02*
X0162833Y0082632D01*
X0162309Y0082109D01*
X0161263Y0082109D01*
X0160740Y0082632D01*
X0159208Y0082109D02*
X0158161Y0083155D01*
X0158684Y0083155D02*
X0157114Y0083155D01*
X0157114Y0082109D02*
X0157114Y0085248D01*
X0158684Y0085248D01*
X0159208Y0084725D01*
X0159208Y0083679D01*
X0158684Y0083155D01*
X0145125Y0058222D02*
X0143023Y0056120D01*
X0145825Y0056120D01*
X0145125Y0054018D02*
X0145125Y0058222D01*
X0141222Y0058222D02*
X0138419Y0054018D01*
X0141222Y0054018D02*
X0138419Y0058222D01*
X0120235Y0057521D02*
X0120235Y0056820D01*
X0119534Y0056120D01*
X0120235Y0055419D01*
X0120235Y0054719D01*
X0119534Y0054018D01*
X0118133Y0054018D01*
X0117432Y0054719D01*
X0115631Y0054018D02*
X0112829Y0058222D01*
X0115631Y0058222D02*
X0112829Y0054018D01*
X0117432Y0057521D02*
X0118133Y0058222D01*
X0119534Y0058222D01*
X0120235Y0057521D01*
X0119534Y0056120D02*
X0118834Y0056120D01*
X0063466Y0120413D02*
X0055828Y0120413D01*
X0055828Y0141429D01*
X0063466Y0141429D01*
X0063466Y0120413D01*
X0062481Y0142601D02*
X0059679Y0146804D01*
X0062481Y0146804D02*
X0059679Y0142601D01*
X0064283Y0143301D02*
X0064983Y0142601D01*
X0066385Y0142601D01*
X0067085Y0143301D01*
X0067085Y0144002D01*
X0066385Y0144703D01*
X0064283Y0144703D01*
X0064283Y0143301D01*
X0064283Y0144703D02*
X0065684Y0146104D01*
X0067085Y0146804D01*
X0185663Y0044442D02*
X0188466Y0040239D01*
X0190267Y0040939D02*
X0190267Y0041640D01*
X0190968Y0042340D01*
X0192369Y0042340D01*
X0193070Y0041640D01*
X0193070Y0040939D01*
X0192369Y0040239D01*
X0190968Y0040239D01*
X0190267Y0040939D01*
X0190968Y0042340D02*
X0190267Y0043041D01*
X0190267Y0043742D01*
X0190968Y0044442D01*
X0192369Y0044442D01*
X0193070Y0043742D01*
X0193070Y0043041D01*
X0192369Y0042340D01*
X0190284Y0045610D02*
X0197922Y0045610D01*
X0197922Y0066626D01*
X0190284Y0066626D01*
X0190284Y0045610D01*
X0188466Y0044442D02*
X0185663Y0040239D01*
X0199443Y0118979D02*
X0202245Y0123182D01*
X0204047Y0122482D02*
X0204047Y0121781D01*
X0204747Y0121081D01*
X0206849Y0121081D01*
X0206849Y0122482D02*
X0206849Y0119679D01*
X0206148Y0118979D01*
X0204747Y0118979D01*
X0204047Y0119679D01*
X0202245Y0118979D02*
X0199443Y0123182D01*
X0197922Y0120413D02*
X0190284Y0120413D01*
X0190284Y0141429D01*
X0197922Y0141429D01*
X0197922Y0120413D01*
X0204047Y0122482D02*
X0204747Y0123182D01*
X0206148Y0123182D01*
X0206849Y0122482D01*
M02*
