G75*
%MOIN*%
%OFA0B0*%
%FSLAX25Y25*%
%IPPOS*%
%LPD*%
%AMOC8*
5,1,8,0,0,1.08239X$1,22.5*
%
%ADD10R,0.06706X0.06706*%
%ADD11C,0.06706*%
%ADD12R,0.03543X0.04331*%
%ADD13R,0.04331X0.03543*%
%ADD14R,0.03150X0.03150*%
%ADD15R,0.03950X0.01981*%
%ADD16C,0.13398*%
%ADD17OC8,0.06706*%
D10*
X0086521Y0048244D03*
X0137702Y0048244D03*
X0172151Y0078756D03*
X0141639Y0138795D03*
X0081599Y0108283D03*
D11*
X0081599Y0098441D03*
X0081599Y0088598D03*
X0081599Y0078756D03*
X0096363Y0048244D03*
X0106206Y0048244D03*
X0116048Y0048244D03*
X0147544Y0048244D03*
X0157387Y0048244D03*
X0167229Y0048244D03*
X0172151Y0088598D03*
X0172151Y0098441D03*
X0172151Y0108283D03*
X0131796Y0138795D03*
X0121954Y0138795D03*
X0112111Y0138795D03*
D12*
X0073332Y0097457D03*
X0066245Y0097457D03*
X0066245Y0089583D03*
X0073332Y0089583D03*
X0180418Y0089583D03*
X0187505Y0089583D03*
X0187505Y0097457D03*
X0180418Y0097457D03*
D13*
X0156403Y0039976D03*
X0156403Y0032890D03*
X0148529Y0032890D03*
X0148529Y0039976D03*
X0105221Y0039976D03*
X0105221Y0032890D03*
X0097347Y0032890D03*
X0097347Y0039976D03*
D14*
X0100891Y0105331D03*
X0105615Y0105331D03*
X0105615Y0111236D03*
X0100891Y0111236D03*
X0100891Y0117142D03*
X0105615Y0117142D03*
D15*
X0103253Y0117142D03*
X0103253Y0111236D03*
X0103253Y0105331D03*
D16*
X0057977Y0024622D03*
X0057977Y0162417D03*
X0195773Y0162417D03*
X0195773Y0024622D03*
D17*
X0183867Y0043244D03*
X0183867Y0053244D03*
X0183867Y0125921D03*
X0183867Y0135921D03*
X0069883Y0135921D03*
X0069883Y0125921D03*
X0069883Y0053244D03*
X0069883Y0043244D03*
M02*
