G75*
%MOIN*%
%OFA0B0*%
%FSLAX25Y25*%
%IPPOS*%
%LPD*%
%AMOC8*
5,1,8,0,0,1.08239X$1,22.5*
%
%ADD10R,0.12611X0.12611*%
%ADD11R,0.05524X0.02178*%
%ADD12R,0.02178X0.05524*%
%ADD13R,0.03543X0.04331*%
%ADD14R,0.04331X0.03543*%
%ADD15R,0.04331X0.04331*%
%ADD16OC8,0.06706*%
%ADD17C,0.13398*%
D10*
X0126875Y0107673D03*
D11*
X0137505Y0107673D03*
X0137505Y0110232D03*
X0137505Y0112791D03*
X0137505Y0105114D03*
X0137505Y0102555D03*
X0116245Y0102555D03*
X0116245Y0105114D03*
X0116245Y0107673D03*
X0116245Y0110232D03*
X0116245Y0112791D03*
D12*
X0121757Y0118303D03*
X0124316Y0118303D03*
X0126875Y0118303D03*
X0129434Y0118303D03*
X0131993Y0118303D03*
X0131993Y0097043D03*
X0129434Y0097043D03*
X0126875Y0097043D03*
X0124316Y0097043D03*
X0121757Y0097043D03*
D13*
X0106796Y0103736D03*
X0099710Y0103736D03*
X0099710Y0111610D03*
X0106796Y0111610D03*
X0106796Y0119484D03*
X0106796Y0125389D03*
X0106796Y0131295D03*
X0099710Y0131295D03*
X0099710Y0125389D03*
X0099710Y0119484D03*
X0146954Y0111610D03*
X0154040Y0111610D03*
X0154040Y0103736D03*
X0154040Y0097830D03*
X0146954Y0097830D03*
X0146954Y0103736D03*
D14*
X0136718Y0127752D03*
X0130812Y0127752D03*
X0130812Y0134838D03*
X0136718Y0134838D03*
D15*
X0124907Y0134838D03*
X0124907Y0127752D03*
D16*
X0121875Y0152949D03*
X0111875Y0152949D03*
X0131875Y0152949D03*
X0141875Y0152949D03*
X0172151Y0122673D03*
X0172151Y0112673D03*
X0172151Y0102673D03*
X0172151Y0092673D03*
X0163529Y0062397D03*
X0153529Y0062397D03*
X0143529Y0062397D03*
X0133529Y0062397D03*
X0120221Y0062397D03*
X0110221Y0062397D03*
X0100221Y0062397D03*
X0090221Y0062397D03*
X0081599Y0092673D03*
X0081599Y0102673D03*
X0081599Y0112673D03*
X0081599Y0122673D03*
D17*
X0057977Y0038775D03*
X0057977Y0176571D03*
X0195773Y0176571D03*
X0195773Y0038775D03*
M02*
