G75*
%MOIN*%
%OFA0B0*%
%FSLAX25Y25*%
%IPPOS*%
%LPD*%
%AMOC8*
5,1,8,0,0,1.08239X$1,22.5*
%
%ADD10C,0.00787*%
%ADD11C,0.01200*%
%ADD12C,0.01100*%
%ADD13C,0.00900*%
%ADD14C,0.00800*%
D10*
X0045379Y0069110D02*
X0045379Y0117929D01*
X0090655Y0117929D01*
X0090655Y0114780D01*
X0072938Y0114780D01*
X0072938Y0072260D01*
X0090655Y0072260D01*
X0090655Y0069110D01*
X0045379Y0069110D01*
X0076875Y0057299D02*
X0076875Y0012024D01*
X0125694Y0012024D01*
X0125694Y0057299D01*
X0122544Y0057299D01*
X0122544Y0039583D01*
X0080025Y0039583D01*
X0080025Y0057299D01*
X0076875Y0057299D01*
X0081599Y0058087D02*
X0083568Y0054150D01*
X0085536Y0058087D01*
X0081599Y0058087D01*
X0081842Y0057601D02*
X0085293Y0057601D01*
X0084900Y0056815D02*
X0082235Y0056815D01*
X0082628Y0056029D02*
X0084508Y0056029D01*
X0084115Y0055243D02*
X0083021Y0055243D01*
X0083414Y0054457D02*
X0083722Y0054457D01*
X0102466Y0088008D02*
X0104040Y0088008D01*
X0104040Y0091157D02*
X0102466Y0091157D01*
X0102466Y0095882D02*
X0104040Y0095882D01*
X0104040Y0099031D02*
X0102466Y0099031D01*
X0102466Y0103756D02*
X0104040Y0103756D01*
X0104040Y0106906D02*
X0102466Y0106906D01*
X0102466Y0109661D02*
X0104040Y0109661D01*
X0104040Y0112811D02*
X0102466Y0112811D01*
X0102466Y0115567D02*
X0104040Y0115567D01*
X0104040Y0118717D02*
X0102466Y0118717D01*
X0102466Y0129740D02*
X0102466Y0175016D01*
X0151284Y0175016D01*
X0151284Y0129740D01*
X0148135Y0129740D01*
X0148135Y0147457D01*
X0105615Y0147457D01*
X0105615Y0129740D01*
X0102466Y0129740D01*
X0091442Y0113205D02*
X0091442Y0109268D01*
X0087505Y0111236D01*
X0091442Y0113205D01*
X0091442Y0112615D02*
X0090262Y0112615D01*
X0091442Y0111829D02*
X0088690Y0111829D01*
X0087892Y0111043D02*
X0091442Y0111043D01*
X0091442Y0110257D02*
X0089464Y0110257D01*
X0091036Y0109471D02*
X0091442Y0109471D01*
X0113095Y0103756D02*
X0113095Y0102181D01*
X0114670Y0102181D01*
X0114670Y0103756D01*
X0113095Y0103756D01*
X0113095Y0103184D02*
X0114670Y0103184D01*
X0114670Y0102398D02*
X0113095Y0102398D01*
X0112702Y0102969D02*
X0112704Y0103038D01*
X0112710Y0103106D01*
X0112720Y0103174D01*
X0112734Y0103241D01*
X0112752Y0103308D01*
X0112773Y0103373D01*
X0112799Y0103437D01*
X0112828Y0103499D01*
X0112860Y0103559D01*
X0112896Y0103618D01*
X0112936Y0103674D01*
X0112978Y0103728D01*
X0113024Y0103779D01*
X0113073Y0103828D01*
X0113124Y0103874D01*
X0113178Y0103916D01*
X0113234Y0103956D01*
X0113292Y0103992D01*
X0113353Y0104024D01*
X0113415Y0104053D01*
X0113479Y0104079D01*
X0113544Y0104100D01*
X0113611Y0104118D01*
X0113678Y0104132D01*
X0113746Y0104142D01*
X0113814Y0104148D01*
X0113883Y0104150D01*
X0113952Y0104148D01*
X0114020Y0104142D01*
X0114088Y0104132D01*
X0114155Y0104118D01*
X0114222Y0104100D01*
X0114287Y0104079D01*
X0114351Y0104053D01*
X0114413Y0104024D01*
X0114473Y0103992D01*
X0114532Y0103956D01*
X0114588Y0103916D01*
X0114642Y0103874D01*
X0114693Y0103828D01*
X0114742Y0103779D01*
X0114788Y0103728D01*
X0114830Y0103674D01*
X0114870Y0103618D01*
X0114906Y0103559D01*
X0114938Y0103499D01*
X0114967Y0103437D01*
X0114993Y0103373D01*
X0115014Y0103308D01*
X0115032Y0103241D01*
X0115046Y0103174D01*
X0115056Y0103106D01*
X0115062Y0103038D01*
X0115064Y0102969D01*
X0115062Y0102900D01*
X0115056Y0102832D01*
X0115046Y0102764D01*
X0115032Y0102697D01*
X0115014Y0102630D01*
X0114993Y0102565D01*
X0114967Y0102501D01*
X0114938Y0102439D01*
X0114906Y0102378D01*
X0114870Y0102320D01*
X0114830Y0102264D01*
X0114788Y0102210D01*
X0114742Y0102159D01*
X0114693Y0102110D01*
X0114642Y0102064D01*
X0114588Y0102022D01*
X0114532Y0101982D01*
X0114474Y0101946D01*
X0114413Y0101914D01*
X0114351Y0101885D01*
X0114287Y0101859D01*
X0114222Y0101838D01*
X0114155Y0101820D01*
X0114088Y0101806D01*
X0114020Y0101796D01*
X0113952Y0101790D01*
X0113883Y0101788D01*
X0113814Y0101790D01*
X0113746Y0101796D01*
X0113678Y0101806D01*
X0113611Y0101820D01*
X0113544Y0101838D01*
X0113479Y0101859D01*
X0113415Y0101885D01*
X0113353Y0101914D01*
X0113292Y0101946D01*
X0113234Y0101982D01*
X0113178Y0102022D01*
X0113124Y0102064D01*
X0113073Y0102110D01*
X0113024Y0102159D01*
X0112978Y0102210D01*
X0112936Y0102264D01*
X0112896Y0102320D01*
X0112860Y0102378D01*
X0112828Y0102439D01*
X0112799Y0102501D01*
X0112773Y0102565D01*
X0112752Y0102630D01*
X0112734Y0102697D01*
X0112720Y0102764D01*
X0112710Y0102832D01*
X0112704Y0102900D01*
X0112702Y0102969D01*
X0117033Y0103362D02*
X0117033Y0100606D01*
X0117033Y0103362D02*
X0119788Y0103362D01*
X0129237Y0116354D02*
X0129237Y0117929D01*
X0127269Y0117142D02*
X0122544Y0117142D01*
X0132387Y0117929D02*
X0132387Y0116354D01*
X0135143Y0116354D02*
X0135143Y0117929D01*
X0138292Y0117929D02*
X0138292Y0116354D01*
X0136718Y0103362D02*
X0133962Y0103362D01*
X0136718Y0103362D02*
X0136718Y0100606D01*
X0149710Y0099031D02*
X0151284Y0099031D01*
X0151284Y0095882D02*
X0149710Y0095882D01*
X0149710Y0091157D02*
X0151284Y0091157D01*
X0151284Y0088008D02*
X0149710Y0088008D01*
X0149710Y0085252D02*
X0151284Y0085252D01*
X0151284Y0082102D02*
X0149710Y0082102D01*
X0136718Y0083677D02*
X0133962Y0083677D01*
X0136718Y0083677D02*
X0136718Y0086433D01*
X0119788Y0083677D02*
X0117033Y0083677D01*
X0117033Y0086433D01*
X0128056Y0057299D02*
X0128056Y0012024D01*
X0176875Y0012024D01*
X0176875Y0057299D01*
X0173725Y0057299D01*
X0173725Y0039583D01*
X0131206Y0039583D01*
X0131206Y0057299D01*
X0128056Y0057299D01*
X0132781Y0058087D02*
X0136718Y0058087D01*
X0134749Y0054150D01*
X0132781Y0058087D01*
X0133024Y0057601D02*
X0136475Y0057601D01*
X0136082Y0056815D02*
X0133416Y0056815D01*
X0133809Y0056029D02*
X0135689Y0056029D01*
X0135296Y0055243D02*
X0134202Y0055243D01*
X0134595Y0054457D02*
X0134903Y0054457D01*
X0162308Y0073835D02*
X0162308Y0077772D01*
X0166245Y0075803D01*
X0162308Y0073835D01*
X0162308Y0074105D02*
X0162848Y0074105D01*
X0162308Y0074891D02*
X0164420Y0074891D01*
X0164926Y0076463D02*
X0162308Y0076463D01*
X0162308Y0077248D02*
X0163355Y0077248D01*
X0162308Y0075677D02*
X0165992Y0075677D01*
X0163095Y0072260D02*
X0180812Y0072260D01*
X0180812Y0114780D01*
X0163095Y0114780D01*
X0163095Y0117929D01*
X0208371Y0117929D01*
X0208371Y0069110D01*
X0163095Y0069110D01*
X0163095Y0072260D01*
X0146560Y0128953D02*
X0142623Y0128953D01*
X0144592Y0132890D01*
X0146560Y0128953D01*
X0146477Y0129119D02*
X0142706Y0129119D01*
X0143099Y0129905D02*
X0146084Y0129905D01*
X0145691Y0130691D02*
X0143492Y0130691D01*
X0143885Y0131476D02*
X0145298Y0131476D01*
X0144905Y0132262D02*
X0144278Y0132262D01*
D11*
X0154663Y0138831D02*
X0154663Y0142701D01*
X0155630Y0143669D01*
X0157565Y0143669D01*
X0158533Y0142701D01*
X0158533Y0140766D01*
X0157565Y0139799D01*
X0157565Y0141734D01*
X0155630Y0141734D01*
X0155630Y0139799D01*
X0157565Y0139799D01*
X0158533Y0138831D02*
X0157565Y0137864D01*
X0155630Y0137864D01*
X0154663Y0138831D01*
X0161108Y0136896D02*
X0164978Y0136896D01*
X0167554Y0137864D02*
X0167554Y0143669D01*
X0167554Y0139799D02*
X0171424Y0143669D01*
X0173999Y0140766D02*
X0177869Y0140766D01*
X0176902Y0137864D02*
X0176902Y0143669D01*
X0173999Y0140766D01*
X0171424Y0137864D02*
X0168521Y0140766D01*
X0180445Y0138831D02*
X0180445Y0137864D01*
X0184315Y0137864D01*
X0186890Y0138831D02*
X0187858Y0137864D01*
X0189793Y0137864D01*
X0190760Y0138831D01*
X0190760Y0143669D01*
X0193336Y0143669D02*
X0193336Y0137864D01*
X0193336Y0139799D02*
X0197206Y0143669D01*
X0199781Y0143669D02*
X0201716Y0143669D01*
X0200749Y0143669D02*
X0200749Y0137864D01*
X0201716Y0137864D02*
X0199781Y0137864D01*
X0197206Y0137864D02*
X0194303Y0140766D01*
X0186890Y0138831D02*
X0186890Y0143669D01*
X0184315Y0143669D02*
X0184315Y0142701D01*
X0180445Y0138831D01*
X0180445Y0143669D02*
X0184315Y0143669D01*
X0178876Y0125952D02*
X0176941Y0125952D01*
X0175973Y0124985D01*
X0177908Y0123050D02*
X0178876Y0123050D01*
X0179843Y0122082D01*
X0179843Y0121115D01*
X0178876Y0120147D01*
X0176941Y0120147D01*
X0175973Y0121115D01*
X0173398Y0120147D02*
X0173398Y0125952D01*
X0173398Y0123050D02*
X0169528Y0123050D01*
X0169528Y0125952D02*
X0169528Y0120147D01*
X0166952Y0121115D02*
X0165985Y0120147D01*
X0164050Y0120147D01*
X0163082Y0121115D01*
X0163082Y0124985D01*
X0164050Y0125952D01*
X0165985Y0125952D01*
X0166952Y0124985D01*
X0178876Y0125952D02*
X0179843Y0124985D01*
X0179843Y0124017D01*
X0178876Y0123050D01*
X0204078Y0136896D02*
X0207948Y0136896D01*
X0159191Y0062960D02*
X0157256Y0062960D01*
X0156288Y0061993D01*
X0153713Y0062960D02*
X0153713Y0057155D01*
X0156288Y0057155D02*
X0160158Y0061025D01*
X0160158Y0061993D01*
X0159191Y0062960D01*
X0160158Y0057155D02*
X0156288Y0057155D01*
X0153713Y0060058D02*
X0149843Y0060058D01*
X0149843Y0062960D02*
X0149843Y0057155D01*
X0147267Y0058123D02*
X0146300Y0057155D01*
X0144365Y0057155D01*
X0143397Y0058123D01*
X0143397Y0061993D01*
X0144365Y0062960D01*
X0146300Y0062960D01*
X0147267Y0061993D01*
X0108977Y0057155D02*
X0105107Y0057155D01*
X0107042Y0057155D02*
X0107042Y0062960D01*
X0105107Y0061025D01*
X0102532Y0060058D02*
X0098662Y0060058D01*
X0098662Y0062960D02*
X0098662Y0057155D01*
X0096086Y0058123D02*
X0095119Y0057155D01*
X0093184Y0057155D01*
X0092216Y0058123D01*
X0092216Y0061993D01*
X0093184Y0062960D01*
X0095119Y0062960D01*
X0096086Y0061993D01*
X0102532Y0062960D02*
X0102532Y0057155D01*
X0088325Y0120147D02*
X0086390Y0120147D01*
X0085422Y0121115D01*
X0089292Y0124985D01*
X0089292Y0121115D01*
X0088325Y0120147D01*
X0085422Y0121115D02*
X0085422Y0124985D01*
X0086390Y0125952D01*
X0088325Y0125952D01*
X0089292Y0124985D01*
X0082847Y0125952D02*
X0082847Y0120147D01*
X0082847Y0123050D02*
X0078977Y0123050D01*
X0078977Y0125952D02*
X0078977Y0120147D01*
X0076401Y0121115D02*
X0075434Y0120147D01*
X0073499Y0120147D01*
X0072531Y0121115D01*
X0072531Y0124985D01*
X0073499Y0125952D01*
X0075434Y0125952D01*
X0076401Y0124985D01*
X0076288Y0163454D02*
X0076288Y0169259D01*
X0076288Y0166357D02*
X0080158Y0166357D01*
X0082734Y0166357D02*
X0082734Y0164422D01*
X0083701Y0163454D01*
X0085636Y0163454D01*
X0086604Y0164422D01*
X0086604Y0166357D01*
X0085636Y0167324D01*
X0083701Y0167324D01*
X0082734Y0166357D01*
X0080158Y0169259D02*
X0080158Y0163454D01*
X0089179Y0163454D02*
X0092082Y0163454D01*
X0093049Y0164422D01*
X0092082Y0165389D01*
X0090147Y0165389D01*
X0089179Y0166357D01*
X0090147Y0167324D01*
X0093049Y0167324D01*
X0095625Y0167324D02*
X0097560Y0167324D01*
X0096592Y0168292D02*
X0096592Y0164422D01*
X0097560Y0163454D01*
D12*
X0097549Y0147000D02*
X0099517Y0145032D01*
X0099517Y0141095D01*
X0099517Y0144048D02*
X0095580Y0144048D01*
X0095580Y0145032D02*
X0097549Y0147000D01*
X0095580Y0145032D02*
X0095580Y0141095D01*
X0092087Y0141095D02*
X0092087Y0147000D01*
X0089135Y0144048D01*
X0093072Y0144048D01*
X0086626Y0144048D02*
X0082689Y0144048D01*
X0085642Y0147000D01*
X0085642Y0141095D01*
X0080181Y0142079D02*
X0080181Y0144048D01*
X0079196Y0145032D01*
X0078212Y0145032D01*
X0076244Y0144048D01*
X0076244Y0147000D01*
X0080181Y0147000D01*
X0080181Y0142079D02*
X0079196Y0141095D01*
X0077228Y0141095D01*
X0076244Y0142079D01*
X0073735Y0142079D02*
X0072751Y0141095D01*
X0070783Y0141095D01*
X0069798Y0142079D01*
X0070783Y0144048D02*
X0069798Y0145032D01*
X0069798Y0146016D01*
X0070783Y0147000D01*
X0072751Y0147000D01*
X0073735Y0146016D01*
X0073735Y0142079D01*
X0073735Y0144048D02*
X0070783Y0144048D01*
X0067290Y0144048D02*
X0063353Y0144048D01*
X0063353Y0145032D02*
X0065321Y0147000D01*
X0067290Y0145032D01*
X0067290Y0141095D01*
X0063353Y0141095D02*
X0063353Y0145032D01*
X0060844Y0146016D02*
X0059860Y0147000D01*
X0057892Y0147000D01*
X0056907Y0146016D01*
X0056907Y0142079D01*
X0057892Y0141095D01*
X0059860Y0141095D01*
X0060844Y0142079D01*
X0054399Y0144048D02*
X0053414Y0143064D01*
X0050462Y0143064D01*
X0050462Y0141095D02*
X0050462Y0147000D01*
X0053414Y0147000D01*
X0054399Y0146016D01*
X0054399Y0144048D01*
X0055563Y0136500D02*
X0052610Y0136500D01*
X0052610Y0130595D01*
X0055563Y0130595D01*
X0056547Y0131579D01*
X0056547Y0132564D01*
X0055563Y0133548D01*
X0052610Y0133548D01*
X0055563Y0133548D02*
X0056547Y0134532D01*
X0056547Y0135516D01*
X0055563Y0136500D01*
X0059056Y0134532D02*
X0059056Y0130595D01*
X0059056Y0132564D02*
X0061024Y0134532D01*
X0062008Y0134532D01*
X0064427Y0133548D02*
X0064427Y0131579D01*
X0065411Y0130595D01*
X0067380Y0130595D01*
X0068364Y0132564D02*
X0064427Y0132564D01*
X0064427Y0133548D02*
X0065411Y0134532D01*
X0067380Y0134532D01*
X0068364Y0133548D01*
X0068364Y0132564D01*
X0070873Y0131579D02*
X0071857Y0132564D01*
X0074809Y0132564D01*
X0074809Y0133548D02*
X0074809Y0130595D01*
X0071857Y0130595D01*
X0070873Y0131579D01*
X0071857Y0134532D02*
X0073825Y0134532D01*
X0074809Y0133548D01*
X0077318Y0132564D02*
X0080271Y0134532D01*
X0082689Y0133548D02*
X0082689Y0131579D01*
X0083674Y0130595D01*
X0085642Y0130595D01*
X0086626Y0131579D01*
X0086626Y0133548D01*
X0085642Y0134532D01*
X0083674Y0134532D01*
X0082689Y0133548D01*
X0080271Y0130595D02*
X0077318Y0132564D01*
X0077318Y0130595D02*
X0077318Y0136500D01*
X0089135Y0134532D02*
X0089135Y0131579D01*
X0090119Y0130595D01*
X0093072Y0130595D01*
X0093072Y0134532D01*
X0095580Y0134532D02*
X0097549Y0134532D01*
X0096565Y0135516D02*
X0096565Y0131579D01*
X0097549Y0130595D01*
D13*
X0138903Y0107384D02*
X0140271Y0107384D01*
X0139587Y0107384D02*
X0139587Y0103281D01*
X0138903Y0103281D02*
X0140271Y0103281D01*
X0141972Y0103965D02*
X0141972Y0106700D01*
X0142656Y0107384D01*
X0144024Y0107384D01*
X0144708Y0106700D01*
X0146576Y0106016D02*
X0147944Y0107384D01*
X0147944Y0103281D01*
X0146576Y0103281D02*
X0149312Y0103281D01*
X0144708Y0103965D02*
X0144024Y0103281D01*
X0142656Y0103281D01*
X0141972Y0103965D01*
X0167855Y0130978D02*
X0167218Y0131616D01*
X0167855Y0130978D02*
X0169131Y0130978D01*
X0169769Y0131616D01*
X0169769Y0132253D01*
X0169131Y0132891D01*
X0168493Y0132891D01*
X0169131Y0132891D02*
X0169769Y0133529D01*
X0169769Y0134167D01*
X0169131Y0134805D01*
X0167855Y0134805D01*
X0167218Y0134167D01*
X0171568Y0132891D02*
X0171568Y0131616D01*
X0172206Y0130978D01*
X0174119Y0130978D01*
X0174119Y0134805D01*
X0174119Y0133529D02*
X0172206Y0133529D01*
X0171568Y0132891D01*
X0175918Y0132891D02*
X0177194Y0133529D01*
X0177832Y0133529D01*
X0178470Y0132891D01*
X0178470Y0131616D01*
X0177832Y0130978D01*
X0176556Y0130978D01*
X0175918Y0131616D01*
X0175918Y0132891D02*
X0175918Y0134805D01*
X0178470Y0134805D01*
X0180268Y0134805D02*
X0180268Y0132891D01*
X0181544Y0133529D01*
X0182182Y0133529D01*
X0182820Y0132891D01*
X0182820Y0131616D01*
X0182182Y0130978D01*
X0180906Y0130978D01*
X0180268Y0131616D01*
X0180268Y0134805D02*
X0182820Y0134805D01*
X0184618Y0134167D02*
X0185256Y0134805D01*
X0186532Y0134805D01*
X0187170Y0134167D01*
X0184618Y0131616D01*
X0185256Y0130978D01*
X0186532Y0130978D01*
X0187170Y0131616D01*
X0187170Y0134167D01*
X0188968Y0134805D02*
X0191520Y0134805D01*
X0191520Y0134167D01*
X0188968Y0131616D01*
X0188968Y0130978D01*
X0184618Y0131616D02*
X0184618Y0134167D01*
X0193319Y0132891D02*
X0193319Y0131616D01*
X0193957Y0130978D01*
X0195232Y0130978D01*
X0195870Y0132253D02*
X0193319Y0132253D01*
X0193319Y0132891D02*
X0193957Y0133529D01*
X0195232Y0133529D01*
X0195870Y0132891D01*
X0195870Y0132253D01*
D14*
X0162833Y0099028D02*
X0161786Y0098505D01*
X0160740Y0097458D01*
X0162309Y0097458D01*
X0162833Y0096935D01*
X0162833Y0096411D01*
X0162309Y0095888D01*
X0161263Y0095888D01*
X0160740Y0096411D01*
X0160740Y0097458D01*
X0159208Y0097458D02*
X0158684Y0096935D01*
X0157114Y0096935D01*
X0157114Y0095888D02*
X0157114Y0099028D01*
X0158684Y0099028D01*
X0159208Y0098505D01*
X0159208Y0097458D01*
X0158161Y0096935D02*
X0159208Y0095888D01*
X0158840Y0091154D02*
X0157270Y0091154D01*
X0157270Y0088014D01*
X0157270Y0089061D02*
X0158840Y0089061D01*
X0159364Y0089584D01*
X0159364Y0090631D01*
X0158840Y0091154D01*
X0158317Y0089061D02*
X0159364Y0088014D01*
X0160896Y0088014D02*
X0162989Y0088014D01*
X0161942Y0088014D02*
X0161942Y0091154D01*
X0160896Y0090107D01*
X0164521Y0090631D02*
X0164521Y0088537D01*
X0166614Y0090631D01*
X0166614Y0088537D01*
X0166091Y0088014D01*
X0165044Y0088014D01*
X0164521Y0088537D01*
X0164521Y0090631D02*
X0165044Y0091154D01*
X0166091Y0091154D01*
X0166614Y0090631D01*
X0162309Y0085248D02*
X0161263Y0085248D01*
X0160740Y0084725D01*
X0160740Y0084202D01*
X0161263Y0083679D01*
X0162833Y0083679D01*
X0162833Y0084725D02*
X0162309Y0085248D01*
X0162833Y0084725D02*
X0162833Y0082632D01*
X0162309Y0082109D01*
X0161263Y0082109D01*
X0160740Y0082632D01*
X0159208Y0082109D02*
X0158161Y0083155D01*
X0158684Y0083155D02*
X0157114Y0083155D01*
X0157114Y0082109D02*
X0157114Y0085248D01*
X0158684Y0085248D01*
X0159208Y0084725D01*
X0159208Y0083679D01*
X0158684Y0083155D01*
X0177789Y0079875D02*
X0180592Y0075672D01*
X0182393Y0076372D02*
X0183094Y0075672D01*
X0184495Y0075672D01*
X0185196Y0076372D01*
X0185196Y0077773D01*
X0184495Y0078474D01*
X0183794Y0078474D01*
X0182393Y0077773D01*
X0182393Y0079875D01*
X0185196Y0079875D01*
X0180592Y0079875D02*
X0177789Y0075672D01*
X0170715Y0058222D02*
X0168614Y0056120D01*
X0171416Y0056120D01*
X0170715Y0054018D02*
X0170715Y0058222D01*
X0166812Y0058222D02*
X0164010Y0054018D01*
X0166812Y0054018D02*
X0164010Y0058222D01*
X0120235Y0057521D02*
X0120235Y0056820D01*
X0119534Y0056120D01*
X0120235Y0055419D01*
X0120235Y0054719D01*
X0119534Y0054018D01*
X0118133Y0054018D01*
X0117432Y0054719D01*
X0115631Y0054018D02*
X0112829Y0058222D01*
X0115631Y0058222D02*
X0112829Y0054018D01*
X0117432Y0057521D02*
X0118133Y0058222D01*
X0119534Y0058222D01*
X0120235Y0057521D01*
X0119534Y0056120D02*
X0118834Y0056120D01*
X0094644Y0075672D02*
X0091842Y0075672D01*
X0094644Y0078474D01*
X0094644Y0079175D01*
X0093944Y0079875D01*
X0092543Y0079875D01*
X0091842Y0079175D01*
X0090040Y0079875D02*
X0087238Y0075672D01*
X0090040Y0075672D02*
X0087238Y0079875D01*
X0090185Y0088014D02*
X0090185Y0091154D01*
X0091755Y0091154D01*
X0092278Y0090631D01*
X0092278Y0089584D01*
X0091755Y0089061D01*
X0090185Y0089061D01*
X0091232Y0089061D02*
X0092278Y0088014D01*
X0093810Y0088537D02*
X0093810Y0089061D01*
X0094334Y0089584D01*
X0095380Y0089584D01*
X0095904Y0089061D01*
X0095904Y0088537D01*
X0095380Y0088014D01*
X0094334Y0088014D01*
X0093810Y0088537D01*
X0094334Y0089584D02*
X0093810Y0090107D01*
X0093810Y0090631D01*
X0094334Y0091154D01*
X0095380Y0091154D01*
X0095904Y0090631D01*
X0095904Y0090107D01*
X0095380Y0089584D01*
X0093810Y0095888D02*
X0093810Y0096411D01*
X0095904Y0098505D01*
X0095904Y0099028D01*
X0093810Y0099028D01*
X0092278Y0098505D02*
X0092278Y0097458D01*
X0091755Y0096935D01*
X0090185Y0096935D01*
X0090185Y0095888D02*
X0090185Y0099028D01*
X0091755Y0099028D01*
X0092278Y0098505D01*
X0091232Y0096935D02*
X0092278Y0095888D01*
X0092278Y0103762D02*
X0091232Y0104809D01*
X0091755Y0104809D02*
X0090185Y0104809D01*
X0090185Y0103762D02*
X0090185Y0106902D01*
X0091755Y0106902D01*
X0092278Y0106379D01*
X0092278Y0105332D01*
X0091755Y0104809D01*
X0093810Y0105855D02*
X0094857Y0106902D01*
X0094857Y0103762D01*
X0093810Y0103762D02*
X0095904Y0103762D01*
X0109870Y0109668D02*
X0109870Y0112807D01*
X0111440Y0112807D01*
X0111963Y0112284D01*
X0111963Y0111238D01*
X0111440Y0110714D01*
X0109870Y0110714D01*
X0110917Y0110714D02*
X0111963Y0109668D01*
X0113495Y0109668D02*
X0115589Y0111761D01*
X0115589Y0112284D01*
X0115065Y0112807D01*
X0114019Y0112807D01*
X0113495Y0112284D01*
X0114019Y0115573D02*
X0113495Y0116097D01*
X0114019Y0115573D02*
X0115065Y0115573D01*
X0115589Y0116097D01*
X0115589Y0116620D01*
X0115065Y0117143D01*
X0114542Y0117143D01*
X0115065Y0117143D02*
X0115589Y0117666D01*
X0115589Y0118190D01*
X0115065Y0118713D01*
X0114019Y0118713D01*
X0113495Y0118190D01*
X0111963Y0118190D02*
X0111963Y0117143D01*
X0111440Y0116620D01*
X0109870Y0116620D01*
X0109870Y0115573D02*
X0109870Y0118713D01*
X0111440Y0118713D01*
X0111963Y0118190D01*
X0110917Y0116620D02*
X0111963Y0115573D01*
X0116897Y0115040D02*
X0116897Y0113638D01*
X0117598Y0112938D01*
X0120400Y0112938D01*
X0121101Y0113638D01*
X0121101Y0115040D01*
X0120400Y0115740D01*
X0121101Y0117542D02*
X0121101Y0120344D01*
X0121101Y0118943D02*
X0116897Y0118943D01*
X0118299Y0117542D01*
X0117598Y0115740D02*
X0116897Y0115040D01*
X0115589Y0109668D02*
X0113495Y0109668D01*
X0127587Y0123447D02*
X0127587Y0126587D01*
X0129157Y0126587D01*
X0129680Y0126064D01*
X0129680Y0125017D01*
X0129157Y0124494D01*
X0127587Y0124494D01*
X0128633Y0124494D02*
X0129680Y0123447D01*
X0131212Y0123971D02*
X0131735Y0123447D01*
X0132782Y0123447D01*
X0133305Y0123971D01*
X0133305Y0125017D01*
X0132782Y0125540D01*
X0132259Y0125540D01*
X0131212Y0125017D01*
X0131212Y0126587D01*
X0133305Y0126587D01*
X0130077Y0128821D02*
X0127275Y0128821D01*
X0128676Y0128821D02*
X0128676Y0133025D01*
X0127275Y0131624D01*
X0125473Y0133025D02*
X0122671Y0128821D01*
X0125473Y0128821D02*
X0122671Y0133025D01*
X0141052Y0119112D02*
X0142622Y0117542D01*
X0142622Y0119635D01*
X0144192Y0119112D02*
X0141052Y0119112D01*
X0141575Y0116010D02*
X0141052Y0115486D01*
X0141052Y0113917D01*
X0144192Y0113917D01*
X0143145Y0113917D02*
X0143145Y0115486D01*
X0142622Y0116010D01*
X0141575Y0116010D01*
X0143145Y0114963D02*
X0144192Y0116010D01*
M02*
