G75*
%MOIN*%
%OFA0B0*%
%FSLAX25Y25*%
%IPPOS*%
%LPD*%
%AMOC8*
5,1,8,0,0,1.08239X$1,22.5*
%
%ADD10OC8,0.05906*%
%ADD11R,0.03150X0.03937*%
%ADD12R,0.03937X0.03150*%
%ADD13R,0.02756X0.02756*%
%ADD14R,0.03150X0.01181*%
%ADD15C,0.02362*%
%ADD16C,0.01181*%
%ADD17C,0.00787*%
%ADD18C,0.03150*%
D10*
X0090221Y0062397D03*
X0100221Y0062397D03*
X0110221Y0062397D03*
X0120221Y0062397D03*
X0133529Y0062397D03*
X0143529Y0062397D03*
X0153529Y0062397D03*
X0163529Y0062397D03*
X0172151Y0092673D03*
X0172151Y0102673D03*
X0172151Y0112673D03*
X0172151Y0122673D03*
X0141875Y0152949D03*
X0131875Y0152949D03*
X0121875Y0152949D03*
X0111875Y0152949D03*
X0081599Y0122673D03*
X0081599Y0112673D03*
X0081599Y0102673D03*
X0081599Y0092673D03*
D11*
X0073332Y0103736D03*
X0066245Y0103736D03*
X0066245Y0111610D03*
X0073332Y0111610D03*
X0180418Y0111610D03*
X0187505Y0111610D03*
X0187505Y0103736D03*
X0180418Y0103736D03*
D12*
X0152466Y0054130D03*
X0152466Y0047043D03*
X0144592Y0047043D03*
X0144592Y0054130D03*
X0109158Y0054130D03*
X0109158Y0047043D03*
X0101284Y0047043D03*
X0101284Y0054130D03*
D13*
X0100891Y0119484D03*
X0105615Y0119484D03*
X0105615Y0125389D03*
X0100891Y0125389D03*
X0100891Y0131295D03*
X0105615Y0131295D03*
D14*
X0103253Y0131295D03*
X0103253Y0125389D03*
X0103253Y0119484D03*
D15*
X0111127Y0119484D03*
X0111127Y0125389D03*
X0111127Y0131295D03*
X0124907Y0139169D03*
X0130812Y0123421D03*
X0134749Y0123421D03*
X0126875Y0111610D03*
X0130812Y0107673D03*
X0126875Y0103736D03*
X0122938Y0107673D03*
X0111127Y0107673D03*
X0111127Y0103736D03*
X0117033Y0095862D03*
X0117033Y0091925D03*
X0136718Y0095862D03*
X0138686Y0099799D03*
X0142623Y0107673D03*
X0142623Y0111610D03*
D16*
X0144592Y0109641D01*
X0169119Y0109641D01*
X0172151Y0112673D01*
X0173214Y0111610D01*
X0180418Y0111610D01*
X0180418Y0103736D02*
X0173214Y0103736D01*
X0172151Y0102673D01*
X0169119Y0105704D01*
X0144592Y0105704D01*
X0142623Y0107673D01*
X0138686Y0099799D02*
X0150497Y0087988D01*
X0150497Y0065429D01*
X0153529Y0062397D01*
X0152466Y0061334D01*
X0152466Y0054130D01*
X0144592Y0054130D02*
X0144592Y0061334D01*
X0143529Y0062397D01*
X0146560Y0065429D01*
X0146560Y0086019D01*
X0136718Y0095862D01*
X0117033Y0095862D02*
X0103253Y0082082D01*
X0103253Y0065429D01*
X0100221Y0062397D01*
X0101284Y0061334D01*
X0101284Y0054130D01*
X0109158Y0054130D02*
X0109158Y0061334D01*
X0110221Y0062397D01*
X0107190Y0065429D01*
X0107190Y0082082D01*
X0117033Y0091925D01*
X0111127Y0103736D02*
X0109158Y0105704D01*
X0084631Y0105704D01*
X0081599Y0102673D01*
X0080536Y0103736D01*
X0073332Y0103736D01*
X0073332Y0111610D02*
X0080536Y0111610D01*
X0081599Y0112673D01*
X0084631Y0109641D01*
X0109158Y0109641D01*
X0111127Y0107673D01*
X0111127Y0119484D02*
X0105615Y0119484D01*
X0105615Y0125389D02*
X0111127Y0125389D01*
X0111127Y0131295D02*
X0105615Y0131295D01*
X0124907Y0145074D02*
X0130812Y0139169D01*
X0130812Y0123421D01*
X0134749Y0123421D02*
X0134749Y0139169D01*
X0128844Y0145074D01*
X0128844Y0149917D01*
X0131875Y0152949D01*
X0124907Y0149917D02*
X0124907Y0145074D01*
X0124907Y0149917D02*
X0121875Y0152949D01*
D17*
X0044198Y0164366D02*
X0044198Y0050980D01*
X0059910Y0050980D01*
X0063587Y0049785D01*
X0063587Y0049785D01*
X0066715Y0047513D01*
X0066715Y0047513D01*
X0066715Y0047513D01*
X0068987Y0044385D01*
X0068987Y0044385D01*
X0070182Y0040708D01*
X0070182Y0024996D01*
X0183568Y0024996D01*
X0183568Y0040708D01*
X0184763Y0044385D01*
X0184763Y0044385D01*
X0187035Y0047513D01*
X0187035Y0047513D01*
X0187035Y0047513D01*
X0190163Y0049785D01*
X0190163Y0049785D01*
X0193840Y0050980D01*
X0195936Y0050980D01*
X0209552Y0050980D01*
X0209552Y0164366D01*
X0193840Y0164366D01*
X0190163Y0165561D01*
X0190163Y0165561D01*
X0187035Y0167833D01*
X0187035Y0167833D01*
X0187035Y0167833D01*
X0184763Y0170961D01*
X0184763Y0170961D01*
X0183568Y0174638D01*
X0183568Y0190350D01*
X0070182Y0190350D01*
X0070182Y0174638D01*
X0068987Y0170961D01*
X0068987Y0170961D01*
X0066715Y0167833D01*
X0066715Y0167833D01*
X0063587Y0165561D01*
X0063587Y0165561D01*
X0059910Y0164366D01*
X0044198Y0164366D01*
X0044198Y0163706D02*
X0209552Y0163706D01*
X0209552Y0162920D02*
X0044198Y0162920D01*
X0044198Y0162134D02*
X0209552Y0162134D01*
X0209552Y0161348D02*
X0044198Y0161348D01*
X0044198Y0160562D02*
X0209552Y0160562D01*
X0209552Y0159776D02*
X0044198Y0159776D01*
X0044198Y0158990D02*
X0209552Y0158990D01*
X0209552Y0158204D02*
X0044198Y0158204D01*
X0044198Y0157418D02*
X0209552Y0157418D01*
X0209552Y0156632D02*
X0144338Y0156632D01*
X0143675Y0157295D02*
X0142269Y0157295D01*
X0142269Y0153342D01*
X0146221Y0153342D01*
X0146221Y0154749D01*
X0143675Y0157295D01*
X0142269Y0156632D02*
X0141481Y0156632D01*
X0141481Y0157295D02*
X0140075Y0157295D01*
X0137529Y0154749D01*
X0137529Y0153342D01*
X0141481Y0153342D01*
X0141481Y0152555D01*
X0137529Y0152555D01*
X0137529Y0151148D01*
X0140075Y0148602D01*
X0141481Y0148602D01*
X0141481Y0152555D01*
X0142269Y0152555D01*
X0142269Y0153342D01*
X0141481Y0153342D01*
X0141481Y0157295D01*
X0141481Y0155847D02*
X0142269Y0155847D01*
X0142269Y0155061D02*
X0141481Y0155061D01*
X0141481Y0154275D02*
X0142269Y0154275D01*
X0142269Y0153489D02*
X0141481Y0153489D01*
X0141481Y0152703D02*
X0136009Y0152703D01*
X0136009Y0153489D02*
X0137529Y0153489D01*
X0137529Y0154275D02*
X0136009Y0154275D01*
X0136009Y0154661D02*
X0133587Y0157082D01*
X0130163Y0157082D01*
X0127741Y0154661D01*
X0127741Y0151320D01*
X0127072Y0150651D01*
X0127072Y0145415D01*
X0126678Y0145808D01*
X0126678Y0150651D01*
X0126009Y0151320D01*
X0126009Y0154661D01*
X0123587Y0157082D01*
X0120163Y0157082D01*
X0117741Y0154661D01*
X0117741Y0151236D01*
X0120163Y0148815D01*
X0123135Y0148815D01*
X0123135Y0144341D01*
X0129040Y0138435D01*
X0129040Y0124990D01*
X0128450Y0124399D01*
X0128450Y0122442D01*
X0129834Y0121059D01*
X0131790Y0121059D01*
X0132781Y0122049D01*
X0133771Y0121059D01*
X0135727Y0121059D01*
X0137111Y0122442D01*
X0137111Y0124399D01*
X0136521Y0124990D01*
X0136521Y0139903D01*
X0130615Y0145808D01*
X0130615Y0148815D01*
X0133587Y0148815D01*
X0136009Y0151236D01*
X0136009Y0154661D01*
X0135609Y0155061D02*
X0137840Y0155061D01*
X0138626Y0155847D02*
X0134823Y0155847D01*
X0134037Y0156632D02*
X0139412Y0156632D01*
X0142269Y0152703D02*
X0209552Y0152703D01*
X0209552Y0153489D02*
X0146221Y0153489D01*
X0146221Y0154275D02*
X0209552Y0154275D01*
X0209552Y0155061D02*
X0145910Y0155061D01*
X0145124Y0155847D02*
X0209552Y0155847D01*
X0209552Y0151917D02*
X0146221Y0151917D01*
X0146221Y0152555D02*
X0142269Y0152555D01*
X0142269Y0148602D01*
X0143675Y0148602D01*
X0146221Y0151148D01*
X0146221Y0152555D01*
X0146204Y0151131D02*
X0209552Y0151131D01*
X0209552Y0150345D02*
X0145418Y0150345D01*
X0144633Y0149559D02*
X0209552Y0149559D01*
X0209552Y0148773D02*
X0143847Y0148773D01*
X0142269Y0148773D02*
X0141481Y0148773D01*
X0141481Y0149559D02*
X0142269Y0149559D01*
X0142269Y0150345D02*
X0141481Y0150345D01*
X0141481Y0151131D02*
X0142269Y0151131D01*
X0142269Y0151917D02*
X0141481Y0151917D01*
X0139117Y0149559D02*
X0134332Y0149559D01*
X0135118Y0150345D02*
X0138332Y0150345D01*
X0137546Y0151131D02*
X0135904Y0151131D01*
X0136009Y0151917D02*
X0137529Y0151917D01*
X0139903Y0148773D02*
X0130615Y0148773D01*
X0130615Y0147987D02*
X0209552Y0147987D01*
X0209552Y0147201D02*
X0130615Y0147201D01*
X0130615Y0146416D02*
X0209552Y0146416D01*
X0209552Y0145630D02*
X0130794Y0145630D01*
X0131580Y0144844D02*
X0209552Y0144844D01*
X0209552Y0144058D02*
X0132366Y0144058D01*
X0133152Y0143272D02*
X0209552Y0143272D01*
X0209552Y0142486D02*
X0133937Y0142486D01*
X0134723Y0141700D02*
X0209552Y0141700D01*
X0209552Y0140914D02*
X0135509Y0140914D01*
X0136295Y0140128D02*
X0209552Y0140128D01*
X0209552Y0139342D02*
X0136521Y0139342D01*
X0136521Y0138556D02*
X0209552Y0138556D01*
X0209552Y0137771D02*
X0136521Y0137771D01*
X0136521Y0136985D02*
X0209552Y0136985D01*
X0209552Y0136199D02*
X0136521Y0136199D01*
X0136521Y0135413D02*
X0209552Y0135413D01*
X0209552Y0134627D02*
X0136521Y0134627D01*
X0136521Y0133841D02*
X0209552Y0133841D01*
X0209552Y0133055D02*
X0136521Y0133055D01*
X0136521Y0132269D02*
X0209552Y0132269D01*
X0209552Y0131483D02*
X0136521Y0131483D01*
X0136521Y0130697D02*
X0209552Y0130697D01*
X0209552Y0129911D02*
X0136521Y0129911D01*
X0136521Y0129125D02*
X0209552Y0129125D01*
X0209552Y0128340D02*
X0136521Y0128340D01*
X0136521Y0127554D02*
X0209552Y0127554D01*
X0209552Y0126768D02*
X0174203Y0126768D01*
X0173951Y0127019D02*
X0172544Y0127019D01*
X0172544Y0123067D01*
X0171757Y0123067D01*
X0171757Y0127019D01*
X0170350Y0127019D01*
X0167804Y0124473D01*
X0167804Y0123067D01*
X0171757Y0123067D01*
X0171757Y0122279D01*
X0172544Y0122279D01*
X0172544Y0118326D01*
X0173951Y0118326D01*
X0176497Y0120873D01*
X0176497Y0122279D01*
X0172544Y0122279D01*
X0172544Y0123067D01*
X0176497Y0123067D01*
X0176497Y0124473D01*
X0173951Y0127019D01*
X0172544Y0126768D02*
X0171757Y0126768D01*
X0171757Y0125982D02*
X0172544Y0125982D01*
X0172544Y0125196D02*
X0171757Y0125196D01*
X0171757Y0124410D02*
X0172544Y0124410D01*
X0172544Y0123624D02*
X0171757Y0123624D01*
X0171757Y0122838D02*
X0137111Y0122838D01*
X0137111Y0123624D02*
X0167804Y0123624D01*
X0167804Y0124410D02*
X0137101Y0124410D01*
X0136521Y0125196D02*
X0168527Y0125196D01*
X0169313Y0125982D02*
X0136521Y0125982D01*
X0136521Y0126768D02*
X0170099Y0126768D01*
X0172544Y0122838D02*
X0209552Y0122838D01*
X0209552Y0122052D02*
X0176497Y0122052D01*
X0176497Y0121266D02*
X0209552Y0121266D01*
X0209552Y0120480D02*
X0176105Y0120480D01*
X0175319Y0119695D02*
X0209552Y0119695D01*
X0209552Y0118909D02*
X0174533Y0118909D01*
X0172544Y0118909D02*
X0171757Y0118909D01*
X0171757Y0118326D02*
X0171757Y0122279D01*
X0167804Y0122279D01*
X0167804Y0120873D01*
X0170350Y0118326D01*
X0171757Y0118326D01*
X0171757Y0119695D02*
X0172544Y0119695D01*
X0172544Y0120480D02*
X0171757Y0120480D01*
X0171757Y0121266D02*
X0172544Y0121266D01*
X0172544Y0122052D02*
X0171757Y0122052D01*
X0168982Y0119695D02*
X0113489Y0119695D01*
X0113489Y0120462D02*
X0112105Y0121846D01*
X0110149Y0121846D01*
X0109558Y0121256D01*
X0108174Y0121256D01*
X0108174Y0121351D01*
X0107482Y0122043D01*
X0103748Y0122043D01*
X0103398Y0121693D01*
X0103384Y0121718D01*
X0103124Y0121977D01*
X0102807Y0122161D01*
X0102452Y0122256D01*
X0101186Y0122256D01*
X0101186Y0121385D01*
X0101140Y0121373D01*
X0100822Y0121190D01*
X0100595Y0120963D01*
X0100595Y0122256D01*
X0099329Y0122256D01*
X0098975Y0122161D01*
X0098657Y0121977D01*
X0098398Y0121718D01*
X0098214Y0121400D01*
X0098119Y0121045D01*
X0098119Y0119779D01*
X0100284Y0119779D01*
X0100284Y0119484D01*
X0100595Y0119484D01*
X0100595Y0119484D01*
X0100284Y0119484D01*
X0100284Y0119189D01*
X0098119Y0119189D01*
X0098119Y0117923D01*
X0098214Y0117568D01*
X0098398Y0117250D01*
X0098657Y0116991D01*
X0098975Y0116807D01*
X0099329Y0116712D01*
X0100595Y0116712D01*
X0100595Y0118005D01*
X0100822Y0117778D01*
X0101140Y0117595D01*
X0101186Y0117582D01*
X0101186Y0116712D01*
X0102452Y0116712D01*
X0102807Y0116807D01*
X0103124Y0116991D01*
X0103384Y0117250D01*
X0103398Y0117275D01*
X0103748Y0116925D01*
X0107482Y0116925D01*
X0108174Y0117617D01*
X0108174Y0117712D01*
X0109558Y0117712D01*
X0110149Y0117122D01*
X0112105Y0117122D01*
X0113489Y0118505D01*
X0113489Y0120462D01*
X0113471Y0120480D02*
X0168196Y0120480D01*
X0167804Y0121266D02*
X0135935Y0121266D01*
X0136721Y0122052D02*
X0167804Y0122052D01*
X0169768Y0118909D02*
X0113489Y0118909D01*
X0113106Y0118123D02*
X0209552Y0118123D01*
X0209552Y0117337D02*
X0112321Y0117337D01*
X0109933Y0117337D02*
X0107894Y0117337D01*
X0108174Y0121266D02*
X0109569Y0121266D01*
X0110149Y0123027D02*
X0112105Y0123027D01*
X0113489Y0124411D01*
X0113489Y0126368D01*
X0112105Y0127752D01*
X0110149Y0127752D01*
X0109558Y0127161D01*
X0108174Y0127161D01*
X0108174Y0127257D01*
X0107482Y0127948D01*
X0103748Y0127948D01*
X0103398Y0127599D01*
X0103384Y0127623D01*
X0103124Y0127883D01*
X0102807Y0128066D01*
X0102452Y0128161D01*
X0101186Y0128161D01*
X0101186Y0127291D01*
X0101140Y0127279D01*
X0100822Y0127095D01*
X0100595Y0126868D01*
X0100595Y0128161D01*
X0099329Y0128161D01*
X0098975Y0128066D01*
X0098657Y0127883D01*
X0098398Y0127623D01*
X0098214Y0127305D01*
X0098119Y0126951D01*
X0098119Y0125685D01*
X0100284Y0125685D01*
X0100284Y0125390D01*
X0100595Y0125390D01*
X0100595Y0125389D01*
X0100284Y0125389D01*
X0100284Y0125094D01*
X0098119Y0125094D01*
X0098119Y0123828D01*
X0098214Y0123474D01*
X0098398Y0123156D01*
X0098657Y0122896D01*
X0098975Y0122713D01*
X0099329Y0122618D01*
X0100595Y0122618D01*
X0100595Y0123911D01*
X0100822Y0123684D01*
X0101140Y0123500D01*
X0101186Y0123488D01*
X0101186Y0122618D01*
X0102452Y0122618D01*
X0102807Y0122713D01*
X0103124Y0122896D01*
X0103384Y0123156D01*
X0103398Y0123180D01*
X0103748Y0122830D01*
X0107482Y0122830D01*
X0108174Y0123522D01*
X0108174Y0123618D01*
X0109558Y0123618D01*
X0110149Y0123027D01*
X0107490Y0122838D02*
X0128450Y0122838D01*
X0128450Y0123624D02*
X0112702Y0123624D01*
X0113488Y0124410D02*
X0128460Y0124410D01*
X0129040Y0125196D02*
X0113489Y0125196D01*
X0113489Y0125982D02*
X0129040Y0125982D01*
X0129040Y0126768D02*
X0113089Y0126768D01*
X0112303Y0127554D02*
X0129040Y0127554D01*
X0129040Y0128340D02*
X0044198Y0128340D01*
X0044198Y0129125D02*
X0098360Y0129125D01*
X0098398Y0129061D02*
X0098657Y0128802D01*
X0098975Y0128618D01*
X0099329Y0128523D01*
X0100595Y0128523D01*
X0100595Y0129816D01*
X0100822Y0129589D01*
X0101140Y0129406D01*
X0101186Y0129393D01*
X0101186Y0128523D01*
X0102452Y0128523D01*
X0102807Y0128618D01*
X0103124Y0128802D01*
X0103384Y0129061D01*
X0103398Y0129086D01*
X0103748Y0128736D01*
X0107482Y0128736D01*
X0108174Y0129428D01*
X0108174Y0129523D01*
X0109558Y0129523D01*
X0110149Y0128933D01*
X0112105Y0128933D01*
X0113489Y0130316D01*
X0113489Y0132273D01*
X0112105Y0133657D01*
X0110149Y0133657D01*
X0109558Y0133067D01*
X0108174Y0133067D01*
X0108174Y0133162D01*
X0107482Y0133854D01*
X0103748Y0133854D01*
X0103398Y0133504D01*
X0103384Y0133529D01*
X0103124Y0133788D01*
X0102807Y0133972D01*
X0102452Y0134067D01*
X0101186Y0134067D01*
X0101186Y0133197D01*
X0101140Y0133184D01*
X0100822Y0133001D01*
X0100595Y0132774D01*
X0100595Y0134067D01*
X0099329Y0134067D01*
X0098975Y0133972D01*
X0098657Y0133788D01*
X0098398Y0133529D01*
X0098214Y0133211D01*
X0098119Y0132856D01*
X0098119Y0131590D01*
X0100284Y0131590D01*
X0100284Y0131295D01*
X0100595Y0131295D01*
X0100595Y0131295D01*
X0100284Y0131295D01*
X0100284Y0131000D01*
X0098119Y0131000D01*
X0098119Y0129734D01*
X0098214Y0129379D01*
X0098398Y0129061D01*
X0098119Y0129911D02*
X0044198Y0129911D01*
X0044198Y0130697D02*
X0098119Y0130697D01*
X0098119Y0132269D02*
X0044198Y0132269D01*
X0044198Y0131483D02*
X0100284Y0131483D01*
X0101186Y0131295D02*
X0103056Y0131295D01*
X0103056Y0131295D01*
X0101186Y0131295D01*
X0101186Y0131295D01*
X0100916Y0133055D02*
X0100595Y0133055D01*
X0100595Y0133841D02*
X0101186Y0133841D01*
X0103033Y0133841D02*
X0103735Y0133841D01*
X0107495Y0133841D02*
X0129040Y0133841D01*
X0129040Y0134627D02*
X0044198Y0134627D01*
X0044198Y0135413D02*
X0129040Y0135413D01*
X0129040Y0136199D02*
X0044198Y0136199D01*
X0044198Y0136985D02*
X0129040Y0136985D01*
X0129040Y0137771D02*
X0044198Y0137771D01*
X0044198Y0138556D02*
X0128919Y0138556D01*
X0128133Y0139342D02*
X0044198Y0139342D01*
X0044198Y0140128D02*
X0127347Y0140128D01*
X0126561Y0140914D02*
X0044198Y0140914D01*
X0044198Y0141700D02*
X0125775Y0141700D01*
X0124990Y0142486D02*
X0044198Y0142486D01*
X0044198Y0143272D02*
X0124204Y0143272D01*
X0123418Y0144058D02*
X0044198Y0144058D01*
X0044198Y0144844D02*
X0123135Y0144844D01*
X0123135Y0145630D02*
X0044198Y0145630D01*
X0044198Y0146416D02*
X0123135Y0146416D01*
X0123135Y0147201D02*
X0044198Y0147201D01*
X0044198Y0147987D02*
X0123135Y0147987D01*
X0123135Y0148773D02*
X0044198Y0148773D01*
X0044198Y0149559D02*
X0109418Y0149559D01*
X0110163Y0148815D02*
X0113587Y0148815D01*
X0116009Y0151236D01*
X0116009Y0154661D01*
X0113587Y0157082D01*
X0110163Y0157082D01*
X0107741Y0154661D01*
X0107741Y0151236D01*
X0110163Y0148815D01*
X0108632Y0150345D02*
X0044198Y0150345D01*
X0044198Y0151131D02*
X0107846Y0151131D01*
X0107741Y0151917D02*
X0044198Y0151917D01*
X0044198Y0152703D02*
X0107741Y0152703D01*
X0107741Y0153489D02*
X0044198Y0153489D01*
X0044198Y0154275D02*
X0107741Y0154275D01*
X0108141Y0155061D02*
X0044198Y0155061D01*
X0044198Y0155847D02*
X0108927Y0155847D01*
X0109713Y0156632D02*
X0044198Y0156632D01*
X0060297Y0164492D02*
X0193453Y0164492D01*
X0191034Y0165277D02*
X0062716Y0165277D01*
X0064279Y0166063D02*
X0189471Y0166063D01*
X0188389Y0166849D02*
X0065361Y0166849D01*
X0066443Y0167635D02*
X0187307Y0167635D01*
X0186608Y0168421D02*
X0067142Y0168421D01*
X0067713Y0169207D02*
X0186037Y0169207D01*
X0185466Y0169993D02*
X0068284Y0169993D01*
X0068855Y0170779D02*
X0184895Y0170779D01*
X0184566Y0171565D02*
X0069184Y0171565D01*
X0069439Y0172351D02*
X0184311Y0172351D01*
X0184056Y0173137D02*
X0069694Y0173137D01*
X0069950Y0173923D02*
X0183800Y0173923D01*
X0183568Y0174708D02*
X0070182Y0174708D01*
X0070182Y0175494D02*
X0183568Y0175494D01*
X0183568Y0176280D02*
X0070182Y0176280D01*
X0070182Y0177066D02*
X0183568Y0177066D01*
X0183568Y0177852D02*
X0070182Y0177852D01*
X0070182Y0178638D02*
X0183568Y0178638D01*
X0183568Y0179424D02*
X0070182Y0179424D01*
X0070182Y0180210D02*
X0183568Y0180210D01*
X0183568Y0180996D02*
X0070182Y0180996D01*
X0070182Y0181782D02*
X0183568Y0181782D01*
X0183568Y0182568D02*
X0070182Y0182568D01*
X0070182Y0183353D02*
X0183568Y0183353D01*
X0183568Y0184139D02*
X0070182Y0184139D01*
X0070182Y0184925D02*
X0183568Y0184925D01*
X0183568Y0185711D02*
X0070182Y0185711D01*
X0070182Y0186497D02*
X0183568Y0186497D01*
X0183568Y0187283D02*
X0070182Y0187283D01*
X0070182Y0188069D02*
X0183568Y0188069D01*
X0183568Y0188855D02*
X0070182Y0188855D01*
X0070182Y0189641D02*
X0183568Y0189641D01*
X0129713Y0156632D02*
X0124037Y0156632D01*
X0124823Y0155847D02*
X0128927Y0155847D01*
X0128141Y0155061D02*
X0125609Y0155061D01*
X0126009Y0154275D02*
X0127741Y0154275D01*
X0127741Y0153489D02*
X0126009Y0153489D01*
X0126009Y0152703D02*
X0127741Y0152703D01*
X0127741Y0151917D02*
X0126009Y0151917D01*
X0126198Y0151131D02*
X0127552Y0151131D01*
X0127072Y0150345D02*
X0126678Y0150345D01*
X0126678Y0149559D02*
X0127072Y0149559D01*
X0127072Y0148773D02*
X0126678Y0148773D01*
X0126678Y0147987D02*
X0127072Y0147987D01*
X0127072Y0147201D02*
X0126678Y0147201D01*
X0126678Y0146416D02*
X0127072Y0146416D01*
X0127072Y0145630D02*
X0126857Y0145630D01*
X0119418Y0149559D02*
X0114332Y0149559D01*
X0115118Y0150345D02*
X0118632Y0150345D01*
X0117846Y0151131D02*
X0115904Y0151131D01*
X0116009Y0151917D02*
X0117741Y0151917D01*
X0117741Y0152703D02*
X0116009Y0152703D01*
X0116009Y0153489D02*
X0117741Y0153489D01*
X0117741Y0154275D02*
X0116009Y0154275D01*
X0115609Y0155061D02*
X0118141Y0155061D01*
X0118927Y0155847D02*
X0114823Y0155847D01*
X0114037Y0156632D02*
X0119713Y0156632D01*
X0098749Y0133841D02*
X0044198Y0133841D01*
X0044198Y0133055D02*
X0098172Y0133055D01*
X0100595Y0129125D02*
X0101186Y0129125D01*
X0101186Y0127554D02*
X0100595Y0127554D01*
X0098357Y0127554D02*
X0044198Y0127554D01*
X0044198Y0126768D02*
X0079848Y0126768D01*
X0079887Y0126807D02*
X0078509Y0125429D01*
X0068492Y0125429D01*
X0067479Y0125009D01*
X0063909Y0121439D01*
X0063489Y0120426D01*
X0063489Y0106194D01*
X0063489Y0101278D01*
X0064181Y0100586D01*
X0068309Y0100586D01*
X0069001Y0101278D01*
X0069001Y0118736D01*
X0070182Y0119917D01*
X0078509Y0119917D01*
X0079887Y0118539D01*
X0083312Y0118539D01*
X0085733Y0120961D01*
X0085733Y0124385D01*
X0083312Y0126807D01*
X0079887Y0126807D01*
X0079062Y0125982D02*
X0044198Y0125982D01*
X0044198Y0125196D02*
X0067930Y0125196D01*
X0066880Y0124410D02*
X0044198Y0124410D01*
X0044198Y0123624D02*
X0066094Y0123624D01*
X0065308Y0122838D02*
X0044198Y0122838D01*
X0044198Y0122052D02*
X0064522Y0122052D01*
X0063837Y0121266D02*
X0044198Y0121266D01*
X0044198Y0120480D02*
X0063512Y0120480D01*
X0063489Y0119695D02*
X0044198Y0119695D01*
X0044198Y0118909D02*
X0063489Y0118909D01*
X0063489Y0118123D02*
X0044198Y0118123D01*
X0044198Y0117337D02*
X0063489Y0117337D01*
X0063489Y0116551D02*
X0044198Y0116551D01*
X0044198Y0115765D02*
X0063489Y0115765D01*
X0063489Y0114979D02*
X0044198Y0114979D01*
X0044198Y0114193D02*
X0063489Y0114193D01*
X0063489Y0113407D02*
X0044198Y0113407D01*
X0044198Y0112621D02*
X0063489Y0112621D01*
X0063489Y0111835D02*
X0044198Y0111835D01*
X0044198Y0111049D02*
X0063489Y0111049D01*
X0063489Y0110264D02*
X0044198Y0110264D01*
X0044198Y0109478D02*
X0063489Y0109478D01*
X0063489Y0108692D02*
X0044198Y0108692D01*
X0044198Y0107906D02*
X0063489Y0107906D01*
X0063489Y0107120D02*
X0044198Y0107120D01*
X0044198Y0106334D02*
X0063489Y0106334D01*
X0063489Y0105548D02*
X0044198Y0105548D01*
X0044198Y0104762D02*
X0063489Y0104762D01*
X0063489Y0103976D02*
X0044198Y0103976D01*
X0044198Y0103190D02*
X0063489Y0103190D01*
X0063489Y0102404D02*
X0044198Y0102404D01*
X0044198Y0101619D02*
X0063489Y0101619D01*
X0063935Y0100833D02*
X0044198Y0100833D01*
X0044198Y0100047D02*
X0078379Y0100047D01*
X0077594Y0100833D02*
X0075642Y0100833D01*
X0075396Y0100586D02*
X0076088Y0101278D01*
X0076088Y0101964D01*
X0077466Y0101964D01*
X0077466Y0100961D01*
X0079887Y0098539D01*
X0083312Y0098539D01*
X0085733Y0100961D01*
X0085733Y0103933D01*
X0108425Y0103933D01*
X0108765Y0103593D01*
X0108765Y0102757D01*
X0110149Y0101374D01*
X0112105Y0101374D01*
X0113489Y0102757D01*
X0113489Y0104714D01*
X0112499Y0105704D01*
X0113489Y0106694D01*
X0113489Y0108651D01*
X0112105Y0110035D01*
X0111270Y0110035D01*
X0110930Y0110375D01*
X0109892Y0111413D01*
X0085733Y0111413D01*
X0085733Y0114385D01*
X0083312Y0116807D01*
X0079887Y0116807D01*
X0077466Y0114385D01*
X0077466Y0113382D01*
X0076088Y0113382D01*
X0076088Y0114068D01*
X0075396Y0114760D01*
X0071268Y0114760D01*
X0070576Y0114068D01*
X0070576Y0109152D01*
X0071268Y0108460D01*
X0075396Y0108460D01*
X0076088Y0109152D01*
X0076088Y0109838D01*
X0078588Y0109838D01*
X0079887Y0108539D01*
X0083228Y0108539D01*
X0083897Y0107870D01*
X0108425Y0107870D01*
X0108765Y0107530D01*
X0108765Y0107476D01*
X0083897Y0107476D01*
X0083228Y0106807D01*
X0079887Y0106807D01*
X0078588Y0105508D01*
X0076088Y0105508D01*
X0076088Y0106194D01*
X0075396Y0106886D01*
X0071268Y0106886D01*
X0070576Y0106194D01*
X0070576Y0101278D01*
X0071268Y0100586D01*
X0075396Y0100586D01*
X0076088Y0101619D02*
X0077466Y0101619D01*
X0079165Y0099261D02*
X0044198Y0099261D01*
X0044198Y0098475D02*
X0136669Y0098475D01*
X0136920Y0098224D02*
X0135739Y0098224D01*
X0134355Y0096840D01*
X0134355Y0094883D01*
X0135739Y0093500D01*
X0136574Y0093500D01*
X0144788Y0085286D01*
X0144788Y0066531D01*
X0141816Y0066531D01*
X0139395Y0064110D01*
X0139395Y0060685D01*
X0141816Y0058263D01*
X0142820Y0058263D01*
X0142820Y0056886D01*
X0142134Y0056886D01*
X0141442Y0056194D01*
X0141442Y0052066D01*
X0142134Y0051374D01*
X0147049Y0051374D01*
X0147741Y0052066D01*
X0147741Y0056194D01*
X0147049Y0056886D01*
X0146363Y0056886D01*
X0146363Y0059386D01*
X0147662Y0060685D01*
X0147662Y0064026D01*
X0148332Y0064695D01*
X0148332Y0086753D01*
X0139080Y0096005D01*
X0139080Y0096840D01*
X0138483Y0097437D01*
X0138543Y0097437D01*
X0148725Y0087254D01*
X0148725Y0064695D01*
X0149395Y0064026D01*
X0149395Y0060685D01*
X0150694Y0059386D01*
X0150694Y0056886D01*
X0150008Y0056886D01*
X0149316Y0056194D01*
X0149316Y0052066D01*
X0150008Y0051374D01*
X0154923Y0051374D01*
X0155615Y0052066D01*
X0155615Y0056194D01*
X0154923Y0056886D01*
X0154237Y0056886D01*
X0154237Y0058263D01*
X0155241Y0058263D01*
X0157662Y0060685D01*
X0157662Y0064110D01*
X0155241Y0066531D01*
X0152269Y0066531D01*
X0152269Y0088722D01*
X0141048Y0099942D01*
X0141048Y0100777D01*
X0139665Y0102161D01*
X0137708Y0102161D01*
X0136324Y0100777D01*
X0136324Y0098820D01*
X0136920Y0098224D01*
X0136324Y0099261D02*
X0084033Y0099261D01*
X0084819Y0100047D02*
X0136324Y0100047D01*
X0136379Y0100833D02*
X0085605Y0100833D01*
X0085733Y0101619D02*
X0109904Y0101619D01*
X0109118Y0102404D02*
X0085733Y0102404D01*
X0085733Y0103190D02*
X0108765Y0103190D01*
X0112350Y0101619D02*
X0137165Y0101619D01*
X0140207Y0101619D02*
X0168017Y0101619D01*
X0168017Y0100961D02*
X0170438Y0098539D01*
X0173863Y0098539D01*
X0176284Y0100961D01*
X0176284Y0101964D01*
X0177662Y0101964D01*
X0177662Y0101278D01*
X0178354Y0100586D01*
X0182482Y0100586D01*
X0183174Y0101278D01*
X0183174Y0106194D01*
X0182482Y0106886D01*
X0178354Y0106886D01*
X0177662Y0106194D01*
X0177662Y0105508D01*
X0175162Y0105508D01*
X0173863Y0106807D01*
X0170522Y0106807D01*
X0169853Y0107476D01*
X0145325Y0107476D01*
X0144985Y0107816D01*
X0144985Y0107870D01*
X0169853Y0107870D01*
X0170522Y0108539D01*
X0173863Y0108539D01*
X0175162Y0109838D01*
X0177662Y0109838D01*
X0177662Y0109152D01*
X0178354Y0108460D01*
X0182482Y0108460D01*
X0183174Y0109152D01*
X0183174Y0114068D01*
X0182482Y0114760D01*
X0178354Y0114760D01*
X0177662Y0114068D01*
X0177662Y0113382D01*
X0176284Y0113382D01*
X0176284Y0114385D01*
X0173863Y0116807D01*
X0170438Y0116807D01*
X0168017Y0114385D01*
X0168017Y0111413D01*
X0145325Y0111413D01*
X0144985Y0111753D01*
X0144985Y0112588D01*
X0143602Y0113972D01*
X0141645Y0113972D01*
X0140261Y0112588D01*
X0140261Y0110631D01*
X0141251Y0109641D01*
X0140261Y0108651D01*
X0140261Y0106694D01*
X0141645Y0105311D01*
X0142480Y0105311D01*
X0143858Y0103933D01*
X0168017Y0103933D01*
X0168017Y0100961D01*
X0168145Y0100833D02*
X0140993Y0100833D01*
X0141048Y0100047D02*
X0168931Y0100047D01*
X0169717Y0099261D02*
X0141730Y0099261D01*
X0142516Y0098475D02*
X0184749Y0098475D01*
X0184749Y0099261D02*
X0174585Y0099261D01*
X0175371Y0100047D02*
X0184749Y0100047D01*
X0184749Y0100833D02*
X0182729Y0100833D01*
X0183174Y0101619D02*
X0184749Y0101619D01*
X0184749Y0102404D02*
X0183174Y0102404D01*
X0183174Y0103190D02*
X0184749Y0103190D01*
X0184749Y0103976D02*
X0183174Y0103976D01*
X0183174Y0104762D02*
X0184749Y0104762D01*
X0184749Y0105548D02*
X0183174Y0105548D01*
X0183034Y0106334D02*
X0184749Y0106334D01*
X0184749Y0107120D02*
X0170209Y0107120D01*
X0169889Y0107906D02*
X0184749Y0107906D01*
X0184749Y0108692D02*
X0182714Y0108692D01*
X0183174Y0109478D02*
X0184749Y0109478D01*
X0184749Y0110264D02*
X0183174Y0110264D01*
X0183174Y0111049D02*
X0184749Y0111049D01*
X0184749Y0111835D02*
X0183174Y0111835D01*
X0183174Y0112621D02*
X0184749Y0112621D01*
X0184749Y0113407D02*
X0183174Y0113407D01*
X0183049Y0114193D02*
X0184875Y0114193D01*
X0184749Y0114068D02*
X0184749Y0096610D01*
X0183568Y0095429D01*
X0175241Y0095429D01*
X0173863Y0096807D01*
X0170438Y0096807D01*
X0168017Y0094385D01*
X0168017Y0090961D01*
X0170438Y0088539D01*
X0173863Y0088539D01*
X0175241Y0089917D01*
X0185258Y0089917D01*
X0186271Y0090337D01*
X0189841Y0093907D01*
X0190261Y0094920D01*
X0190261Y0109152D01*
X0190261Y0114068D01*
X0189569Y0114760D01*
X0185441Y0114760D01*
X0184749Y0114068D01*
X0190135Y0114193D02*
X0209552Y0114193D01*
X0209552Y0113407D02*
X0190261Y0113407D01*
X0190261Y0112621D02*
X0209552Y0112621D01*
X0209552Y0111835D02*
X0190261Y0111835D01*
X0190261Y0111049D02*
X0209552Y0111049D01*
X0209552Y0110264D02*
X0190261Y0110264D01*
X0190261Y0109478D02*
X0209552Y0109478D01*
X0209552Y0108692D02*
X0190261Y0108692D01*
X0190261Y0107906D02*
X0209552Y0107906D01*
X0209552Y0107120D02*
X0190261Y0107120D01*
X0190261Y0106334D02*
X0209552Y0106334D01*
X0209552Y0105548D02*
X0190261Y0105548D01*
X0190261Y0104762D02*
X0209552Y0104762D01*
X0209552Y0103976D02*
X0190261Y0103976D01*
X0190261Y0103190D02*
X0209552Y0103190D01*
X0209552Y0102404D02*
X0190261Y0102404D01*
X0190261Y0101619D02*
X0209552Y0101619D01*
X0209552Y0100833D02*
X0190261Y0100833D01*
X0190261Y0100047D02*
X0209552Y0100047D01*
X0209552Y0099261D02*
X0190261Y0099261D01*
X0190261Y0098475D02*
X0209552Y0098475D01*
X0209552Y0097689D02*
X0190261Y0097689D01*
X0190261Y0096903D02*
X0209552Y0096903D01*
X0209552Y0096117D02*
X0190261Y0096117D01*
X0190261Y0095331D02*
X0209552Y0095331D01*
X0209552Y0094545D02*
X0190106Y0094545D01*
X0189694Y0093759D02*
X0209552Y0093759D01*
X0209552Y0092973D02*
X0188908Y0092973D01*
X0188122Y0092188D02*
X0209552Y0092188D01*
X0209552Y0091402D02*
X0187336Y0091402D01*
X0186550Y0090616D02*
X0209552Y0090616D01*
X0209552Y0089830D02*
X0175154Y0089830D01*
X0174368Y0089044D02*
X0209552Y0089044D01*
X0209552Y0088258D02*
X0152269Y0088258D01*
X0152269Y0087472D02*
X0209552Y0087472D01*
X0209552Y0086686D02*
X0152269Y0086686D01*
X0152269Y0085900D02*
X0209552Y0085900D01*
X0209552Y0085114D02*
X0152269Y0085114D01*
X0152269Y0084328D02*
X0209552Y0084328D01*
X0209552Y0083543D02*
X0152269Y0083543D01*
X0152269Y0082757D02*
X0209552Y0082757D01*
X0209552Y0081971D02*
X0152269Y0081971D01*
X0152269Y0081185D02*
X0209552Y0081185D01*
X0209552Y0080399D02*
X0152269Y0080399D01*
X0152269Y0079613D02*
X0209552Y0079613D01*
X0209552Y0078827D02*
X0152269Y0078827D01*
X0152269Y0078041D02*
X0209552Y0078041D01*
X0209552Y0077255D02*
X0152269Y0077255D01*
X0152269Y0076469D02*
X0209552Y0076469D01*
X0209552Y0075683D02*
X0152269Y0075683D01*
X0152269Y0074898D02*
X0209552Y0074898D01*
X0209552Y0074112D02*
X0152269Y0074112D01*
X0152269Y0073326D02*
X0209552Y0073326D01*
X0209552Y0072540D02*
X0152269Y0072540D01*
X0152269Y0071754D02*
X0209552Y0071754D01*
X0209552Y0070968D02*
X0152269Y0070968D01*
X0152269Y0070182D02*
X0209552Y0070182D01*
X0209552Y0069396D02*
X0152269Y0069396D01*
X0152269Y0068610D02*
X0209552Y0068610D01*
X0209552Y0067824D02*
X0152269Y0067824D01*
X0152269Y0067038D02*
X0209552Y0067038D01*
X0209552Y0066252D02*
X0165820Y0066252D01*
X0165329Y0066744D02*
X0163922Y0066744D01*
X0163922Y0062791D01*
X0163135Y0062791D01*
X0163135Y0066744D01*
X0161728Y0066744D01*
X0159182Y0064198D01*
X0159182Y0062791D01*
X0163135Y0062791D01*
X0163135Y0062004D01*
X0159182Y0062004D01*
X0159182Y0060597D01*
X0161728Y0058051D01*
X0163135Y0058051D01*
X0163135Y0062004D01*
X0163922Y0062004D01*
X0163922Y0062791D01*
X0167875Y0062791D01*
X0167875Y0064198D01*
X0165329Y0066744D01*
X0163922Y0066252D02*
X0163135Y0066252D01*
X0163135Y0065467D02*
X0163922Y0065467D01*
X0163922Y0064681D02*
X0163135Y0064681D01*
X0163135Y0063895D02*
X0163922Y0063895D01*
X0163922Y0063109D02*
X0163135Y0063109D01*
X0163135Y0062323D02*
X0157662Y0062323D01*
X0157662Y0063109D02*
X0159182Y0063109D01*
X0159182Y0063895D02*
X0157662Y0063895D01*
X0157091Y0064681D02*
X0159665Y0064681D01*
X0160451Y0065467D02*
X0156305Y0065467D01*
X0155520Y0066252D02*
X0161237Y0066252D01*
X0163922Y0062323D02*
X0209552Y0062323D01*
X0209552Y0063109D02*
X0167875Y0063109D01*
X0167875Y0063895D02*
X0209552Y0063895D01*
X0209552Y0064681D02*
X0167392Y0064681D01*
X0166606Y0065467D02*
X0209552Y0065467D01*
X0209552Y0061537D02*
X0167875Y0061537D01*
X0167875Y0062004D02*
X0163922Y0062004D01*
X0163922Y0058051D01*
X0165329Y0058051D01*
X0167875Y0060597D01*
X0167875Y0062004D01*
X0167875Y0060751D02*
X0209552Y0060751D01*
X0209552Y0059965D02*
X0167243Y0059965D01*
X0166457Y0059179D02*
X0209552Y0059179D01*
X0209552Y0058393D02*
X0165671Y0058393D01*
X0163922Y0058393D02*
X0163135Y0058393D01*
X0163135Y0059179D02*
X0163922Y0059179D01*
X0163922Y0059965D02*
X0163135Y0059965D01*
X0163135Y0060751D02*
X0163922Y0060751D01*
X0163922Y0061537D02*
X0163135Y0061537D01*
X0160600Y0059179D02*
X0156157Y0059179D01*
X0156943Y0059965D02*
X0159814Y0059965D01*
X0159182Y0060751D02*
X0157662Y0060751D01*
X0157662Y0061537D02*
X0159182Y0061537D01*
X0161386Y0058393D02*
X0155371Y0058393D01*
X0154237Y0057607D02*
X0209552Y0057607D01*
X0209552Y0056822D02*
X0154987Y0056822D01*
X0155615Y0056036D02*
X0209552Y0056036D01*
X0209552Y0055250D02*
X0155615Y0055250D01*
X0155615Y0054464D02*
X0209552Y0054464D01*
X0209552Y0053678D02*
X0155615Y0053678D01*
X0155615Y0052892D02*
X0209552Y0052892D01*
X0209552Y0052106D02*
X0155615Y0052106D01*
X0154923Y0049799D02*
X0137465Y0049799D01*
X0136284Y0050980D01*
X0136284Y0059307D01*
X0137662Y0060685D01*
X0137662Y0064110D01*
X0135241Y0066531D01*
X0131816Y0066531D01*
X0129395Y0064110D01*
X0129395Y0060685D01*
X0130773Y0059307D01*
X0130773Y0049290D01*
X0131192Y0048277D01*
X0134763Y0044707D01*
X0135776Y0044287D01*
X0150008Y0044287D01*
X0154923Y0044287D01*
X0155615Y0044979D01*
X0155615Y0049107D01*
X0154923Y0049799D01*
X0154974Y0049748D02*
X0190112Y0049748D01*
X0189030Y0048962D02*
X0155615Y0048962D01*
X0155615Y0048176D02*
X0187948Y0048176D01*
X0186946Y0047391D02*
X0155615Y0047391D01*
X0155615Y0046605D02*
X0186375Y0046605D01*
X0185804Y0045819D02*
X0155615Y0045819D01*
X0155615Y0045033D02*
X0185233Y0045033D01*
X0184718Y0044247D02*
X0069032Y0044247D01*
X0069288Y0043461D02*
X0184462Y0043461D01*
X0184207Y0042675D02*
X0069543Y0042675D01*
X0069798Y0041889D02*
X0183952Y0041889D01*
X0183696Y0041103D02*
X0070054Y0041103D01*
X0070182Y0040317D02*
X0183568Y0040317D01*
X0183568Y0039531D02*
X0070182Y0039531D01*
X0070182Y0038746D02*
X0183568Y0038746D01*
X0183568Y0037960D02*
X0070182Y0037960D01*
X0070182Y0037174D02*
X0183568Y0037174D01*
X0183568Y0036388D02*
X0070182Y0036388D01*
X0070182Y0035602D02*
X0183568Y0035602D01*
X0183568Y0034816D02*
X0070182Y0034816D01*
X0070182Y0034030D02*
X0183568Y0034030D01*
X0183568Y0033244D02*
X0070182Y0033244D01*
X0070182Y0032458D02*
X0183568Y0032458D01*
X0183568Y0031672D02*
X0070182Y0031672D01*
X0070182Y0030886D02*
X0183568Y0030886D01*
X0183568Y0030100D02*
X0070182Y0030100D01*
X0070182Y0029315D02*
X0183568Y0029315D01*
X0183568Y0028529D02*
X0070182Y0028529D01*
X0070182Y0027743D02*
X0183568Y0027743D01*
X0183568Y0026957D02*
X0070182Y0026957D01*
X0070182Y0026171D02*
X0183568Y0026171D01*
X0183568Y0025385D02*
X0070182Y0025385D01*
X0068517Y0045033D02*
X0091130Y0045033D01*
X0091456Y0044707D02*
X0092469Y0044287D01*
X0111616Y0044287D01*
X0112308Y0044979D01*
X0112308Y0049107D01*
X0111616Y0049799D01*
X0094158Y0049799D01*
X0092977Y0050980D01*
X0092977Y0059307D01*
X0094355Y0060685D01*
X0094355Y0064110D01*
X0091934Y0066531D01*
X0088509Y0066531D01*
X0086088Y0064110D01*
X0086088Y0060685D01*
X0087466Y0059307D01*
X0087466Y0049290D01*
X0087885Y0048277D01*
X0088660Y0047502D01*
X0091456Y0044707D01*
X0090344Y0045819D02*
X0067946Y0045819D01*
X0067375Y0046605D02*
X0089558Y0046605D01*
X0088772Y0047391D02*
X0066804Y0047391D01*
X0065802Y0048176D02*
X0087986Y0048176D01*
X0087601Y0048962D02*
X0064720Y0048962D01*
X0063638Y0049748D02*
X0087466Y0049748D01*
X0087466Y0050534D02*
X0061282Y0050534D01*
X0044198Y0051320D02*
X0087466Y0051320D01*
X0087466Y0052106D02*
X0044198Y0052106D01*
X0044198Y0052892D02*
X0087466Y0052892D01*
X0087466Y0053678D02*
X0044198Y0053678D01*
X0044198Y0054464D02*
X0087466Y0054464D01*
X0087466Y0055250D02*
X0044198Y0055250D01*
X0044198Y0056036D02*
X0087466Y0056036D01*
X0087466Y0056822D02*
X0044198Y0056822D01*
X0044198Y0057607D02*
X0087466Y0057607D01*
X0087466Y0058393D02*
X0044198Y0058393D01*
X0044198Y0059179D02*
X0087466Y0059179D01*
X0086807Y0059965D02*
X0044198Y0059965D01*
X0044198Y0060751D02*
X0086088Y0060751D01*
X0086088Y0061537D02*
X0044198Y0061537D01*
X0044198Y0062323D02*
X0086088Y0062323D01*
X0086088Y0063109D02*
X0044198Y0063109D01*
X0044198Y0063895D02*
X0086088Y0063895D01*
X0086659Y0064681D02*
X0044198Y0064681D01*
X0044198Y0065467D02*
X0087445Y0065467D01*
X0088230Y0066252D02*
X0044198Y0066252D01*
X0044198Y0067038D02*
X0101481Y0067038D01*
X0101481Y0066531D02*
X0098509Y0066531D01*
X0096088Y0064110D01*
X0096088Y0060685D01*
X0098509Y0058263D01*
X0099513Y0058263D01*
X0099513Y0056886D01*
X0098827Y0056886D01*
X0098135Y0056194D01*
X0098135Y0052066D01*
X0098827Y0051374D01*
X0103742Y0051374D01*
X0104434Y0052066D01*
X0104434Y0056194D01*
X0103742Y0056886D01*
X0103056Y0056886D01*
X0103056Y0059386D01*
X0104355Y0060685D01*
X0104355Y0064026D01*
X0105025Y0064695D01*
X0105025Y0081349D01*
X0105418Y0081742D01*
X0105418Y0064695D01*
X0106088Y0064026D01*
X0106088Y0060685D01*
X0107387Y0059386D01*
X0107387Y0056886D01*
X0106701Y0056886D01*
X0106009Y0056194D01*
X0106009Y0052066D01*
X0106701Y0051374D01*
X0111616Y0051374D01*
X0112308Y0052066D01*
X0112308Y0056194D01*
X0111616Y0056886D01*
X0110930Y0056886D01*
X0110930Y0058263D01*
X0111934Y0058263D01*
X0114355Y0060685D01*
X0114355Y0064110D01*
X0111934Y0066531D01*
X0108962Y0066531D01*
X0108962Y0081349D01*
X0117176Y0089563D01*
X0118011Y0089563D01*
X0119395Y0090946D01*
X0119395Y0092903D01*
X0118405Y0093893D01*
X0119395Y0094883D01*
X0119395Y0096840D01*
X0118011Y0098224D01*
X0116054Y0098224D01*
X0114670Y0096840D01*
X0114670Y0096005D01*
X0101481Y0082816D01*
X0101481Y0066531D01*
X0101481Y0067824D02*
X0044198Y0067824D01*
X0044198Y0068610D02*
X0101481Y0068610D01*
X0101481Y0069396D02*
X0044198Y0069396D01*
X0044198Y0070182D02*
X0101481Y0070182D01*
X0101481Y0070968D02*
X0044198Y0070968D01*
X0044198Y0071754D02*
X0101481Y0071754D01*
X0101481Y0072540D02*
X0044198Y0072540D01*
X0044198Y0073326D02*
X0101481Y0073326D01*
X0101481Y0074112D02*
X0044198Y0074112D01*
X0044198Y0074898D02*
X0101481Y0074898D01*
X0101481Y0075683D02*
X0044198Y0075683D01*
X0044198Y0076469D02*
X0101481Y0076469D01*
X0101481Y0077255D02*
X0044198Y0077255D01*
X0044198Y0078041D02*
X0101481Y0078041D01*
X0101481Y0078827D02*
X0044198Y0078827D01*
X0044198Y0079613D02*
X0101481Y0079613D01*
X0101481Y0080399D02*
X0044198Y0080399D01*
X0044198Y0081185D02*
X0101481Y0081185D01*
X0101481Y0081971D02*
X0044198Y0081971D01*
X0044198Y0082757D02*
X0101481Y0082757D01*
X0102208Y0083543D02*
X0044198Y0083543D01*
X0044198Y0084328D02*
X0102994Y0084328D01*
X0103779Y0085114D02*
X0044198Y0085114D01*
X0044198Y0085900D02*
X0104565Y0085900D01*
X0105351Y0086686D02*
X0044198Y0086686D01*
X0044198Y0087472D02*
X0106137Y0087472D01*
X0106923Y0088258D02*
X0044198Y0088258D01*
X0044198Y0089044D02*
X0079082Y0089044D01*
X0079799Y0088326D02*
X0077253Y0090873D01*
X0077253Y0092279D01*
X0081206Y0092279D01*
X0081993Y0092279D01*
X0081993Y0088326D01*
X0083400Y0088326D01*
X0085946Y0090873D01*
X0085946Y0092279D01*
X0081993Y0092279D01*
X0081993Y0093067D01*
X0081206Y0093067D01*
X0081206Y0097019D01*
X0079799Y0097019D01*
X0077253Y0094473D01*
X0077253Y0093067D01*
X0081206Y0093067D01*
X0081206Y0092279D01*
X0081206Y0088326D01*
X0079799Y0088326D01*
X0081206Y0089044D02*
X0081993Y0089044D01*
X0081993Y0089830D02*
X0081206Y0089830D01*
X0081206Y0090616D02*
X0081993Y0090616D01*
X0081993Y0091402D02*
X0081206Y0091402D01*
X0081206Y0092188D02*
X0081993Y0092188D01*
X0081993Y0092973D02*
X0111639Y0092973D01*
X0110853Y0092188D02*
X0085946Y0092188D01*
X0085946Y0091402D02*
X0110067Y0091402D01*
X0109281Y0090616D02*
X0085689Y0090616D01*
X0084903Y0089830D02*
X0108495Y0089830D01*
X0107709Y0089044D02*
X0084117Y0089044D01*
X0081206Y0092973D02*
X0044198Y0092973D01*
X0044198Y0092188D02*
X0077253Y0092188D01*
X0077253Y0091402D02*
X0044198Y0091402D01*
X0044198Y0090616D02*
X0077510Y0090616D01*
X0078296Y0089830D02*
X0044198Y0089830D01*
X0044198Y0093759D02*
X0077253Y0093759D01*
X0077325Y0094545D02*
X0044198Y0094545D01*
X0044198Y0095331D02*
X0078111Y0095331D01*
X0078897Y0096117D02*
X0044198Y0096117D01*
X0044198Y0096903D02*
X0079683Y0096903D01*
X0081206Y0096903D02*
X0081993Y0096903D01*
X0081993Y0097019D02*
X0081993Y0093067D01*
X0085946Y0093067D01*
X0085946Y0094473D01*
X0083400Y0097019D01*
X0081993Y0097019D01*
X0081993Y0096117D02*
X0081206Y0096117D01*
X0081206Y0095331D02*
X0081993Y0095331D01*
X0081993Y0094545D02*
X0081206Y0094545D01*
X0081206Y0093759D02*
X0081993Y0093759D01*
X0084302Y0096117D02*
X0114670Y0096117D01*
X0114733Y0096903D02*
X0083516Y0096903D01*
X0085088Y0095331D02*
X0113996Y0095331D01*
X0113210Y0094545D02*
X0085874Y0094545D01*
X0085946Y0093759D02*
X0112425Y0093759D01*
X0115519Y0097689D02*
X0044198Y0097689D01*
X0068555Y0100833D02*
X0071021Y0100833D01*
X0070576Y0101619D02*
X0069001Y0101619D01*
X0069001Y0102404D02*
X0070576Y0102404D01*
X0070576Y0103190D02*
X0069001Y0103190D01*
X0069001Y0103976D02*
X0070576Y0103976D01*
X0070576Y0104762D02*
X0069001Y0104762D01*
X0069001Y0105548D02*
X0070576Y0105548D01*
X0070716Y0106334D02*
X0069001Y0106334D01*
X0069001Y0107120D02*
X0083541Y0107120D01*
X0083861Y0107906D02*
X0069001Y0107906D01*
X0069001Y0108692D02*
X0071036Y0108692D01*
X0070576Y0109478D02*
X0069001Y0109478D01*
X0069001Y0110264D02*
X0070576Y0110264D01*
X0070576Y0111049D02*
X0069001Y0111049D01*
X0069001Y0111835D02*
X0070576Y0111835D01*
X0070576Y0112621D02*
X0069001Y0112621D01*
X0069001Y0113407D02*
X0070576Y0113407D01*
X0070701Y0114193D02*
X0069001Y0114193D01*
X0069001Y0114979D02*
X0078059Y0114979D01*
X0077466Y0114193D02*
X0075962Y0114193D01*
X0076088Y0113407D02*
X0077466Y0113407D01*
X0078845Y0115765D02*
X0069001Y0115765D01*
X0069001Y0116551D02*
X0079631Y0116551D01*
X0079518Y0118909D02*
X0069174Y0118909D01*
X0069001Y0118123D02*
X0098119Y0118123D01*
X0098119Y0118909D02*
X0083681Y0118909D01*
X0084467Y0119695D02*
X0100284Y0119695D01*
X0101186Y0119484D02*
X0103056Y0119484D01*
X0103056Y0119484D01*
X0101186Y0119484D01*
X0101186Y0119484D01*
X0100955Y0121266D02*
X0100595Y0121266D01*
X0100595Y0122052D02*
X0101186Y0122052D01*
X0101186Y0122838D02*
X0100595Y0122838D01*
X0100595Y0123624D02*
X0100926Y0123624D01*
X0100284Y0125196D02*
X0084923Y0125196D01*
X0085708Y0124410D02*
X0098119Y0124410D01*
X0098174Y0123624D02*
X0085733Y0123624D01*
X0085733Y0122838D02*
X0098758Y0122838D01*
X0098787Y0122052D02*
X0085733Y0122052D01*
X0085733Y0121266D02*
X0098178Y0121266D01*
X0098119Y0120480D02*
X0085253Y0120480D01*
X0083568Y0116551D02*
X0170182Y0116551D01*
X0169397Y0115765D02*
X0084354Y0115765D01*
X0085139Y0114979D02*
X0168611Y0114979D01*
X0168017Y0114193D02*
X0085733Y0114193D01*
X0085733Y0113407D02*
X0141080Y0113407D01*
X0140294Y0112621D02*
X0085733Y0112621D01*
X0085733Y0111835D02*
X0140261Y0111835D01*
X0140261Y0111049D02*
X0110256Y0111049D01*
X0111042Y0110264D02*
X0140629Y0110264D01*
X0141087Y0109478D02*
X0112663Y0109478D01*
X0113449Y0108692D02*
X0140301Y0108692D01*
X0140261Y0107906D02*
X0113489Y0107906D01*
X0113489Y0107120D02*
X0140261Y0107120D01*
X0140621Y0106334D02*
X0113129Y0106334D01*
X0112655Y0105548D02*
X0141407Y0105548D01*
X0143028Y0104762D02*
X0113441Y0104762D01*
X0113489Y0103976D02*
X0143814Y0103976D01*
X0143301Y0097689D02*
X0184749Y0097689D01*
X0184749Y0096903D02*
X0144087Y0096903D01*
X0144873Y0096117D02*
X0169749Y0096117D01*
X0168963Y0095331D02*
X0145659Y0095331D01*
X0146445Y0094545D02*
X0168177Y0094545D01*
X0168017Y0093759D02*
X0147231Y0093759D01*
X0148017Y0092973D02*
X0168017Y0092973D01*
X0168017Y0092188D02*
X0148803Y0092188D01*
X0149589Y0091402D02*
X0168017Y0091402D01*
X0168362Y0090616D02*
X0150375Y0090616D01*
X0151161Y0089830D02*
X0169148Y0089830D01*
X0169933Y0089044D02*
X0151946Y0089044D01*
X0148507Y0087472D02*
X0147613Y0087472D01*
X0147721Y0088258D02*
X0146827Y0088258D01*
X0146936Y0089044D02*
X0146041Y0089044D01*
X0146150Y0089830D02*
X0145255Y0089830D01*
X0145364Y0090616D02*
X0144469Y0090616D01*
X0144578Y0091402D02*
X0143683Y0091402D01*
X0143792Y0092188D02*
X0142897Y0092188D01*
X0143006Y0092973D02*
X0142111Y0092973D01*
X0142220Y0093759D02*
X0141326Y0093759D01*
X0141434Y0094545D02*
X0140540Y0094545D01*
X0140648Y0095331D02*
X0139754Y0095331D01*
X0139862Y0096117D02*
X0139080Y0096117D01*
X0139076Y0096903D02*
X0139017Y0096903D01*
X0135204Y0097689D02*
X0118546Y0097689D01*
X0119332Y0096903D02*
X0134418Y0096903D01*
X0134355Y0096117D02*
X0119395Y0096117D01*
X0119395Y0095331D02*
X0134355Y0095331D01*
X0134693Y0094545D02*
X0119057Y0094545D01*
X0118539Y0093759D02*
X0135479Y0093759D01*
X0137100Y0092973D02*
X0119325Y0092973D01*
X0119395Y0092188D02*
X0137886Y0092188D01*
X0138672Y0091402D02*
X0119395Y0091402D01*
X0119064Y0090616D02*
X0139458Y0090616D01*
X0140244Y0089830D02*
X0118278Y0089830D01*
X0116657Y0089044D02*
X0141030Y0089044D01*
X0141816Y0088258D02*
X0115871Y0088258D01*
X0115085Y0087472D02*
X0142602Y0087472D01*
X0143388Y0086686D02*
X0114299Y0086686D01*
X0113513Y0085900D02*
X0144174Y0085900D01*
X0144788Y0085114D02*
X0112727Y0085114D01*
X0111942Y0084328D02*
X0144788Y0084328D01*
X0144788Y0083543D02*
X0111156Y0083543D01*
X0110370Y0082757D02*
X0144788Y0082757D01*
X0144788Y0081971D02*
X0109584Y0081971D01*
X0108962Y0081185D02*
X0144788Y0081185D01*
X0144788Y0080399D02*
X0108962Y0080399D01*
X0108962Y0079613D02*
X0144788Y0079613D01*
X0144788Y0078827D02*
X0108962Y0078827D01*
X0108962Y0078041D02*
X0144788Y0078041D01*
X0144788Y0077255D02*
X0108962Y0077255D01*
X0108962Y0076469D02*
X0144788Y0076469D01*
X0144788Y0075683D02*
X0108962Y0075683D01*
X0108962Y0074898D02*
X0144788Y0074898D01*
X0144788Y0074112D02*
X0108962Y0074112D01*
X0108962Y0073326D02*
X0144788Y0073326D01*
X0144788Y0072540D02*
X0108962Y0072540D01*
X0108962Y0071754D02*
X0144788Y0071754D01*
X0144788Y0070968D02*
X0108962Y0070968D01*
X0108962Y0070182D02*
X0144788Y0070182D01*
X0144788Y0069396D02*
X0108962Y0069396D01*
X0108962Y0068610D02*
X0144788Y0068610D01*
X0144788Y0067824D02*
X0108962Y0067824D01*
X0108962Y0067038D02*
X0144788Y0067038D01*
X0141538Y0066252D02*
X0135520Y0066252D01*
X0136305Y0065467D02*
X0140752Y0065467D01*
X0139966Y0064681D02*
X0137091Y0064681D01*
X0137662Y0063895D02*
X0139395Y0063895D01*
X0139395Y0063109D02*
X0137662Y0063109D01*
X0137662Y0062323D02*
X0139395Y0062323D01*
X0139395Y0061537D02*
X0137662Y0061537D01*
X0137662Y0060751D02*
X0139395Y0060751D01*
X0140115Y0059965D02*
X0136943Y0059965D01*
X0136284Y0059179D02*
X0140900Y0059179D01*
X0141686Y0058393D02*
X0136284Y0058393D01*
X0136284Y0057607D02*
X0142820Y0057607D01*
X0142070Y0056822D02*
X0136284Y0056822D01*
X0136284Y0056036D02*
X0141442Y0056036D01*
X0141442Y0055250D02*
X0136284Y0055250D01*
X0136284Y0054464D02*
X0141442Y0054464D01*
X0141442Y0053678D02*
X0136284Y0053678D01*
X0136284Y0052892D02*
X0141442Y0052892D01*
X0141442Y0052106D02*
X0136284Y0052106D01*
X0136284Y0051320D02*
X0209552Y0051320D01*
X0192468Y0050534D02*
X0136730Y0050534D01*
X0132865Y0046605D02*
X0112308Y0046605D01*
X0112308Y0047391D02*
X0132079Y0047391D01*
X0131293Y0048176D02*
X0112308Y0048176D01*
X0112308Y0048962D02*
X0130908Y0048962D01*
X0130773Y0049748D02*
X0111667Y0049748D01*
X0112308Y0052106D02*
X0130773Y0052106D01*
X0130773Y0051320D02*
X0092977Y0051320D01*
X0092977Y0052106D02*
X0098135Y0052106D01*
X0098135Y0052892D02*
X0092977Y0052892D01*
X0092977Y0053678D02*
X0098135Y0053678D01*
X0098135Y0054464D02*
X0092977Y0054464D01*
X0092977Y0055250D02*
X0098135Y0055250D01*
X0098135Y0056036D02*
X0092977Y0056036D01*
X0092977Y0056822D02*
X0098763Y0056822D01*
X0099513Y0057607D02*
X0092977Y0057607D01*
X0092977Y0058393D02*
X0098379Y0058393D01*
X0097593Y0059179D02*
X0092977Y0059179D01*
X0093635Y0059965D02*
X0096807Y0059965D01*
X0096088Y0060751D02*
X0094355Y0060751D01*
X0094355Y0061537D02*
X0096088Y0061537D01*
X0096088Y0062323D02*
X0094355Y0062323D01*
X0094355Y0063109D02*
X0096088Y0063109D01*
X0096088Y0063895D02*
X0094355Y0063895D01*
X0093784Y0064681D02*
X0096659Y0064681D01*
X0097445Y0065467D02*
X0092998Y0065467D01*
X0092212Y0066252D02*
X0098230Y0066252D01*
X0104355Y0063895D02*
X0106088Y0063895D01*
X0106088Y0063109D02*
X0104355Y0063109D01*
X0104355Y0062323D02*
X0106088Y0062323D01*
X0106088Y0061537D02*
X0104355Y0061537D01*
X0104355Y0060751D02*
X0106088Y0060751D01*
X0106807Y0059965D02*
X0103635Y0059965D01*
X0103056Y0059179D02*
X0107387Y0059179D01*
X0107387Y0058393D02*
X0103056Y0058393D01*
X0103056Y0057607D02*
X0107387Y0057607D01*
X0106637Y0056822D02*
X0103806Y0056822D01*
X0104434Y0056036D02*
X0106009Y0056036D01*
X0106009Y0055250D02*
X0104434Y0055250D01*
X0104434Y0054464D02*
X0106009Y0054464D01*
X0106009Y0053678D02*
X0104434Y0053678D01*
X0104434Y0052892D02*
X0106009Y0052892D01*
X0106009Y0052106D02*
X0104434Y0052106D01*
X0112308Y0052892D02*
X0130773Y0052892D01*
X0130773Y0053678D02*
X0112308Y0053678D01*
X0112308Y0054464D02*
X0130773Y0054464D01*
X0130773Y0055250D02*
X0112308Y0055250D01*
X0112308Y0056036D02*
X0130773Y0056036D01*
X0130773Y0056822D02*
X0111680Y0056822D01*
X0110930Y0057607D02*
X0130773Y0057607D01*
X0130773Y0058393D02*
X0122364Y0058393D01*
X0122022Y0058051D02*
X0124568Y0060597D01*
X0124568Y0062004D01*
X0120615Y0062004D01*
X0120615Y0062791D01*
X0119828Y0062791D01*
X0119828Y0066744D01*
X0118421Y0066744D01*
X0115875Y0064198D01*
X0115875Y0062791D01*
X0119828Y0062791D01*
X0119828Y0062004D01*
X0115875Y0062004D01*
X0115875Y0060597D01*
X0118421Y0058051D01*
X0119828Y0058051D01*
X0119828Y0062004D01*
X0120615Y0062004D01*
X0120615Y0058051D01*
X0122022Y0058051D01*
X0120615Y0058393D02*
X0119828Y0058393D01*
X0119828Y0059179D02*
X0120615Y0059179D01*
X0120615Y0059965D02*
X0119828Y0059965D01*
X0119828Y0060751D02*
X0120615Y0060751D01*
X0120615Y0061537D02*
X0119828Y0061537D01*
X0119828Y0062323D02*
X0114355Y0062323D01*
X0114355Y0063109D02*
X0115875Y0063109D01*
X0115875Y0063895D02*
X0114355Y0063895D01*
X0113784Y0064681D02*
X0116358Y0064681D01*
X0117144Y0065467D02*
X0112998Y0065467D01*
X0112212Y0066252D02*
X0117930Y0066252D01*
X0119828Y0066252D02*
X0120615Y0066252D01*
X0120615Y0066744D02*
X0122022Y0066744D01*
X0124568Y0064198D01*
X0124568Y0062791D01*
X0120615Y0062791D01*
X0120615Y0066744D01*
X0120615Y0065467D02*
X0119828Y0065467D01*
X0119828Y0064681D02*
X0120615Y0064681D01*
X0120615Y0063895D02*
X0119828Y0063895D01*
X0119828Y0063109D02*
X0120615Y0063109D01*
X0120615Y0062323D02*
X0129395Y0062323D01*
X0129395Y0063109D02*
X0124568Y0063109D01*
X0124568Y0063895D02*
X0129395Y0063895D01*
X0129966Y0064681D02*
X0124085Y0064681D01*
X0123299Y0065467D02*
X0130752Y0065467D01*
X0131538Y0066252D02*
X0122513Y0066252D01*
X0124568Y0061537D02*
X0129395Y0061537D01*
X0129395Y0060751D02*
X0124568Y0060751D01*
X0123936Y0059965D02*
X0130115Y0059965D01*
X0130773Y0059179D02*
X0123150Y0059179D01*
X0118079Y0058393D02*
X0112064Y0058393D01*
X0112850Y0059179D02*
X0117293Y0059179D01*
X0116507Y0059965D02*
X0113635Y0059965D01*
X0114355Y0060751D02*
X0115875Y0060751D01*
X0115875Y0061537D02*
X0114355Y0061537D01*
X0105433Y0064681D02*
X0105010Y0064681D01*
X0105025Y0065467D02*
X0105418Y0065467D01*
X0105418Y0066252D02*
X0105025Y0066252D01*
X0105025Y0067038D02*
X0105418Y0067038D01*
X0105418Y0067824D02*
X0105025Y0067824D01*
X0105025Y0068610D02*
X0105418Y0068610D01*
X0105418Y0069396D02*
X0105025Y0069396D01*
X0105025Y0070182D02*
X0105418Y0070182D01*
X0105418Y0070968D02*
X0105025Y0070968D01*
X0105025Y0071754D02*
X0105418Y0071754D01*
X0105418Y0072540D02*
X0105025Y0072540D01*
X0105025Y0073326D02*
X0105418Y0073326D01*
X0105418Y0074112D02*
X0105025Y0074112D01*
X0105025Y0074898D02*
X0105418Y0074898D01*
X0105418Y0075683D02*
X0105025Y0075683D01*
X0105025Y0076469D02*
X0105418Y0076469D01*
X0105418Y0077255D02*
X0105025Y0077255D01*
X0105025Y0078041D02*
X0105418Y0078041D01*
X0105418Y0078827D02*
X0105025Y0078827D01*
X0105025Y0079613D02*
X0105418Y0079613D01*
X0105418Y0080399D02*
X0105025Y0080399D01*
X0105025Y0081185D02*
X0105418Y0081185D01*
X0113136Y0102404D02*
X0168017Y0102404D01*
X0168017Y0103190D02*
X0113489Y0103190D01*
X0101186Y0117337D02*
X0100595Y0117337D01*
X0098348Y0117337D02*
X0069001Y0117337D01*
X0069959Y0119695D02*
X0078732Y0119695D01*
X0084137Y0125982D02*
X0098119Y0125982D01*
X0098119Y0126768D02*
X0083351Y0126768D01*
X0078949Y0109478D02*
X0076088Y0109478D01*
X0075627Y0108692D02*
X0079734Y0108692D01*
X0079414Y0106334D02*
X0075947Y0106334D01*
X0076088Y0105548D02*
X0078628Y0105548D01*
X0102994Y0122052D02*
X0128840Y0122052D01*
X0129626Y0121266D02*
X0112685Y0121266D01*
X0109951Y0127554D02*
X0107877Y0127554D01*
X0107872Y0129125D02*
X0109956Y0129125D01*
X0112298Y0129125D02*
X0129040Y0129125D01*
X0129040Y0129911D02*
X0113084Y0129911D01*
X0113489Y0130697D02*
X0129040Y0130697D01*
X0129040Y0131483D02*
X0113489Y0131483D01*
X0113489Y0132269D02*
X0129040Y0132269D01*
X0129040Y0133055D02*
X0112708Y0133055D01*
X0103740Y0122838D02*
X0103024Y0122838D01*
X0103056Y0125389D02*
X0103056Y0125390D01*
X0101186Y0125390D01*
X0101186Y0125389D01*
X0103056Y0125389D01*
X0131998Y0121266D02*
X0133563Y0121266D01*
X0144166Y0113407D02*
X0168017Y0113407D01*
X0168017Y0112621D02*
X0144952Y0112621D01*
X0144985Y0111835D02*
X0168017Y0111835D01*
X0174016Y0108692D02*
X0178123Y0108692D01*
X0177662Y0109478D02*
X0174802Y0109478D01*
X0174336Y0106334D02*
X0177803Y0106334D01*
X0177662Y0105548D02*
X0175122Y0105548D01*
X0176284Y0101619D02*
X0177662Y0101619D01*
X0178108Y0100833D02*
X0176156Y0100833D01*
X0174553Y0096117D02*
X0184256Y0096117D01*
X0177662Y0113407D02*
X0176284Y0113407D01*
X0176284Y0114193D02*
X0177788Y0114193D01*
X0175691Y0114979D02*
X0209552Y0114979D01*
X0209552Y0115765D02*
X0174905Y0115765D01*
X0174119Y0116551D02*
X0209552Y0116551D01*
X0209552Y0123624D02*
X0176497Y0123624D01*
X0176497Y0124410D02*
X0209552Y0124410D01*
X0209552Y0125196D02*
X0175774Y0125196D01*
X0174988Y0125982D02*
X0209552Y0125982D01*
X0148725Y0086686D02*
X0148332Y0086686D01*
X0148332Y0085900D02*
X0148725Y0085900D01*
X0148725Y0085114D02*
X0148332Y0085114D01*
X0148332Y0084328D02*
X0148725Y0084328D01*
X0148725Y0083543D02*
X0148332Y0083543D01*
X0148332Y0082757D02*
X0148725Y0082757D01*
X0148725Y0081971D02*
X0148332Y0081971D01*
X0148332Y0081185D02*
X0148725Y0081185D01*
X0148725Y0080399D02*
X0148332Y0080399D01*
X0148332Y0079613D02*
X0148725Y0079613D01*
X0148725Y0078827D02*
X0148332Y0078827D01*
X0148332Y0078041D02*
X0148725Y0078041D01*
X0148725Y0077255D02*
X0148332Y0077255D01*
X0148332Y0076469D02*
X0148725Y0076469D01*
X0148725Y0075683D02*
X0148332Y0075683D01*
X0148332Y0074898D02*
X0148725Y0074898D01*
X0148725Y0074112D02*
X0148332Y0074112D01*
X0148332Y0073326D02*
X0148725Y0073326D01*
X0148725Y0072540D02*
X0148332Y0072540D01*
X0148332Y0071754D02*
X0148725Y0071754D01*
X0148725Y0070968D02*
X0148332Y0070968D01*
X0148332Y0070182D02*
X0148725Y0070182D01*
X0148725Y0069396D02*
X0148332Y0069396D01*
X0148332Y0068610D02*
X0148725Y0068610D01*
X0148725Y0067824D02*
X0148332Y0067824D01*
X0148332Y0067038D02*
X0148725Y0067038D01*
X0148725Y0066252D02*
X0148332Y0066252D01*
X0148332Y0065467D02*
X0148725Y0065467D01*
X0148740Y0064681D02*
X0148317Y0064681D01*
X0147662Y0063895D02*
X0149395Y0063895D01*
X0149395Y0063109D02*
X0147662Y0063109D01*
X0147662Y0062323D02*
X0149395Y0062323D01*
X0149395Y0061537D02*
X0147662Y0061537D01*
X0147662Y0060751D02*
X0149395Y0060751D01*
X0150115Y0059965D02*
X0146943Y0059965D01*
X0146363Y0059179D02*
X0150694Y0059179D01*
X0150694Y0058393D02*
X0146363Y0058393D01*
X0146363Y0057607D02*
X0150694Y0057607D01*
X0149944Y0056822D02*
X0147113Y0056822D01*
X0147741Y0056036D02*
X0149316Y0056036D01*
X0149316Y0055250D02*
X0147741Y0055250D01*
X0147741Y0054464D02*
X0149316Y0054464D01*
X0149316Y0053678D02*
X0147741Y0053678D01*
X0147741Y0052892D02*
X0149316Y0052892D01*
X0149316Y0052106D02*
X0147741Y0052106D01*
X0134437Y0045033D02*
X0112308Y0045033D01*
X0112308Y0045819D02*
X0133651Y0045819D01*
X0130773Y0050534D02*
X0093423Y0050534D01*
D18*
X0090221Y0049838D02*
X0090221Y0062397D01*
X0090221Y0049838D02*
X0093017Y0047043D01*
X0101284Y0047043D01*
X0109158Y0047043D01*
X0133529Y0049838D02*
X0136324Y0047043D01*
X0144592Y0047043D01*
X0152466Y0047043D01*
X0133529Y0049838D02*
X0133529Y0062397D01*
X0172151Y0092673D02*
X0184710Y0092673D01*
X0187505Y0095468D01*
X0187505Y0103736D01*
X0187505Y0111610D01*
X0111875Y0152949D02*
X0111127Y0152949D01*
X0081599Y0122673D02*
X0069040Y0122673D01*
X0066245Y0119878D01*
X0066245Y0111610D01*
X0066245Y0103736D01*
M02*
