G75*
%MOIN*%
%OFA0B0*%
%FSLAX25Y25*%
%IPPOS*%
%LPD*%
%AMOC8*
5,1,8,0,0,1.08239X$1,22.5*
%
%ADD10C,0.01200*%
%ADD11R,0.11811X0.11811*%
%ADD12R,0.04724X0.01378*%
%ADD13R,0.01378X0.04724*%
%ADD14R,0.03150X0.03937*%
%ADD15R,0.03937X0.03150*%
%ADD16R,0.03937X0.03937*%
%ADD17R,0.05906X0.05906*%
%ADD18C,0.05906*%
%ADD19OC8,0.05906*%
%ADD20C,0.01181*%
%ADD21C,0.02362*%
%ADD22C,0.00787*%
%ADD23C,0.01575*%
%ADD24C,0.03937*%
%ADD25C,0.03150*%
D10*
X0088279Y0058123D02*
X0089247Y0057155D01*
X0091182Y0057155D01*
X0092149Y0058123D01*
X0094725Y0057155D02*
X0094725Y0062960D01*
X0092149Y0061993D02*
X0091182Y0062960D01*
X0089247Y0062960D01*
X0088279Y0061993D01*
X0088279Y0058123D01*
X0094725Y0060058D02*
X0098595Y0060058D01*
X0101170Y0061025D02*
X0103105Y0062960D01*
X0103105Y0057155D01*
X0101170Y0057155D02*
X0105040Y0057155D01*
X0098595Y0057155D02*
X0098595Y0062960D01*
X0155208Y0061993D02*
X0155208Y0058123D01*
X0156176Y0057155D01*
X0158111Y0057155D01*
X0159078Y0058123D01*
X0161654Y0057155D02*
X0161654Y0062960D01*
X0159078Y0061993D02*
X0158111Y0062960D01*
X0156176Y0062960D01*
X0155208Y0061993D01*
X0161654Y0060058D02*
X0165524Y0060058D01*
X0165524Y0062960D02*
X0165524Y0057155D01*
X0168099Y0057155D02*
X0171969Y0061025D01*
X0171969Y0061993D01*
X0171002Y0062960D01*
X0169067Y0062960D01*
X0168099Y0061993D01*
X0168099Y0057155D02*
X0171969Y0057155D01*
X0173004Y0120147D02*
X0172036Y0121115D01*
X0173004Y0120147D02*
X0174939Y0120147D01*
X0175906Y0121115D01*
X0175906Y0122082D01*
X0174939Y0123050D01*
X0173971Y0123050D01*
X0174939Y0123050D02*
X0175906Y0124017D01*
X0175906Y0124985D01*
X0174939Y0125952D01*
X0173004Y0125952D01*
X0172036Y0124985D01*
X0169461Y0125952D02*
X0169461Y0120147D01*
X0169461Y0123050D02*
X0165591Y0123050D01*
X0165591Y0125952D02*
X0165591Y0120147D01*
X0163015Y0121115D02*
X0162048Y0120147D01*
X0160113Y0120147D01*
X0159145Y0121115D01*
X0159145Y0124985D01*
X0160113Y0125952D01*
X0162048Y0125952D01*
X0163015Y0124985D01*
X0097560Y0165423D02*
X0096592Y0166390D01*
X0096592Y0170260D01*
X0095625Y0169293D02*
X0097560Y0169293D01*
X0093049Y0169293D02*
X0090147Y0169293D01*
X0089179Y0168325D01*
X0090147Y0167358D01*
X0092082Y0167358D01*
X0093049Y0166390D01*
X0092082Y0165423D01*
X0089179Y0165423D01*
X0086604Y0166390D02*
X0086604Y0168325D01*
X0085636Y0169293D01*
X0083701Y0169293D01*
X0082734Y0168325D01*
X0082734Y0166390D01*
X0083701Y0165423D01*
X0085636Y0165423D01*
X0086604Y0166390D01*
X0080158Y0165423D02*
X0080158Y0171228D01*
X0080158Y0168325D02*
X0076288Y0168325D01*
X0076288Y0165423D02*
X0076288Y0171228D01*
X0079404Y0125952D02*
X0078437Y0124985D01*
X0078437Y0121115D01*
X0079404Y0120147D01*
X0081339Y0120147D01*
X0082307Y0121115D01*
X0084882Y0120147D02*
X0084882Y0125952D01*
X0082307Y0124985D02*
X0081339Y0125952D01*
X0079404Y0125952D01*
X0084882Y0123050D02*
X0088752Y0123050D01*
X0088752Y0125952D02*
X0088752Y0120147D01*
X0091328Y0121115D02*
X0091328Y0124985D01*
X0092295Y0125952D01*
X0094230Y0125952D01*
X0095198Y0124985D01*
X0091328Y0121115D01*
X0092295Y0120147D01*
X0094230Y0120147D01*
X0095198Y0121115D01*
X0095198Y0124985D01*
D11*
X0126875Y0093520D03*
D12*
X0137505Y0093520D03*
X0137505Y0096079D03*
X0137505Y0098638D03*
X0137505Y0090961D03*
X0137505Y0088402D03*
X0116245Y0088402D03*
X0116245Y0090961D03*
X0116245Y0093520D03*
X0116245Y0096079D03*
X0116245Y0098638D03*
D13*
X0121757Y0104150D03*
X0124316Y0104150D03*
X0126875Y0104150D03*
X0129434Y0104150D03*
X0131993Y0104150D03*
X0131993Y0082890D03*
X0129434Y0082890D03*
X0126875Y0082890D03*
X0124316Y0082890D03*
X0121757Y0082890D03*
D14*
X0106796Y0089583D03*
X0099710Y0089583D03*
X0099710Y0097457D03*
X0099710Y0105331D03*
X0099710Y0111236D03*
X0099710Y0117142D03*
X0106796Y0117142D03*
X0106796Y0111236D03*
X0106796Y0105331D03*
X0106796Y0097457D03*
X0146954Y0097457D03*
X0154040Y0097457D03*
X0154040Y0089583D03*
X0154040Y0083677D03*
X0146954Y0083677D03*
X0146954Y0089583D03*
D15*
X0136718Y0113598D03*
X0130812Y0113598D03*
X0130812Y0120685D03*
X0136718Y0120685D03*
D16*
X0124907Y0120685D03*
X0124907Y0113598D03*
D17*
X0141639Y0138795D03*
X0172151Y0078756D03*
X0137702Y0048244D03*
X0086521Y0048244D03*
X0081599Y0108283D03*
D18*
X0081599Y0098441D03*
X0081599Y0088598D03*
X0081599Y0078756D03*
X0096363Y0048244D03*
X0106206Y0048244D03*
X0116048Y0048244D03*
X0147544Y0048244D03*
X0157387Y0048244D03*
X0167229Y0048244D03*
X0172151Y0088598D03*
X0172151Y0098441D03*
X0172151Y0108283D03*
X0131796Y0138795D03*
X0121954Y0138795D03*
X0112111Y0138795D03*
D19*
X0069883Y0135921D03*
X0069883Y0125921D03*
X0069883Y0059150D03*
X0069883Y0049150D03*
X0183867Y0051118D03*
X0183867Y0061118D03*
X0183867Y0125921D03*
X0183867Y0135921D03*
D20*
X0146954Y0097457D02*
X0146560Y0097457D01*
X0142623Y0101394D01*
X0140655Y0101394D01*
X0137899Y0098638D01*
X0137505Y0098638D01*
X0137505Y0096079D02*
X0141245Y0096079D01*
X0142623Y0097457D01*
X0142623Y0093520D02*
X0137505Y0093520D01*
X0137505Y0090961D02*
X0141245Y0090961D01*
X0142623Y0089583D01*
X0146954Y0089583D01*
X0146954Y0083677D02*
X0141048Y0077772D01*
X0130812Y0077772D01*
X0129434Y0079150D01*
X0129434Y0082890D01*
X0126875Y0082890D02*
X0126875Y0083677D01*
X0126875Y0082890D02*
X0126875Y0093520D01*
X0137505Y0088402D02*
X0137505Y0086827D01*
X0138686Y0085646D01*
X0135536Y0082890D02*
X0136718Y0081709D01*
X0135536Y0082890D02*
X0131993Y0082890D01*
X0126875Y0082890D02*
X0126875Y0077772D01*
X0124316Y0079150D02*
X0122938Y0077772D01*
X0109158Y0077772D01*
X0105221Y0081709D02*
X0117033Y0081709D01*
X0118214Y0082890D01*
X0121757Y0082890D01*
X0124316Y0082890D02*
X0124316Y0079150D01*
X0116245Y0088402D02*
X0115851Y0088402D01*
X0113095Y0085646D01*
X0111127Y0085646D01*
X0107190Y0089583D01*
X0106796Y0089583D01*
X0111127Y0089583D02*
X0112505Y0090961D01*
X0116245Y0090961D01*
X0116245Y0093520D02*
X0111127Y0093520D01*
X0112505Y0096079D02*
X0111127Y0097457D01*
X0106796Y0097457D01*
X0112505Y0096079D02*
X0116245Y0096079D01*
X0116245Y0098638D02*
X0116245Y0100213D01*
X0111127Y0105331D01*
X0106796Y0105331D01*
X0106796Y0111236D02*
X0111127Y0111236D01*
X0117033Y0105331D01*
X0120576Y0105331D01*
X0121757Y0105331D01*
X0120576Y0105331D02*
X0121757Y0104150D01*
X0124316Y0104150D02*
X0124316Y0107890D01*
X0122938Y0109268D01*
X0119001Y0109268D01*
X0111127Y0117142D01*
X0106796Y0117142D01*
X0130812Y0113598D02*
X0130812Y0109268D01*
X0129434Y0107890D01*
X0129434Y0104150D01*
X0131993Y0104150D02*
X0131993Y0106512D01*
X0134749Y0109268D01*
X0134749Y0111630D01*
X0136718Y0113598D01*
X0141639Y0138795D02*
X0142623Y0138795D01*
D21*
X0124907Y0125016D03*
X0111127Y0117142D03*
X0111127Y0111236D03*
X0111127Y0105331D03*
X0111127Y0093520D03*
X0111127Y0089583D03*
X0105221Y0081709D03*
X0109158Y0077772D03*
X0122938Y0093520D03*
X0126875Y0097457D03*
X0130812Y0093520D03*
X0126875Y0089583D03*
X0136718Y0081709D03*
X0138686Y0085646D03*
X0142623Y0093520D03*
X0142623Y0097457D03*
X0134749Y0109268D03*
X0130812Y0109268D03*
D22*
X0044198Y0150213D02*
X0044198Y0036827D01*
X0059910Y0036827D01*
X0063587Y0035632D01*
X0063587Y0035632D01*
X0066715Y0033360D01*
X0066715Y0033360D01*
X0066715Y0033360D01*
X0068987Y0030232D01*
X0068987Y0030232D01*
X0070182Y0026555D01*
X0070182Y0010843D01*
X0183568Y0010843D01*
X0183568Y0026555D01*
X0184763Y0030232D01*
X0184763Y0030232D01*
X0187035Y0033360D01*
X0187035Y0033360D01*
X0190163Y0035632D01*
X0190163Y0035632D01*
X0193840Y0036827D01*
X0195610Y0036827D01*
X0209552Y0036827D01*
X0209552Y0150213D01*
X0193840Y0150213D01*
X0190163Y0151407D01*
X0190163Y0151407D01*
X0187035Y0153680D01*
X0187035Y0153680D01*
X0184763Y0156807D01*
X0184763Y0156807D01*
X0183568Y0160484D01*
X0183568Y0176197D01*
X0070182Y0176197D01*
X0070182Y0160484D01*
X0068987Y0156807D01*
X0068987Y0156807D01*
X0066715Y0153680D01*
X0066715Y0153680D01*
X0066715Y0153680D01*
X0063587Y0151407D01*
X0063587Y0151407D01*
X0059910Y0150213D01*
X0044198Y0150213D01*
X0044198Y0149552D02*
X0209552Y0149552D01*
X0209552Y0148767D02*
X0044198Y0148767D01*
X0044198Y0147981D02*
X0209552Y0147981D01*
X0209552Y0147195D02*
X0044198Y0147195D01*
X0044198Y0146409D02*
X0209552Y0146409D01*
X0209552Y0145623D02*
X0044198Y0145623D01*
X0044198Y0144837D02*
X0209552Y0144837D01*
X0209552Y0144051D02*
X0044198Y0144051D01*
X0044198Y0143265D02*
X0209552Y0143265D01*
X0209552Y0142479D02*
X0145531Y0142479D01*
X0145773Y0142237D02*
X0145081Y0142929D01*
X0138197Y0142929D01*
X0137505Y0142237D01*
X0137505Y0135353D01*
X0138197Y0134661D01*
X0139473Y0134661D01*
X0139473Y0132102D01*
X0102859Y0132102D01*
X0102859Y0136548D01*
X0102380Y0137705D01*
X0101494Y0138591D01*
X0100336Y0139071D01*
X0072579Y0139071D01*
X0071595Y0140055D01*
X0068171Y0140055D01*
X0065749Y0137634D01*
X0065749Y0134209D01*
X0068171Y0131787D01*
X0071595Y0131787D01*
X0072579Y0132772D01*
X0096560Y0132772D01*
X0096560Y0126141D01*
X0095935Y0126766D01*
X0094968Y0127733D01*
X0091557Y0127733D01*
X0090567Y0126742D01*
X0090524Y0126700D01*
X0089490Y0127733D01*
X0088014Y0127733D01*
X0086971Y0126690D01*
X0086971Y0124831D01*
X0086663Y0124831D01*
X0086663Y0126690D01*
X0085620Y0127733D01*
X0084144Y0127733D01*
X0083111Y0126700D01*
X0082077Y0127733D01*
X0078666Y0127733D01*
X0077646Y0126713D01*
X0077623Y0126690D01*
X0076670Y0125737D01*
X0076656Y0125722D01*
X0076656Y0120377D01*
X0077623Y0119409D01*
X0078666Y0118366D01*
X0082077Y0118366D01*
X0083111Y0119400D01*
X0084144Y0118366D01*
X0085620Y0118366D01*
X0086663Y0119409D01*
X0086663Y0121269D01*
X0086971Y0121269D01*
X0086971Y0119409D01*
X0088014Y0118366D01*
X0089490Y0118366D01*
X0090524Y0119400D01*
X0090590Y0119334D01*
X0091557Y0118366D01*
X0094968Y0118366D01*
X0094982Y0118381D01*
X0095935Y0119334D01*
X0095935Y0119334D01*
X0095959Y0119357D01*
X0096560Y0119958D01*
X0096560Y0071079D01*
X0069256Y0071079D01*
X0068099Y0070599D01*
X0067213Y0069713D01*
X0066733Y0068556D01*
X0066733Y0061846D01*
X0065749Y0060862D01*
X0065749Y0057437D01*
X0068171Y0055016D01*
X0071595Y0055016D01*
X0074017Y0057437D01*
X0074017Y0060862D01*
X0073032Y0061846D01*
X0073032Y0064780D01*
X0100336Y0064780D01*
X0101494Y0065259D01*
X0102380Y0066145D01*
X0102859Y0067303D01*
X0102859Y0125803D01*
X0115851Y0125803D01*
X0115851Y0114923D01*
X0113489Y0117285D01*
X0113489Y0118120D01*
X0112105Y0119504D01*
X0110149Y0119504D01*
X0109558Y0118913D01*
X0109552Y0118913D01*
X0109552Y0119599D01*
X0108860Y0120291D01*
X0104732Y0120291D01*
X0104040Y0119599D01*
X0104040Y0114684D01*
X0104535Y0114189D01*
X0104040Y0113694D01*
X0104040Y0108778D01*
X0104535Y0108283D01*
X0104040Y0107788D01*
X0104040Y0102873D01*
X0104732Y0102181D01*
X0108860Y0102181D01*
X0109552Y0102873D01*
X0109552Y0103559D01*
X0109558Y0103559D01*
X0110149Y0102969D01*
X0110984Y0102969D01*
X0113444Y0100508D01*
X0113394Y0100508D01*
X0112702Y0099816D01*
X0112702Y0098387D01*
X0111861Y0099228D01*
X0109552Y0099228D01*
X0109552Y0099914D01*
X0108860Y0100606D01*
X0104732Y0100606D01*
X0104040Y0099914D01*
X0104040Y0094999D01*
X0104732Y0094307D01*
X0108765Y0094307D01*
X0108765Y0092732D01*
X0104732Y0092732D01*
X0104040Y0092040D01*
X0104040Y0087125D01*
X0104732Y0086433D01*
X0107834Y0086433D01*
X0109355Y0084912D01*
X0110393Y0083874D01*
X0113829Y0083874D01*
X0114867Y0084912D01*
X0116487Y0086531D01*
X0119097Y0086531D01*
X0119665Y0087100D01*
X0119671Y0087076D01*
X0119854Y0086758D01*
X0120114Y0086499D01*
X0120432Y0086315D01*
X0120455Y0086309D01*
X0119887Y0085741D01*
X0119887Y0084661D01*
X0117480Y0084661D01*
X0116299Y0083480D01*
X0106790Y0083480D01*
X0106200Y0084071D01*
X0104243Y0084071D01*
X0102859Y0082687D01*
X0102859Y0080730D01*
X0104243Y0079346D01*
X0106200Y0079346D01*
X0106790Y0079937D01*
X0107983Y0079937D01*
X0106796Y0078750D01*
X0106796Y0076793D01*
X0108180Y0075409D01*
X0110137Y0075409D01*
X0110727Y0076000D01*
X0123672Y0076000D01*
X0124710Y0077038D01*
X0126088Y0078416D01*
X0126088Y0079134D01*
X0126875Y0079134D01*
X0126875Y0082890D01*
X0126875Y0086646D01*
X0126875Y0082890D01*
X0126875Y0082890D01*
X0126875Y0079134D01*
X0127662Y0079134D01*
X0127662Y0078416D01*
X0129040Y0077038D01*
X0130078Y0076000D01*
X0141782Y0076000D01*
X0142820Y0077038D01*
X0146310Y0080528D01*
X0149018Y0080528D01*
X0149710Y0081219D01*
X0149710Y0086135D01*
X0149215Y0086630D01*
X0149710Y0087125D01*
X0149710Y0092040D01*
X0149018Y0092732D01*
X0144985Y0092732D01*
X0144985Y0094307D01*
X0149018Y0094307D01*
X0149710Y0094999D01*
X0149710Y0099914D01*
X0149018Y0100606D01*
X0145916Y0100606D01*
X0144395Y0102128D01*
X0143357Y0103165D01*
X0139921Y0103165D01*
X0138883Y0102128D01*
X0137263Y0100508D01*
X0134654Y0100508D01*
X0134085Y0099940D01*
X0134079Y0099963D01*
X0133896Y0100281D01*
X0133636Y0100540D01*
X0133318Y0100724D01*
X0133295Y0100730D01*
X0133863Y0101298D01*
X0133863Y0105876D01*
X0134892Y0106906D01*
X0135727Y0106906D01*
X0137111Y0108289D01*
X0137111Y0110246D01*
X0136521Y0110837D01*
X0136521Y0110843D01*
X0139175Y0110843D01*
X0139867Y0111534D01*
X0139867Y0115662D01*
X0139175Y0116354D01*
X0134260Y0116354D01*
X0133765Y0115859D01*
X0133270Y0116354D01*
X0128354Y0116354D01*
X0128056Y0116056D01*
X0128056Y0116056D01*
X0127364Y0116748D01*
X0122449Y0116748D01*
X0122151Y0116450D01*
X0122151Y0117562D01*
X0122400Y0117418D01*
X0122755Y0117323D01*
X0124513Y0117323D01*
X0124513Y0120291D01*
X0125300Y0120291D01*
X0125300Y0117323D01*
X0127059Y0117323D01*
X0127413Y0117418D01*
X0127731Y0117601D01*
X0127990Y0117861D01*
X0128149Y0118135D01*
X0128354Y0117929D01*
X0129235Y0117929D01*
X0130186Y0117535D01*
X0137344Y0117535D01*
X0138295Y0117929D01*
X0139175Y0117929D01*
X0139867Y0118621D01*
X0139867Y0122749D01*
X0139175Y0123441D01*
X0138295Y0123441D01*
X0137344Y0123835D01*
X0133962Y0123835D01*
X0133962Y0125803D01*
X0150891Y0125803D01*
X0150891Y0067303D01*
X0151370Y0066145D01*
X0152256Y0065259D01*
X0153414Y0064780D01*
X0180718Y0064780D01*
X0180718Y0063815D01*
X0179733Y0062830D01*
X0179733Y0059406D01*
X0182155Y0056984D01*
X0185579Y0056984D01*
X0188001Y0059406D01*
X0188001Y0062830D01*
X0187017Y0063815D01*
X0187017Y0068556D01*
X0186537Y0069713D01*
X0185651Y0070599D01*
X0184494Y0071079D01*
X0157190Y0071079D01*
X0157190Y0132772D01*
X0181171Y0132772D01*
X0182155Y0131787D01*
X0185579Y0131787D01*
X0188001Y0134209D01*
X0188001Y0137634D01*
X0185579Y0140055D01*
X0182155Y0140055D01*
X0181171Y0139071D01*
X0153414Y0139071D01*
X0152256Y0138591D01*
X0151370Y0137705D01*
X0150891Y0136548D01*
X0150891Y0132102D01*
X0145773Y0132102D01*
X0145773Y0142237D01*
X0145773Y0141693D02*
X0209552Y0141693D01*
X0209552Y0140907D02*
X0145773Y0140907D01*
X0145773Y0140121D02*
X0209552Y0140121D01*
X0209552Y0139336D02*
X0186299Y0139336D01*
X0187085Y0138550D02*
X0209552Y0138550D01*
X0209552Y0137764D02*
X0187871Y0137764D01*
X0188001Y0136978D02*
X0209552Y0136978D01*
X0209552Y0136192D02*
X0188001Y0136192D01*
X0188001Y0135406D02*
X0209552Y0135406D01*
X0209552Y0134620D02*
X0188001Y0134620D01*
X0187626Y0133834D02*
X0209552Y0133834D01*
X0209552Y0133048D02*
X0186840Y0133048D01*
X0186054Y0132262D02*
X0209552Y0132262D01*
X0209552Y0131476D02*
X0157190Y0131476D01*
X0157190Y0130691D02*
X0209552Y0130691D01*
X0209552Y0129905D02*
X0185730Y0129905D01*
X0185579Y0130055D02*
X0182155Y0130055D01*
X0179733Y0127634D01*
X0179733Y0124209D01*
X0180718Y0123225D01*
X0180718Y0081905D01*
X0176284Y0081905D01*
X0176284Y0082198D01*
X0175593Y0082890D01*
X0168709Y0082890D01*
X0168017Y0082198D01*
X0168017Y0075314D01*
X0168709Y0074622D01*
X0175593Y0074622D01*
X0176284Y0075314D01*
X0176284Y0075606D01*
X0184494Y0075606D01*
X0185651Y0076086D01*
X0186537Y0076972D01*
X0187017Y0078129D01*
X0187017Y0123225D01*
X0188001Y0124209D01*
X0188001Y0127634D01*
X0185579Y0130055D01*
X0186516Y0129119D02*
X0209552Y0129119D01*
X0209552Y0128333D02*
X0187302Y0128333D01*
X0188001Y0127547D02*
X0209552Y0127547D01*
X0209552Y0126761D02*
X0188001Y0126761D01*
X0188001Y0125975D02*
X0209552Y0125975D01*
X0209552Y0125189D02*
X0188001Y0125189D01*
X0188001Y0124403D02*
X0209552Y0124403D01*
X0209552Y0123617D02*
X0187409Y0123617D01*
X0187017Y0122831D02*
X0209552Y0122831D01*
X0209552Y0122045D02*
X0187017Y0122045D01*
X0187017Y0121260D02*
X0209552Y0121260D01*
X0209552Y0120474D02*
X0187017Y0120474D01*
X0187017Y0119688D02*
X0209552Y0119688D01*
X0209552Y0118902D02*
X0187017Y0118902D01*
X0187017Y0118116D02*
X0209552Y0118116D01*
X0209552Y0117330D02*
X0187017Y0117330D01*
X0187017Y0116544D02*
X0209552Y0116544D01*
X0209552Y0115758D02*
X0187017Y0115758D01*
X0187017Y0114972D02*
X0209552Y0114972D01*
X0209552Y0114186D02*
X0187017Y0114186D01*
X0187017Y0113400D02*
X0209552Y0113400D01*
X0209552Y0112615D02*
X0187017Y0112615D01*
X0187017Y0111829D02*
X0209552Y0111829D01*
X0209552Y0111043D02*
X0187017Y0111043D01*
X0187017Y0110257D02*
X0209552Y0110257D01*
X0209552Y0109471D02*
X0187017Y0109471D01*
X0187017Y0108685D02*
X0209552Y0108685D01*
X0209552Y0107899D02*
X0187017Y0107899D01*
X0187017Y0107113D02*
X0209552Y0107113D01*
X0209552Y0106327D02*
X0187017Y0106327D01*
X0187017Y0105541D02*
X0209552Y0105541D01*
X0209552Y0104755D02*
X0187017Y0104755D01*
X0187017Y0103969D02*
X0209552Y0103969D01*
X0209552Y0103184D02*
X0187017Y0103184D01*
X0187017Y0102398D02*
X0209552Y0102398D01*
X0209552Y0101612D02*
X0187017Y0101612D01*
X0187017Y0100826D02*
X0209552Y0100826D01*
X0209552Y0100040D02*
X0187017Y0100040D01*
X0187017Y0099254D02*
X0209552Y0099254D01*
X0209552Y0098468D02*
X0187017Y0098468D01*
X0187017Y0097682D02*
X0209552Y0097682D01*
X0209552Y0096896D02*
X0187017Y0096896D01*
X0187017Y0096110D02*
X0209552Y0096110D01*
X0209552Y0095324D02*
X0187017Y0095324D01*
X0187017Y0094539D02*
X0209552Y0094539D01*
X0209552Y0093753D02*
X0187017Y0093753D01*
X0187017Y0092967D02*
X0209552Y0092967D01*
X0209552Y0092181D02*
X0187017Y0092181D01*
X0187017Y0091395D02*
X0209552Y0091395D01*
X0209552Y0090609D02*
X0187017Y0090609D01*
X0187017Y0089823D02*
X0209552Y0089823D01*
X0209552Y0089037D02*
X0187017Y0089037D01*
X0187017Y0088251D02*
X0209552Y0088251D01*
X0209552Y0087465D02*
X0187017Y0087465D01*
X0187017Y0086679D02*
X0209552Y0086679D01*
X0209552Y0085893D02*
X0187017Y0085893D01*
X0187017Y0085108D02*
X0209552Y0085108D01*
X0209552Y0084322D02*
X0187017Y0084322D01*
X0187017Y0083536D02*
X0209552Y0083536D01*
X0209552Y0082750D02*
X0187017Y0082750D01*
X0187017Y0081964D02*
X0209552Y0081964D01*
X0209552Y0081178D02*
X0187017Y0081178D01*
X0187017Y0080392D02*
X0209552Y0080392D01*
X0209552Y0079606D02*
X0187017Y0079606D01*
X0187017Y0078820D02*
X0209552Y0078820D01*
X0209552Y0078034D02*
X0186977Y0078034D01*
X0186652Y0077248D02*
X0209552Y0077248D01*
X0209552Y0076463D02*
X0186028Y0076463D01*
X0184663Y0075677D02*
X0209552Y0075677D01*
X0209552Y0074891D02*
X0175861Y0074891D01*
X0176284Y0081964D02*
X0180718Y0081964D01*
X0180718Y0082750D02*
X0175733Y0082750D01*
X0174492Y0085094D02*
X0175655Y0086257D01*
X0176284Y0087776D01*
X0176284Y0089421D01*
X0175655Y0090940D01*
X0174492Y0092103D01*
X0172973Y0092732D01*
X0171328Y0092732D01*
X0169809Y0092103D01*
X0168646Y0090940D01*
X0168017Y0089421D01*
X0168017Y0087776D01*
X0168646Y0086257D01*
X0169809Y0085094D01*
X0171328Y0084465D01*
X0172973Y0084465D01*
X0174492Y0085094D01*
X0174506Y0085108D02*
X0180718Y0085108D01*
X0180718Y0085893D02*
X0175292Y0085893D01*
X0175830Y0086679D02*
X0180718Y0086679D01*
X0180718Y0087465D02*
X0176156Y0087465D01*
X0176284Y0088251D02*
X0180718Y0088251D01*
X0180718Y0089037D02*
X0176284Y0089037D01*
X0176118Y0089823D02*
X0180718Y0089823D01*
X0180718Y0090609D02*
X0175792Y0090609D01*
X0175200Y0091395D02*
X0180718Y0091395D01*
X0180718Y0092181D02*
X0174304Y0092181D01*
X0173532Y0094539D02*
X0180718Y0094539D01*
X0180718Y0095324D02*
X0174880Y0095324D01*
X0174492Y0094936D02*
X0175655Y0096099D01*
X0176284Y0097619D01*
X0176284Y0099263D01*
X0175655Y0100783D01*
X0174492Y0101945D01*
X0172973Y0102575D01*
X0171328Y0102575D01*
X0169809Y0101945D01*
X0168646Y0100783D01*
X0168017Y0099263D01*
X0168017Y0097619D01*
X0168646Y0096099D01*
X0169809Y0094936D01*
X0171328Y0094307D01*
X0172973Y0094307D01*
X0174492Y0094936D01*
X0175660Y0096110D02*
X0180718Y0096110D01*
X0180718Y0096896D02*
X0175985Y0096896D01*
X0176284Y0097682D02*
X0180718Y0097682D01*
X0180718Y0098468D02*
X0176284Y0098468D01*
X0176284Y0099254D02*
X0180718Y0099254D01*
X0180718Y0100040D02*
X0175963Y0100040D01*
X0175612Y0100826D02*
X0180718Y0100826D01*
X0180718Y0101612D02*
X0174826Y0101612D01*
X0173401Y0102398D02*
X0180718Y0102398D01*
X0180718Y0103184D02*
X0157190Y0103184D01*
X0157190Y0103969D02*
X0171604Y0103969D01*
X0171757Y0103969D02*
X0172544Y0103969D01*
X0172544Y0103945D02*
X0173168Y0104044D01*
X0173819Y0104255D01*
X0174429Y0104566D01*
X0174982Y0104968D01*
X0175466Y0105452D01*
X0175868Y0106005D01*
X0176179Y0106615D01*
X0176390Y0107266D01*
X0176489Y0107890D01*
X0172544Y0107890D01*
X0172544Y0103945D01*
X0172698Y0103969D02*
X0180718Y0103969D01*
X0180718Y0104755D02*
X0174689Y0104755D01*
X0175531Y0105541D02*
X0180718Y0105541D01*
X0180718Y0106327D02*
X0176032Y0106327D01*
X0176340Y0107113D02*
X0180718Y0107113D01*
X0180718Y0107899D02*
X0172544Y0107899D01*
X0172544Y0107890D02*
X0172544Y0108677D01*
X0171757Y0108677D01*
X0171757Y0107890D01*
X0167812Y0107890D01*
X0167911Y0107266D01*
X0168123Y0106615D01*
X0168433Y0106005D01*
X0168835Y0105452D01*
X0169319Y0104968D01*
X0169873Y0104566D01*
X0170482Y0104255D01*
X0171133Y0104044D01*
X0171757Y0103945D01*
X0171757Y0107890D01*
X0172544Y0107890D01*
X0172544Y0107113D02*
X0171757Y0107113D01*
X0171757Y0106327D02*
X0172544Y0106327D01*
X0172544Y0105541D02*
X0171757Y0105541D01*
X0171757Y0104755D02*
X0172544Y0104755D01*
X0170901Y0102398D02*
X0157190Y0102398D01*
X0157190Y0101612D02*
X0169475Y0101612D01*
X0168689Y0100826D02*
X0157190Y0100826D01*
X0157190Y0100040D02*
X0168338Y0100040D01*
X0168017Y0099254D02*
X0157190Y0099254D01*
X0157190Y0098468D02*
X0168017Y0098468D01*
X0168017Y0097682D02*
X0157190Y0097682D01*
X0157190Y0096896D02*
X0168316Y0096896D01*
X0168642Y0096110D02*
X0157190Y0096110D01*
X0157190Y0095324D02*
X0169421Y0095324D01*
X0170770Y0094539D02*
X0157190Y0094539D01*
X0157190Y0093753D02*
X0180718Y0093753D01*
X0180718Y0092967D02*
X0157190Y0092967D01*
X0157190Y0092181D02*
X0169997Y0092181D01*
X0169101Y0091395D02*
X0157190Y0091395D01*
X0157190Y0090609D02*
X0168509Y0090609D01*
X0168183Y0089823D02*
X0157190Y0089823D01*
X0157190Y0089037D02*
X0168017Y0089037D01*
X0168017Y0088251D02*
X0157190Y0088251D01*
X0157190Y0087465D02*
X0168146Y0087465D01*
X0168471Y0086679D02*
X0157190Y0086679D01*
X0157190Y0085893D02*
X0169009Y0085893D01*
X0169795Y0085108D02*
X0157190Y0085108D01*
X0157190Y0084322D02*
X0180718Y0084322D01*
X0180718Y0083536D02*
X0157190Y0083536D01*
X0157190Y0082750D02*
X0168569Y0082750D01*
X0168017Y0081964D02*
X0157190Y0081964D01*
X0157190Y0081178D02*
X0168017Y0081178D01*
X0168017Y0080392D02*
X0157190Y0080392D01*
X0157190Y0079606D02*
X0168017Y0079606D01*
X0168017Y0078820D02*
X0157190Y0078820D01*
X0157190Y0078034D02*
X0168017Y0078034D01*
X0168017Y0077248D02*
X0157190Y0077248D01*
X0157190Y0076463D02*
X0168017Y0076463D01*
X0168017Y0075677D02*
X0157190Y0075677D01*
X0157190Y0074891D02*
X0168440Y0074891D01*
X0168329Y0064741D02*
X0167834Y0064247D01*
X0167295Y0063707D01*
X0166262Y0064741D01*
X0164786Y0064741D01*
X0163743Y0063698D01*
X0163743Y0061839D01*
X0163435Y0061839D01*
X0163435Y0063698D01*
X0162392Y0064741D01*
X0160916Y0064741D01*
X0159882Y0063707D01*
X0158849Y0064741D01*
X0155438Y0064741D01*
X0154418Y0063721D01*
X0154395Y0063698D01*
X0153442Y0062745D01*
X0153427Y0062730D01*
X0153427Y0057385D01*
X0154395Y0056417D01*
X0155438Y0055374D01*
X0158849Y0055374D01*
X0159882Y0056408D01*
X0160916Y0055374D01*
X0162392Y0055374D01*
X0163435Y0056417D01*
X0163435Y0058276D01*
X0163743Y0058276D01*
X0163743Y0056417D01*
X0164786Y0055374D01*
X0166262Y0055374D01*
X0166812Y0055924D01*
X0167362Y0055374D01*
X0172707Y0055374D01*
X0173750Y0056417D01*
X0173750Y0057893D01*
X0172707Y0058936D01*
X0172399Y0058936D01*
X0172707Y0059244D01*
X0173750Y0060287D01*
X0173750Y0062730D01*
X0172783Y0063698D01*
X0171740Y0064741D01*
X0168329Y0064741D01*
X0168262Y0064674D02*
X0166329Y0064674D01*
X0167115Y0063888D02*
X0167476Y0063888D01*
X0164719Y0064674D02*
X0162459Y0064674D01*
X0163245Y0063888D02*
X0163933Y0063888D01*
X0163743Y0063102D02*
X0163435Y0063102D01*
X0163435Y0062316D02*
X0163743Y0062316D01*
X0160849Y0064674D02*
X0158916Y0064674D01*
X0159702Y0063888D02*
X0160063Y0063888D01*
X0155371Y0064674D02*
X0103910Y0064674D01*
X0103858Y0064726D02*
X0103843Y0064741D01*
X0102367Y0064741D01*
X0100376Y0062749D01*
X0100376Y0063698D01*
X0099332Y0064741D01*
X0097857Y0064741D01*
X0096814Y0063698D01*
X0096814Y0061839D01*
X0096506Y0061839D01*
X0096506Y0063698D01*
X0095462Y0064741D01*
X0093987Y0064741D01*
X0092953Y0063707D01*
X0091919Y0064741D01*
X0088509Y0064741D01*
X0087489Y0063721D01*
X0087466Y0063698D01*
X0086513Y0062745D01*
X0086498Y0062730D01*
X0086498Y0057385D01*
X0087466Y0056417D01*
X0088509Y0055374D01*
X0091919Y0055374D01*
X0092953Y0056408D01*
X0093987Y0055374D01*
X0095462Y0055374D01*
X0096506Y0056417D01*
X0096506Y0058276D01*
X0096814Y0058276D01*
X0096814Y0056417D01*
X0097857Y0055374D01*
X0099332Y0055374D01*
X0099882Y0055924D01*
X0100432Y0055374D01*
X0105778Y0055374D01*
X0106821Y0056417D01*
X0106821Y0057893D01*
X0105778Y0058936D01*
X0104886Y0058936D01*
X0104886Y0063698D01*
X0103858Y0064726D01*
X0104696Y0063888D02*
X0154585Y0063888D01*
X0153799Y0063102D02*
X0104886Y0063102D01*
X0104886Y0062316D02*
X0153427Y0062316D01*
X0153427Y0061530D02*
X0104886Y0061530D01*
X0104886Y0060744D02*
X0153427Y0060744D01*
X0153427Y0059958D02*
X0104886Y0059958D01*
X0104886Y0059172D02*
X0153427Y0059172D01*
X0153427Y0058387D02*
X0106328Y0058387D01*
X0106821Y0057601D02*
X0153427Y0057601D01*
X0153997Y0056815D02*
X0106821Y0056815D01*
X0106433Y0056029D02*
X0154783Y0056029D01*
X0156565Y0052378D02*
X0155045Y0051749D01*
X0153882Y0050586D01*
X0153253Y0049066D01*
X0153253Y0047422D01*
X0153882Y0045902D01*
X0155045Y0044740D01*
X0156565Y0044110D01*
X0158209Y0044110D01*
X0159728Y0044740D01*
X0160891Y0045902D01*
X0161521Y0047422D01*
X0161521Y0049066D01*
X0160891Y0050586D01*
X0159728Y0051749D01*
X0158209Y0052378D01*
X0156565Y0052378D01*
X0155892Y0052099D02*
X0149039Y0052099D01*
X0148367Y0052378D02*
X0149886Y0051749D01*
X0151049Y0050586D01*
X0151678Y0049066D01*
X0151678Y0047422D01*
X0151049Y0045902D01*
X0149886Y0044740D01*
X0148367Y0044110D01*
X0146722Y0044110D01*
X0145203Y0044740D01*
X0144040Y0045902D01*
X0143410Y0047422D01*
X0143410Y0049066D01*
X0144040Y0050586D01*
X0145203Y0051749D01*
X0146722Y0052378D01*
X0148367Y0052378D01*
X0150321Y0051313D02*
X0154610Y0051313D01*
X0153858Y0050527D02*
X0151073Y0050527D01*
X0151399Y0049741D02*
X0153533Y0049741D01*
X0153253Y0048956D02*
X0151678Y0048956D01*
X0151678Y0048170D02*
X0153253Y0048170D01*
X0153269Y0047384D02*
X0151662Y0047384D01*
X0151337Y0046598D02*
X0153594Y0046598D01*
X0153973Y0045812D02*
X0150958Y0045812D01*
X0150172Y0045026D02*
X0154759Y0045026D01*
X0156251Y0044240D02*
X0148680Y0044240D01*
X0146409Y0044240D02*
X0141274Y0044240D01*
X0141144Y0044110D02*
X0141836Y0044802D01*
X0141836Y0051686D01*
X0141144Y0052378D01*
X0134260Y0052378D01*
X0133568Y0051686D01*
X0133568Y0044802D01*
X0134260Y0044110D01*
X0134552Y0044110D01*
X0134552Y0037775D01*
X0135032Y0036617D01*
X0135918Y0035731D01*
X0137075Y0035252D01*
X0184494Y0035252D01*
X0185651Y0035731D01*
X0186537Y0036617D01*
X0187017Y0037775D01*
X0187017Y0048422D01*
X0188001Y0049406D01*
X0188001Y0052830D01*
X0185579Y0055252D01*
X0182155Y0055252D01*
X0179733Y0052830D01*
X0179733Y0049406D01*
X0180718Y0048422D01*
X0180718Y0041551D01*
X0140851Y0041551D01*
X0140851Y0044110D01*
X0141144Y0044110D01*
X0140851Y0043454D02*
X0180718Y0043454D01*
X0180718Y0042668D02*
X0140851Y0042668D01*
X0140851Y0041882D02*
X0180718Y0041882D01*
X0180718Y0044240D02*
X0168945Y0044240D01*
X0168898Y0044216D02*
X0169507Y0044527D01*
X0170061Y0044929D01*
X0170545Y0045413D01*
X0170947Y0045966D01*
X0171257Y0046576D01*
X0171469Y0047226D01*
X0171568Y0047850D01*
X0167623Y0047850D01*
X0167623Y0043906D01*
X0168247Y0044005D01*
X0168898Y0044216D01*
X0167623Y0044240D02*
X0166836Y0044240D01*
X0166836Y0043906D02*
X0166836Y0047850D01*
X0167623Y0047850D01*
X0167623Y0048638D01*
X0166836Y0048638D01*
X0166836Y0052582D01*
X0166212Y0052484D01*
X0165561Y0052272D01*
X0164951Y0051962D01*
X0164398Y0051559D01*
X0163914Y0051076D01*
X0163512Y0050522D01*
X0163201Y0049913D01*
X0162990Y0049262D01*
X0162891Y0048638D01*
X0166836Y0048638D01*
X0166836Y0047850D01*
X0162891Y0047850D01*
X0162990Y0047226D01*
X0163201Y0046576D01*
X0163512Y0045966D01*
X0163914Y0045413D01*
X0164398Y0044929D01*
X0164951Y0044527D01*
X0165561Y0044216D01*
X0166212Y0044005D01*
X0166836Y0043906D01*
X0166836Y0045026D02*
X0167623Y0045026D01*
X0167623Y0045812D02*
X0166836Y0045812D01*
X0166836Y0046598D02*
X0167623Y0046598D01*
X0167623Y0047384D02*
X0166836Y0047384D01*
X0166836Y0048170D02*
X0161521Y0048170D01*
X0161521Y0048956D02*
X0162941Y0048956D01*
X0163146Y0049741D02*
X0161241Y0049741D01*
X0160916Y0050527D02*
X0163516Y0050527D01*
X0164152Y0051313D02*
X0160164Y0051313D01*
X0158882Y0052099D02*
X0165222Y0052099D01*
X0166836Y0052099D02*
X0167623Y0052099D01*
X0167623Y0052582D02*
X0168247Y0052484D01*
X0168898Y0052272D01*
X0169507Y0051962D01*
X0170061Y0051559D01*
X0170545Y0051076D01*
X0170947Y0050522D01*
X0171257Y0049913D01*
X0171469Y0049262D01*
X0171568Y0048638D01*
X0167623Y0048638D01*
X0167623Y0052582D01*
X0167623Y0051313D02*
X0166836Y0051313D01*
X0166836Y0050527D02*
X0167623Y0050527D01*
X0167623Y0049741D02*
X0166836Y0049741D01*
X0166836Y0048956D02*
X0167623Y0048956D01*
X0167623Y0048170D02*
X0180718Y0048170D01*
X0180718Y0047384D02*
X0171494Y0047384D01*
X0171265Y0046598D02*
X0180718Y0046598D01*
X0180718Y0045812D02*
X0170835Y0045812D01*
X0170158Y0045026D02*
X0180718Y0045026D01*
X0180184Y0048956D02*
X0171517Y0048956D01*
X0171313Y0049741D02*
X0179733Y0049741D01*
X0179733Y0050527D02*
X0170943Y0050527D01*
X0170307Y0051313D02*
X0179733Y0051313D01*
X0179733Y0052099D02*
X0169237Y0052099D01*
X0173362Y0056029D02*
X0209552Y0056029D01*
X0209552Y0056815D02*
X0173750Y0056815D01*
X0173750Y0057601D02*
X0181538Y0057601D01*
X0180753Y0058387D02*
X0173257Y0058387D01*
X0172635Y0059172D02*
X0179967Y0059172D01*
X0179733Y0059958D02*
X0173421Y0059958D01*
X0173750Y0060744D02*
X0179733Y0060744D01*
X0179733Y0061530D02*
X0173750Y0061530D01*
X0173750Y0062316D02*
X0179733Y0062316D01*
X0180005Y0063102D02*
X0173379Y0063102D01*
X0172593Y0063888D02*
X0180718Y0063888D01*
X0180718Y0064674D02*
X0171807Y0064674D01*
X0163743Y0057601D02*
X0163435Y0057601D01*
X0163435Y0056815D02*
X0163743Y0056815D01*
X0164131Y0056029D02*
X0163046Y0056029D01*
X0160261Y0056029D02*
X0159503Y0056029D01*
X0161505Y0047384D02*
X0162965Y0047384D01*
X0163194Y0046598D02*
X0161179Y0046598D01*
X0160801Y0045812D02*
X0163624Y0045812D01*
X0164301Y0045026D02*
X0160015Y0045026D01*
X0158523Y0044240D02*
X0165514Y0044240D01*
X0179788Y0052885D02*
X0071994Y0052885D01*
X0071595Y0053283D02*
X0072579Y0052299D01*
X0083000Y0052299D01*
X0083079Y0052378D01*
X0089963Y0052378D01*
X0090655Y0051686D01*
X0090655Y0044802D01*
X0089963Y0044110D01*
X0083079Y0044110D01*
X0082387Y0044802D01*
X0082387Y0046000D01*
X0072579Y0046000D01*
X0071595Y0045016D01*
X0068171Y0045016D01*
X0065749Y0047437D01*
X0065749Y0050862D01*
X0068171Y0053283D01*
X0071595Y0053283D01*
X0071822Y0055243D02*
X0182146Y0055243D01*
X0181360Y0054457D02*
X0044198Y0054457D01*
X0044198Y0055243D02*
X0067943Y0055243D01*
X0067158Y0056029D02*
X0044198Y0056029D01*
X0044198Y0056815D02*
X0066372Y0056815D01*
X0065749Y0057601D02*
X0044198Y0057601D01*
X0044198Y0058387D02*
X0065749Y0058387D01*
X0065749Y0059172D02*
X0044198Y0059172D01*
X0044198Y0059958D02*
X0065749Y0059958D01*
X0065749Y0060744D02*
X0044198Y0060744D01*
X0044198Y0061530D02*
X0066417Y0061530D01*
X0066733Y0062316D02*
X0044198Y0062316D01*
X0044198Y0063102D02*
X0066733Y0063102D01*
X0066733Y0063888D02*
X0044198Y0063888D01*
X0044198Y0064674D02*
X0066733Y0064674D01*
X0066733Y0065460D02*
X0044198Y0065460D01*
X0044198Y0066246D02*
X0066733Y0066246D01*
X0066733Y0067032D02*
X0044198Y0067032D01*
X0044198Y0067817D02*
X0066733Y0067817D01*
X0066753Y0068603D02*
X0044198Y0068603D01*
X0044198Y0069389D02*
X0067079Y0069389D01*
X0067675Y0070175D02*
X0044198Y0070175D01*
X0044198Y0070961D02*
X0068973Y0070961D01*
X0073032Y0064674D02*
X0088442Y0064674D01*
X0087656Y0063888D02*
X0073032Y0063888D01*
X0073032Y0063102D02*
X0086870Y0063102D01*
X0086498Y0062316D02*
X0073032Y0062316D01*
X0073348Y0061530D02*
X0086498Y0061530D01*
X0086498Y0060744D02*
X0074017Y0060744D01*
X0074017Y0059958D02*
X0086498Y0059958D01*
X0086498Y0059172D02*
X0074017Y0059172D01*
X0074017Y0058387D02*
X0086498Y0058387D01*
X0086498Y0057601D02*
X0074017Y0057601D01*
X0073394Y0056815D02*
X0087068Y0056815D01*
X0087854Y0056029D02*
X0072608Y0056029D01*
X0067772Y0052885D02*
X0044198Y0052885D01*
X0044198Y0052099D02*
X0066986Y0052099D01*
X0066200Y0051313D02*
X0044198Y0051313D01*
X0044198Y0050527D02*
X0065749Y0050527D01*
X0065749Y0049741D02*
X0044198Y0049741D01*
X0044198Y0048956D02*
X0065749Y0048956D01*
X0065749Y0048170D02*
X0044198Y0048170D01*
X0044198Y0047384D02*
X0065803Y0047384D01*
X0066589Y0046598D02*
X0044198Y0046598D01*
X0044198Y0045812D02*
X0067374Y0045812D01*
X0068160Y0045026D02*
X0044198Y0045026D01*
X0044198Y0044240D02*
X0082949Y0044240D01*
X0082387Y0045026D02*
X0071605Y0045026D01*
X0072391Y0045812D02*
X0082387Y0045812D01*
X0090093Y0044240D02*
X0095227Y0044240D01*
X0095541Y0044110D02*
X0094022Y0044740D01*
X0092859Y0045902D01*
X0092229Y0047422D01*
X0092229Y0049066D01*
X0092859Y0050586D01*
X0094022Y0051749D01*
X0095541Y0052378D01*
X0097185Y0052378D01*
X0098705Y0051749D01*
X0099868Y0050586D01*
X0100497Y0049066D01*
X0100497Y0047422D01*
X0099868Y0045902D01*
X0098705Y0044740D01*
X0097185Y0044110D01*
X0095541Y0044110D01*
X0097499Y0044240D02*
X0105070Y0044240D01*
X0105383Y0044110D02*
X0107028Y0044110D01*
X0108547Y0044740D01*
X0109710Y0045902D01*
X0110340Y0047422D01*
X0110340Y0049066D01*
X0109710Y0050586D01*
X0108547Y0051749D01*
X0107028Y0052378D01*
X0105383Y0052378D01*
X0103864Y0051749D01*
X0102701Y0050586D01*
X0102072Y0049066D01*
X0102072Y0047422D01*
X0102701Y0045902D01*
X0103864Y0044740D01*
X0105383Y0044110D01*
X0107341Y0044240D02*
X0114333Y0044240D01*
X0114380Y0044216D02*
X0115030Y0044005D01*
X0115655Y0043906D01*
X0115655Y0047850D01*
X0116442Y0047850D01*
X0116442Y0043906D01*
X0117066Y0044005D01*
X0117717Y0044216D01*
X0118326Y0044527D01*
X0118880Y0044929D01*
X0119364Y0045413D01*
X0119766Y0045966D01*
X0120076Y0046576D01*
X0120288Y0047226D01*
X0120387Y0047850D01*
X0116442Y0047850D01*
X0116442Y0048638D01*
X0115655Y0048638D01*
X0115655Y0052582D01*
X0115030Y0052484D01*
X0114380Y0052272D01*
X0113770Y0051962D01*
X0113217Y0051559D01*
X0112733Y0051076D01*
X0112331Y0050522D01*
X0112020Y0049913D01*
X0111809Y0049262D01*
X0111710Y0048638D01*
X0115654Y0048638D01*
X0115654Y0047850D01*
X0111710Y0047850D01*
X0111809Y0047226D01*
X0112020Y0046576D01*
X0112331Y0045966D01*
X0112733Y0045413D01*
X0113217Y0044929D01*
X0113770Y0044527D01*
X0114380Y0044216D01*
X0115655Y0044240D02*
X0116442Y0044240D01*
X0116442Y0045026D02*
X0115655Y0045026D01*
X0115655Y0045812D02*
X0116442Y0045812D01*
X0116442Y0046598D02*
X0115655Y0046598D01*
X0115655Y0047384D02*
X0116442Y0047384D01*
X0116442Y0048170D02*
X0133568Y0048170D01*
X0133568Y0048956D02*
X0120336Y0048956D01*
X0120288Y0049262D02*
X0120076Y0049913D01*
X0119766Y0050522D01*
X0119364Y0051076D01*
X0118880Y0051559D01*
X0118326Y0051962D01*
X0117717Y0052272D01*
X0117066Y0052484D01*
X0116442Y0052582D01*
X0116442Y0048638D01*
X0120387Y0048638D01*
X0120288Y0049262D01*
X0120132Y0049741D02*
X0133568Y0049741D01*
X0133568Y0050527D02*
X0119762Y0050527D01*
X0119126Y0051313D02*
X0133568Y0051313D01*
X0133981Y0052099D02*
X0118056Y0052099D01*
X0116442Y0052099D02*
X0115655Y0052099D01*
X0115655Y0051313D02*
X0116442Y0051313D01*
X0116442Y0050527D02*
X0115655Y0050527D01*
X0115655Y0049741D02*
X0116442Y0049741D01*
X0116442Y0048956D02*
X0115655Y0048956D01*
X0115654Y0048170D02*
X0110340Y0048170D01*
X0110340Y0048956D02*
X0111760Y0048956D01*
X0111965Y0049741D02*
X0110060Y0049741D01*
X0109734Y0050527D02*
X0112335Y0050527D01*
X0112971Y0051313D02*
X0108983Y0051313D01*
X0107701Y0052099D02*
X0114041Y0052099D01*
X0111784Y0047384D02*
X0110324Y0047384D01*
X0109998Y0046598D02*
X0112013Y0046598D01*
X0112443Y0045812D02*
X0109620Y0045812D01*
X0108834Y0045026D02*
X0113120Y0045026D01*
X0117764Y0044240D02*
X0134130Y0044240D01*
X0134552Y0043454D02*
X0044198Y0043454D01*
X0044198Y0042668D02*
X0134552Y0042668D01*
X0134552Y0041882D02*
X0044198Y0041882D01*
X0044198Y0041096D02*
X0134552Y0041096D01*
X0134552Y0040311D02*
X0044198Y0040311D01*
X0044198Y0039525D02*
X0134552Y0039525D01*
X0134552Y0038739D02*
X0044198Y0038739D01*
X0044198Y0037953D02*
X0134552Y0037953D01*
X0134804Y0037167D02*
X0044198Y0037167D01*
X0044198Y0053671D02*
X0180574Y0053671D01*
X0185589Y0055243D02*
X0209552Y0055243D01*
X0209552Y0054457D02*
X0186374Y0054457D01*
X0187160Y0053671D02*
X0209552Y0053671D01*
X0209552Y0052885D02*
X0187946Y0052885D01*
X0188001Y0052099D02*
X0209552Y0052099D01*
X0209552Y0051313D02*
X0188001Y0051313D01*
X0188001Y0050527D02*
X0209552Y0050527D01*
X0209552Y0049741D02*
X0188001Y0049741D01*
X0187551Y0048956D02*
X0209552Y0048956D01*
X0209552Y0048170D02*
X0187017Y0048170D01*
X0187017Y0047384D02*
X0209552Y0047384D01*
X0209552Y0046598D02*
X0187017Y0046598D01*
X0187017Y0045812D02*
X0209552Y0045812D01*
X0209552Y0045026D02*
X0187017Y0045026D01*
X0187017Y0044240D02*
X0209552Y0044240D01*
X0209552Y0043454D02*
X0187017Y0043454D01*
X0187017Y0042668D02*
X0209552Y0042668D01*
X0209552Y0041882D02*
X0187017Y0041882D01*
X0187017Y0041096D02*
X0209552Y0041096D01*
X0209552Y0040311D02*
X0187017Y0040311D01*
X0187017Y0039525D02*
X0209552Y0039525D01*
X0209552Y0038739D02*
X0187017Y0038739D01*
X0187017Y0037953D02*
X0209552Y0037953D01*
X0209552Y0037167D02*
X0186765Y0037167D01*
X0186301Y0036381D02*
X0192468Y0036381D01*
X0190112Y0035595D02*
X0185322Y0035595D01*
X0186946Y0033237D02*
X0066804Y0033237D01*
X0067375Y0032451D02*
X0186375Y0032451D01*
X0185804Y0031665D02*
X0067946Y0031665D01*
X0068517Y0030880D02*
X0185233Y0030880D01*
X0184718Y0030094D02*
X0069032Y0030094D01*
X0069288Y0029308D02*
X0184462Y0029308D01*
X0184207Y0028522D02*
X0069543Y0028522D01*
X0069798Y0027736D02*
X0183952Y0027736D01*
X0183696Y0026950D02*
X0070054Y0026950D01*
X0070182Y0026164D02*
X0183568Y0026164D01*
X0183568Y0025378D02*
X0070182Y0025378D01*
X0070182Y0024592D02*
X0183568Y0024592D01*
X0183568Y0023806D02*
X0070182Y0023806D01*
X0070182Y0023020D02*
X0183568Y0023020D01*
X0183568Y0022235D02*
X0070182Y0022235D01*
X0070182Y0021449D02*
X0183568Y0021449D01*
X0183568Y0020663D02*
X0070182Y0020663D01*
X0070182Y0019877D02*
X0183568Y0019877D01*
X0183568Y0019091D02*
X0070182Y0019091D01*
X0070182Y0018305D02*
X0183568Y0018305D01*
X0183568Y0017519D02*
X0070182Y0017519D01*
X0070182Y0016733D02*
X0183568Y0016733D01*
X0183568Y0015947D02*
X0070182Y0015947D01*
X0070182Y0015161D02*
X0183568Y0015161D01*
X0183568Y0014375D02*
X0070182Y0014375D01*
X0070182Y0013589D02*
X0183568Y0013589D01*
X0183568Y0012804D02*
X0070182Y0012804D01*
X0070182Y0012018D02*
X0183568Y0012018D01*
X0183568Y0011232D02*
X0070182Y0011232D01*
X0065802Y0034023D02*
X0187948Y0034023D01*
X0189030Y0034809D02*
X0064720Y0034809D01*
X0063638Y0035595D02*
X0136247Y0035595D01*
X0135268Y0036381D02*
X0061282Y0036381D01*
X0090655Y0045026D02*
X0093735Y0045026D01*
X0092949Y0045812D02*
X0090655Y0045812D01*
X0090655Y0046598D02*
X0092571Y0046598D01*
X0092245Y0047384D02*
X0090655Y0047384D01*
X0090655Y0048170D02*
X0092229Y0048170D01*
X0092229Y0048956D02*
X0090655Y0048956D01*
X0090655Y0049741D02*
X0092509Y0049741D01*
X0092835Y0050527D02*
X0090655Y0050527D01*
X0090655Y0051313D02*
X0093586Y0051313D01*
X0094868Y0052099D02*
X0090241Y0052099D01*
X0092574Y0056029D02*
X0093332Y0056029D01*
X0096117Y0056029D02*
X0097202Y0056029D01*
X0096814Y0056815D02*
X0096506Y0056815D01*
X0096506Y0057601D02*
X0096814Y0057601D01*
X0096814Y0062316D02*
X0096506Y0062316D01*
X0096506Y0063102D02*
X0096814Y0063102D01*
X0097004Y0063888D02*
X0096316Y0063888D01*
X0095530Y0064674D02*
X0097790Y0064674D01*
X0099400Y0064674D02*
X0102300Y0064674D01*
X0101694Y0065460D02*
X0152056Y0065460D01*
X0151329Y0066246D02*
X0102421Y0066246D01*
X0102747Y0067032D02*
X0151003Y0067032D01*
X0150891Y0067817D02*
X0102859Y0067817D01*
X0102859Y0068603D02*
X0150891Y0068603D01*
X0150891Y0069389D02*
X0102859Y0069389D01*
X0102859Y0070175D02*
X0150891Y0070175D01*
X0150891Y0070961D02*
X0102859Y0070961D01*
X0102859Y0071747D02*
X0150891Y0071747D01*
X0150891Y0072533D02*
X0102859Y0072533D01*
X0102859Y0073319D02*
X0150891Y0073319D01*
X0150891Y0074105D02*
X0102859Y0074105D01*
X0102859Y0074891D02*
X0150891Y0074891D01*
X0150891Y0075677D02*
X0110404Y0075677D01*
X0107913Y0075677D02*
X0102859Y0075677D01*
X0102859Y0076463D02*
X0107127Y0076463D01*
X0106796Y0077248D02*
X0102859Y0077248D01*
X0102859Y0078034D02*
X0106796Y0078034D01*
X0106866Y0078820D02*
X0102859Y0078820D01*
X0102859Y0079606D02*
X0103983Y0079606D01*
X0103197Y0080392D02*
X0102859Y0080392D01*
X0102859Y0081178D02*
X0102859Y0081178D01*
X0102859Y0081964D02*
X0102859Y0081964D01*
X0102859Y0082750D02*
X0102922Y0082750D01*
X0102859Y0083536D02*
X0103708Y0083536D01*
X0102859Y0084322D02*
X0109946Y0084322D01*
X0109160Y0085108D02*
X0102859Y0085108D01*
X0102859Y0085893D02*
X0108374Y0085893D01*
X0106735Y0083536D02*
X0116354Y0083536D01*
X0117140Y0084322D02*
X0114277Y0084322D01*
X0115063Y0085108D02*
X0119887Y0085108D01*
X0120039Y0085893D02*
X0115849Y0085893D01*
X0119244Y0086679D02*
X0119933Y0086679D01*
X0126481Y0086679D02*
X0127269Y0086679D01*
X0127269Y0086646D02*
X0126875Y0086646D01*
X0126481Y0086646D01*
X0126481Y0087220D01*
X0127269Y0087220D01*
X0127269Y0086646D01*
X0126875Y0085893D02*
X0126875Y0085893D01*
X0126875Y0085108D02*
X0126875Y0085108D01*
X0126875Y0084322D02*
X0126875Y0084322D01*
X0126875Y0083536D02*
X0126875Y0083536D01*
X0126875Y0082890D02*
X0126875Y0082890D01*
X0126875Y0082750D02*
X0126875Y0082750D01*
X0126875Y0081964D02*
X0126875Y0081964D01*
X0126875Y0081178D02*
X0126875Y0081178D01*
X0126875Y0080392D02*
X0126875Y0080392D01*
X0126875Y0079606D02*
X0126875Y0079606D01*
X0126088Y0078820D02*
X0127662Y0078820D01*
X0128044Y0078034D02*
X0125706Y0078034D01*
X0124920Y0077248D02*
X0128830Y0077248D01*
X0129616Y0076463D02*
X0124134Y0076463D01*
X0107652Y0079606D02*
X0106460Y0079606D01*
X0104486Y0086679D02*
X0102859Y0086679D01*
X0102859Y0087465D02*
X0104040Y0087465D01*
X0104040Y0088251D02*
X0102859Y0088251D01*
X0102859Y0089037D02*
X0104040Y0089037D01*
X0104040Y0089823D02*
X0102859Y0089823D01*
X0102859Y0090609D02*
X0104040Y0090609D01*
X0104040Y0091395D02*
X0102859Y0091395D01*
X0102859Y0092181D02*
X0104181Y0092181D01*
X0102859Y0092967D02*
X0108765Y0092967D01*
X0108765Y0093753D02*
X0102859Y0093753D01*
X0102859Y0094539D02*
X0104501Y0094539D01*
X0104040Y0095324D02*
X0102859Y0095324D01*
X0102859Y0096110D02*
X0104040Y0096110D01*
X0104040Y0096896D02*
X0102859Y0096896D01*
X0102859Y0097682D02*
X0104040Y0097682D01*
X0104040Y0098468D02*
X0102859Y0098468D01*
X0102859Y0099254D02*
X0104040Y0099254D01*
X0104166Y0100040D02*
X0102859Y0100040D01*
X0102859Y0100826D02*
X0113126Y0100826D01*
X0112926Y0100040D02*
X0109427Y0100040D01*
X0109552Y0099254D02*
X0112702Y0099254D01*
X0112702Y0098468D02*
X0112621Y0098468D01*
X0112340Y0101612D02*
X0102859Y0101612D01*
X0102859Y0102398D02*
X0104516Y0102398D01*
X0104040Y0103184D02*
X0102859Y0103184D01*
X0102859Y0103969D02*
X0104040Y0103969D01*
X0104040Y0104755D02*
X0102859Y0104755D01*
X0102859Y0105541D02*
X0104040Y0105541D01*
X0104040Y0106327D02*
X0102859Y0106327D01*
X0102859Y0107113D02*
X0104040Y0107113D01*
X0104151Y0107899D02*
X0102859Y0107899D01*
X0102859Y0108685D02*
X0104134Y0108685D01*
X0104040Y0109471D02*
X0102859Y0109471D01*
X0102859Y0110257D02*
X0104040Y0110257D01*
X0104040Y0111043D02*
X0102859Y0111043D01*
X0102859Y0111829D02*
X0104040Y0111829D01*
X0104040Y0112615D02*
X0102859Y0112615D01*
X0102859Y0113400D02*
X0104040Y0113400D01*
X0104533Y0114186D02*
X0102859Y0114186D01*
X0102859Y0114972D02*
X0104040Y0114972D01*
X0104040Y0115758D02*
X0102859Y0115758D01*
X0102859Y0116544D02*
X0104040Y0116544D01*
X0104040Y0117330D02*
X0102859Y0117330D01*
X0102859Y0118116D02*
X0104040Y0118116D01*
X0104040Y0118902D02*
X0102859Y0118902D01*
X0102859Y0119688D02*
X0104129Y0119688D01*
X0102859Y0120474D02*
X0115851Y0120474D01*
X0115851Y0121260D02*
X0102859Y0121260D01*
X0102859Y0122045D02*
X0115851Y0122045D01*
X0115851Y0122831D02*
X0102859Y0122831D01*
X0102859Y0123617D02*
X0115851Y0123617D01*
X0115851Y0124403D02*
X0102859Y0124403D01*
X0102859Y0125189D02*
X0115851Y0125189D01*
X0115851Y0119688D02*
X0109464Y0119688D01*
X0112708Y0118902D02*
X0115851Y0118902D01*
X0115851Y0118116D02*
X0113489Y0118116D01*
X0113489Y0117330D02*
X0115851Y0117330D01*
X0115851Y0116544D02*
X0114230Y0116544D01*
X0115016Y0115758D02*
X0115851Y0115758D01*
X0115851Y0114972D02*
X0115802Y0114972D01*
X0122151Y0116544D02*
X0122245Y0116544D01*
X0122151Y0117330D02*
X0122728Y0117330D01*
X0124513Y0117330D02*
X0125300Y0117330D01*
X0125300Y0118116D02*
X0124513Y0118116D01*
X0124513Y0118902D02*
X0125300Y0118902D01*
X0125300Y0119688D02*
X0124513Y0119688D01*
X0124513Y0121079D02*
X0124513Y0124047D01*
X0122755Y0124047D01*
X0122400Y0123952D01*
X0122151Y0123808D01*
X0122151Y0125803D01*
X0127662Y0125803D01*
X0127662Y0123808D01*
X0127413Y0123952D01*
X0127059Y0124047D01*
X0125300Y0124047D01*
X0125300Y0121079D01*
X0124513Y0121079D01*
X0124513Y0121260D02*
X0125300Y0121260D01*
X0125300Y0122045D02*
X0124513Y0122045D01*
X0124513Y0122831D02*
X0125300Y0122831D01*
X0125300Y0123617D02*
X0124513Y0123617D01*
X0122151Y0124403D02*
X0127662Y0124403D01*
X0127662Y0125189D02*
X0122151Y0125189D01*
X0128138Y0118116D02*
X0128168Y0118116D01*
X0127085Y0117330D02*
X0150891Y0117330D01*
X0150891Y0118116D02*
X0139362Y0118116D01*
X0139867Y0118902D02*
X0150891Y0118902D01*
X0150891Y0119688D02*
X0139867Y0119688D01*
X0139867Y0120474D02*
X0150891Y0120474D01*
X0150891Y0121260D02*
X0139867Y0121260D01*
X0139867Y0122045D02*
X0150891Y0122045D01*
X0150891Y0122831D02*
X0139785Y0122831D01*
X0137869Y0123617D02*
X0150891Y0123617D01*
X0150891Y0124403D02*
X0133962Y0124403D01*
X0133962Y0125189D02*
X0150891Y0125189D01*
X0157190Y0125189D02*
X0157364Y0125189D01*
X0157364Y0125722D02*
X0157364Y0120377D01*
X0158332Y0119409D01*
X0159375Y0118366D01*
X0162786Y0118366D01*
X0163819Y0119400D01*
X0164853Y0118366D01*
X0166329Y0118366D01*
X0167372Y0119409D01*
X0167372Y0121269D01*
X0167680Y0121269D01*
X0167680Y0119409D01*
X0168723Y0118366D01*
X0170199Y0118366D01*
X0171232Y0119400D01*
X0172266Y0118366D01*
X0175677Y0118366D01*
X0175691Y0118381D01*
X0176644Y0119334D01*
X0176667Y0119357D01*
X0177687Y0120377D01*
X0177687Y0122820D01*
X0177458Y0123050D01*
X0177687Y0123279D01*
X0177687Y0125722D01*
X0176644Y0126766D01*
X0175677Y0127733D01*
X0172266Y0127733D01*
X0171275Y0126742D01*
X0171232Y0126700D01*
X0170199Y0127733D01*
X0168723Y0127733D01*
X0167680Y0126690D01*
X0167680Y0124831D01*
X0167372Y0124831D01*
X0167372Y0126690D01*
X0166329Y0127733D01*
X0164853Y0127733D01*
X0163819Y0126700D01*
X0162786Y0127733D01*
X0159375Y0127733D01*
X0158355Y0126713D01*
X0158332Y0126690D01*
X0157379Y0125737D01*
X0157364Y0125722D01*
X0157190Y0125975D02*
X0157617Y0125975D01*
X0157190Y0126761D02*
X0158403Y0126761D01*
X0158332Y0126690D02*
X0158332Y0126690D01*
X0159189Y0127547D02*
X0157190Y0127547D01*
X0157190Y0128333D02*
X0180433Y0128333D01*
X0179733Y0127547D02*
X0175863Y0127547D01*
X0176649Y0126761D02*
X0179733Y0126761D01*
X0179733Y0125975D02*
X0177435Y0125975D01*
X0177687Y0125189D02*
X0179733Y0125189D01*
X0179733Y0124403D02*
X0177687Y0124403D01*
X0177687Y0123617D02*
X0180325Y0123617D01*
X0180718Y0122831D02*
X0177676Y0122831D01*
X0177687Y0122045D02*
X0180718Y0122045D01*
X0180718Y0121260D02*
X0177687Y0121260D01*
X0177687Y0120474D02*
X0180718Y0120474D01*
X0180718Y0119688D02*
X0176998Y0119688D01*
X0176212Y0118902D02*
X0180718Y0118902D01*
X0180718Y0118116D02*
X0157190Y0118116D01*
X0157190Y0118902D02*
X0158839Y0118902D01*
X0158053Y0119688D02*
X0157190Y0119688D01*
X0157190Y0120474D02*
X0157364Y0120474D01*
X0157364Y0121260D02*
X0157190Y0121260D01*
X0157190Y0122045D02*
X0157364Y0122045D01*
X0157364Y0122831D02*
X0157190Y0122831D01*
X0157190Y0123617D02*
X0157364Y0123617D01*
X0157364Y0124403D02*
X0157190Y0124403D01*
X0157190Y0129119D02*
X0181218Y0129119D01*
X0182004Y0129905D02*
X0157190Y0129905D01*
X0157190Y0132262D02*
X0181680Y0132262D01*
X0181435Y0139336D02*
X0145773Y0139336D01*
X0145773Y0138550D02*
X0152215Y0138550D01*
X0151429Y0137764D02*
X0145773Y0137764D01*
X0145773Y0136978D02*
X0151069Y0136978D01*
X0150891Y0136192D02*
X0145773Y0136192D01*
X0145773Y0135406D02*
X0150891Y0135406D01*
X0150891Y0134620D02*
X0145773Y0134620D01*
X0145773Y0133834D02*
X0150891Y0133834D01*
X0150891Y0133048D02*
X0145773Y0133048D01*
X0145773Y0132262D02*
X0150891Y0132262D01*
X0139473Y0132262D02*
X0102859Y0132262D01*
X0102859Y0133048D02*
X0139473Y0133048D01*
X0139473Y0133834D02*
X0102859Y0133834D01*
X0102859Y0134620D02*
X0110896Y0134620D01*
X0111093Y0134556D02*
X0110443Y0134767D01*
X0109833Y0135078D01*
X0109280Y0135480D01*
X0108796Y0135964D01*
X0108394Y0136517D01*
X0108083Y0137127D01*
X0107872Y0137777D01*
X0107773Y0138402D01*
X0111717Y0138402D01*
X0111717Y0139189D01*
X0107773Y0139189D01*
X0107872Y0139813D01*
X0108083Y0140464D01*
X0108394Y0141073D01*
X0108796Y0141627D01*
X0109280Y0142111D01*
X0109833Y0142513D01*
X0110443Y0142823D01*
X0111093Y0143035D01*
X0111718Y0143134D01*
X0111718Y0139189D01*
X0112505Y0139189D01*
X0116450Y0139189D01*
X0116351Y0139813D01*
X0116139Y0140464D01*
X0115829Y0141073D01*
X0115427Y0141627D01*
X0114943Y0142111D01*
X0114389Y0142513D01*
X0113780Y0142823D01*
X0113129Y0143035D01*
X0112505Y0143134D01*
X0112505Y0139189D01*
X0112505Y0138402D01*
X0116450Y0138402D01*
X0116351Y0137777D01*
X0116139Y0137127D01*
X0115829Y0136517D01*
X0115427Y0135964D01*
X0114943Y0135480D01*
X0114389Y0135078D01*
X0113780Y0134767D01*
X0113129Y0134556D01*
X0112505Y0134457D01*
X0112505Y0138402D01*
X0111718Y0138402D01*
X0111718Y0134457D01*
X0111093Y0134556D01*
X0111718Y0134620D02*
X0112505Y0134620D01*
X0112505Y0135406D02*
X0111718Y0135406D01*
X0111718Y0136192D02*
X0112505Y0136192D01*
X0112505Y0136978D02*
X0111718Y0136978D01*
X0111718Y0137764D02*
X0112505Y0137764D01*
X0112505Y0138550D02*
X0117820Y0138550D01*
X0117820Y0137973D02*
X0118449Y0136454D01*
X0119612Y0135291D01*
X0121131Y0134661D01*
X0122776Y0134661D01*
X0124295Y0135291D01*
X0125458Y0136454D01*
X0126088Y0137973D01*
X0126088Y0139618D01*
X0125458Y0141137D01*
X0124295Y0142300D01*
X0122776Y0142929D01*
X0121131Y0142929D01*
X0119612Y0142300D01*
X0118449Y0141137D01*
X0117820Y0139618D01*
X0117820Y0137973D01*
X0117907Y0137764D02*
X0116346Y0137764D01*
X0116063Y0136978D02*
X0118232Y0136978D01*
X0118711Y0136192D02*
X0115592Y0136192D01*
X0114841Y0135406D02*
X0119497Y0135406D01*
X0117820Y0139336D02*
X0116426Y0139336D01*
X0116250Y0140121D02*
X0118029Y0140121D01*
X0118354Y0140907D02*
X0115913Y0140907D01*
X0115360Y0141693D02*
X0119006Y0141693D01*
X0120045Y0142479D02*
X0114435Y0142479D01*
X0112505Y0142479D02*
X0111718Y0142479D01*
X0111718Y0141693D02*
X0112505Y0141693D01*
X0112505Y0140907D02*
X0111718Y0140907D01*
X0111718Y0140121D02*
X0112505Y0140121D01*
X0112505Y0139336D02*
X0111718Y0139336D01*
X0111717Y0138550D02*
X0101535Y0138550D01*
X0102321Y0137764D02*
X0107876Y0137764D01*
X0108159Y0136978D02*
X0102681Y0136978D01*
X0102859Y0136192D02*
X0108630Y0136192D01*
X0109382Y0135406D02*
X0102859Y0135406D01*
X0107796Y0139336D02*
X0072315Y0139336D01*
X0067451Y0139336D02*
X0044198Y0139336D01*
X0044198Y0140121D02*
X0107972Y0140121D01*
X0108309Y0140907D02*
X0044198Y0140907D01*
X0044198Y0141693D02*
X0108862Y0141693D01*
X0109787Y0142479D02*
X0044198Y0142479D01*
X0044198Y0138550D02*
X0066665Y0138550D01*
X0065879Y0137764D02*
X0044198Y0137764D01*
X0044198Y0136978D02*
X0065749Y0136978D01*
X0065749Y0136192D02*
X0044198Y0136192D01*
X0044198Y0135406D02*
X0065749Y0135406D01*
X0065749Y0134620D02*
X0044198Y0134620D01*
X0044198Y0133834D02*
X0066124Y0133834D01*
X0066910Y0133048D02*
X0044198Y0133048D01*
X0044198Y0132262D02*
X0067696Y0132262D01*
X0068171Y0130055D02*
X0065749Y0127634D01*
X0065749Y0124209D01*
X0066733Y0123225D01*
X0066733Y0107657D01*
X0067213Y0106499D01*
X0068099Y0105613D01*
X0069256Y0105134D01*
X0077466Y0105134D01*
X0077466Y0104841D01*
X0078157Y0104150D01*
X0085041Y0104150D01*
X0085733Y0104841D01*
X0085733Y0111725D01*
X0085041Y0112417D01*
X0078157Y0112417D01*
X0077466Y0111725D01*
X0077466Y0111433D01*
X0073032Y0111433D01*
X0073032Y0123225D01*
X0074017Y0124209D01*
X0074017Y0127634D01*
X0071595Y0130055D01*
X0068171Y0130055D01*
X0068020Y0129905D02*
X0044198Y0129905D01*
X0044198Y0130691D02*
X0096560Y0130691D01*
X0096560Y0131476D02*
X0044198Y0131476D01*
X0044198Y0129119D02*
X0067234Y0129119D01*
X0066448Y0128333D02*
X0044198Y0128333D01*
X0044198Y0127547D02*
X0065749Y0127547D01*
X0065749Y0126761D02*
X0044198Y0126761D01*
X0044198Y0125975D02*
X0065749Y0125975D01*
X0065749Y0125189D02*
X0044198Y0125189D01*
X0044198Y0124403D02*
X0065749Y0124403D01*
X0066341Y0123617D02*
X0044198Y0123617D01*
X0044198Y0122831D02*
X0066733Y0122831D01*
X0066733Y0122045D02*
X0044198Y0122045D01*
X0044198Y0121260D02*
X0066733Y0121260D01*
X0066733Y0120474D02*
X0044198Y0120474D01*
X0044198Y0119688D02*
X0066733Y0119688D01*
X0066733Y0118902D02*
X0044198Y0118902D01*
X0044198Y0118116D02*
X0066733Y0118116D01*
X0066733Y0117330D02*
X0044198Y0117330D01*
X0044198Y0116544D02*
X0066733Y0116544D01*
X0066733Y0115758D02*
X0044198Y0115758D01*
X0044198Y0114972D02*
X0066733Y0114972D01*
X0066733Y0114186D02*
X0044198Y0114186D01*
X0044198Y0113400D02*
X0066733Y0113400D01*
X0066733Y0112615D02*
X0044198Y0112615D01*
X0044198Y0111829D02*
X0066733Y0111829D01*
X0066733Y0111043D02*
X0044198Y0111043D01*
X0044198Y0110257D02*
X0066733Y0110257D01*
X0066733Y0109471D02*
X0044198Y0109471D01*
X0044198Y0108685D02*
X0066733Y0108685D01*
X0066733Y0107899D02*
X0044198Y0107899D01*
X0044198Y0107113D02*
X0066959Y0107113D01*
X0067385Y0106327D02*
X0044198Y0106327D01*
X0044198Y0105541D02*
X0068273Y0105541D01*
X0073032Y0111829D02*
X0077569Y0111829D01*
X0073032Y0112615D02*
X0096560Y0112615D01*
X0096560Y0113400D02*
X0073032Y0113400D01*
X0073032Y0114186D02*
X0096560Y0114186D01*
X0096560Y0114972D02*
X0073032Y0114972D01*
X0073032Y0115758D02*
X0096560Y0115758D01*
X0096560Y0116544D02*
X0073032Y0116544D01*
X0073032Y0117330D02*
X0096560Y0117330D01*
X0096560Y0118116D02*
X0073032Y0118116D01*
X0073032Y0118902D02*
X0078131Y0118902D01*
X0077345Y0119688D02*
X0073032Y0119688D01*
X0073032Y0120474D02*
X0076656Y0120474D01*
X0076656Y0121260D02*
X0073032Y0121260D01*
X0073032Y0122045D02*
X0076656Y0122045D01*
X0076656Y0122831D02*
X0073032Y0122831D01*
X0073425Y0123617D02*
X0076656Y0123617D01*
X0076656Y0124403D02*
X0074017Y0124403D01*
X0074017Y0125189D02*
X0076656Y0125189D01*
X0076908Y0125975D02*
X0074017Y0125975D01*
X0074017Y0126761D02*
X0077694Y0126761D01*
X0078480Y0127547D02*
X0074017Y0127547D01*
X0073318Y0128333D02*
X0096560Y0128333D01*
X0096560Y0129119D02*
X0072532Y0129119D01*
X0071746Y0129905D02*
X0096560Y0129905D01*
X0096560Y0132262D02*
X0072070Y0132262D01*
X0082263Y0127547D02*
X0083958Y0127547D01*
X0083172Y0126761D02*
X0083049Y0126761D01*
X0085806Y0127547D02*
X0087828Y0127547D01*
X0087042Y0126761D02*
X0086592Y0126761D01*
X0086663Y0125975D02*
X0086971Y0125975D01*
X0086971Y0125189D02*
X0086663Y0125189D01*
X0089676Y0127547D02*
X0091371Y0127547D01*
X0090585Y0126761D02*
X0090462Y0126761D01*
X0095154Y0127547D02*
X0096560Y0127547D01*
X0096560Y0126761D02*
X0095940Y0126761D01*
X0095935Y0126766D02*
X0095935Y0126766D01*
X0096289Y0119688D02*
X0096560Y0119688D01*
X0096560Y0118902D02*
X0095504Y0118902D01*
X0091022Y0118902D02*
X0090026Y0118902D01*
X0090590Y0119334D02*
X0090590Y0119334D01*
X0087479Y0118902D02*
X0086156Y0118902D01*
X0086663Y0119688D02*
X0086971Y0119688D01*
X0086971Y0120474D02*
X0086663Y0120474D01*
X0086663Y0121260D02*
X0086971Y0121260D01*
X0083609Y0118902D02*
X0082613Y0118902D01*
X0085630Y0111829D02*
X0096560Y0111829D01*
X0096560Y0111043D02*
X0085733Y0111043D01*
X0085733Y0110257D02*
X0096560Y0110257D01*
X0096560Y0109471D02*
X0085733Y0109471D01*
X0085733Y0108685D02*
X0096560Y0108685D01*
X0096560Y0107899D02*
X0085733Y0107899D01*
X0085733Y0107113D02*
X0096560Y0107113D01*
X0096560Y0106327D02*
X0085733Y0106327D01*
X0085733Y0105541D02*
X0096560Y0105541D01*
X0096560Y0104755D02*
X0085647Y0104755D01*
X0083941Y0101945D02*
X0082422Y0102575D01*
X0080777Y0102575D01*
X0079258Y0101945D01*
X0078095Y0100783D01*
X0077466Y0099263D01*
X0077466Y0097619D01*
X0078095Y0096099D01*
X0079258Y0094936D01*
X0080777Y0094307D01*
X0082422Y0094307D01*
X0083941Y0094936D01*
X0085104Y0096099D01*
X0085733Y0097619D01*
X0085733Y0099263D01*
X0085104Y0100783D01*
X0083941Y0101945D01*
X0084275Y0101612D02*
X0096560Y0101612D01*
X0096560Y0102398D02*
X0082849Y0102398D01*
X0080350Y0102398D02*
X0044198Y0102398D01*
X0044198Y0103184D02*
X0096560Y0103184D01*
X0096560Y0103969D02*
X0044198Y0103969D01*
X0044198Y0104755D02*
X0077552Y0104755D01*
X0078924Y0101612D02*
X0044198Y0101612D01*
X0044198Y0100826D02*
X0078138Y0100826D01*
X0077787Y0100040D02*
X0044198Y0100040D01*
X0044198Y0099254D02*
X0077466Y0099254D01*
X0077466Y0098468D02*
X0044198Y0098468D01*
X0044198Y0097682D02*
X0077466Y0097682D01*
X0077765Y0096896D02*
X0044198Y0096896D01*
X0044198Y0096110D02*
X0078090Y0096110D01*
X0078870Y0095324D02*
X0044198Y0095324D01*
X0044198Y0094539D02*
X0080218Y0094539D01*
X0080777Y0092732D02*
X0079258Y0092103D01*
X0078095Y0090940D01*
X0077466Y0089421D01*
X0077466Y0087776D01*
X0078095Y0086257D01*
X0079258Y0085094D01*
X0080777Y0084465D01*
X0082422Y0084465D01*
X0083941Y0085094D01*
X0085104Y0086257D01*
X0085733Y0087776D01*
X0085733Y0089421D01*
X0085104Y0090940D01*
X0083941Y0092103D01*
X0082422Y0092732D01*
X0080777Y0092732D01*
X0079446Y0092181D02*
X0044198Y0092181D01*
X0044198Y0092967D02*
X0096560Y0092967D01*
X0096560Y0093753D02*
X0044198Y0093753D01*
X0044198Y0091395D02*
X0078550Y0091395D01*
X0077958Y0090609D02*
X0044198Y0090609D01*
X0044198Y0089823D02*
X0077632Y0089823D01*
X0077466Y0089037D02*
X0044198Y0089037D01*
X0044198Y0088251D02*
X0077466Y0088251D01*
X0077594Y0087465D02*
X0044198Y0087465D01*
X0044198Y0086679D02*
X0077920Y0086679D01*
X0078458Y0085893D02*
X0044198Y0085893D01*
X0044198Y0085108D02*
X0079244Y0085108D01*
X0079931Y0082784D02*
X0079321Y0082473D01*
X0078768Y0082071D01*
X0078284Y0081587D01*
X0077882Y0081034D01*
X0077571Y0080424D01*
X0077360Y0079774D01*
X0077261Y0079150D01*
X0081206Y0079150D01*
X0081206Y0083094D01*
X0080582Y0082995D01*
X0079931Y0082784D01*
X0079864Y0082750D02*
X0044198Y0082750D01*
X0044198Y0083536D02*
X0096560Y0083536D01*
X0096560Y0084322D02*
X0044198Y0084322D01*
X0044198Y0081964D02*
X0078661Y0081964D01*
X0077987Y0081178D02*
X0044198Y0081178D01*
X0044198Y0080392D02*
X0077561Y0080392D01*
X0077333Y0079606D02*
X0044198Y0079606D01*
X0044198Y0078820D02*
X0081206Y0078820D01*
X0081206Y0079150D02*
X0081206Y0078362D01*
X0081993Y0078362D01*
X0081993Y0074418D01*
X0082617Y0074516D01*
X0083268Y0074728D01*
X0083877Y0075038D01*
X0084431Y0075441D01*
X0084915Y0075924D01*
X0085317Y0076478D01*
X0085627Y0077087D01*
X0085839Y0077738D01*
X0085938Y0078362D01*
X0081993Y0078362D01*
X0081993Y0079150D01*
X0081206Y0079150D01*
X0081206Y0079606D02*
X0081993Y0079606D01*
X0081993Y0079150D02*
X0081993Y0083094D01*
X0082617Y0082995D01*
X0083268Y0082784D01*
X0083877Y0082473D01*
X0084431Y0082071D01*
X0084915Y0081587D01*
X0085317Y0081034D01*
X0085627Y0080424D01*
X0085839Y0079774D01*
X0085938Y0079150D01*
X0081993Y0079150D01*
X0081993Y0078820D02*
X0096560Y0078820D01*
X0096560Y0078034D02*
X0085886Y0078034D01*
X0085680Y0077248D02*
X0096560Y0077248D01*
X0096560Y0076463D02*
X0085306Y0076463D01*
X0084667Y0075677D02*
X0096560Y0075677D01*
X0096560Y0074891D02*
X0083587Y0074891D01*
X0081993Y0074891D02*
X0081206Y0074891D01*
X0081206Y0074418D02*
X0081206Y0078362D01*
X0077261Y0078362D01*
X0077360Y0077738D01*
X0077571Y0077087D01*
X0077882Y0076478D01*
X0078284Y0075924D01*
X0078768Y0075441D01*
X0079321Y0075038D01*
X0079931Y0074728D01*
X0080582Y0074516D01*
X0081206Y0074418D01*
X0081206Y0075677D02*
X0081993Y0075677D01*
X0081993Y0076463D02*
X0081206Y0076463D01*
X0081206Y0077248D02*
X0081993Y0077248D01*
X0081993Y0078034D02*
X0081206Y0078034D01*
X0081206Y0080392D02*
X0081993Y0080392D01*
X0081993Y0081178D02*
X0081206Y0081178D01*
X0081206Y0081964D02*
X0081993Y0081964D01*
X0081993Y0082750D02*
X0081206Y0082750D01*
X0083335Y0082750D02*
X0096560Y0082750D01*
X0096560Y0081964D02*
X0084538Y0081964D01*
X0085212Y0081178D02*
X0096560Y0081178D01*
X0096560Y0080392D02*
X0085638Y0080392D01*
X0085865Y0079606D02*
X0096560Y0079606D01*
X0096560Y0074105D02*
X0044198Y0074105D01*
X0044198Y0074891D02*
X0079611Y0074891D01*
X0078532Y0075677D02*
X0044198Y0075677D01*
X0044198Y0076463D02*
X0077893Y0076463D01*
X0077519Y0077248D02*
X0044198Y0077248D01*
X0044198Y0078034D02*
X0077313Y0078034D01*
X0083955Y0085108D02*
X0096560Y0085108D01*
X0096560Y0085893D02*
X0084741Y0085893D01*
X0085279Y0086679D02*
X0096560Y0086679D01*
X0096560Y0087465D02*
X0085605Y0087465D01*
X0085733Y0088251D02*
X0096560Y0088251D01*
X0096560Y0089037D02*
X0085733Y0089037D01*
X0085567Y0089823D02*
X0096560Y0089823D01*
X0096560Y0090609D02*
X0085241Y0090609D01*
X0084649Y0091395D02*
X0096560Y0091395D01*
X0096560Y0092181D02*
X0083753Y0092181D01*
X0082980Y0094539D02*
X0096560Y0094539D01*
X0096560Y0095324D02*
X0084329Y0095324D01*
X0085109Y0096110D02*
X0096560Y0096110D01*
X0096560Y0096896D02*
X0085434Y0096896D01*
X0085733Y0097682D02*
X0096560Y0097682D01*
X0096560Y0098468D02*
X0085733Y0098468D01*
X0085733Y0099254D02*
X0096560Y0099254D01*
X0096560Y0100040D02*
X0085412Y0100040D01*
X0085061Y0100826D02*
X0096560Y0100826D01*
X0109077Y0102398D02*
X0111555Y0102398D01*
X0109933Y0103184D02*
X0109552Y0103184D01*
X0127568Y0116544D02*
X0150891Y0116544D01*
X0150891Y0115758D02*
X0139771Y0115758D01*
X0139867Y0114972D02*
X0150891Y0114972D01*
X0150891Y0114186D02*
X0139867Y0114186D01*
X0139867Y0113400D02*
X0150891Y0113400D01*
X0150891Y0112615D02*
X0139867Y0112615D01*
X0139867Y0111829D02*
X0150891Y0111829D01*
X0150891Y0111043D02*
X0139375Y0111043D01*
X0137101Y0110257D02*
X0150891Y0110257D01*
X0150891Y0109471D02*
X0137111Y0109471D01*
X0137111Y0108685D02*
X0150891Y0108685D01*
X0150891Y0107899D02*
X0136721Y0107899D01*
X0135935Y0107113D02*
X0150891Y0107113D01*
X0150891Y0106327D02*
X0134314Y0106327D01*
X0133863Y0105541D02*
X0150891Y0105541D01*
X0150891Y0104755D02*
X0133863Y0104755D01*
X0133863Y0103969D02*
X0150891Y0103969D01*
X0150891Y0103184D02*
X0133863Y0103184D01*
X0133863Y0102398D02*
X0139153Y0102398D01*
X0138367Y0101612D02*
X0133863Y0101612D01*
X0133391Y0100826D02*
X0137581Y0100826D01*
X0134186Y0100040D02*
X0134035Y0100040D01*
X0144125Y0102398D02*
X0150891Y0102398D01*
X0150891Y0101612D02*
X0144910Y0101612D01*
X0145696Y0100826D02*
X0150891Y0100826D01*
X0150891Y0100040D02*
X0149584Y0100040D01*
X0149710Y0099254D02*
X0150891Y0099254D01*
X0150891Y0098468D02*
X0149710Y0098468D01*
X0149710Y0097682D02*
X0150891Y0097682D01*
X0150891Y0096896D02*
X0149710Y0096896D01*
X0149710Y0096110D02*
X0150891Y0096110D01*
X0150891Y0095324D02*
X0149710Y0095324D01*
X0149249Y0094539D02*
X0150891Y0094539D01*
X0150891Y0093753D02*
X0144985Y0093753D01*
X0144985Y0092967D02*
X0150891Y0092967D01*
X0150891Y0092181D02*
X0149569Y0092181D01*
X0149710Y0091395D02*
X0150891Y0091395D01*
X0150891Y0090609D02*
X0149710Y0090609D01*
X0149710Y0089823D02*
X0150891Y0089823D01*
X0150891Y0089037D02*
X0149710Y0089037D01*
X0149710Y0088251D02*
X0150891Y0088251D01*
X0150891Y0087465D02*
X0149710Y0087465D01*
X0149264Y0086679D02*
X0150891Y0086679D01*
X0150891Y0085893D02*
X0149710Y0085893D01*
X0149710Y0085108D02*
X0150891Y0085108D01*
X0150891Y0084322D02*
X0149710Y0084322D01*
X0149710Y0083536D02*
X0150891Y0083536D01*
X0150891Y0082750D02*
X0149710Y0082750D01*
X0149710Y0081964D02*
X0150891Y0081964D01*
X0150891Y0081178D02*
X0149668Y0081178D01*
X0150891Y0080392D02*
X0146174Y0080392D01*
X0145388Y0079606D02*
X0150891Y0079606D01*
X0150891Y0078820D02*
X0144602Y0078820D01*
X0143816Y0078034D02*
X0150891Y0078034D01*
X0150891Y0077248D02*
X0143031Y0077248D01*
X0142245Y0076463D02*
X0150891Y0076463D01*
X0157190Y0074105D02*
X0209552Y0074105D01*
X0209552Y0073319D02*
X0157190Y0073319D01*
X0157190Y0072533D02*
X0209552Y0072533D01*
X0209552Y0071747D02*
X0157190Y0071747D01*
X0146049Y0052099D02*
X0141422Y0052099D01*
X0141836Y0051313D02*
X0144767Y0051313D01*
X0144016Y0050527D02*
X0141836Y0050527D01*
X0141836Y0049741D02*
X0143690Y0049741D01*
X0143410Y0048956D02*
X0141836Y0048956D01*
X0141836Y0048170D02*
X0143410Y0048170D01*
X0143426Y0047384D02*
X0141836Y0047384D01*
X0141836Y0046598D02*
X0143752Y0046598D01*
X0144130Y0045812D02*
X0141836Y0045812D01*
X0141836Y0045026D02*
X0144916Y0045026D01*
X0133568Y0045026D02*
X0118977Y0045026D01*
X0119654Y0045812D02*
X0133568Y0045812D01*
X0133568Y0046598D02*
X0120083Y0046598D01*
X0120313Y0047384D02*
X0133568Y0047384D01*
X0104711Y0052099D02*
X0097858Y0052099D01*
X0099140Y0051313D02*
X0103429Y0051313D01*
X0102677Y0050527D02*
X0099892Y0050527D01*
X0100217Y0049741D02*
X0102352Y0049741D01*
X0102072Y0048956D02*
X0100497Y0048956D01*
X0100497Y0048170D02*
X0102072Y0048170D01*
X0102088Y0047384D02*
X0100481Y0047384D01*
X0100156Y0046598D02*
X0102413Y0046598D01*
X0102792Y0045812D02*
X0099777Y0045812D01*
X0098991Y0045026D02*
X0103578Y0045026D01*
X0100728Y0063102D02*
X0100376Y0063102D01*
X0100186Y0063888D02*
X0101514Y0063888D01*
X0093920Y0064674D02*
X0091987Y0064674D01*
X0092773Y0063888D02*
X0093134Y0063888D01*
X0096560Y0071747D02*
X0044198Y0071747D01*
X0044198Y0072533D02*
X0096560Y0072533D01*
X0096560Y0073319D02*
X0044198Y0073319D01*
X0113327Y0134620D02*
X0139473Y0134620D01*
X0137505Y0135406D02*
X0134253Y0135406D01*
X0134138Y0135291D02*
X0135301Y0136454D01*
X0135930Y0137973D01*
X0135930Y0139618D01*
X0135301Y0141137D01*
X0134138Y0142300D01*
X0132619Y0142929D01*
X0130974Y0142929D01*
X0129455Y0142300D01*
X0128292Y0141137D01*
X0127662Y0139618D01*
X0127662Y0137973D01*
X0128292Y0136454D01*
X0129455Y0135291D01*
X0130974Y0134661D01*
X0132619Y0134661D01*
X0134138Y0135291D01*
X0135039Y0136192D02*
X0137505Y0136192D01*
X0137505Y0136978D02*
X0135518Y0136978D01*
X0135843Y0137764D02*
X0137505Y0137764D01*
X0137505Y0138550D02*
X0135930Y0138550D01*
X0135930Y0139336D02*
X0137505Y0139336D01*
X0137505Y0140121D02*
X0135721Y0140121D01*
X0135396Y0140907D02*
X0137505Y0140907D01*
X0137505Y0141693D02*
X0134744Y0141693D01*
X0133705Y0142479D02*
X0137747Y0142479D01*
X0129888Y0142479D02*
X0123862Y0142479D01*
X0124902Y0141693D02*
X0128848Y0141693D01*
X0128197Y0140907D02*
X0125553Y0140907D01*
X0125879Y0140121D02*
X0127871Y0140121D01*
X0127662Y0139336D02*
X0126088Y0139336D01*
X0126088Y0138550D02*
X0127662Y0138550D01*
X0127749Y0137764D02*
X0126001Y0137764D01*
X0125675Y0136978D02*
X0128075Y0136978D01*
X0128553Y0136192D02*
X0125197Y0136192D01*
X0124411Y0135406D02*
X0129339Y0135406D01*
X0157190Y0117330D02*
X0180718Y0117330D01*
X0180718Y0116544D02*
X0157190Y0116544D01*
X0157190Y0115758D02*
X0180718Y0115758D01*
X0180718Y0114972D02*
X0157190Y0114972D01*
X0157190Y0114186D02*
X0180718Y0114186D01*
X0180718Y0113400D02*
X0157190Y0113400D01*
X0157190Y0112615D02*
X0171711Y0112615D01*
X0171757Y0112615D02*
X0172544Y0112615D01*
X0172544Y0112622D02*
X0172544Y0108677D01*
X0176489Y0108677D01*
X0176390Y0109301D01*
X0176179Y0109952D01*
X0175868Y0110562D01*
X0175466Y0111115D01*
X0174982Y0111599D01*
X0174429Y0112001D01*
X0173819Y0112311D01*
X0173168Y0112523D01*
X0172544Y0112622D01*
X0172590Y0112615D02*
X0180718Y0112615D01*
X0180718Y0111829D02*
X0174666Y0111829D01*
X0175518Y0111043D02*
X0180718Y0111043D01*
X0180718Y0110257D02*
X0176023Y0110257D01*
X0176335Y0109471D02*
X0180718Y0109471D01*
X0180718Y0108685D02*
X0176488Y0108685D01*
X0172544Y0108685D02*
X0171757Y0108685D01*
X0171757Y0108677D02*
X0171757Y0112622D01*
X0171133Y0112523D01*
X0170482Y0112311D01*
X0169873Y0112001D01*
X0169319Y0111599D01*
X0168835Y0111115D01*
X0168433Y0110562D01*
X0168123Y0109952D01*
X0167911Y0109301D01*
X0167812Y0108677D01*
X0171757Y0108677D01*
X0171757Y0107899D02*
X0157190Y0107899D01*
X0157190Y0107113D02*
X0167961Y0107113D01*
X0168269Y0106327D02*
X0157190Y0106327D01*
X0157190Y0105541D02*
X0168770Y0105541D01*
X0169612Y0104755D02*
X0157190Y0104755D01*
X0157190Y0108685D02*
X0167814Y0108685D01*
X0167966Y0109471D02*
X0157190Y0109471D01*
X0157190Y0110257D02*
X0168278Y0110257D01*
X0168783Y0111043D02*
X0157190Y0111043D01*
X0157190Y0111829D02*
X0169635Y0111829D01*
X0171757Y0111829D02*
X0172544Y0111829D01*
X0172544Y0111043D02*
X0171757Y0111043D01*
X0171757Y0110257D02*
X0172544Y0110257D01*
X0172544Y0109471D02*
X0171757Y0109471D01*
X0171730Y0118902D02*
X0170734Y0118902D01*
X0168187Y0118902D02*
X0166864Y0118902D01*
X0167372Y0119688D02*
X0167680Y0119688D01*
X0167680Y0120474D02*
X0167372Y0120474D01*
X0167372Y0121260D02*
X0167680Y0121260D01*
X0167680Y0125189D02*
X0167372Y0125189D01*
X0167372Y0125975D02*
X0167680Y0125975D01*
X0167751Y0126761D02*
X0167301Y0126761D01*
X0166515Y0127547D02*
X0168537Y0127547D01*
X0170385Y0127547D02*
X0172080Y0127547D01*
X0171294Y0126761D02*
X0171171Y0126761D01*
X0164667Y0127547D02*
X0162972Y0127547D01*
X0163758Y0126761D02*
X0163881Y0126761D01*
X0164317Y0118902D02*
X0163321Y0118902D01*
X0189471Y0151910D02*
X0064279Y0151910D01*
X0065361Y0152696D02*
X0188389Y0152696D01*
X0187307Y0153482D02*
X0066443Y0153482D01*
X0067142Y0154268D02*
X0186608Y0154268D01*
X0187035Y0153680D02*
X0187035Y0153680D01*
X0186037Y0155054D02*
X0067713Y0155054D01*
X0068284Y0155840D02*
X0185466Y0155840D01*
X0184895Y0156626D02*
X0068855Y0156626D01*
X0069184Y0157412D02*
X0184566Y0157412D01*
X0184311Y0158197D02*
X0069439Y0158197D01*
X0069694Y0158983D02*
X0184056Y0158983D01*
X0183800Y0159769D02*
X0069950Y0159769D01*
X0070182Y0160555D02*
X0183568Y0160555D01*
X0183568Y0161341D02*
X0070182Y0161341D01*
X0070182Y0162127D02*
X0183568Y0162127D01*
X0183568Y0162913D02*
X0070182Y0162913D01*
X0070182Y0163699D02*
X0075493Y0163699D01*
X0075550Y0163642D02*
X0077026Y0163642D01*
X0078069Y0164685D01*
X0078069Y0166544D01*
X0078377Y0166544D01*
X0078377Y0164685D01*
X0079420Y0163642D01*
X0080896Y0163642D01*
X0081930Y0164675D01*
X0082963Y0163642D01*
X0086374Y0163642D01*
X0087341Y0164609D01*
X0087341Y0164609D01*
X0087394Y0164662D01*
X0087408Y0164675D01*
X0088441Y0163642D01*
X0092819Y0163642D01*
X0093787Y0164609D01*
X0093839Y0164662D01*
X0094821Y0165643D01*
X0095831Y0164633D01*
X0095854Y0164609D01*
X0096822Y0163642D01*
X0098297Y0163642D01*
X0099341Y0164685D01*
X0099341Y0166161D01*
X0098373Y0167128D01*
X0098373Y0167588D01*
X0099341Y0168555D01*
X0099341Y0170031D01*
X0098297Y0171074D01*
X0097330Y0172041D01*
X0095854Y0172041D01*
X0094811Y0170998D01*
X0094337Y0170524D01*
X0093787Y0171074D01*
X0089409Y0171074D01*
X0088418Y0170083D01*
X0088366Y0170031D01*
X0087903Y0169568D01*
X0087891Y0169556D01*
X0087417Y0170031D01*
X0086374Y0171074D01*
X0082963Y0171074D01*
X0081943Y0170054D01*
X0081939Y0170050D01*
X0081939Y0171966D01*
X0080896Y0173009D01*
X0079420Y0173009D01*
X0078377Y0171966D01*
X0078377Y0170106D01*
X0078069Y0170106D01*
X0078069Y0171966D01*
X0077026Y0173009D01*
X0075550Y0173009D01*
X0074507Y0171966D01*
X0074507Y0164685D01*
X0075550Y0163642D01*
X0074707Y0164485D02*
X0070182Y0164485D01*
X0070182Y0165271D02*
X0074507Y0165271D01*
X0074507Y0166057D02*
X0070182Y0166057D01*
X0070182Y0166843D02*
X0074507Y0166843D01*
X0074507Y0167628D02*
X0070182Y0167628D01*
X0070182Y0168414D02*
X0074507Y0168414D01*
X0074507Y0169200D02*
X0070182Y0169200D01*
X0070182Y0169986D02*
X0074507Y0169986D01*
X0074507Y0170772D02*
X0070182Y0170772D01*
X0070182Y0171558D02*
X0074507Y0171558D01*
X0074885Y0172344D02*
X0070182Y0172344D01*
X0070182Y0173130D02*
X0183568Y0173130D01*
X0183568Y0173916D02*
X0070182Y0173916D01*
X0070182Y0174702D02*
X0183568Y0174702D01*
X0183568Y0175488D02*
X0070182Y0175488D01*
X0077691Y0172344D02*
X0078755Y0172344D01*
X0078377Y0171558D02*
X0078069Y0171558D01*
X0078069Y0170772D02*
X0078377Y0170772D01*
X0081561Y0172344D02*
X0183568Y0172344D01*
X0183568Y0171558D02*
X0097813Y0171558D01*
X0098599Y0170772D02*
X0183568Y0170772D01*
X0183568Y0169986D02*
X0099341Y0169986D01*
X0099341Y0169200D02*
X0183568Y0169200D01*
X0183568Y0168414D02*
X0099200Y0168414D01*
X0098414Y0167628D02*
X0183568Y0167628D01*
X0183568Y0166843D02*
X0098659Y0166843D01*
X0099341Y0166057D02*
X0183568Y0166057D01*
X0183568Y0165271D02*
X0099341Y0165271D01*
X0099140Y0164485D02*
X0183568Y0164485D01*
X0183568Y0163699D02*
X0098355Y0163699D01*
X0096765Y0163699D02*
X0092877Y0163699D01*
X0093662Y0164485D02*
X0095979Y0164485D01*
X0095193Y0165271D02*
X0094448Y0165271D01*
X0094585Y0170772D02*
X0094089Y0170772D01*
X0094811Y0170998D02*
X0094811Y0170998D01*
X0095371Y0171558D02*
X0081939Y0171558D01*
X0081939Y0170772D02*
X0082662Y0170772D01*
X0086676Y0170772D02*
X0089107Y0170772D01*
X0088321Y0169986D02*
X0087462Y0169986D01*
X0087598Y0164485D02*
X0087217Y0164485D01*
X0086431Y0163699D02*
X0088384Y0163699D01*
X0082906Y0163699D02*
X0080953Y0163699D01*
X0081739Y0164485D02*
X0082120Y0164485D01*
X0079363Y0163699D02*
X0077083Y0163699D01*
X0077869Y0164485D02*
X0078577Y0164485D01*
X0078377Y0165271D02*
X0078069Y0165271D01*
X0078069Y0166057D02*
X0078377Y0166057D01*
X0062716Y0151124D02*
X0191034Y0151124D01*
X0193453Y0150338D02*
X0060297Y0150338D01*
X0184778Y0070961D02*
X0209552Y0070961D01*
X0209552Y0070175D02*
X0186075Y0070175D01*
X0186671Y0069389D02*
X0209552Y0069389D01*
X0209552Y0068603D02*
X0186997Y0068603D01*
X0187017Y0067817D02*
X0209552Y0067817D01*
X0209552Y0067032D02*
X0187017Y0067032D01*
X0187017Y0066246D02*
X0209552Y0066246D01*
X0209552Y0065460D02*
X0187017Y0065460D01*
X0187017Y0064674D02*
X0209552Y0064674D01*
X0209552Y0063888D02*
X0187017Y0063888D01*
X0187729Y0063102D02*
X0209552Y0063102D01*
X0209552Y0062316D02*
X0188001Y0062316D01*
X0188001Y0061530D02*
X0209552Y0061530D01*
X0209552Y0060744D02*
X0188001Y0060744D01*
X0188001Y0059958D02*
X0209552Y0059958D01*
X0209552Y0059172D02*
X0187768Y0059172D01*
X0186982Y0058387D02*
X0209552Y0058387D01*
X0209552Y0057601D02*
X0186196Y0057601D01*
D23*
X0126875Y0104150D02*
X0126875Y0111236D01*
X0124907Y0113205D01*
X0124907Y0113598D01*
D24*
X0119001Y0115173D02*
X0119001Y0128953D01*
X0099710Y0128953D01*
X0099710Y0135921D01*
X0069883Y0135921D01*
X0069883Y0125921D02*
X0069883Y0108283D01*
X0081599Y0108283D01*
X0099710Y0105331D02*
X0099710Y0097457D01*
X0099710Y0089583D01*
X0099710Y0067929D01*
X0069883Y0067929D01*
X0069883Y0059150D01*
X0069883Y0049150D02*
X0086521Y0049150D01*
X0086521Y0048244D01*
X0137702Y0048244D02*
X0137702Y0038402D01*
X0183867Y0038402D01*
X0183867Y0051118D01*
X0183867Y0061118D02*
X0183867Y0067929D01*
X0154040Y0067929D01*
X0154040Y0083677D01*
X0154040Y0089583D01*
X0154040Y0097457D01*
X0154040Y0128953D01*
X0154040Y0135921D01*
X0183867Y0135921D01*
X0183867Y0125921D02*
X0183867Y0078756D01*
X0172151Y0078756D01*
X0136718Y0120685D02*
X0130812Y0120685D01*
X0130812Y0128953D01*
X0119001Y0128953D01*
X0130812Y0128953D02*
X0142623Y0128953D01*
X0142623Y0138795D01*
X0142623Y0128953D02*
X0154040Y0128953D01*
X0099710Y0128953D02*
X0099710Y0117142D01*
X0099710Y0111236D01*
X0099710Y0105331D01*
D25*
X0119001Y0115173D02*
X0120576Y0113598D01*
X0124907Y0113598D01*
M02*
