G75*
%MOIN*%
%OFA0B0*%
%FSLAX25Y25*%
%IPPOS*%
%LPD*%
%AMOC8*
5,1,8,0,0,1.08239X$1,22.5*
%
%ADD10C,0.00000*%
D10*
X0042229Y0038775D02*
X0042229Y0062791D01*
X0042229Y0058460D02*
X0042229Y0156886D01*
X0042229Y0152555D02*
X0042229Y0176571D01*
X0042234Y0176952D01*
X0042247Y0177332D01*
X0042270Y0177712D01*
X0042303Y0178091D01*
X0042344Y0178469D01*
X0042394Y0178846D01*
X0042454Y0179222D01*
X0042522Y0179597D01*
X0042600Y0179969D01*
X0042687Y0180340D01*
X0042782Y0180708D01*
X0042887Y0181074D01*
X0043000Y0181437D01*
X0043122Y0181798D01*
X0043252Y0182155D01*
X0043392Y0182509D01*
X0043539Y0182860D01*
X0043696Y0183207D01*
X0043860Y0183550D01*
X0044033Y0183889D01*
X0044214Y0184224D01*
X0044403Y0184555D01*
X0044600Y0184880D01*
X0044804Y0185201D01*
X0045017Y0185517D01*
X0045237Y0185827D01*
X0045464Y0186133D01*
X0045699Y0186432D01*
X0045941Y0186726D01*
X0046189Y0187014D01*
X0046445Y0187296D01*
X0046708Y0187571D01*
X0046977Y0187840D01*
X0047252Y0188103D01*
X0047534Y0188359D01*
X0047822Y0188607D01*
X0048116Y0188849D01*
X0048415Y0189084D01*
X0048721Y0189311D01*
X0049031Y0189531D01*
X0049347Y0189744D01*
X0049668Y0189948D01*
X0049993Y0190145D01*
X0050324Y0190334D01*
X0050659Y0190515D01*
X0050998Y0190688D01*
X0051341Y0190852D01*
X0051688Y0191009D01*
X0052039Y0191156D01*
X0052393Y0191296D01*
X0052750Y0191426D01*
X0053111Y0191548D01*
X0053474Y0191661D01*
X0053840Y0191766D01*
X0054208Y0191861D01*
X0054579Y0191948D01*
X0054951Y0192026D01*
X0055326Y0192094D01*
X0055702Y0192154D01*
X0056079Y0192204D01*
X0056457Y0192245D01*
X0056836Y0192278D01*
X0057216Y0192301D01*
X0057596Y0192314D01*
X0057977Y0192319D01*
X0081993Y0192319D01*
X0077662Y0192319D02*
X0176088Y0192319D01*
X0171757Y0192319D02*
X0195773Y0192319D01*
X0196154Y0192314D01*
X0196534Y0192301D01*
X0196914Y0192278D01*
X0197293Y0192245D01*
X0197671Y0192204D01*
X0198048Y0192154D01*
X0198424Y0192094D01*
X0198799Y0192026D01*
X0199171Y0191948D01*
X0199542Y0191861D01*
X0199910Y0191766D01*
X0200276Y0191661D01*
X0200639Y0191548D01*
X0201000Y0191426D01*
X0201357Y0191296D01*
X0201711Y0191156D01*
X0202062Y0191009D01*
X0202409Y0190852D01*
X0202752Y0190688D01*
X0203091Y0190515D01*
X0203426Y0190334D01*
X0203757Y0190145D01*
X0204082Y0189948D01*
X0204403Y0189744D01*
X0204719Y0189531D01*
X0205029Y0189311D01*
X0205335Y0189084D01*
X0205634Y0188849D01*
X0205928Y0188607D01*
X0206216Y0188359D01*
X0206498Y0188103D01*
X0206773Y0187840D01*
X0207042Y0187571D01*
X0207305Y0187296D01*
X0207561Y0187014D01*
X0207809Y0186726D01*
X0208051Y0186432D01*
X0208286Y0186133D01*
X0208513Y0185827D01*
X0208733Y0185517D01*
X0208946Y0185201D01*
X0209150Y0184880D01*
X0209347Y0184555D01*
X0209536Y0184224D01*
X0209717Y0183889D01*
X0209890Y0183550D01*
X0210054Y0183207D01*
X0210211Y0182860D01*
X0210358Y0182509D01*
X0210498Y0182155D01*
X0210628Y0181798D01*
X0210750Y0181437D01*
X0210863Y0181074D01*
X0210968Y0180708D01*
X0211063Y0180340D01*
X0211150Y0179969D01*
X0211228Y0179597D01*
X0211296Y0179222D01*
X0211356Y0178846D01*
X0211406Y0178469D01*
X0211447Y0178091D01*
X0211480Y0177712D01*
X0211503Y0177332D01*
X0211516Y0176952D01*
X0211521Y0176571D01*
X0211521Y0152555D01*
X0211521Y0156886D02*
X0211521Y0058460D01*
X0211521Y0062791D02*
X0211521Y0038775D01*
X0211516Y0038394D01*
X0211503Y0038014D01*
X0211480Y0037634D01*
X0211447Y0037255D01*
X0211406Y0036877D01*
X0211356Y0036500D01*
X0211296Y0036124D01*
X0211228Y0035749D01*
X0211150Y0035377D01*
X0211063Y0035006D01*
X0210968Y0034638D01*
X0210863Y0034272D01*
X0210750Y0033909D01*
X0210628Y0033548D01*
X0210498Y0033191D01*
X0210358Y0032837D01*
X0210211Y0032486D01*
X0210054Y0032139D01*
X0209890Y0031796D01*
X0209717Y0031457D01*
X0209536Y0031122D01*
X0209347Y0030791D01*
X0209150Y0030466D01*
X0208946Y0030145D01*
X0208733Y0029829D01*
X0208513Y0029519D01*
X0208286Y0029213D01*
X0208051Y0028914D01*
X0207809Y0028620D01*
X0207561Y0028332D01*
X0207305Y0028050D01*
X0207042Y0027775D01*
X0206773Y0027506D01*
X0206498Y0027243D01*
X0206216Y0026987D01*
X0205928Y0026739D01*
X0205634Y0026497D01*
X0205335Y0026262D01*
X0205029Y0026035D01*
X0204719Y0025815D01*
X0204403Y0025602D01*
X0204082Y0025398D01*
X0203757Y0025201D01*
X0203426Y0025012D01*
X0203091Y0024831D01*
X0202752Y0024658D01*
X0202409Y0024494D01*
X0202062Y0024337D01*
X0201711Y0024190D01*
X0201357Y0024050D01*
X0201000Y0023920D01*
X0200639Y0023798D01*
X0200276Y0023685D01*
X0199910Y0023580D01*
X0199542Y0023485D01*
X0199171Y0023398D01*
X0198799Y0023320D01*
X0198424Y0023252D01*
X0198048Y0023192D01*
X0197671Y0023142D01*
X0197293Y0023101D01*
X0196914Y0023068D01*
X0196534Y0023045D01*
X0196154Y0023032D01*
X0195773Y0023027D01*
X0171757Y0023027D01*
X0176088Y0023027D02*
X0077662Y0023027D01*
X0081993Y0023027D02*
X0057977Y0023027D01*
X0057596Y0023032D01*
X0057216Y0023045D01*
X0056836Y0023068D01*
X0056457Y0023101D01*
X0056079Y0023142D01*
X0055702Y0023192D01*
X0055326Y0023252D01*
X0054951Y0023320D01*
X0054579Y0023398D01*
X0054208Y0023485D01*
X0053840Y0023580D01*
X0053474Y0023685D01*
X0053111Y0023798D01*
X0052750Y0023920D01*
X0052393Y0024050D01*
X0052039Y0024190D01*
X0051688Y0024337D01*
X0051341Y0024494D01*
X0050998Y0024658D01*
X0050659Y0024831D01*
X0050324Y0025012D01*
X0049993Y0025201D01*
X0049668Y0025398D01*
X0049347Y0025602D01*
X0049031Y0025815D01*
X0048721Y0026035D01*
X0048415Y0026262D01*
X0048116Y0026497D01*
X0047822Y0026739D01*
X0047534Y0026987D01*
X0047252Y0027243D01*
X0046977Y0027506D01*
X0046708Y0027775D01*
X0046445Y0028050D01*
X0046189Y0028332D01*
X0045941Y0028620D01*
X0045699Y0028914D01*
X0045464Y0029213D01*
X0045237Y0029519D01*
X0045017Y0029829D01*
X0044804Y0030145D01*
X0044600Y0030466D01*
X0044403Y0030791D01*
X0044214Y0031122D01*
X0044033Y0031457D01*
X0043860Y0031796D01*
X0043696Y0032139D01*
X0043539Y0032486D01*
X0043392Y0032837D01*
X0043252Y0033191D01*
X0043122Y0033548D01*
X0043000Y0033909D01*
X0042887Y0034272D01*
X0042782Y0034638D01*
X0042687Y0035006D01*
X0042600Y0035377D01*
X0042522Y0035749D01*
X0042454Y0036124D01*
X0042394Y0036500D01*
X0042344Y0036877D01*
X0042303Y0037255D01*
X0042270Y0037634D01*
X0042247Y0038014D01*
X0042234Y0038394D01*
X0042229Y0038775D01*
X0051678Y0038775D02*
X0051680Y0038933D01*
X0051686Y0039091D01*
X0051696Y0039249D01*
X0051710Y0039407D01*
X0051728Y0039564D01*
X0051749Y0039721D01*
X0051775Y0039877D01*
X0051805Y0040033D01*
X0051838Y0040188D01*
X0051876Y0040341D01*
X0051917Y0040494D01*
X0051962Y0040646D01*
X0052011Y0040797D01*
X0052064Y0040946D01*
X0052120Y0041094D01*
X0052180Y0041240D01*
X0052244Y0041385D01*
X0052312Y0041528D01*
X0052383Y0041670D01*
X0052457Y0041810D01*
X0052535Y0041947D01*
X0052617Y0042083D01*
X0052701Y0042217D01*
X0052790Y0042348D01*
X0052881Y0042477D01*
X0052976Y0042604D01*
X0053073Y0042729D01*
X0053174Y0042851D01*
X0053278Y0042970D01*
X0053385Y0043087D01*
X0053495Y0043201D01*
X0053608Y0043312D01*
X0053723Y0043421D01*
X0053841Y0043526D01*
X0053962Y0043628D01*
X0054085Y0043728D01*
X0054211Y0043824D01*
X0054339Y0043917D01*
X0054469Y0044007D01*
X0054602Y0044093D01*
X0054737Y0044177D01*
X0054873Y0044256D01*
X0055012Y0044333D01*
X0055153Y0044405D01*
X0055295Y0044475D01*
X0055439Y0044540D01*
X0055585Y0044602D01*
X0055732Y0044660D01*
X0055881Y0044715D01*
X0056031Y0044766D01*
X0056182Y0044813D01*
X0056334Y0044856D01*
X0056487Y0044895D01*
X0056642Y0044931D01*
X0056797Y0044962D01*
X0056953Y0044990D01*
X0057109Y0045014D01*
X0057266Y0045034D01*
X0057424Y0045050D01*
X0057581Y0045062D01*
X0057740Y0045070D01*
X0057898Y0045074D01*
X0058056Y0045074D01*
X0058214Y0045070D01*
X0058373Y0045062D01*
X0058530Y0045050D01*
X0058688Y0045034D01*
X0058845Y0045014D01*
X0059001Y0044990D01*
X0059157Y0044962D01*
X0059312Y0044931D01*
X0059467Y0044895D01*
X0059620Y0044856D01*
X0059772Y0044813D01*
X0059923Y0044766D01*
X0060073Y0044715D01*
X0060222Y0044660D01*
X0060369Y0044602D01*
X0060515Y0044540D01*
X0060659Y0044475D01*
X0060801Y0044405D01*
X0060942Y0044333D01*
X0061081Y0044256D01*
X0061217Y0044177D01*
X0061352Y0044093D01*
X0061485Y0044007D01*
X0061615Y0043917D01*
X0061743Y0043824D01*
X0061869Y0043728D01*
X0061992Y0043628D01*
X0062113Y0043526D01*
X0062231Y0043421D01*
X0062346Y0043312D01*
X0062459Y0043201D01*
X0062569Y0043087D01*
X0062676Y0042970D01*
X0062780Y0042851D01*
X0062881Y0042729D01*
X0062978Y0042604D01*
X0063073Y0042477D01*
X0063164Y0042348D01*
X0063253Y0042217D01*
X0063337Y0042083D01*
X0063419Y0041947D01*
X0063497Y0041810D01*
X0063571Y0041670D01*
X0063642Y0041528D01*
X0063710Y0041385D01*
X0063774Y0041240D01*
X0063834Y0041094D01*
X0063890Y0040946D01*
X0063943Y0040797D01*
X0063992Y0040646D01*
X0064037Y0040494D01*
X0064078Y0040341D01*
X0064116Y0040188D01*
X0064149Y0040033D01*
X0064179Y0039877D01*
X0064205Y0039721D01*
X0064226Y0039564D01*
X0064244Y0039407D01*
X0064258Y0039249D01*
X0064268Y0039091D01*
X0064274Y0038933D01*
X0064276Y0038775D01*
X0064274Y0038617D01*
X0064268Y0038459D01*
X0064258Y0038301D01*
X0064244Y0038143D01*
X0064226Y0037986D01*
X0064205Y0037829D01*
X0064179Y0037673D01*
X0064149Y0037517D01*
X0064116Y0037362D01*
X0064078Y0037209D01*
X0064037Y0037056D01*
X0063992Y0036904D01*
X0063943Y0036753D01*
X0063890Y0036604D01*
X0063834Y0036456D01*
X0063774Y0036310D01*
X0063710Y0036165D01*
X0063642Y0036022D01*
X0063571Y0035880D01*
X0063497Y0035740D01*
X0063419Y0035603D01*
X0063337Y0035467D01*
X0063253Y0035333D01*
X0063164Y0035202D01*
X0063073Y0035073D01*
X0062978Y0034946D01*
X0062881Y0034821D01*
X0062780Y0034699D01*
X0062676Y0034580D01*
X0062569Y0034463D01*
X0062459Y0034349D01*
X0062346Y0034238D01*
X0062231Y0034129D01*
X0062113Y0034024D01*
X0061992Y0033922D01*
X0061869Y0033822D01*
X0061743Y0033726D01*
X0061615Y0033633D01*
X0061485Y0033543D01*
X0061352Y0033457D01*
X0061217Y0033373D01*
X0061081Y0033294D01*
X0060942Y0033217D01*
X0060801Y0033145D01*
X0060659Y0033075D01*
X0060515Y0033010D01*
X0060369Y0032948D01*
X0060222Y0032890D01*
X0060073Y0032835D01*
X0059923Y0032784D01*
X0059772Y0032737D01*
X0059620Y0032694D01*
X0059467Y0032655D01*
X0059312Y0032619D01*
X0059157Y0032588D01*
X0059001Y0032560D01*
X0058845Y0032536D01*
X0058688Y0032516D01*
X0058530Y0032500D01*
X0058373Y0032488D01*
X0058214Y0032480D01*
X0058056Y0032476D01*
X0057898Y0032476D01*
X0057740Y0032480D01*
X0057581Y0032488D01*
X0057424Y0032500D01*
X0057266Y0032516D01*
X0057109Y0032536D01*
X0056953Y0032560D01*
X0056797Y0032588D01*
X0056642Y0032619D01*
X0056487Y0032655D01*
X0056334Y0032694D01*
X0056182Y0032737D01*
X0056031Y0032784D01*
X0055881Y0032835D01*
X0055732Y0032890D01*
X0055585Y0032948D01*
X0055439Y0033010D01*
X0055295Y0033075D01*
X0055153Y0033145D01*
X0055012Y0033217D01*
X0054873Y0033294D01*
X0054737Y0033373D01*
X0054602Y0033457D01*
X0054469Y0033543D01*
X0054339Y0033633D01*
X0054211Y0033726D01*
X0054085Y0033822D01*
X0053962Y0033922D01*
X0053841Y0034024D01*
X0053723Y0034129D01*
X0053608Y0034238D01*
X0053495Y0034349D01*
X0053385Y0034463D01*
X0053278Y0034580D01*
X0053174Y0034699D01*
X0053073Y0034821D01*
X0052976Y0034946D01*
X0052881Y0035073D01*
X0052790Y0035202D01*
X0052701Y0035333D01*
X0052617Y0035467D01*
X0052535Y0035603D01*
X0052457Y0035740D01*
X0052383Y0035880D01*
X0052312Y0036022D01*
X0052244Y0036165D01*
X0052180Y0036310D01*
X0052120Y0036456D01*
X0052064Y0036604D01*
X0052011Y0036753D01*
X0051962Y0036904D01*
X0051917Y0037056D01*
X0051876Y0037209D01*
X0051838Y0037362D01*
X0051805Y0037517D01*
X0051775Y0037673D01*
X0051749Y0037829D01*
X0051728Y0037986D01*
X0051710Y0038143D01*
X0051696Y0038301D01*
X0051686Y0038459D01*
X0051680Y0038617D01*
X0051678Y0038775D01*
X0051678Y0176571D02*
X0051680Y0176729D01*
X0051686Y0176887D01*
X0051696Y0177045D01*
X0051710Y0177203D01*
X0051728Y0177360D01*
X0051749Y0177517D01*
X0051775Y0177673D01*
X0051805Y0177829D01*
X0051838Y0177984D01*
X0051876Y0178137D01*
X0051917Y0178290D01*
X0051962Y0178442D01*
X0052011Y0178593D01*
X0052064Y0178742D01*
X0052120Y0178890D01*
X0052180Y0179036D01*
X0052244Y0179181D01*
X0052312Y0179324D01*
X0052383Y0179466D01*
X0052457Y0179606D01*
X0052535Y0179743D01*
X0052617Y0179879D01*
X0052701Y0180013D01*
X0052790Y0180144D01*
X0052881Y0180273D01*
X0052976Y0180400D01*
X0053073Y0180525D01*
X0053174Y0180647D01*
X0053278Y0180766D01*
X0053385Y0180883D01*
X0053495Y0180997D01*
X0053608Y0181108D01*
X0053723Y0181217D01*
X0053841Y0181322D01*
X0053962Y0181424D01*
X0054085Y0181524D01*
X0054211Y0181620D01*
X0054339Y0181713D01*
X0054469Y0181803D01*
X0054602Y0181889D01*
X0054737Y0181973D01*
X0054873Y0182052D01*
X0055012Y0182129D01*
X0055153Y0182201D01*
X0055295Y0182271D01*
X0055439Y0182336D01*
X0055585Y0182398D01*
X0055732Y0182456D01*
X0055881Y0182511D01*
X0056031Y0182562D01*
X0056182Y0182609D01*
X0056334Y0182652D01*
X0056487Y0182691D01*
X0056642Y0182727D01*
X0056797Y0182758D01*
X0056953Y0182786D01*
X0057109Y0182810D01*
X0057266Y0182830D01*
X0057424Y0182846D01*
X0057581Y0182858D01*
X0057740Y0182866D01*
X0057898Y0182870D01*
X0058056Y0182870D01*
X0058214Y0182866D01*
X0058373Y0182858D01*
X0058530Y0182846D01*
X0058688Y0182830D01*
X0058845Y0182810D01*
X0059001Y0182786D01*
X0059157Y0182758D01*
X0059312Y0182727D01*
X0059467Y0182691D01*
X0059620Y0182652D01*
X0059772Y0182609D01*
X0059923Y0182562D01*
X0060073Y0182511D01*
X0060222Y0182456D01*
X0060369Y0182398D01*
X0060515Y0182336D01*
X0060659Y0182271D01*
X0060801Y0182201D01*
X0060942Y0182129D01*
X0061081Y0182052D01*
X0061217Y0181973D01*
X0061352Y0181889D01*
X0061485Y0181803D01*
X0061615Y0181713D01*
X0061743Y0181620D01*
X0061869Y0181524D01*
X0061992Y0181424D01*
X0062113Y0181322D01*
X0062231Y0181217D01*
X0062346Y0181108D01*
X0062459Y0180997D01*
X0062569Y0180883D01*
X0062676Y0180766D01*
X0062780Y0180647D01*
X0062881Y0180525D01*
X0062978Y0180400D01*
X0063073Y0180273D01*
X0063164Y0180144D01*
X0063253Y0180013D01*
X0063337Y0179879D01*
X0063419Y0179743D01*
X0063497Y0179606D01*
X0063571Y0179466D01*
X0063642Y0179324D01*
X0063710Y0179181D01*
X0063774Y0179036D01*
X0063834Y0178890D01*
X0063890Y0178742D01*
X0063943Y0178593D01*
X0063992Y0178442D01*
X0064037Y0178290D01*
X0064078Y0178137D01*
X0064116Y0177984D01*
X0064149Y0177829D01*
X0064179Y0177673D01*
X0064205Y0177517D01*
X0064226Y0177360D01*
X0064244Y0177203D01*
X0064258Y0177045D01*
X0064268Y0176887D01*
X0064274Y0176729D01*
X0064276Y0176571D01*
X0064274Y0176413D01*
X0064268Y0176255D01*
X0064258Y0176097D01*
X0064244Y0175939D01*
X0064226Y0175782D01*
X0064205Y0175625D01*
X0064179Y0175469D01*
X0064149Y0175313D01*
X0064116Y0175158D01*
X0064078Y0175005D01*
X0064037Y0174852D01*
X0063992Y0174700D01*
X0063943Y0174549D01*
X0063890Y0174400D01*
X0063834Y0174252D01*
X0063774Y0174106D01*
X0063710Y0173961D01*
X0063642Y0173818D01*
X0063571Y0173676D01*
X0063497Y0173536D01*
X0063419Y0173399D01*
X0063337Y0173263D01*
X0063253Y0173129D01*
X0063164Y0172998D01*
X0063073Y0172869D01*
X0062978Y0172742D01*
X0062881Y0172617D01*
X0062780Y0172495D01*
X0062676Y0172376D01*
X0062569Y0172259D01*
X0062459Y0172145D01*
X0062346Y0172034D01*
X0062231Y0171925D01*
X0062113Y0171820D01*
X0061992Y0171718D01*
X0061869Y0171618D01*
X0061743Y0171522D01*
X0061615Y0171429D01*
X0061485Y0171339D01*
X0061352Y0171253D01*
X0061217Y0171169D01*
X0061081Y0171090D01*
X0060942Y0171013D01*
X0060801Y0170941D01*
X0060659Y0170871D01*
X0060515Y0170806D01*
X0060369Y0170744D01*
X0060222Y0170686D01*
X0060073Y0170631D01*
X0059923Y0170580D01*
X0059772Y0170533D01*
X0059620Y0170490D01*
X0059467Y0170451D01*
X0059312Y0170415D01*
X0059157Y0170384D01*
X0059001Y0170356D01*
X0058845Y0170332D01*
X0058688Y0170312D01*
X0058530Y0170296D01*
X0058373Y0170284D01*
X0058214Y0170276D01*
X0058056Y0170272D01*
X0057898Y0170272D01*
X0057740Y0170276D01*
X0057581Y0170284D01*
X0057424Y0170296D01*
X0057266Y0170312D01*
X0057109Y0170332D01*
X0056953Y0170356D01*
X0056797Y0170384D01*
X0056642Y0170415D01*
X0056487Y0170451D01*
X0056334Y0170490D01*
X0056182Y0170533D01*
X0056031Y0170580D01*
X0055881Y0170631D01*
X0055732Y0170686D01*
X0055585Y0170744D01*
X0055439Y0170806D01*
X0055295Y0170871D01*
X0055153Y0170941D01*
X0055012Y0171013D01*
X0054873Y0171090D01*
X0054737Y0171169D01*
X0054602Y0171253D01*
X0054469Y0171339D01*
X0054339Y0171429D01*
X0054211Y0171522D01*
X0054085Y0171618D01*
X0053962Y0171718D01*
X0053841Y0171820D01*
X0053723Y0171925D01*
X0053608Y0172034D01*
X0053495Y0172145D01*
X0053385Y0172259D01*
X0053278Y0172376D01*
X0053174Y0172495D01*
X0053073Y0172617D01*
X0052976Y0172742D01*
X0052881Y0172869D01*
X0052790Y0172998D01*
X0052701Y0173129D01*
X0052617Y0173263D01*
X0052535Y0173399D01*
X0052457Y0173536D01*
X0052383Y0173676D01*
X0052312Y0173818D01*
X0052244Y0173961D01*
X0052180Y0174106D01*
X0052120Y0174252D01*
X0052064Y0174400D01*
X0052011Y0174549D01*
X0051962Y0174700D01*
X0051917Y0174852D01*
X0051876Y0175005D01*
X0051838Y0175158D01*
X0051805Y0175313D01*
X0051775Y0175469D01*
X0051749Y0175625D01*
X0051728Y0175782D01*
X0051710Y0175939D01*
X0051696Y0176097D01*
X0051686Y0176255D01*
X0051680Y0176413D01*
X0051678Y0176571D01*
X0189474Y0176571D02*
X0189476Y0176729D01*
X0189482Y0176887D01*
X0189492Y0177045D01*
X0189506Y0177203D01*
X0189524Y0177360D01*
X0189545Y0177517D01*
X0189571Y0177673D01*
X0189601Y0177829D01*
X0189634Y0177984D01*
X0189672Y0178137D01*
X0189713Y0178290D01*
X0189758Y0178442D01*
X0189807Y0178593D01*
X0189860Y0178742D01*
X0189916Y0178890D01*
X0189976Y0179036D01*
X0190040Y0179181D01*
X0190108Y0179324D01*
X0190179Y0179466D01*
X0190253Y0179606D01*
X0190331Y0179743D01*
X0190413Y0179879D01*
X0190497Y0180013D01*
X0190586Y0180144D01*
X0190677Y0180273D01*
X0190772Y0180400D01*
X0190869Y0180525D01*
X0190970Y0180647D01*
X0191074Y0180766D01*
X0191181Y0180883D01*
X0191291Y0180997D01*
X0191404Y0181108D01*
X0191519Y0181217D01*
X0191637Y0181322D01*
X0191758Y0181424D01*
X0191881Y0181524D01*
X0192007Y0181620D01*
X0192135Y0181713D01*
X0192265Y0181803D01*
X0192398Y0181889D01*
X0192533Y0181973D01*
X0192669Y0182052D01*
X0192808Y0182129D01*
X0192949Y0182201D01*
X0193091Y0182271D01*
X0193235Y0182336D01*
X0193381Y0182398D01*
X0193528Y0182456D01*
X0193677Y0182511D01*
X0193827Y0182562D01*
X0193978Y0182609D01*
X0194130Y0182652D01*
X0194283Y0182691D01*
X0194438Y0182727D01*
X0194593Y0182758D01*
X0194749Y0182786D01*
X0194905Y0182810D01*
X0195062Y0182830D01*
X0195220Y0182846D01*
X0195377Y0182858D01*
X0195536Y0182866D01*
X0195694Y0182870D01*
X0195852Y0182870D01*
X0196010Y0182866D01*
X0196169Y0182858D01*
X0196326Y0182846D01*
X0196484Y0182830D01*
X0196641Y0182810D01*
X0196797Y0182786D01*
X0196953Y0182758D01*
X0197108Y0182727D01*
X0197263Y0182691D01*
X0197416Y0182652D01*
X0197568Y0182609D01*
X0197719Y0182562D01*
X0197869Y0182511D01*
X0198018Y0182456D01*
X0198165Y0182398D01*
X0198311Y0182336D01*
X0198455Y0182271D01*
X0198597Y0182201D01*
X0198738Y0182129D01*
X0198877Y0182052D01*
X0199013Y0181973D01*
X0199148Y0181889D01*
X0199281Y0181803D01*
X0199411Y0181713D01*
X0199539Y0181620D01*
X0199665Y0181524D01*
X0199788Y0181424D01*
X0199909Y0181322D01*
X0200027Y0181217D01*
X0200142Y0181108D01*
X0200255Y0180997D01*
X0200365Y0180883D01*
X0200472Y0180766D01*
X0200576Y0180647D01*
X0200677Y0180525D01*
X0200774Y0180400D01*
X0200869Y0180273D01*
X0200960Y0180144D01*
X0201049Y0180013D01*
X0201133Y0179879D01*
X0201215Y0179743D01*
X0201293Y0179606D01*
X0201367Y0179466D01*
X0201438Y0179324D01*
X0201506Y0179181D01*
X0201570Y0179036D01*
X0201630Y0178890D01*
X0201686Y0178742D01*
X0201739Y0178593D01*
X0201788Y0178442D01*
X0201833Y0178290D01*
X0201874Y0178137D01*
X0201912Y0177984D01*
X0201945Y0177829D01*
X0201975Y0177673D01*
X0202001Y0177517D01*
X0202022Y0177360D01*
X0202040Y0177203D01*
X0202054Y0177045D01*
X0202064Y0176887D01*
X0202070Y0176729D01*
X0202072Y0176571D01*
X0202070Y0176413D01*
X0202064Y0176255D01*
X0202054Y0176097D01*
X0202040Y0175939D01*
X0202022Y0175782D01*
X0202001Y0175625D01*
X0201975Y0175469D01*
X0201945Y0175313D01*
X0201912Y0175158D01*
X0201874Y0175005D01*
X0201833Y0174852D01*
X0201788Y0174700D01*
X0201739Y0174549D01*
X0201686Y0174400D01*
X0201630Y0174252D01*
X0201570Y0174106D01*
X0201506Y0173961D01*
X0201438Y0173818D01*
X0201367Y0173676D01*
X0201293Y0173536D01*
X0201215Y0173399D01*
X0201133Y0173263D01*
X0201049Y0173129D01*
X0200960Y0172998D01*
X0200869Y0172869D01*
X0200774Y0172742D01*
X0200677Y0172617D01*
X0200576Y0172495D01*
X0200472Y0172376D01*
X0200365Y0172259D01*
X0200255Y0172145D01*
X0200142Y0172034D01*
X0200027Y0171925D01*
X0199909Y0171820D01*
X0199788Y0171718D01*
X0199665Y0171618D01*
X0199539Y0171522D01*
X0199411Y0171429D01*
X0199281Y0171339D01*
X0199148Y0171253D01*
X0199013Y0171169D01*
X0198877Y0171090D01*
X0198738Y0171013D01*
X0198597Y0170941D01*
X0198455Y0170871D01*
X0198311Y0170806D01*
X0198165Y0170744D01*
X0198018Y0170686D01*
X0197869Y0170631D01*
X0197719Y0170580D01*
X0197568Y0170533D01*
X0197416Y0170490D01*
X0197263Y0170451D01*
X0197108Y0170415D01*
X0196953Y0170384D01*
X0196797Y0170356D01*
X0196641Y0170332D01*
X0196484Y0170312D01*
X0196326Y0170296D01*
X0196169Y0170284D01*
X0196010Y0170276D01*
X0195852Y0170272D01*
X0195694Y0170272D01*
X0195536Y0170276D01*
X0195377Y0170284D01*
X0195220Y0170296D01*
X0195062Y0170312D01*
X0194905Y0170332D01*
X0194749Y0170356D01*
X0194593Y0170384D01*
X0194438Y0170415D01*
X0194283Y0170451D01*
X0194130Y0170490D01*
X0193978Y0170533D01*
X0193827Y0170580D01*
X0193677Y0170631D01*
X0193528Y0170686D01*
X0193381Y0170744D01*
X0193235Y0170806D01*
X0193091Y0170871D01*
X0192949Y0170941D01*
X0192808Y0171013D01*
X0192669Y0171090D01*
X0192533Y0171169D01*
X0192398Y0171253D01*
X0192265Y0171339D01*
X0192135Y0171429D01*
X0192007Y0171522D01*
X0191881Y0171618D01*
X0191758Y0171718D01*
X0191637Y0171820D01*
X0191519Y0171925D01*
X0191404Y0172034D01*
X0191291Y0172145D01*
X0191181Y0172259D01*
X0191074Y0172376D01*
X0190970Y0172495D01*
X0190869Y0172617D01*
X0190772Y0172742D01*
X0190677Y0172869D01*
X0190586Y0172998D01*
X0190497Y0173129D01*
X0190413Y0173263D01*
X0190331Y0173399D01*
X0190253Y0173536D01*
X0190179Y0173676D01*
X0190108Y0173818D01*
X0190040Y0173961D01*
X0189976Y0174106D01*
X0189916Y0174252D01*
X0189860Y0174400D01*
X0189807Y0174549D01*
X0189758Y0174700D01*
X0189713Y0174852D01*
X0189672Y0175005D01*
X0189634Y0175158D01*
X0189601Y0175313D01*
X0189571Y0175469D01*
X0189545Y0175625D01*
X0189524Y0175782D01*
X0189506Y0175939D01*
X0189492Y0176097D01*
X0189482Y0176255D01*
X0189476Y0176413D01*
X0189474Y0176571D01*
X0189474Y0038775D02*
X0189476Y0038933D01*
X0189482Y0039091D01*
X0189492Y0039249D01*
X0189506Y0039407D01*
X0189524Y0039564D01*
X0189545Y0039721D01*
X0189571Y0039877D01*
X0189601Y0040033D01*
X0189634Y0040188D01*
X0189672Y0040341D01*
X0189713Y0040494D01*
X0189758Y0040646D01*
X0189807Y0040797D01*
X0189860Y0040946D01*
X0189916Y0041094D01*
X0189976Y0041240D01*
X0190040Y0041385D01*
X0190108Y0041528D01*
X0190179Y0041670D01*
X0190253Y0041810D01*
X0190331Y0041947D01*
X0190413Y0042083D01*
X0190497Y0042217D01*
X0190586Y0042348D01*
X0190677Y0042477D01*
X0190772Y0042604D01*
X0190869Y0042729D01*
X0190970Y0042851D01*
X0191074Y0042970D01*
X0191181Y0043087D01*
X0191291Y0043201D01*
X0191404Y0043312D01*
X0191519Y0043421D01*
X0191637Y0043526D01*
X0191758Y0043628D01*
X0191881Y0043728D01*
X0192007Y0043824D01*
X0192135Y0043917D01*
X0192265Y0044007D01*
X0192398Y0044093D01*
X0192533Y0044177D01*
X0192669Y0044256D01*
X0192808Y0044333D01*
X0192949Y0044405D01*
X0193091Y0044475D01*
X0193235Y0044540D01*
X0193381Y0044602D01*
X0193528Y0044660D01*
X0193677Y0044715D01*
X0193827Y0044766D01*
X0193978Y0044813D01*
X0194130Y0044856D01*
X0194283Y0044895D01*
X0194438Y0044931D01*
X0194593Y0044962D01*
X0194749Y0044990D01*
X0194905Y0045014D01*
X0195062Y0045034D01*
X0195220Y0045050D01*
X0195377Y0045062D01*
X0195536Y0045070D01*
X0195694Y0045074D01*
X0195852Y0045074D01*
X0196010Y0045070D01*
X0196169Y0045062D01*
X0196326Y0045050D01*
X0196484Y0045034D01*
X0196641Y0045014D01*
X0196797Y0044990D01*
X0196953Y0044962D01*
X0197108Y0044931D01*
X0197263Y0044895D01*
X0197416Y0044856D01*
X0197568Y0044813D01*
X0197719Y0044766D01*
X0197869Y0044715D01*
X0198018Y0044660D01*
X0198165Y0044602D01*
X0198311Y0044540D01*
X0198455Y0044475D01*
X0198597Y0044405D01*
X0198738Y0044333D01*
X0198877Y0044256D01*
X0199013Y0044177D01*
X0199148Y0044093D01*
X0199281Y0044007D01*
X0199411Y0043917D01*
X0199539Y0043824D01*
X0199665Y0043728D01*
X0199788Y0043628D01*
X0199909Y0043526D01*
X0200027Y0043421D01*
X0200142Y0043312D01*
X0200255Y0043201D01*
X0200365Y0043087D01*
X0200472Y0042970D01*
X0200576Y0042851D01*
X0200677Y0042729D01*
X0200774Y0042604D01*
X0200869Y0042477D01*
X0200960Y0042348D01*
X0201049Y0042217D01*
X0201133Y0042083D01*
X0201215Y0041947D01*
X0201293Y0041810D01*
X0201367Y0041670D01*
X0201438Y0041528D01*
X0201506Y0041385D01*
X0201570Y0041240D01*
X0201630Y0041094D01*
X0201686Y0040946D01*
X0201739Y0040797D01*
X0201788Y0040646D01*
X0201833Y0040494D01*
X0201874Y0040341D01*
X0201912Y0040188D01*
X0201945Y0040033D01*
X0201975Y0039877D01*
X0202001Y0039721D01*
X0202022Y0039564D01*
X0202040Y0039407D01*
X0202054Y0039249D01*
X0202064Y0039091D01*
X0202070Y0038933D01*
X0202072Y0038775D01*
X0202070Y0038617D01*
X0202064Y0038459D01*
X0202054Y0038301D01*
X0202040Y0038143D01*
X0202022Y0037986D01*
X0202001Y0037829D01*
X0201975Y0037673D01*
X0201945Y0037517D01*
X0201912Y0037362D01*
X0201874Y0037209D01*
X0201833Y0037056D01*
X0201788Y0036904D01*
X0201739Y0036753D01*
X0201686Y0036604D01*
X0201630Y0036456D01*
X0201570Y0036310D01*
X0201506Y0036165D01*
X0201438Y0036022D01*
X0201367Y0035880D01*
X0201293Y0035740D01*
X0201215Y0035603D01*
X0201133Y0035467D01*
X0201049Y0035333D01*
X0200960Y0035202D01*
X0200869Y0035073D01*
X0200774Y0034946D01*
X0200677Y0034821D01*
X0200576Y0034699D01*
X0200472Y0034580D01*
X0200365Y0034463D01*
X0200255Y0034349D01*
X0200142Y0034238D01*
X0200027Y0034129D01*
X0199909Y0034024D01*
X0199788Y0033922D01*
X0199665Y0033822D01*
X0199539Y0033726D01*
X0199411Y0033633D01*
X0199281Y0033543D01*
X0199148Y0033457D01*
X0199013Y0033373D01*
X0198877Y0033294D01*
X0198738Y0033217D01*
X0198597Y0033145D01*
X0198455Y0033075D01*
X0198311Y0033010D01*
X0198165Y0032948D01*
X0198018Y0032890D01*
X0197869Y0032835D01*
X0197719Y0032784D01*
X0197568Y0032737D01*
X0197416Y0032694D01*
X0197263Y0032655D01*
X0197108Y0032619D01*
X0196953Y0032588D01*
X0196797Y0032560D01*
X0196641Y0032536D01*
X0196484Y0032516D01*
X0196326Y0032500D01*
X0196169Y0032488D01*
X0196010Y0032480D01*
X0195852Y0032476D01*
X0195694Y0032476D01*
X0195536Y0032480D01*
X0195377Y0032488D01*
X0195220Y0032500D01*
X0195062Y0032516D01*
X0194905Y0032536D01*
X0194749Y0032560D01*
X0194593Y0032588D01*
X0194438Y0032619D01*
X0194283Y0032655D01*
X0194130Y0032694D01*
X0193978Y0032737D01*
X0193827Y0032784D01*
X0193677Y0032835D01*
X0193528Y0032890D01*
X0193381Y0032948D01*
X0193235Y0033010D01*
X0193091Y0033075D01*
X0192949Y0033145D01*
X0192808Y0033217D01*
X0192669Y0033294D01*
X0192533Y0033373D01*
X0192398Y0033457D01*
X0192265Y0033543D01*
X0192135Y0033633D01*
X0192007Y0033726D01*
X0191881Y0033822D01*
X0191758Y0033922D01*
X0191637Y0034024D01*
X0191519Y0034129D01*
X0191404Y0034238D01*
X0191291Y0034349D01*
X0191181Y0034463D01*
X0191074Y0034580D01*
X0190970Y0034699D01*
X0190869Y0034821D01*
X0190772Y0034946D01*
X0190677Y0035073D01*
X0190586Y0035202D01*
X0190497Y0035333D01*
X0190413Y0035467D01*
X0190331Y0035603D01*
X0190253Y0035740D01*
X0190179Y0035880D01*
X0190108Y0036022D01*
X0190040Y0036165D01*
X0189976Y0036310D01*
X0189916Y0036456D01*
X0189860Y0036604D01*
X0189807Y0036753D01*
X0189758Y0036904D01*
X0189713Y0037056D01*
X0189672Y0037209D01*
X0189634Y0037362D01*
X0189601Y0037517D01*
X0189571Y0037673D01*
X0189545Y0037829D01*
X0189524Y0037986D01*
X0189506Y0038143D01*
X0189492Y0038301D01*
X0189482Y0038459D01*
X0189476Y0038617D01*
X0189474Y0038775D01*
M02*
